<svg xmlns="http://www.w3.org/2000/svg" viewBox="0 0 353.11 167.12"><defs><style>.cls-1{fill:#fff;}</style></defs><g id="Capa_2" data-name="Capa 2"><g id="Capa_1-2" data-name="Capa 1"><path class="cls-1" d="M8,117.18H10.8l8,18.46H15l-1.71-4.24h-8l-1.72,4.24H0Zm4.14,11.4-2.83-7.47-2.92,7.47Z"/><path class="cls-1" d="M19.88,123.13H22.8v1.92h.1a3.83,3.83,0,0,1,3.84-2.22,4,4,0,0,1,3.93,2.32,4.31,4.31,0,0,1,4.14-2.32c3.33,0,4.54,2.42,4.54,5.35v7.46H36.22v-7.06c0-1.51-.51-2.93-2.32-2.93s-2.73,1.62-2.73,3.23v6.76H28.05v-7.46c0-1.52-.61-2.53-2.12-2.53-2,0-2.83,1.52-2.83,3.23v6.86H20l-.1-12.61Z"/><path class="cls-1" d="M44.09,130.5a3.21,3.21,0,0,0,3.33,2.92,3.8,3.8,0,0,0,3.33-1.71L53,133.42a6.61,6.61,0,0,1-5.35,2.52,6.56,6.56,0,1,1,0-13.11c3.53,0,5.85,2.42,5.85,6.76v.91Zm6.46-2.32c0-1.82-1.22-2.93-3.23-2.93a3.13,3.13,0,0,0-3.23,2.93Z"/><path class="cls-1" d="M55.49,123.13h3.13v2h0a4,4,0,0,1,3.73-2.32,3.66,3.66,0,0,1,1.11.2v3a7.92,7.92,0,0,0-1.51-.2A3.14,3.14,0,0,0,58.62,129v6.66H55.49V123.13Z"/><path class="cls-1" d="M66.69,117a1.92,1.92,0,1,1,0,3.83,2,2,0,0,1-2-1.92A2.08,2.08,0,0,1,66.69,117Zm-1.52,6.15H68.3v12.51H65.17Z"/><path class="cls-1" d="M79.4,126.86A3.18,3.18,0,0,0,77,125.65a3.58,3.58,0,0,0-3.63,3.74A3.64,3.64,0,0,0,77,133.12a2.87,2.87,0,0,0,2.42-1.21l2.12,2.22A6.94,6.94,0,0,1,77,135.84a6.56,6.56,0,1,1,0-13.11,6.16,6.16,0,0,1,4.54,1.92Z"/><path class="cls-1" d="M90.7,133.93h0a4.77,4.77,0,0,1-4.14,2c-2.32,0-4.54-1.31-4.54-3.73,0-4,4.74-4.34,7.87-4.34h.81v-.3c0-1.51-1.21-2.32-2.83-2.32a4.77,4.77,0,0,0-3.33,1.31L82.93,125a7.39,7.39,0,0,1,5.35-2c5.34,0,5.34,3.83,5.34,5.65v7.16H90.8l-.1-1.81Zm-.1-3.84H90c-1.71,0-4.74.1-4.74,1.92,0,1.11,1.21,1.61,2.22,1.61,2.12,0,3.13-1.11,3.13-2.82v-.71Z"/><path class="cls-1" d="M96.35,123.13h3v2h0a4,4,0,0,1,3.83-2.32c3.33,0,4.54,2.42,4.54,4.94v7.87h-3.13v-6.35c0-1.42-.1-3.64-2.32-3.64-2,0-2.82,1.52-2.82,3.23v6.86H96.35V123.13Z"/><path class="cls-1" d="M128.94,121.52A5.11,5.11,0,0,0,125,119.7a6.26,6.26,0,0,0-6.36,6.56c0,3.93,2.53,6.86,6.36,6.86a5.25,5.25,0,0,0,4.14-2.22l2.72,1.92a8.14,8.14,0,0,1-6.86,3.33c-5.65,0-9.79-3.84-9.79-9.59,0-6,4-9.78,9.79-9.78a8,8,0,0,1,6.46,2.92Z"/><path class="cls-1" d="M139.43,122.83a6.56,6.56,0,1,1-6.76,6.56A6.47,6.47,0,0,1,139.43,122.83Zm0,10.29a3.57,3.57,0,0,0,3.63-3.73,3.64,3.64,0,0,0-3.63-3.74,3.58,3.58,0,0,0-3.63,3.74A3.52,3.52,0,0,0,139.43,133.12Z"/><path class="cls-1" d="M148.21,116h3.12v19.67h-3.12Z"/><path class="cls-1" d="M154.46,116h3.13v19.67h-3.13Z"/><path class="cls-1" d="M163.14,130.5a3.21,3.21,0,0,0,3.33,2.92,3.8,3.8,0,0,0,3.33-1.71l2.21,1.71a6.52,6.52,0,0,1-5.24,2.52c-3.84,0-6.86-2.62-6.86-6.55s3-6.56,6.86-6.56c3.53,0,5.85,2.42,5.85,6.76v.91Zm6.45-2.32c0-1.82-1.21-2.93-3.22-2.93a3.13,3.13,0,0,0-3.23,2.93Z"/><path class="cls-1" d="M187.45,123.13v11.4c0,4.54-2.22,7.37-7.06,7.37a9.37,9.37,0,0,1-6.26-2l1.92-2.52a6.09,6.09,0,0,0,4.34,1.81c3,0,3.93-1.71,3.93-4.23V134h-.1a5.14,5.14,0,0,1-4.13,1.81,6.14,6.14,0,0,1-6.26-6.45c0-3.74,2.32-6.56,6.16-6.56a4.93,4.93,0,0,1,4.33,2.22h0v-1.92Zm-10.39,6.26a3.62,3.62,0,0,0,3.63,3.63,3.52,3.52,0,0,0,3.73-3.63,3.47,3.47,0,0,0-3.73-3.63A3.38,3.38,0,0,0,177.06,129.39Z"/><path class="cls-1" d="M192.39,130.5a3.22,3.22,0,0,0,3.33,2.92,3.77,3.77,0,0,0,3.33-1.71l2.22,1.71A6.65,6.65,0,1,1,196,122.83c3.53,0,5.85,2.42,5.85,6.76v.91Zm6.46-2.32c0-1.82-1.21-2.93-3.23-2.93a3.14,3.14,0,0,0-3.23,2.93Z"/><path class="cls-1" d="M216.71,122.83c3.83,0,6.86,2.62,6.86,6.56s-3,6.55-6.86,6.55a6.47,6.47,0,0,1-6.76-6.55C209.85,125.45,212.87,122.83,216.71,122.83Zm0,10.29a3.57,3.57,0,0,0,3.63-3.73,3.64,3.64,0,0,0-3.63-3.74,3.58,3.58,0,0,0-3.63,3.74A3.46,3.46,0,0,0,216.71,133.12Z"/><path class="cls-1" d="M226,125.76h-2.62v-2.63H226v-1.81c0-3.43.81-5.75,4.64-5.75a13.82,13.82,0,0,1,2,.2l-.2,2.62a6,6,0,0,0-1.31-.2c-1.72,0-2,1.21-2,2.62V123H232v2.62h-2.92v9.89H226v-9.78Z"/><path class="cls-1" d="M241,117.18h6.26c3.53,0,6.76,1.21,6.76,5.35,0,4.64-3.43,5.44-7.37,5.44h-2.32v7.67H241V117.18Zm5.25,8.07c1.92,0,4.34-.1,4.34-2.62,0-2.32-2.12-2.63-3.94-2.63h-2.32v5.15h1.92Z"/><path class="cls-1" d="M258.68,124.85h0a4.07,4.07,0,0,1,3.73-2c3.33,0,4.54,2.42,4.54,4.94v7.87h-3v-6.35c0-1.42-.1-3.64-2.32-3.64-2,0-2.82,1.52-2.82,3.23v6.86h-3.13V116.07h3.13l-.1,8.78Z"/><path class="cls-1" d="M267.76,123.13h3.43l3.53,8.68h.1l3.13-8.68h3.23l-6,15.24c-.9,2.32-2,3.53-4.74,3.53a9.56,9.56,0,0,1-2.42-.31l.4-2.82a4.25,4.25,0,0,0,1.62.3c1.51,0,1.92-.5,2.52-1.81l.61-1.52Z"/><path class="cls-1" d="M288.64,126.56a3,3,0,0,0-2.42-1.31c-.81,0-1.82.4-1.82,1.31,0,2.22,6.76.41,6.76,5.25,0,2.92-2.82,4-5.44,4a6.05,6.05,0,0,1-4.85-1.91L283,132a3.68,3.68,0,0,0,2.93,1.51c.91,0,2.12-.4,2.12-1.41,0-2.62-6.76-.5-6.76-5.35,0-2.82,2.52-4,5-4a5.22,5.22,0,0,1,4.44,1.92Z"/><path class="cls-1" d="M294.59,117a1.92,1.92,0,1,1,0,3.83,2,2,0,0,1-2-1.92A2.07,2.07,0,0,1,294.59,117Zm-1.51,6.15h3.13v12.51h-3.13Z"/><path class="cls-1" d="M307.31,126.86a3.19,3.19,0,0,0-2.42-1.21,3.58,3.58,0,0,0-3.64,3.74,3.64,3.64,0,0,0,3.64,3.73,2.88,2.88,0,0,0,2.42-1.21l2.11,2.22a6.94,6.94,0,0,1-4.53,1.71,6.56,6.56,0,1,1,0-13.11,6.14,6.14,0,0,1,4.53,1.92Z"/><path class="cls-1" d="M311.85,117a1.92,1.92,0,1,1,0,3.83,2,2,0,0,1-2-1.92A2.08,2.08,0,0,1,311.85,117Zm-1.52,6.15h3.13v12.51h-3.13Z"/><path class="cls-1" d="M323.85,133.93h0a4.76,4.76,0,0,1-4.13,2c-2.32,0-4.54-1.31-4.54-3.73,0-4,4.74-4.34,7.86-4.34h.81v-.3c0-1.51-1.21-2.32-2.82-2.32a4.77,4.77,0,0,0-3.33,1.31L316.08,125a7.41,7.41,0,0,1,5.35-2c5.35,0,5.35,3.83,5.35,5.65v7.16H324v-1.81Zm-.2-3.84H323c-1.71,0-4.74.1-4.74,1.92,0,1.11,1.21,1.61,2.22,1.61,2.12,0,3.13-1.11,3.13-2.82v-.71Z"/><path class="cls-1" d="M329.5,123.13h2.93v2h.1a4,4,0,0,1,3.83-2.32c3.33,0,4.54,2.42,4.54,4.94v7.87h-3.13v-6.35c0-1.42-.1-3.64-2.32-3.64-2,0-2.82,1.52-2.82,3.23v6.86H329.5Z"/><path class="cls-1" d="M350.08,126.56a3,3,0,0,0-2.42-1.31c-.81,0-1.81.4-1.81,1.31,0,2.22,6.76.41,6.76,5.25,0,2.92-2.83,4-5.45,4a6.07,6.07,0,0,1-4.85-1.91l2.12-1.92a3.68,3.68,0,0,0,2.93,1.51c.91,0,2.12-.4,2.12-1.41,0-2.62-6.76-.5-6.76-5.35,0-2.82,2.52-4,5-4a5.22,5.22,0,0,1,4.44,1.92Z"/><path class="cls-1" d="M.61,148.15H2.42V160H8.58v1.71H.5V148.15Z"/><path class="cls-1" d="M11.2,157.84a2.83,2.83,0,0,0,3,2.62,3.31,3.31,0,0,0,2.52-1.31l1.31,1A4.81,4.81,0,0,1,14,162a4.47,4.47,0,0,1-4.64-4.74A4.53,4.53,0,0,1,14,152.49c3.23,0,4.44,2.42,4.44,4.74v.61Zm5.35-1.41a2.44,2.44,0,0,0-2.63-2.63,2.78,2.78,0,0,0-2.82,2.63Z"/><path class="cls-1" d="M20.38,153.8A5.19,5.19,0,0,1,24,152.49c2.62,0,3.73,1.41,3.73,3v4.64a7,7,0,0,0,.11,1.61H26.33c0-.5-.1-.91-.1-1.41h0A3.4,3.4,0,0,1,23.1,162c-1.71,0-3.12-.9-3.12-2.72,0-2.32,2.22-3.13,4.94-3.13h1.21v-.4A2,2,0,0,0,24,153.8a4.49,4.49,0,0,0-2.62,1Zm4.84,3.53c-1.61,0-3.63.31-3.63,1.72,0,1,.81,1.51,1.92,1.51a2.47,2.47,0,0,0,2.62-2.62v-.61Z"/><path class="cls-1" d="M39.14,161.67H37.43v-1.31h0a3.78,3.78,0,0,1-3.13,1.51,4.53,4.53,0,0,1-4.64-4.74,4.48,4.48,0,0,1,4.64-4.74,3.78,3.78,0,0,1,3.13,1.51h0v-6.66h1.71Zm-1.71-4.54a3,3,0,1,0-3,3.13A2.84,2.84,0,0,0,37.43,157.13Z"/><path class="cls-1" d="M42.57,148.15a1.21,1.21,0,1,1-1.21,1.21A1.17,1.17,0,0,1,42.57,148.15Zm-.9,4.54h1.71v9.08H41.67Z"/><path class="cls-1" d="M46,152.69h1.71v1.41h0a3.29,3.29,0,0,1,3-1.61,3.15,3.15,0,0,1,3.33,3.43v5.85H52.36v-5.34c0-1.72-1-2.33-2-2.33-1.41,0-2.52.91-2.52,3v4.64H46Z"/><path class="cls-1" d="M65.07,161.57c0,2.72-2,4.64-4.94,4.64a6.06,6.06,0,0,1-4.44-1.61l1.21-1.42a4.46,4.46,0,0,0,3.23,1.52,2.88,2.88,0,0,0,3.23-3.13v-1.31h-.1a3.51,3.51,0,0,1-3.13,1.61,4.56,4.56,0,0,1-4.64-4.64,4.47,4.47,0,0,1,4.64-4.74A4,4,0,0,1,63.26,154h0v-1.31H65l.1,8.88Zm-7.66-4.44a3,3,0,1,0,6,0A2.87,2.87,0,0,0,60.43,154,2.94,2.94,0,0,0,57.41,157.13Z"/><path class="cls-1" d="M72.74,148.15h1.82v13.52H72.74Z"/><path class="cls-1" d="M77.48,152.69H79.2v1.41h0a3.23,3.23,0,0,1,2.92-1.61,3.14,3.14,0,0,1,3.33,3.43v5.85H83.74v-5.34c0-1.72-1-2.33-2-2.33-1.41,0-2.52.91-2.52,3v4.64H77.48v-9.08Z"/><path class="cls-1" d="M92.41,154.1H90v4.14c0,1,0,2.12,1.31,2.12a2.39,2.39,0,0,0,1.21-.3v1.51a4.49,4.49,0,0,1-1.51.3c-2.62,0-2.72-1.61-2.72-3V154.1h-2v-1.51h2v-2.52H90v2.52h2.42v1.51Z"/><path class="cls-1" d="M95.74,157.84a2.84,2.84,0,0,0,3,2.62,3.28,3.28,0,0,0,2.52-1.31l1.31,1a4.79,4.79,0,0,1-4,1.81,4.47,4.47,0,0,1-4.64-4.74,4.53,4.53,0,0,1,4.64-4.74c3.23,0,4.44,2.42,4.44,4.74v.61Zm5.45-1.41a2.44,2.44,0,0,0-2.62-2.63,2.78,2.78,0,0,0-2.83,2.63Z"/><path class="cls-1" d="M104.52,152.69h1.72v1.41h0a3.14,3.14,0,0,1,2.72-1.61,2.28,2.28,0,0,1,.81.1l-.1,1.82a2.57,2.57,0,0,0-.81-.1c-1.72,0-2.62.9-2.62,2.92v4.54h-1.72v-9.08Z"/><path class="cls-1" d="M111.38,152.69h1.72v1.41h0a3.23,3.23,0,0,1,2.92-1.61,3.14,3.14,0,0,1,3.33,3.43v5.85h-1.71v-5.34c0-1.72-1-2.33-2-2.33-1.41,0-2.52.91-2.52,3v4.64h-1.72v-9.08Z"/><path class="cls-1" d="M121.47,153.8a5.19,5.19,0,0,1,3.63-1.31c2.62,0,3.73,1.41,3.73,3v4.64a7,7,0,0,0,.11,1.61h-1.52c0-.5-.1-.91-.1-1.41h0a3.4,3.4,0,0,1-3.13,1.61c-1.71,0-3.12-.9-3.12-2.72,0-2.32,2.22-3.13,4.94-3.13h1.21v-.4a2,2,0,0,0-2.12-1.92,4.49,4.49,0,0,0-2.62,1Zm4.84,3.53c-1.61,0-3.63.31-3.63,1.72,0,1,.81,1.51,1.92,1.51a2.47,2.47,0,0,0,2.62-2.62v-.61Z"/><path class="cls-1" d="M131.26,147.24H133v14.43h-1.71Z"/><path class="cls-1" d="M140.34,148.15h2.72l4.34,10.19h.1l4.24-10.19h2.72v13.52h-1.82v-11.1h0l-4.54,11.1h-1.21l-4.54-11.1h0v11.1h-1.81l-.2-13.52Z"/><path class="cls-1" d="M158,157.84a2.83,2.83,0,0,0,3,2.62,3.3,3.3,0,0,0,2.52-1.31l1.31,1a4.81,4.81,0,0,1-4,1.81,4.47,4.47,0,0,1-4.64-4.74,4.53,4.53,0,0,1,4.64-4.74c3.22,0,4.44,2.42,4.44,4.74v.61Zm5.45-1.41a2.44,2.44,0,0,0-2.62-2.63,2.78,2.78,0,0,0-2.83,2.63Z"/><path class="cls-1" d="M175.85,161.67h-1.72v-1.31h0a3.75,3.75,0,0,1-3.12,1.51,4.53,4.53,0,0,1-4.64-4.74,4.47,4.47,0,0,1,4.64-4.74,3.75,3.75,0,0,1,3.12,1.51h0v-6.66h1.72Zm-1.72-4.54a2.87,2.87,0,0,0-2.92-3.13,3,3,0,0,0-3,3.13,2.89,2.89,0,0,0,3,3.13C173.12,160.26,174.13,159.05,174.13,157.13Z"/><path class="cls-1" d="M179.28,148.15a1.21,1.21,0,0,1,0,2.42,1.29,1.29,0,0,1-1.21-1.21A1.23,1.23,0,0,1,179.28,148.15Zm-.91,4.54h1.72v9.08h-1.72Z"/><path class="cls-1" d="M189.17,155a2.76,2.76,0,0,0-2.22-1c-1.92,0-2.83,1.52-2.83,3.23a2.83,2.83,0,0,0,2.93,3,2.72,2.72,0,0,0,2.22-1l1.21,1.21a4.42,4.42,0,0,1-3.43,1.41,4.74,4.74,0,0,1,0-9.48,4.63,4.63,0,0,1,3.43,1.41Z"/><path class="cls-1" d="M192.7,148.15a1.21,1.21,0,1,1,0,2.42,1.22,1.22,0,0,1-1.21-1.21A1.3,1.3,0,0,1,192.7,148.15Zm-.81,4.54h1.72v9.08h-1.72Z"/><path class="cls-1" d="M196.13,152.69h1.71v1.41h0a3.31,3.31,0,0,1,3-1.61,3.08,3.08,0,0,1,3.23,3.43v5.85h-1.72v-5.34c0-1.72-1-2.33-2-2.33-1.41,0-2.52.91-2.52,3v4.64h-1.71Z"/><path class="cls-1" d="M207.93,157.84a2.83,2.83,0,0,0,3,2.62,3.3,3.3,0,0,0,2.52-1.31l1.31,1a4.81,4.81,0,0,1-4,1.81,4.47,4.47,0,0,1-4.64-4.74,4.53,4.53,0,0,1,4.64-4.74c3.22,0,4.44,2.42,4.44,4.74v.61Zm5.45-1.41a2.44,2.44,0,0,0-2.62-2.63,2.78,2.78,0,0,0-2.83,2.63Z"/><path class="cls-1" d="M217.11,164.19H215.5l1.31-4.74h1.82Z"/><path class="cls-1" d="M223.57,148.15h1.81v13.52h-1.81Z"/><path class="cls-1" d="M228.31,152.69h1.61v1.41h0a3.41,3.41,0,0,1,2.93-1.61,3,3,0,0,1,2.83,1.72,3.34,3.34,0,0,1,2.82-1.72c2.83,0,3.43,2,3.43,4v5.24h-1.71v-5c0-1.41-.31-2.63-1.92-2.63s-2.32,1.11-2.32,2.73v4.94h-1.72V157c0-1.71-.2-2.93-1.91-2.93-1.21,0-2.32.91-2.32,3v4.64h-1.72v-9.08Z"/><path class="cls-1" d="M244.45,152.69h1.72V154h0a3.76,3.76,0,0,1,3.13-1.51,4.53,4.53,0,0,1,4.64,4.74A4.47,4.47,0,0,1,249.3,162a3.76,3.76,0,0,1-3.13-1.51h0v6.66h-1.72Zm1.72,4.44a2.86,2.86,0,0,0,2.92,3.13,2.94,2.94,0,0,0,3-3.13,3,3,0,1,0-6,0Z"/><path class="cls-1" d="M255.85,152.69h1.72v1.41h0a3.14,3.14,0,0,1,2.72-1.61,2.26,2.26,0,0,1,.81.1l-.1,1.82a2.54,2.54,0,0,0-.81-.1c-1.71,0-2.62.9-2.62,2.92v4.54h-1.72v-9.08Z"/><path class="cls-1" d="M266.45,152.39a4.74,4.74,0,1,1-4.85,4.74A4.76,4.76,0,0,1,266.45,152.39Zm0,8a2.94,2.94,0,0,0,3-3.13,3,3,0,1,0-3,3.13Z"/><path class="cls-1" d="M271.79,152.69h2l2.73,7,2.62-7H281l-3.53,9.08h-1.91Z"/><path class="cls-1" d="M283.19,148.15a1.21,1.21,0,0,1,0,2.42,1.21,1.21,0,0,1,0-2.42Zm-.8,4.54h1.71v9.08h-1.71Z"/><path class="cls-1" d="M286.62,152.69h1.72v1.41h0a3.29,3.29,0,0,1,3-1.61,3.15,3.15,0,0,1,3.33,3.43v5.85H293v-5.34c0-1.72-1-2.33-2-2.33-1.41,0-2.52.91-2.52,3v4.64h-1.71l-.11-9.08Z"/><path class="cls-1" d="M305.79,161.57c0,2.72-2,4.64-4.94,4.64a6.06,6.06,0,0,1-4.44-1.61l1.21-1.42a4.46,4.46,0,0,0,3.23,1.52,2.88,2.88,0,0,0,3.23-3.13v-1.31H304a3.51,3.51,0,0,1-3.13,1.61,4.56,4.56,0,0,1-4.64-4.64,4.47,4.47,0,0,1,4.64-4.74A4,4,0,0,1,304,154h0v-1.31h1.71l.1,8.88Zm-7.66-4.44a2.78,2.78,0,0,0,2.92,3,2.86,2.86,0,0,0,3-3,3,3,0,1,0-5.95,0Z"/><path class="cls-1" d="M312.65,148.15h1.82V160h6.15v1.71h-8.07V148.15Z"/><path class="cls-1" d="M322.94,148.15a1.33,1.33,0,0,1,1.32,1.21,1.25,1.25,0,0,1-1.32,1.21,1.21,1.21,0,0,1,0-2.42Zm-.8,4.54h1.71v9.08h-1.71Z"/><path class="cls-1" d="M325.37,152.69h2l2.73,7,2.62-7h1.82L331,161.77H329.1Z"/><path class="cls-1" d="M337.07,157.84a2.83,2.83,0,0,0,3,2.62,3.31,3.31,0,0,0,2.52-1.31l1.31,1a4.81,4.81,0,0,1-4,1.81,4.47,4.47,0,0,1-4.64-4.74,4.53,4.53,0,0,1,4.64-4.74c3.23,0,4.44,2.42,4.44,4.74v.61Zm5.45-1.41a2.44,2.44,0,0,0-2.63-2.63,2.78,2.78,0,0,0-2.82,2.63Z"/><path class="cls-1" d="M351.09,154.91a2.3,2.3,0,0,0-1.81-.91c-.81,0-1.52.41-1.52,1,0,1.11,1.52,1.21,2.32,1.42,1.52.4,2.63.9,2.63,2.62,0,2-1.92,2.82-3.64,2.82a4,4,0,0,1-3.53-1.61l1.31-1.11a3.19,3.19,0,0,0,2.22,1.11c.91,0,1.82-.4,1.82-1.11,0-1-1.41-1.21-2.22-1.41-1.51-.41-2.72-.81-2.72-2.63s1.71-2.82,3.43-2.82a3.51,3.51,0,0,1,3.12,1.51Z"/><path class="cls-1" d="M159.27,5.49h13.31l37.31,86.42H192.33l-8.09-19.75H146.79L139,91.91H121.68ZM178.75,59,165.44,23.87,151.86,59Z"/><path class="cls-1" d="M270.8,25.65c-6.31-6.72-12.21-8.5-18.25-8.5-17.83,0-29.63,13.72-29.63,30.86,0,18.39,11.8,32.1,29.63,32.1,7,0,13.72-3.15,19.48-10.56l12.76,9.06C277,89.31,265.31,94,252.55,94c-26.61,0-45.68-18.11-45.68-45.13C206.87,21.13,225.94,3,252.55,3c11.66,0,21.81,3.84,30.32,13.72Z"/><path class="cls-1" d="M292.2,5.49h29.08c16.74,0,31.83,5.9,31.83,25,0,21.68-16.19,25.66-34.57,25.66h-11v35.8H292.2V5.49Zm24.69,37.45c8.78,0,20.17-.55,20.17-12.21,0-10.56-10.15-12.07-18.39-12.07h-11V42.94Z"/><path class="cls-1" d="M84.89,29.8A17.14,17.14,0,1,0,62,45.86a14.48,14.48,0,0,0,1.39-2.32,15.48,15.48,0,0,0,.93-1.7,12.28,12.28,0,1,1,6,.31,2.76,2.76,0,0,0,1.08-.31h0s-.15.47-.61,2a16.86,16.86,0,0,1-1.24,2.93A17.07,17.07,0,0,0,84.89,29.8Z"/><path class="cls-1" d="M85.81,0H12A11.73,11.73,0,0,0,.27,11.73V85.54A11.73,11.73,0,0,0,12,97.27h73.8A11.73,11.73,0,0,0,97.55,85.54V11.73A11.73,11.73,0,0,0,85.81,0Zm9.58,50.8V85.54a9.62,9.62,0,0,1-9.58,9.57H25.44c-3.55-.46-8-2.32-9.73-3.86-4-3.4-4-11.58-1.08-14.67a10.68,10.68,0,0,1,4.17-3.09c2.78-1.08,3.71-1.38,10-3.39,11.58-3.71,20.07-6.18,24.86-7.88.15,0,.31-.15.46-.15a24.44,24.44,0,0,0,10-7,50.53,50.53,0,0,0,5.55-8.18A23,23,0,0,0,71,44c.46-1.39.62-2,.62-2h0c-.31.15-.77.15-1.08.31h-.31a6.56,6.56,0,0,0-.77.15H66.51a.57.57,0,0,1-.46-.15A4.64,4.64,0,0,1,64.66,42a15.48,15.48,0,0,1-.93,1.7L62.34,46a12.87,12.87,0,0,1-5.55,4c-1.09.46-8,.61-17.92.77S15.71,51,2.59,51v-3.7H28.22a1.43,1.43,0,0,0,1.24-2c-.93-1.85-1.24-2.32-1.7-3.24-1.39-2.63-3.86.61-6.49-3.55-1.85-2.94-6.64-4.94-9.42-5.56a3.9,3.9,0,0,0,.93-2.63,4.17,4.17,0,1,0-7.41,2.63,15.39,15.39,0,0,0-2.93.92V11.89A9.62,9.62,0,0,1,12,2.32h73.8a9.62,9.62,0,0,1,9.58,9.57Z"/><path class="cls-1" d="M71.76,26.71a32.54,32.54,0,0,0-3.86-6,33.14,33.14,0,0,0-3.86,6,11.44,11.44,0,0,0-1.54,6.64c.15,2.32,2.31,5.4,5.09,5.4h.93c2.78,0,4.79-3.08,5.09-5.4A18.7,18.7,0,0,0,71.76,26.71Zm-.77,8c-.15,1.24-1.39,3.09-2.93,3.09h-.47c-1.54,0-2.78-1.85-2.93-3.09a7.71,7.71,0,0,1,.93-3.86,21.88,21.88,0,0,1,2.31-3.55l.08.1.08-.1a21.88,21.88,0,0,1,2.31,3.55A9.08,9.08,0,0,1,71,34.74Z"/></g></g></svg>