<svg xmlns="http://www.w3.org/2000/svg" viewBox="0 0 377 300.71"><defs><style>.cls-1{fill:#2a9199;}</style></defs><g id="Capa_2" data-name="Capa 2"><g id="Capa_1-2" data-name="Capa 1"><path class="cls-1" d="M262.74,145.65l22.95,23.65a2.05,2.05,0,0,0,1.47.62h11.53a3.31,3.31,0,0,0,3.31-3.31V111.37a127.3,127.3,0,0,0,27.85,0c13.14-1.46,21.5-2.38,30-8.57a43,43,0,0,0,15-20.71c4.07-12.11,1.43-22.52,0-27.84A54,54,0,0,0,372,46.19a29.65,29.65,0,0,0-5.89-8.63q-11.69-12-23.36-24c11.56,16.27,14.92,35.76,7.85,50.69A46,46,0,0,1,334.84,82.1c-3.25,2-7.71,4.94-17.84,5.72a220,220,0,0,1-37.84,0v55.05a2.78,2.78,0,0,1-2.79,2.78Z"/><path class="cls-1" d="M279.16,72.82V15.71a101.75,101.75,0,0,1,27.84,0c9.43,1.32,15.48,2.25,20.71,7.14,6.09,5.7,7.46,13.44,7.85,17.13H304.14V73.57Z"/><path class="cls-1" d="M179.92,61.4H157.07V26.87a14,14,0,0,1,.53-4,11.32,11.32,0,0,1,2.33-4.33c3.46-3.93,9-4.18,12.13-4.28,20-.62,40.29-.7,46.79-.71a1.77,1.77,0,0,0,1.76-1.77V0c7.62,7.85,15.95,16.42,23.56,24.27.19,3.74-.06,7-.07,10.58a3,3,0,0,1-3,3H195.58A15.59,15.59,0,0,0,180,53.55C180,56.16,180,58.78,179.92,61.4Z"/><path class="cls-1" d="M180.63,129.94H172a15,15,0,0,1-15-15V77.11h60.72a2.83,2.83,0,0,0,2.82-2.83V63.54c7.62,7.86,15.95,16.42,23.56,24.28.19,3.73-.06,7-.07,10.58a3,3,0,0,1-3,3H180.63Z"/><path class="cls-1" d="M149.22,137.08c1.87,2.16,16.14,18.5,27.84,26.42a32.57,32.57,0,0,0,10.71,5c5.09,1.27,14.19.72,15.71.72h40.7q0-6.78,0-13.57c-7.61-8.09-14.51-16.18-22.13-24.27,0,4.53,0,9.76,0,14.29-7.63.77-17,.43-26.41,0A175.52,175.52,0,0,1,149.22,137.08Z"/><path class="cls-1" d="M73.78,0l42,141.24a3.18,3.18,0,0,1-3.05,4.09H99.31l23.85,24.59h12.75a4.37,4.37,0,0,0,3-1.16h0a4.37,4.37,0,0,0,1.24-4.41L101.93,30.69a17.87,17.87,0,0,0-4.75-7.94Z"/><path class="cls-1" d="M79.7,79l-20-68.6a3.06,3.06,0,0,0-5.89,0L35.08,79Z"/><path class="cls-1" d="M30,97.63,17.74,142.54a3.78,3.78,0,0,1-3.65,2.79H0l24.4,24.59H38.83a3.8,3.8,0,0,0,3.66-2.8L55.15,120H91.67L85.14,97.63Z"/><path class="cls-1" d="M19.6,247.2l-2.08-7.91H7.08L5,247.2H.79l9-31.11h5.15l9,31.11ZM7.93,236h8.73l-4.34-16.55Z"/><path class="cls-1" d="M41.4,225.54l-1.72,2.4A13.82,13.82,0,0,0,37,226.45a7,7,0,0,0-2.66-.5,4.43,4.43,0,0,0-2.92.88,3,3,0,0,0-1.06,2.42,2.93,2.93,0,0,0,1,2.35,12.21,12.21,0,0,0,3.87,1.76,13,13,0,0,1,5.2,2.76A6,6,0,0,1,42,240.6a6.36,6.36,0,0,1-2.44,5.27,9.6,9.6,0,0,1-6.11,1.92,11.38,11.38,0,0,1-8.18-3.21l2.08-2.26a9.45,9.45,0,0,0,6,2.3,4.92,4.92,0,0,0,3.21-1,3.34,3.34,0,0,0,1.22-2.76,4.11,4.11,0,0,0-.43-2,3.67,3.67,0,0,0-1.53-1.38,18.59,18.59,0,0,0-3.24-1.29,11.79,11.79,0,0,1-4.88-2.72,5.59,5.59,0,0,1-1.49-4,6,6,0,0,1,1-3.39A6.71,6.71,0,0,1,30,223.69a9.23,9.23,0,0,1,4.07-.86A11.06,11.06,0,0,1,41.4,225.54Z"/><path class="cls-1" d="M62.6,226q2.54,3.21,2.53,9.22c0,3.86-.85,6.91-2.57,9.16a8.44,8.44,0,0,1-7.1,3.37,8.48,8.48,0,0,1-7.12-3.3q-2.56-3.3-2.56-9.18t2.58-9.2a8.57,8.57,0,0,1,7.14-3.28A8.52,8.52,0,0,1,62.6,226Zm-11.17,2.28q-1.4,2.24-1.4,7,0,9.27,5.43,9.27t5.42-9.32q0-4.74-1.35-7a4.43,4.43,0,0,0-4-2.22A4.53,4.53,0,0,0,51.43,228.32Z"/><path class="cls-1" d="M82.77,223.46a10.13,10.13,0,0,1,3,1.95L84,227.85a8.86,8.86,0,0,0-2.17-1.29,6.25,6.25,0,0,0-2.35-.43,4.66,4.66,0,0,0-4.14,2.26q-1.47,2.27-1.47,7.05,0,9,5.61,9a6.08,6.08,0,0,0,2.3-.43A11.15,11.15,0,0,0,84,242.68l1.9,2.49a9.55,9.55,0,0,1-6.56,2.62,8.8,8.8,0,0,1-7.17-3.17q-2.59-3.17-2.6-9.13a17.31,17.31,0,0,1,1.2-6.74,9.83,9.83,0,0,1,3.39-4.38,8.72,8.72,0,0,1,5.14-1.54A9.37,9.37,0,0,1,82.77,223.46Z"/><path class="cls-1" d="M94.32,213a2.62,2.62,0,0,1,.75,1.9,2.52,2.52,0,0,1-2.67,2.62,2.63,2.63,0,0,1-1.92-.74,2.56,2.56,0,0,1-.75-1.88,2.62,2.62,0,0,1,.75-1.9,2.78,2.78,0,0,1,3.84,0Zm.11,10.45V247.2H90.36V223.42Z"/><path class="cls-1" d="M117,243.92a2.51,2.51,0,0,0,1.26,1.06l-.86,2.76a5.64,5.64,0,0,1-2.75-1.08,4.46,4.46,0,0,1-1.41-2.49,7.26,7.26,0,0,1-6.46,3.62,6.57,6.57,0,0,1-5-2,7.35,7.35,0,0,1-1.85-5.27,6.94,6.94,0,0,1,2.48-5.78q2.49-2,7.1-2h3.08v-2a5.2,5.2,0,0,0-1-3.59,4.33,4.33,0,0,0-3.32-1.11,16.58,16.58,0,0,0-5.79,1.26l-1-2.84a19.64,19.64,0,0,1,7.42-1.63q7.73,0,7.73,7.73v11.21A4.39,4.39,0,0,0,117,243.92ZM112.57,241V235.4h-2.63c-3.92,0-5.87,1.64-5.87,4.93a4.94,4.94,0,0,0,.94,3.25,3.34,3.34,0,0,0,2.72,1.13Q110.9,244.71,112.57,241Z"/><path class="cls-1" d="M135.67,223.46a9.89,9.89,0,0,1,3,1.95l-1.81,2.44a8.68,8.68,0,0,0-2.17-1.29,6.22,6.22,0,0,0-2.35-.43,4.66,4.66,0,0,0-4.14,2.26q-1.47,2.27-1.47,7.05,0,9,5.61,9a6.13,6.13,0,0,0,2.31-.43,11.1,11.1,0,0,0,2.21-1.29l1.9,2.49a9.53,9.53,0,0,1-6.55,2.62,8.77,8.77,0,0,1-7.17-3.17c-1.74-2.11-2.6-5.15-2.6-9.13a17.31,17.31,0,0,1,1.2-6.74,9.83,9.83,0,0,1,3.39-4.38,8.67,8.67,0,0,1,5.13-1.54A9.29,9.29,0,0,1,135.67,223.46Z"/><path class="cls-1" d="M147.23,213a2.65,2.65,0,0,1,.74,1.9,2.72,2.72,0,0,1-4.59,1.88,2.55,2.55,0,0,1-.74-1.88,2.61,2.61,0,0,1,.74-1.9,2.79,2.79,0,0,1,3.85,0Zm.11,10.45V247.2h-4.07V223.42Z"/><path class="cls-1" d="M170,226q2.53,3.21,2.53,9.22,0,5.79-2.58,9.16a9.25,9.25,0,0,1-14.22.07q-2.55-3.3-2.55-9.18t2.57-9.2A9.44,9.44,0,0,1,170,226Zm-11.17,2.28c-.94,1.49-1.4,3.82-1.4,7q0,9.27,5.42,9.27t5.43-9.32q0-4.74-1.36-7a4.41,4.41,0,0,0-4-2.22A4.52,4.52,0,0,0,158.87,228.32Zm7-17.16,1.72,3.26-8.69,3.93-1.17-2.08Z"/><path class="cls-1" d="M193.53,224.7a7.74,7.74,0,0,1,1.6,5.18V247.2h-4.07V230.38a5.5,5.5,0,0,0-.77-3.32,2.74,2.74,0,0,0-2.35-1c-2,0-3.79,1.42-5.42,4.25V247.2h-4.07V223.42H182l.32,3.52q2.76-4.11,6.78-4.11A5.56,5.56,0,0,1,193.53,224.7Z"/><path class="cls-1" d="M228.55,216.09l-.5,3.26H217.29v10.26h9.36v3.26h-9.36v11h11.39v3.3h-15.6V216.09Z"/><path class="cls-1" d="M247.36,225.54l-1.72,2.4a13.77,13.77,0,0,0-2.71-1.49,7.11,7.11,0,0,0-2.67-.5,4.43,4.43,0,0,0-2.92.88,3,3,0,0,0-1.06,2.42,2.91,2.91,0,0,0,1,2.35,12.13,12.13,0,0,0,3.86,1.76,12.91,12.91,0,0,1,5.2,2.76A6,6,0,0,1,248,240.6a6.33,6.33,0,0,1-2.44,5.27,9.57,9.57,0,0,1-6.1,1.92,11.38,11.38,0,0,1-8.19-3.21l2.08-2.26a9.45,9.45,0,0,0,6,2.3,5,5,0,0,0,3.22-1,3.37,3.37,0,0,0,1.22-2.76,4.22,4.22,0,0,0-.43-2,3.7,3.7,0,0,0-1.54-1.38,18.76,18.76,0,0,0-3.23-1.29,11.91,11.91,0,0,1-4.89-2.72,5.63,5.63,0,0,1-1.49-4,5.9,5.9,0,0,1,1-3.39,6.75,6.75,0,0,1,2.75-2.35,9.26,9.26,0,0,1,4.07-.86A11,11,0,0,1,247.36,225.54Z"/><path class="cls-1" d="M269.31,226q2,3.21,2,9.18,0,5.79-2.19,9.18a6.93,6.93,0,0,1-6.13,3.39,6.83,6.83,0,0,1-5.7-2.85v11.3l-4.07.5V223.42h3.57l.23,3.21a7.38,7.38,0,0,1,6.47-3.8A6.42,6.42,0,0,1,269.31,226ZM267,235.26c0-3.22-.39-5.57-1.16-7a3.72,3.72,0,0,0-3.5-2.19,4.45,4.45,0,0,0-2.8,1,10.52,10.52,0,0,0-2.31,2.58v12a5.49,5.49,0,0,0,4.75,2.94Q267,244.53,267,235.26Z"/><path class="cls-1" d="M292.08,243.92a2.51,2.51,0,0,0,1.26,1.06l-.85,2.76a5.64,5.64,0,0,1-2.76-1.08,4.39,4.39,0,0,1-1.4-2.49,7.28,7.28,0,0,1-6.47,3.62,6.58,6.58,0,0,1-5-2,7.35,7.35,0,0,1-1.85-5.27,7,7,0,0,1,2.48-5.78q2.49-2,7.1-2h3.08v-2a5.2,5.2,0,0,0-1-3.59,4.33,4.33,0,0,0-3.32-1.11,16.58,16.58,0,0,0-5.79,1.26l-1-2.84a19.64,19.64,0,0,1,7.42-1.63q7.72,0,7.73,7.73v11.21A4.39,4.39,0,0,0,292.08,243.92ZM287.65,241V235.4H285q-5.88,0-5.88,4.93a4.88,4.88,0,0,0,1,3.25,3.31,3.31,0,0,0,2.71,1.13Q286,244.71,287.65,241Z"/><path class="cls-1" d="M314.08,224.7a7.74,7.74,0,0,1,1.6,5.18V247.2h-4.07V230.38a5.5,5.5,0,0,0-.77-3.32,2.74,2.74,0,0,0-2.35-1q-3,0-5.42,4.25V247.2H299V223.42h3.52l.32,3.52q2.76-4.11,6.78-4.11A5.56,5.56,0,0,1,314.08,224.7Zm-5.63-7.59a11.37,11.37,0,0,1-1.5-.88,8.11,8.11,0,0,0-.94-.57,2.2,2.2,0,0,0-.91-.25,1.68,1.68,0,0,0-1.17.45,6.37,6.37,0,0,0-1.09,1.45l-2.17-1a8.13,8.13,0,0,1,1.88-2.78,3.54,3.54,0,0,1,2.46-1,3.23,3.23,0,0,1,1.4.3,8.77,8.77,0,0,1,1.4.83,6.85,6.85,0,0,0,1.09.66,2.38,2.38,0,0,0,1,.2A1.64,1.64,0,0,0,311,214a5.47,5.47,0,0,0,1-1.49l2.22,1q-1.46,3.84-4.35,3.84A3.46,3.46,0,0,1,308.45,217.11Z"/><path class="cls-1" d="M338.2,226q2.54,3.21,2.53,9.22,0,5.79-2.57,9.16a9.26,9.26,0,0,1-14.23.07q-2.55-3.3-2.55-9.18t2.58-9.2A9.43,9.43,0,0,1,338.2,226ZM327,228.32q-1.39,2.24-1.4,7,0,9.27,5.43,9.27t5.42-9.32q0-4.74-1.35-7a4.43,4.43,0,0,0-4-2.22A4.53,4.53,0,0,0,327,228.32Z"/><path class="cls-1" d="M347.65,246.48a5.1,5.1,0,0,1-1.27-3.67v-29l4.07-.45v29.35c0,1.17.49,1.76,1.45,1.76a3.78,3.78,0,0,0,1.31-.27l.91,2.85a6.43,6.43,0,0,1-3,.77A4.57,4.57,0,0,1,347.65,246.48Z"/><path class="cls-1" d="M373.56,243.92a2.5,2.5,0,0,0,1.27,1.06l-.86,2.76a5.64,5.64,0,0,1-2.76-1.08,4.45,4.45,0,0,1-1.4-2.49,7.28,7.28,0,0,1-6.47,3.62,6.58,6.58,0,0,1-5-2,7.4,7.4,0,0,1-1.85-5.27,7,7,0,0,1,2.49-5.78c1.65-1.33,4-2,7.09-2h3.08v-2a5.2,5.2,0,0,0-1-3.59,4.31,4.31,0,0,0-3.32-1.11A16.58,16.58,0,0,0,359,227.3l-1-2.84a19.56,19.56,0,0,1,7.41-1.63q7.74,0,7.73,7.73v11.21A4.39,4.39,0,0,0,373.56,243.92ZM369.13,241V235.4h-2.62q-5.88,0-5.88,4.93a4.88,4.88,0,0,0,.95,3.25,3.32,3.32,0,0,0,2.71,1.13Q367.45,244.71,369.13,241Z"/><path class="cls-1" d="M21.05,266.71v33.41H17.43L17.16,297a7,7,0,0,1-6.2,3.71,6.8,6.8,0,0,1-6-3.3q-2.14-3.3-2.15-9.09a18.8,18.8,0,0,1,1.06-6.6,9.93,9.93,0,0,1,3-4.41,7,7,0,0,1,4.48-1.56A6.94,6.94,0,0,1,17,278.6V266.26ZM14.74,296.6A9,9,0,0,0,17,293.93V282q-2-3-4.75-3a4.28,4.28,0,0,0-3.8,2.31c-.93,1.54-1.39,3.86-1.35,7s.42,5.5,1.26,7a3.92,3.92,0,0,0,3.57,2.26A4.58,4.58,0,0,0,14.74,296.6Z"/><path class="cls-1" d="M45,289.63H31.13c.12,2.78.68,4.77,1.67,6a5,5,0,0,0,4.07,1.83,8.09,8.09,0,0,0,2.92-.5,10,10,0,0,0,2.69-1.63l1.81,2.4a11.09,11.09,0,0,1-7.6,3,8.65,8.65,0,0,1-7.21-3.23q-2.55-3.24-2.55-9.07t2.44-9.24a7.87,7.87,0,0,1,6.78-3.42,7.79,7.79,0,0,1,6.6,3.05q2.31,3.06,2.31,8.71C45.06,288.14,45,288.85,45,289.63Zm-3.85-3.34q0-7.47-4.92-7.46a4.15,4.15,0,0,0-3.58,1.87q-1.3,1.88-1.49,6.09h10Z"/><path class="cls-1" d="M77.12,271.41q2.94,2.4,2.94,7.19c0,3.38-1,5.89-3,7.53s-4.79,2.46-8.34,2.46h-3v11.53h-4.2V269h7Q74.18,269,77.12,271.41Zm-3.21,12.44q1.75-1.5,1.76-5.2,0-3.39-1.74-4.91t-5.31-1.51h-2.9v13.11h2.85A8.16,8.16,0,0,0,73.91,283.85Z"/><path class="cls-1" d="M100.22,289.63H86.39c.12,2.78.67,4.77,1.67,6a5,5,0,0,0,4.07,1.83,8.13,8.13,0,0,0,2.92-.5,10.28,10.28,0,0,0,2.69-1.63l1.8,2.4a11.08,11.08,0,0,1-7.59,3,8.63,8.63,0,0,1-7.21-3.23q-2.56-3.24-2.56-9.07c0-3.89.82-7,2.44-9.24a7.88,7.88,0,0,1,6.79-3.42A7.79,7.79,0,0,1,98,278.8q2.3,3.06,2.3,8.71C100.31,288.14,100.28,288.85,100.22,289.63Zm-3.84-3.34q0-7.47-4.93-7.46a4.12,4.12,0,0,0-3.57,1.87C87,282,86.51,284,86.39,286.79h10Z"/><path class="cls-1" d="M122.88,266.71v33.41h-3.62L119,297a7,7,0,0,1-6.2,3.71,6.8,6.8,0,0,1-6-3.3c-1.44-2.2-2.15-5.23-2.15-9.09a18.8,18.8,0,0,1,1.06-6.6,9.93,9.93,0,0,1,3-4.41,7.1,7.1,0,0,1,10.13,1.29V266.26Zm-6.31,29.89a9,9,0,0,0,2.24-2.67V282q-2-3-4.75-3a4.27,4.27,0,0,0-3.8,2.31c-.93,1.54-1.39,3.86-1.36,7s.43,5.5,1.27,7a3.92,3.92,0,0,0,3.57,2.26A4.58,4.58,0,0,0,116.57,296.6Z"/><path class="cls-1" d="M134.16,265.89a2.63,2.63,0,0,1,.74,1.9,2.6,2.6,0,0,1-.72,1.88,2.57,2.57,0,0,1-1.94.75,2.61,2.61,0,0,1-1.93-.75,2.57,2.57,0,0,1-.74-1.88,2.67,2.67,0,0,1,.74-1.9,2.82,2.82,0,0,1,3.85,0Zm.11,10.45v23.78H130.2V276.34Z"/><path class="cls-1" d="M156.83,296.85a2.63,2.63,0,0,0,1.27,1.06l-.86,2.76a5.72,5.72,0,0,1-2.76-1.09,4.45,4.45,0,0,1-1.4-2.48,7.26,7.26,0,0,1-6.46,3.61,6.56,6.56,0,0,1-5-2,7.37,7.37,0,0,1-1.86-5.27,7,7,0,0,1,2.49-5.79c1.66-1.33,4-2,7.1-2h3.07v-2a5.28,5.28,0,0,0-1-3.6,4.34,4.34,0,0,0-3.33-1.11,16.62,16.62,0,0,0-5.79,1.27l-1-2.85a19.57,19.57,0,0,1,7.42-1.63q7.73,0,7.73,7.73V294.7A4.46,4.46,0,0,0,156.83,296.85Zm-4.43-2.92v-5.61h-2.62c-3.92,0-5.88,1.65-5.88,4.93a5,5,0,0,0,.95,3.26,3.37,3.37,0,0,0,2.72,1.13C149.67,297.64,151.29,296.4,152.4,293.93Z"/><path class="cls-1" d="M175,299.08a8.37,8.37,0,0,1-5,1.63,5.8,5.8,0,0,1-4.45-1.67,6.63,6.63,0,0,1-1.56-4.7V279.41h-3.39v-3.07H164v-5.47l4.07-.5v6h5.24l-.45,3.07h-4.79v14.88c0,2,.86,3.08,2.58,3.08a4.36,4.36,0,0,0,1.42-.23,9.26,9.26,0,0,0,1.47-.68Z"/><path class="cls-1" d="M190.34,276.07l-.68,3.93a6.13,6.13,0,0,0-1.85-.27,3.91,3.91,0,0,0-3.23,1.58,12.2,12.2,0,0,0-2,4.84v14h-4.07V276.34h3.53l.31,4.7c1.18-3.49,3.15-5.24,5.93-5.24A6.79,6.79,0,0,1,190.34,276.07Z"/><path class="cls-1" d="M199.34,264.09l1.72,3.25-8.68,3.94-1.18-2.08Zm-1,12.25v23.78h-4.07V276.34Z"/><path class="cls-1" d="M221,296.85a2.59,2.59,0,0,0,1.27,1.06l-.86,2.76a5.64,5.64,0,0,1-2.76-1.09,4.45,4.45,0,0,1-1.4-2.48,7.26,7.26,0,0,1-6.47,3.61,6.58,6.58,0,0,1-5-2,7.41,7.41,0,0,1-1.85-5.27,7,7,0,0,1,2.49-5.79c1.66-1.33,4-2,7.1-2h3.07v-2a5.23,5.23,0,0,0-1-3.6,4.3,4.3,0,0,0-3.32-1.11,16.62,16.62,0,0,0-5.79,1.27l-1-2.85a19.56,19.56,0,0,1,7.41-1.63q7.74,0,7.74,7.73V294.7A4.46,4.46,0,0,0,221,296.85Zm-4.43-2.92v-5.61H213.9c-3.92,0-5.88,1.65-5.88,4.93a5,5,0,0,0,.95,3.26,3.35,3.35,0,0,0,2.71,1.13C213.79,297.64,215.41,296.4,216.52,293.93Z"/></g></g></svg>