<svg xmlns="http://www.w3.org/2000/svg" xmlns:xlink="http://www.w3.org/1999/xlink" viewBox="0 0 404.75 199.7"><defs><style>.cls-1,.cls-2{fill:none;}.cls-2{clip-path:url(#clip-path);}.cls-3{fill:#fff;}.cls-4{clip-path:url(#clip-path-2);}</style><clipPath id="clip-path"><polygon class="cls-1" points="84.44 63.9 84.83 63.9 84.44 64.3 84.44 63.9"/></clipPath><clipPath id="clip-path-2"><polygon class="cls-2" points="83.64 63.1 83.24 63.1 83.64 62.7 83.64 63.1"/></clipPath></defs><g id="Capa_2" data-name="Capa 2"><g id="Capa_1-2" data-name="Capa 1"><path class="cls-3" d="M185.12,73.08H192L188.61,65Zm-10,10.69,11.66-27.26h3.66L202.1,83.77h-5.49L194,77.71H183.12l-2.57,6.06Zm29.83,0V64.91h4.86v1.54a7.54,7.54,0,0,1,5.09-1.88,8.14,8.14,0,0,1,6.35,3,9.26,9.26,0,0,1,6.68-3,8.46,8.46,0,0,1,6.58,3,9.42,9.42,0,0,1,1.89,6.23v9.94h-5.09V73.54a4.64,4.64,0,0,0-.92-3.26,3.85,3.85,0,0,0-2.86-1.14A5.78,5.78,0,0,0,223,71.65a20.49,20.49,0,0,1,.17,2.12v10h-5V73.54a4.65,4.65,0,0,0-.91-3.26,3.88,3.88,0,0,0-2.86-1.14,5.9,5.9,0,0,0-4.4,2.34V83.77h-5m48.14-11.89a3.78,3.78,0,0,0-3.72-3.31,4.15,4.15,0,0,0-4.06,3.31Zm4.68,8.92a10.19,10.19,0,0,1-7.71,3.37,9.42,9.42,0,0,1-9.83-9.83c0-5.26,3.54-9.83,9.14-9.83,5.2,0,8.86,4.4,8.86,9.66a11.74,11.74,0,0,1-.11,1.43h-13a5,5,0,0,0,5.09,4.46,6.78,6.78,0,0,0,4.75-2.17ZM274,69.37a7,7,0,0,0-1.83-.17,5.54,5.54,0,0,0-4.57,2.74V83.77h-5V64.91h4.86V66.8a7,7,0,0,1,5.49-2.29,7.78,7.78,0,0,1,1.71.17L274,69.37m4.46,14.4h5V64.91h-5ZM280.93,55a3.26,3.26,0,1,1-3.32,3.26A3.27,3.27,0,0,1,280.93,55Zm25.38,25a9.88,9.88,0,0,1-8.52,4.23,9.74,9.74,0,0,1-10.06-9.83,9.86,9.86,0,0,1,10.12-9.83,10,10,0,0,1,7.89,3.77l-3.55,3.15a5.5,5.5,0,0,0-4.34-2.29,5.05,5.05,0,0,0-5.09,5.2,5,5,0,0,0,5.2,5.15A5.6,5.6,0,0,0,302.48,77l3.83,3m16.86-8.4a5.63,5.63,0,0,0-4.63-2.34,5.18,5.18,0,0,0,.11,10.34,5.42,5.42,0,0,0,4.52-2.34V71.54Zm5,12.23h-4.86V82.23a7.85,7.85,0,0,1-5.26,1.89,9.43,9.43,0,0,1-7.09-3.2,10.17,10.17,0,0,1-2.4-6.64c0-5.54,4.12-9.83,9.21-9.83a8.49,8.49,0,0,1,5.48,1.89V64.91h4.86V83.77Zm5.83,0V64.91h4.86v1.54a8.49,8.49,0,0,1,11.83,1.15c1.26,1.48,1.95,3.37,1.95,6.63v9.54h-5v-10c0-1.89-.4-2.86-1.15-3.54a3.85,3.85,0,0,0-2.85-1,6,6,0,0,0-4.58,2.34V83.77h-5m-137.25,26.7H183.23v12.29H178V95.49h5.26v10.35h13.55V95.49H202v27.27h-5.26V110.47m22.58.4a3.78,3.78,0,0,0-3.72-3.32,4.08,4.08,0,0,0-4,3.32Zm4.69,8.86a10.21,10.21,0,0,1-7.72,3.37,9.42,9.42,0,0,1-9.83-9.83c0-5.26,3.54-9.83,9.14-9.83,5.21,0,8.87,4.4,8.87,9.66a9.93,9.93,0,0,1-.12,1.43h-13a5,5,0,0,0,5.08,4.46,6.75,6.75,0,0,0,4.75-2.18Zm18.12-9.26a5.63,5.63,0,0,0-4.63-2.34,5.18,5.18,0,0,0,.11,10.34,5.42,5.42,0,0,0,4.52-2.34Zm5,12.29h-4.86v-1.54a7.86,7.86,0,0,1-5.26,1.88,9.43,9.43,0,0,1-7.09-3.2,10.15,10.15,0,0,1-2.4-6.63c0-5.54,4.12-9.83,9.21-9.83a8.5,8.5,0,0,1,5.48,1.88v-1.54h4.86v19Zm17.26-14.46a7,7,0,0,0-1.83-.17,5.54,5.54,0,0,0-4.57,2.74v11.89h-5V103.84h4.86v1.88a7,7,0,0,1,5.49-2.28,7.22,7.22,0,0,1,1.71.17l-.63,4.69m19.72,14.46a12.62,12.62,0,0,1-3.14.4c-3,0-5.26-1-6.52-2.74-1-1.32-1.37-3-1.37-5.66v-6.63h-5.26v-4.29h5.26V98.58h5v5.26h6.23v4.29h-6.23v7.2a3.45,3.45,0,0,0,.63,2.4,3.26,3.26,0,0,0,2.57.91,14.92,14.92,0,0,0,2.06-.17l.74,4.29m-99.52,28.18h6.92l-3.43-8.06Zm-10,10.75,11.66-27.27H190l11.66,27.27h-5.49l-2.57-6.06H182.72l-2.57,6.06Zm30.64-5.78a8,8,0,0,0,5.14,1.89c1.37,0,2.4-.68,2.4-1.6,0-2.86-9.09-1.83-9.09-7.89,0-3.6,3.49-5.89,7.21-5.89a11.43,11.43,0,0,1,6.34,1.89L215,148a6.33,6.33,0,0,0-3.6-1.26c-1.37,0-2.58.57-2.58,1.54,0,2.46,9.09,1.49,9.09,8,0,3.6-3.54,5.83-7.48,5.83a13.13,13.13,0,0,1-7.55-2.52l2.46-3.66m17.6,0a8,8,0,0,0,5.15,1.89c1.37,0,2.4-.68,2.4-1.6,0-2.86-9.09-1.83-9.09-7.89,0-3.6,3.49-5.89,7.2-5.89a11.47,11.47,0,0,1,6.35,1.89L232.57,148a6.36,6.36,0,0,0-3.61-1.26c-1.37,0-2.57.57-2.57,1.54,0,2.46,9.09,1.49,9.09,8,0,3.6-3.54,5.83-7.49,5.83a13.12,13.12,0,0,1-7.54-2.52l2.45-3.66m25.73,1.49a4.91,4.91,0,0,0,5-5.14,5,5,0,1,0-9.94,0A4.91,4.91,0,0,0,248.63,157.4Zm0-15a9.83,9.83,0,1,1-10,9.83A9.8,9.8,0,0,1,248.63,142.37Zm31.72,15.43a10,10,0,0,1-8.51,4.23,9.74,9.74,0,0,1-10.06-9.83,9.86,9.86,0,0,1,10.11-9.83,10,10,0,0,1,7.89,3.77l-3.54,3.14a5.54,5.54,0,0,0-4.35-2.28,5,5,0,0,0-5.08,5.2,5,5,0,0,0,5.2,5.14,5.55,5.55,0,0,0,4.51-2.51l3.83,3m3.83,3.89h5V142.77h-5Zm2.52-28.87a3.26,3.26,0,1,1-3.32,3.26A3.35,3.35,0,0,1,286.7,132.82ZM308,149.4a5.63,5.63,0,0,0-4.63-2.35,5.18,5.18,0,0,0,.12,10.35,5.41,5.41,0,0,0,4.51-2.34V149.4Zm5.09,12.29h-4.86v-1.55A7.8,7.8,0,0,1,303,162a9.43,9.43,0,0,1-7.09-3.2,10.16,10.16,0,0,1-2.4-6.63c0-5.55,4.12-9.83,9.21-9.83a8.5,8.5,0,0,1,5.48,1.88v-1.54h4.86v19Zm19.95,0a12.68,12.68,0,0,1-3.14.4c-3,0-5.26-1-6.52-2.75-1-1.31-1.37-3-1.37-5.65v-6.64h-5.26v-4.28H322v-5.26h5v5.26h6.23v4.28h-6.23v7.21a3.45,3.45,0,0,0,.63,2.4,3.24,3.24,0,0,0,2.57.91,15.22,15.22,0,0,0,2.06-.17l.74,4.29m5,0h5V142.77h-5Zm2.52-28.87a3.26,3.26,0,1,1-3.32,3.26A3.27,3.27,0,0,1,340.61,132.82Zm16.8,24.58a4.92,4.92,0,0,0,5-5.14,5,5,0,1,0-9.95,0A4.91,4.91,0,0,0,357.41,157.4Zm0-15a9.83,9.83,0,1,1-10,9.83A9.8,9.8,0,0,1,357.41,142.37Zm14.24,19.32V142.77h4.85v1.54a8.49,8.49,0,0,1,11.84,1.14c1.26,1.49,1.94,3.38,1.94,6.63v9.61h-5v-10c0-1.88-.4-2.85-1.14-3.54a3.89,3.89,0,0,0-2.86-1,6,6,0,0,0-4.57,2.35v12.29h-5m28.18-6.46a3.48,3.48,0,0,0-.92-.12h-.4v1.77h.63a1.24,1.24,0,0,0,.86-.23.81.81,0,0,0,.28-.74A.62.62,0,0,0,399.83,155.29Zm-2.92,4.85v-6h2.92a3.59,3.59,0,0,1,1.2.28,1.58,1.58,0,0,1,.8,1.43,1.31,1.31,0,0,1-.4,1.09,2.09,2.09,0,0,1-1,.4,1.46,1.46,0,0,1,.86.34,1.7,1.7,0,0,1,.51,1.37v.69l.06.17.06.17H400.4a7.61,7.61,0,0,1-.12-.86,1.93,1.93,0,0,0-.11-.74c-.06-.23-.23-.34-.46-.46s-.28-.05-.51-.11h-.69V160h-1.6Zm-.8-6.23a4.51,4.51,0,0,0-1.31,3.21,4.6,4.6,0,0,0,1.31,3.25,4.18,4.18,0,0,0,3.2,1.32,4.48,4.48,0,0,0,3.2-1.32,4.54,4.54,0,0,0,0-6.4,4.23,4.23,0,0,0-3.2-1.37A4.09,4.09,0,0,0,396.11,153.91Zm7,7.15a5.33,5.33,0,0,1-3.83,1.54,5.18,5.18,0,0,1-3.88-1.6,5.53,5.53,0,0,1,.11-7.89,5.52,5.52,0,0,1,3.77-1.48,5.08,5.08,0,0,1,3.83,1.6,5.19,5.19,0,0,1,1.6,3.89A5.11,5.11,0,0,1,403.14,161.06Z"/><path id="Fill-6" class="cls-3" d="M94.34,43.85C87.91,47.73,82.8,57,85.27,66.34c8.71-12.78,35.11-1.24,43.9-30.55-5.87,4.67-13.5,6-17.38,5.59,14.42-5.91,22.65-27,9.79-41.38,3.79,17-17.93,18.45-35,21.65-32,6-37.26,35.5-22.72,50.56C62.19,54.32,76.49,43.69,94.34,43.85"/><path class="cls-3" d="M127,71.41A39.3,39.3,0,0,0,78.6,84.07c15.78-1.36,28.68,2.52,29.24,6.71l-1.52,14.46h-.12a3.24,3.24,0,0,0,0-.88c0-.11,0-.21-.06-.32l-.18,1.68h-.12a3.24,3.24,0,0,0,0-.88c-.72-5.59-13.82-8.51-29.23-6.47-12,1.59-21.85,5.69-25.28,10.07a4.65,4.65,0,0,0-.92,3.27,3.32,3.32,0,0,0,.24.84l-.28,0-.35-.94a3.26,3.26,0,0,0,0,.54,3.32,3.32,0,0,0,.24.84l-.28,0L44.94,99.45a4.39,4.39,0,0,1,1.42-3.27c3.17-4,13-9,25.37-11.19a39.29,39.29,0,0,0-49-13.58c-21,9.71-31,34.47-14.46,63.7,11.78,20.77,30.24,36.47,66.58,64.59,2.78-2.16,5.48-4.23,8.06-6.27-8.14-47.1-19.44-79.76-19.44-79.76A2.56,2.56,0,0,1,64,111.9c1.19-2.62,6.91-5.21,14.05-6.14,8.26-1.08,15.29.48,15.69,3.47,0,0,0,.1,0,.25a2,2,0,0,1,.06.23S92,126.42,93,156.46c.3,8.26.81,17.51,1.62,27.7,23.68-19,37.34-32.39,46.77-49C158,105.88,147.94,81.12,127,71.41Z"/><g id="Group-11"><path id="Fill-9" class="cls-1" d="M94.62,185v0c-.4-5.19-.76-10.11-1-14.82.24,4.71.56,9.67,1,14.86,19.37-15.7,32-27.52,41.14-40.46C126.65,157.52,114,169.34,94.62,185m-1-14.86v0m0-.08h0m14.18-78.72a3,3,0,0,0-.24-.8,2.65,2.65,0,0,1,.24.8"/></g><g id="Group-20"><path id="Fill-18" class="cls-1" d="M108,91.46a2.31,2.31,0,0,0-.28-.84h0a2.31,2.31,0,0,1,.28.84"/></g><g id="Group-23"><g class="cls-4"><path id="Fill-21" class="cls-1" d="M94.3,184.64v0"/></g></g></g></g></svg>