<svg xmlns="http://www.w3.org/2000/svg" viewBox="0 0 450.3 115.7"><defs><style>.cls-1{fill:#fff;}</style></defs><g id="Capa_2" data-name="Capa 2"><g id="Capa_1-2" data-name="Capa 1"><path class="cls-1" d="M112.2,30.4l12,25H100.4ZM112.3,0,71.1,82.2H87.5l6.9-14.5h35.7L137,82.2h16.6Z"/><path class="cls-1" d="M190.9,36c-16.1-3.8-18.8-6.7-18.8-12.3v-.2c0-5.5,5.1-9.2,12.7-9.2,7.1,0,14.1,2.7,21.4,8.1l.2.1,7.7-10.9-.2-.1A44.75,44.75,0,0,0,185,1.5c-16.1,0-27.3,9.5-27.3,23.2v.2c0,14.7,9.3,19.7,26.6,23.9,15.1,3.5,17.7,6.6,17.7,11.9v.2c0,5.8-5.6,9.7-13.8,9.7-9,0-16.7-3.2-24.9-10.3l-.2-.1-8.7,10.3.2.1a49.2,49.2,0,0,0,33.2,12.7c17.3,0,28.5-9.4,28.5-23.9v-.2c.1-14-10.1-19.4-25.4-23.2"/><path class="cls-1" d="M297.2,73.5C290,80.5,280.8,84,268.7,84c-25.2,0-43.8-18.8-43.8-41.1S242.2,1.7,267.4,1.7c17.3,0,27.4,8.7,29.3,11.3l-7.8,10.2c-5.6-5.3-12.8-8.2-22.2-8.2-15.3,0-25.9,12-25.9,28.3,0,15.3,12.7,27.4,28.1,27.4,12.1,0,19-4.5,21.7-6.9Z"/><path class="cls-1" d="M342.4,84c-24,0-43.3-18.6-43.3-41.1S318.4,1.7,342.4,1.7c23.7,0,43,17.8,43,41.5,0,22.4-19.8,40.8-43,40.8m0-69a27.51,27.51,0,0,0-27.6,27.5c0,14.8,12.2,28.3,26.9,28.3a27.62,27.62,0,0,0,27.9-27.7c0-16-12.5-28.1-27.2-28.1"/><path class="cls-1" d="M11.2,115.2,9.8,112H3.4l-1.5,3.2H0l6.6-14,6.6,14Zm-4.3-9.6a4.12,4.12,0,0,1-.3-.8c0,.1-.2.5-.3.8l-2.2,4.9h5Z"/><path class="cls-1" d="M29,115.2l-.9-8.1v-.7a3.29,3.29,0,0,1-.3.6l-4.7,8.6L18.4,107a3.33,3.33,0,0,0-.3-.6v.7l-.8,8.1H15.5l1.6-13.9,5.8,10.5a1.07,1.07,0,0,1,.2.6c0-.1.2-.5.2-.6l5.8-10.5,1.6,13.9Z"/><polygon class="cls-1" points="34.5 115.2 34.5 101.7 41.9 101.7 41.9 103.2 36.3 103.2 36.3 107.2 40.8 107.2 40.8 108.7 36.3 108.7 36.3 113.7 42.5 113.7 42.5 115.2 34.5 115.2"/><path class="cls-1" d="M53.1,115.2l-5.4-5.3h-.5v5.3H45.5V101.7h2.7c2.3,0,5.3.7,5.3,4a4.07,4.07,0,0,1-3.9,4.1l5.9,5.4Zm-4.9-6.9c2.3,0,3.6-1.1,3.6-2.7s-1.2-2.5-3.2-2.5H47.3v5.2Z"/><rect class="cls-1" x="58" y="101.7" width="1.7" height="13.5"/><path class="cls-1" d="M75.1,113.7a6.77,6.77,0,0,1-4.7,1.7,7.05,7.05,0,1,1-.1-14.1,6.9,6.9,0,0,1,4.7,1.8l-.9,1.2a5.18,5.18,0,0,0-3.9-1.5c-3,0-5.2,2.3-5.2,5.6a5.46,5.46,0,0,0,5.5,5.4,6.41,6.41,0,0,0,3.9-1.3Z"/><path class="cls-1" d="M88.3,115.2,86.9,112H80.5L79,115.2H77.1l6.6-14,6.6,14Zm-4.4-9.6a4.12,4.12,0,0,1-.3-.8c0,.1-.2.5-.3.8l-2.2,4.9h5Z"/><polygon class="cls-1" points="94.5 105.5 94.5 115.2 92.8 115.2 92.8 101.3 103 111.6 103 101.7 104.7 101.7 104.7 115.7 94.5 105.5"/><path class="cls-1" d="M114.3,112.4a5,5,0,0,0,3.5,1.5,2.33,2.33,0,0,0,2.6-2.2c0-3.5-6.2-2.7-6.2-6.8,0-2.3,1.9-3.5,4-3.5a5.55,5.55,0,0,1,3.6,1.4l-.9,1.3a3.93,3.93,0,0,0-2.7-1.1c-1.2,0-2.2.6-2.2,1.9,0,2.9,6.2,2.1,6.2,6.9,0,1.9-1.7,3.8-4.5,3.8a6.39,6.39,0,0,1-4.3-1.8Z"/><path class="cls-1" d="M132,115.5a7.09,7.09,0,0,1-7.3-7,7.17,7.17,0,0,1,7.3-7.1,7,7,0,0,1,7.2,7.1,7.13,7.13,0,0,1-7.2,7m0-12.6a5.4,5.4,0,0,0-5.5,5.4,5.62,5.62,0,0,0,5.4,5.6,5.5,5.5,0,0,0,.1-11"/><path class="cls-1" d="M153.9,113.7a6.77,6.77,0,0,1-4.7,1.7,7.05,7.05,0,1,1-.1-14.1,6.9,6.9,0,0,1,4.7,1.8l-.9,1.2a5.18,5.18,0,0,0-3.9-1.5c-3,0-5.2,2.3-5.2,5.6a5.46,5.46,0,0,0,5.5,5.4,6.41,6.41,0,0,0,3.9-1.3Z"/><rect class="cls-1" x="157" y="101.7" width="1.7" height="13.5"/><polygon class="cls-1" points="163 115.2 163 101.7 170.4 101.7 170.4 103.2 164.7 103.2 164.7 107.2 169.2 107.2 169.2 108.7 164.7 108.7 164.7 113.7 170.9 113.7 170.9 115.2 163 115.2"/><polygon class="cls-1" points="176.9 115.2 176.9 103.2 173 103.2 173 101.7 182.6 101.7 182.6 103.2 178.7 103.2 178.7 115.2 176.9 115.2"/><path class="cls-1" d="M189.1,115.2v-5.8l-4.7-7.7h1.9l3.5,6.1c0,.1.1.2.1.4,0-.2.1-.3.1-.4l3.6-6.1h1.9l-4.8,7.7v5.8Z"/><path class="cls-1" d="M210,115.5a7.09,7.09,0,0,1-7.3-7,7.17,7.17,0,0,1,7.3-7.1,7,7,0,0,1,7.2,7.1,7.13,7.13,0,0,1-7.2,7m0-12.6a5.4,5.4,0,0,0-5.5,5.4,5.62,5.62,0,0,0,5.4,5.6,5.5,5.5,0,0,0,.1-11"/><polygon class="cls-1" points="220.7 115.2 220.7 101.7 227.9 101.7 227.9 103.2 222.4 103.2 222.4 107.3 226.9 107.3 226.9 108.8 222.4 108.8 222.4 115.2 220.7 115.2"/><path class="cls-1" d="M247.7,113.7a6.77,6.77,0,0,1-4.7,1.7,7.05,7.05,0,1,1-.1-14.1,6.9,6.9,0,0,1,4.7,1.8l-1,1.2a5.18,5.18,0,0,0-3.9-1.5c-3,0-5.2,2.3-5.2,5.6a5.46,5.46,0,0,0,5.5,5.4,6.41,6.41,0,0,0,3.9-1.3Z"/><polygon class="cls-1" points="250.8 115.2 250.8 101.7 252.5 101.7 252.5 113.7 258.2 113.7 258.2 115.2 250.8 115.2"/><rect class="cls-1" x="261.1" y="101.7" width="1.7" height="13.5"/><polygon class="cls-1" points="268.8 105.5 268.8 115.2 267 115.2 267.1 101.3 277.3 111.6 277.3 101.7 279 101.7 279 115.7 268.8 105.5"/><rect class="cls-1" x="283.3" y="101.7" width="1.7" height="13.5"/><path class="cls-1" d="M300.5,113.7a6.77,6.77,0,0,1-4.7,1.7,7.05,7.05,0,1,1-.1-14.1,6.9,6.9,0,0,1,4.7,1.8l-.9,1.2a5.18,5.18,0,0,0-3.9-1.5c-3,0-5.2,2.3-5.2,5.6a5.46,5.46,0,0,0,5.5,5.4,6.41,6.41,0,0,0,3.9-1.3Z"/><path class="cls-1" d="M313.6,115.2l-1.4-3.2h-6.4l-1.5,3.2h-1.9l6.6-14,6.6,14Zm-4.4-9.6a4.12,4.12,0,0,1-.3-.8c0,.1-.2.5-.3.8l-2.2,4.9h5Z"/><polygon class="cls-1" points="318.1 115.2 318.1 101.7 319.8 101.7 319.8 113.7 325.6 113.7 325.6 115.2 318.1 115.2"/><path class="cls-1" d="M340.5,115.5a7.09,7.09,0,0,1-7.3-7,7.17,7.17,0,0,1,7.3-7.1,7.05,7.05,0,1,1,0,14.1m0-12.6a5.4,5.4,0,0,0-5.5,5.4,5.62,5.62,0,0,0,5.4,5.6,5.5,5.5,0,0,0,.1-11"/><polygon class="cls-1" points="352.9 105.5 353 115.2 351.2 115.2 351.3 101.3 361.5 111.6 361.5 101.7 363.2 101.7 363.2 115.7 352.9 105.5"/><path class="cls-1" d="M378.7,113.7a6.77,6.77,0,0,1-4.7,1.7,7.05,7.05,0,1,1-.1-14.1,6.9,6.9,0,0,1,4.7,1.8l-1,1.2a5.18,5.18,0,0,0-3.9-1.5c-3,0-5.2,2.3-5.2,5.6a5.46,5.46,0,0,0,5.5,5.4,6.41,6.41,0,0,0,3.9-1.3Z"/><path class="cls-1" d="M387.7,115.5a7.09,7.09,0,0,1-7.3-7,7.17,7.17,0,0,1,7.3-7.1,7.05,7.05,0,1,1,0,14.1m0-12.6a5.4,5.4,0,0,0-5.5,5.4,5.62,5.62,0,0,0,5.4,5.6,5.5,5.5,0,0,0,.1-11"/><polygon class="cls-1" points="398.5 115.2 398.5 101.7 400.2 101.7 400.2 113.7 405.9 113.7 405.9 115.2 398.5 115.2"/><path class="cls-1" d="M414.6,115.5a7.09,7.09,0,0,1-7.3-7,7.17,7.17,0,0,1,7.3-7.1,7,7,0,0,1,7.2,7.1,7.13,7.13,0,0,1-7.2,7m0-12.6a5.4,5.4,0,0,0-5.5,5.4,5.62,5.62,0,0,0,5.4,5.6,5.5,5.5,0,0,0,.1-11"/><path class="cls-1" d="M432.8,110v-1.6h5.4c0,4.9-3.2,7-6.5,7a7.05,7.05,0,1,1,0-14.1,7.38,7.38,0,0,1,5.1,1.9l-.9,1.3a6.37,6.37,0,0,0-4.2-1.6,5.25,5.25,0,0,0-5.4,5.6,5.46,5.46,0,0,0,5.5,5.4,4.3,4.3,0,0,0,4.5-3.9Z"/><path class="cls-1" d="M443.9,115.2v-5.8l-4.7-7.7h1.9l3.5,6.1c0,.1.1.2.1.4,0-.2.1-.3.1-.4l3.6-6.1h1.9l-4.8,7.7v5.8Z"/><path class="cls-1" d="M388.7,13.2a5.21,5.21,0,0,1-5.3-5.3,5.3,5.3,0,0,1,10.6,0,5.21,5.21,0,0,1-5.3,5.3m0-9.8a4.42,4.42,0,0,0-4.5,4.5,4.42,4.42,0,0,0,4.5,4.5,4.36,4.36,0,0,0,4.5-4.5,4.48,4.48,0,0,0-4.5-4.5m1.2,4.9,1.2,2.3h-1.2l-1.1-2.2h-1.1v2.2h-1V4.8h2.6a1.7,1.7,0,0,1,1.9,1.8,1.86,1.86,0,0,1-1.3,1.7m-.7-2.5h-1.5V7.5h1.5c.5,0,.9-.2.9-.8a.84.84,0,0,0-.9-.9"/></g></g></svg>