<svg width="83" height="35" viewBox="0 0 83 35" fill="none" xmlns="http://www.w3.org/2000/svg">
<path fill-rule="evenodd" clip-rule="evenodd" d="M8.60081 0H8.40574L8.45176 0.515079L7.96956 0.328774L7.90381 0.519462L8.42765 0.629054L8.08573 1.02358L8.25012 1.13537L8.50656 0.679466L8.75643 1.13537L8.91643 1.00605L8.58327 0.629054L9.09616 0.506311L9.03698 0.322198L8.56136 0.515079L8.60081 0Z" fill="white"/>
<path fill-rule="evenodd" clip-rule="evenodd" d="M6.71384 0H6.51658L6.5626 0.515079L6.07821 0.328774L6.01465 0.519462L6.53849 0.629054L6.19657 1.02358L6.36096 1.13537L6.6174 0.679466L6.86508 1.13537L7.02727 1.00605L6.69411 0.629054L7.207 0.506311L7.14782 0.322198L6.67439 0.515079L6.71384 0Z" fill="white"/>
<path fill-rule="evenodd" clip-rule="evenodd" d="M10.5053 0H10.3081L10.3541 0.515079L9.87191 0.328774L9.80615 0.519462L10.33 0.629054L9.99027 1.02358L10.1547 1.13537L10.4089 0.679466L10.6588 1.13537L10.8188 1.00605L10.4878 0.629054L10.9985 0.506311L10.9393 0.322198L10.4659 0.515079L10.5053 0Z" fill="white"/>
<path fill-rule="evenodd" clip-rule="evenodd" d="M12.3989 0H12.2038L12.2499 0.515079L11.7677 0.328774L11.6997 0.519462L12.2257 0.629054L11.886 1.02358L12.0482 1.13537L12.3047 0.679466L12.5545 1.13537L12.7145 1.00605L12.3814 0.629054L12.8943 0.506311L12.8351 0.322198L12.3594 0.515079L12.3989 0Z" fill="white"/>
<path fill-rule="evenodd" clip-rule="evenodd" d="M9.54978 1.74683H9.35032L9.39854 2.2619L8.91634 2.0756L8.85059 2.26629L9.37224 2.37588L9.03251 2.77041L9.19909 2.88L9.45334 2.42629L9.70321 2.88L9.86321 2.75068L9.53005 2.37588L10.0429 2.25095L9.98376 2.06902L9.50813 2.2619L9.54978 1.74683Z" fill="white"/>
<path fill-rule="evenodd" clip-rule="evenodd" d="M7.66013 1.74683H7.46287L7.50889 2.2619L7.02669 2.0756L6.96094 2.26629L7.48478 2.37588L7.14505 2.77041L7.30944 2.88L7.56588 2.42629L7.81356 2.88L7.97356 2.75068L7.64259 2.37588L8.15329 2.25095L8.09411 2.06902L7.62068 2.2619L7.66013 1.74683Z" fill="white"/>
<path fill-rule="evenodd" clip-rule="evenodd" d="M11.4526 1.74683H11.2553L11.3036 2.2619L10.8192 2.0756L10.7534 2.26629L11.2773 2.37588L10.9375 2.77041L11.1019 2.88L11.3562 2.42629L11.606 2.88L11.7682 2.75068L11.4351 2.37588L11.948 2.25095L11.8888 2.06902L11.411 2.2619L11.4526 1.74683Z" fill="white"/>
<path fill-rule="evenodd" clip-rule="evenodd" d="M7.4958 7.21546L9.45091 9.91359L11.4104 7.21546V11.2484H14.1853V3.531H11.7611L9.45091 6.65435L7.14292 3.531L4.72314 3.52881V11.2484H7.4958V7.21546Z" fill="white"/>
<path fill-rule="evenodd" clip-rule="evenodd" d="M0 11.2485H4.72338V25.057C4.72338 28.2505 6.59301 29.5963 9.44457 29.5963C12.2961 29.5963 14.1855 28.2505 14.1855 25.057V11.2485H18.922V25.0987C18.922 31.4856 15.1455 34.1794 9.44019 34.1794C3.73487 34.1794 0 31.4856 0 25.0987V11.2485Z" fill="white"/>
<path fill-rule="evenodd" clip-rule="evenodd" d="M7.49608 11.2485H11.4129V25.0417C11.4129 26.4269 10.7904 27.1502 9.44023 27.1502C8.09007 27.1502 7.4917 26.4269 7.4917 25.0417V11.2485" fill="white"/>
<path fill-rule="evenodd" clip-rule="evenodd" d="M24.5941 11.2747V16.3159C24.2631 16.6118 23.908 16.9164 23.588 16.9164C23.1716 16.9164 23.0225 16.6227 23.0225 16.1822V11.2747H21.4795V16.3597C21.4795 17.6003 21.9705 18.0803 22.9173 18.0803C23.5551 18.0803 24.0834 17.6857 24.6489 17.2035V17.9641H26.1459V11.2747H24.5985" fill="white"/>
<path fill-rule="evenodd" clip-rule="evenodd" d="M30.7339 16.4388C30.625 16.5828 30.4856 16.7009 30.3257 16.7846C30.1658 16.8684 29.9893 16.9157 29.809 16.9232C29.3925 16.9232 29.0484 16.6536 29.0484 15.3297V13.9028C29.0484 12.5878 29.3925 12.3072 29.809 12.3072C29.99 12.3135 30.1675 12.3598 30.3285 12.4428C30.4896 12.5258 30.6303 12.6434 30.7405 12.7872V16.4388H30.7339ZM32.2901 17.949V9.0896H30.7405V11.8908C30.0062 11.3516 29.6117 11.1521 29.1953 11.1521C27.9919 11.1521 27.501 12.088 27.501 13.8064V15.4262C27.501 17.1467 27.9919 18.0805 29.1953 18.0805C29.8813 18.0805 30.5695 17.5632 30.8413 17.1467H30.8632V17.9555L32.2901 17.949Z" fill="white"/>
<path fill-rule="evenodd" clip-rule="evenodd" d="M33.9536 11.2747V17.9554H35.5076V11.2747H33.9536ZM35.5076 10.1218V8.72339H33.9602V10.1218H35.5076Z" fill="white"/>
<path fill-rule="evenodd" clip-rule="evenodd" d="M37.1665 17.9555H38.7139V12.9143C38.898 12.6557 39.3408 12.3116 39.6718 12.3116C39.9172 12.3116 40.0882 12.4343 40.0882 12.8771V17.9555H41.6444V12.9143C41.8417 12.6557 42.3195 12.3116 42.6154 12.3116C42.8609 12.3116 43.0187 12.4343 43.0187 12.8771V17.9555H44.5683V12.9319C44.5683 11.7286 44.0883 11.1609 43.1568 11.1609C42.4795 11.1609 41.9907 11.6409 41.5107 12.1713C41.3244 11.5554 40.9058 11.1609 40.3315 11.1609C39.6739 11.1609 39.1786 11.5993 38.6723 12.0376V11.2749H37.1753V17.9555" fill="white"/>
<path fill-rule="evenodd" clip-rule="evenodd" d="M47.4288 13.2278C47.4302 13.1169 47.4537 13.0074 47.498 12.9057C47.5423 12.804 47.6064 12.7122 47.6866 12.6356C47.7669 12.5591 47.8616 12.4993 47.9652 12.4599C48.0689 12.4204 48.1793 12.402 48.2902 12.4058C48.3986 12.393 48.5086 12.4047 48.6119 12.4403C48.7151 12.4758 48.809 12.5343 48.8866 12.6112C48.9641 12.6881 49.0233 12.7815 49.0597 12.8845C49.0961 12.9874 49.1088 13.0973 49.0968 13.2058V13.6946C47.168 14.2733 45.6929 14.9352 45.6929 16.4826C45.6929 17.5632 46.2934 18.0805 47.2271 18.0805C47.5703 18.0821 47.9103 18.0144 48.2266 17.8814C48.543 17.7485 48.8293 17.553 49.0683 17.3067C49.1187 17.5763 49.1428 17.7846 49.1779 17.9643H50.7253C50.6722 17.7886 50.6435 17.6064 50.6398 17.4229V13.1795C50.6398 11.9894 50.013 11.1521 48.3669 11.1521C47.1285 11.1521 45.9997 11.7417 45.8879 13.2278H47.4222H47.4288ZM49.0968 16.3117C48.7264 16.6777 48.3954 16.9232 47.9307 16.9232C47.8366 16.9318 47.7417 16.9194 47.6529 16.887C47.5641 16.8545 47.4835 16.8028 47.4171 16.7355C47.3507 16.6683 47.3 16.5871 47.2686 16.4979C47.2373 16.4087 47.2261 16.3136 47.2359 16.2196C47.2359 15.5204 48.1674 15.0053 49.0902 14.6853L49.0968 16.3117Z" fill="white"/>
<path fill-rule="evenodd" clip-rule="evenodd" d="M21.5698 29.5063H22.6898C22.8863 29.5173 23.0829 29.4883 23.2678 29.421C23.4527 29.3537 23.622 29.2496 23.7655 29.115C23.9089 28.9803 24.0236 28.8179 24.1024 28.6377C24.1812 28.4574 24.2226 28.263 24.2241 28.0663C24.2241 27.3912 23.7573 26.6328 22.6898 26.6328H21.5698V29.5063ZM21.9841 27.001H22.6197C23.4219 27.001 23.7901 27.492 23.7901 28.0663C23.7901 28.4213 23.571 29.1315 22.6394 29.1315H21.9819L21.9841 27.001Z" fill="white"/>
<path fill-rule="evenodd" clip-rule="evenodd" d="M26.775 26.6328H25.1465V29.5063H26.8123V29.1315H25.5564V28.2394H26.7334V27.8712H25.5564V27.001H26.775V26.6328Z" fill="white"/>
<path fill-rule="evenodd" clip-rule="evenodd" d="M31.9348 26.6328H31.5512L30.5956 27.8098L29.6443 26.6328H29.2563V29.5063H29.6684V27.2684H29.6772L30.5627 28.3797H30.6284L31.5117 27.2684H31.5205V29.5063H31.9348V26.6328Z" fill="white"/>
<path fill-rule="evenodd" clip-rule="evenodd" d="M34.1925 26.6152H33.901L32.6582 29.5062H33.079L33.4407 28.6558H34.6637L35.0473 29.5062H35.4659L34.1925 26.6152ZM34.0412 27.2465L34.5037 28.2854H33.6116L34.0412 27.2465Z" fill="white"/>
<path fill-rule="evenodd" clip-rule="evenodd" d="M36.209 29.5063H37.329C37.5255 29.5173 37.7221 29.4883 37.907 29.421C38.0919 29.3537 38.2612 29.2496 38.4046 29.115C38.5481 28.9803 38.6627 28.8179 38.7416 28.6377C38.8204 28.4574 38.8618 28.263 38.8633 28.0663C38.8633 27.3912 38.3964 26.6328 37.329 26.6328H36.2112V29.5063H36.209ZM36.6232 27.001H37.2611C38.0677 27.001 38.4337 27.492 38.4337 28.0663C38.4337 28.4213 38.2145 29.1315 37.2852 29.1315H36.6276L36.6232 27.001Z" fill="white"/>
<path fill-rule="evenodd" clip-rule="evenodd" d="M39.7925 26.6328V29.5063H40.2089V28.257H40.3777C40.5969 28.257 40.7635 28.3227 41.1426 28.9145L41.5218 29.5085H42.0128C41.8155 29.2323 41.7432 29.1337 41.6205 28.9364C41.4684 28.6273 41.2498 28.3556 40.9804 28.1408C41.125 28.09 41.2495 27.9943 41.3359 27.8677C41.4222 27.7412 41.4659 27.5903 41.4605 27.4372C41.4605 26.9419 41.0988 26.635 40.518 26.635H39.7925V26.6328ZM40.2089 26.9857H40.4719C40.873 26.9857 41.0309 27.1523 41.0352 27.4241C41.0396 27.6958 40.9147 27.8887 40.4719 27.8887H40.2089V26.9857Z" fill="white"/>
<path d="M43.166 26.6328H42.7539V29.5063H43.166V26.6328Z" fill="white"/>
<path fill-rule="evenodd" clip-rule="evenodd" d="M44.2266 29.5063H45.3488C45.5451 29.517 45.7416 29.4877 45.9264 29.4203C46.1112 29.353 46.2803 29.2488 46.4237 29.1142C46.5671 28.9797 46.6818 28.8174 46.7607 28.6373C46.8396 28.4572 46.8813 28.2629 46.8831 28.0663C46.8831 27.3912 46.414 26.6328 45.3488 26.6328H44.2309V29.5063H44.2266ZM44.6452 27.001H45.2808C46.0852 27.001 46.4513 27.492 46.4513 28.0663C46.4513 28.4213 46.2321 29.1315 45.3027 29.1315H44.6452V27.001Z" fill="white"/>
<path fill-rule="evenodd" clip-rule="evenodd" d="M24.1428 21.5193H23.7285V23.1895C23.7416 23.3008 23.7322 23.4136 23.701 23.5213C23.6697 23.629 23.6173 23.7293 23.5466 23.8163C23.3626 23.9795 23.1214 24.063 22.8759 24.0487C22.7612 24.0523 22.647 24.0324 22.5403 23.9902C22.4337 23.9479 22.3368 23.8843 22.2556 23.8032C22.1241 23.6738 22.0825 23.538 22.0825 23.2158V21.5193H21.6704V23.3034C21.6704 24.0859 22.26 24.4278 22.865 24.4278C23.7198 24.4278 24.1428 23.9632 24.1428 23.2618V21.5193Z" fill="white"/>
<path fill-rule="evenodd" clip-rule="evenodd" d="M27.7878 21.5193H27.4021V23.744L25.4535 21.5193H25.127V24.3884H25.5149V22.1768L27.4349 24.3884H27.7878V21.5193Z" fill="white"/>
<path d="M29.2585 21.5193H28.8442V24.3884H29.2585V21.5193Z" fill="white"/>
<path fill-rule="evenodd" clip-rule="evenodd" d="M32.542 21.5193H32.1343L31.2752 23.5336L30.4116 21.5193H29.9995L31.2423 24.4147H31.3256L32.542 21.5193Z" fill="white"/>
<path fill-rule="evenodd" clip-rule="evenodd" d="M34.909 21.5193H33.2783V24.3884H34.9463V24.018H33.6926V23.1259H34.8652V22.7555H33.6926V21.8875H34.909V21.5193Z" fill="white"/>
<path fill-rule="evenodd" clip-rule="evenodd" d="M35.8145 21.5193V24.3884H36.2265V23.1434H36.3997C36.6189 23.1434 36.7832 23.2092 37.1624 23.801L37.5394 24.3906H38.0348C37.8353 24.1166 37.7652 24.0202 37.6424 23.8251C37.4909 23.515 37.2723 23.2425 37.0024 23.0273C37.147 22.9764 37.2715 22.8808 37.3578 22.7542C37.4442 22.6276 37.4878 22.4768 37.4824 22.3237C37.4824 21.8261 37.1186 21.5215 36.5399 21.5215H35.8145V21.5193ZM36.2265 21.8722H36.4917C36.8928 21.8722 37.0528 22.0366 37.0572 22.3105C37.0616 22.5845 36.9345 22.7774 36.4917 22.7774H36.2265V21.8722Z" fill="white"/>
<path fill-rule="evenodd" clip-rule="evenodd" d="M40.1344 21.6816C39.9457 21.5529 39.7229 21.4834 39.4944 21.4822C38.9684 21.4822 38.6177 21.7803 38.6177 22.2471C38.6177 23.0318 39.8582 23.0997 39.8582 23.6959C39.8582 23.8537 39.7092 24.0554 39.3914 24.0554C39.2412 24.05 39.0944 24.0095 38.9628 23.9372C38.8311 23.8649 38.7181 23.7627 38.633 23.6389V24.1628C38.8632 24.3401 39.1469 24.4336 39.4374 24.428C39.5423 24.4328 39.647 24.4161 39.7452 24.3789C39.8434 24.3417 39.9329 24.2848 40.0082 24.2117C40.0836 24.1386 40.1432 24.0508 40.1834 23.9538C40.2235 23.8569 40.2434 23.7527 40.2418 23.6477C40.2418 22.7337 38.9991 22.7425 38.9991 22.1923C38.9991 21.9907 39.1897 21.8504 39.455 21.8504C39.7099 21.8567 39.9519 21.9639 40.1278 22.1485V21.6816" fill="white"/>
<path d="M41.5351 21.5193H41.123V24.3884H41.5351V21.5193Z" fill="white"/>
<path fill-rule="evenodd" clip-rule="evenodd" d="M42.5984 24.3884H43.7184C43.9137 24.3981 44.1089 24.3683 44.2923 24.3008C44.4758 24.2332 44.6437 24.1292 44.786 23.9951C44.9282 23.8611 45.0419 23.6996 45.1203 23.5205C45.1986 23.3413 45.2399 23.1482 45.2417 22.9527C45.2417 22.2755 44.7749 21.5193 43.7074 21.5193H42.5918V24.3884H42.5984ZM43.0039 21.8875H43.6395C44.4439 21.8875 44.8099 22.3785 44.8099 22.9527C44.8099 23.3078 44.5907 24.018 43.6614 24.018H43.0039V21.8875Z" fill="white"/>
<path fill-rule="evenodd" clip-rule="evenodd" d="M47.1505 21.502H46.859L45.625 24.3886H46.0458L46.4075 23.5425H47.6305L48.0141 24.3886H48.4393L47.1505 21.502ZM46.9993 22.131L47.4617 23.1743H46.5697L46.9993 22.131Z" fill="white"/>
<path fill-rule="evenodd" clip-rule="evenodd" d="M49.1758 24.3884H50.2958C50.492 24.3997 50.6884 24.371 50.8731 24.3041C51.0578 24.2372 51.2271 24.1335 51.3705 23.9993C51.514 23.865 51.6287 23.7031 51.7077 23.5232C51.7867 23.3433 51.8283 23.1492 51.8301 22.9527C51.8301 22.2755 51.3632 21.5193 50.2958 21.5193H49.178V24.3884H49.1758ZM49.59 21.8875H50.2279C51.0323 21.8875 51.3983 22.3785 51.3983 22.9527C51.3983 23.3078 51.1791 24.018 50.2498 24.018H49.5922L49.59 21.8875Z" fill="white"/>
<path fill-rule="evenodd" clip-rule="evenodd" d="M55.131 21.502H54.8395L53.6055 24.3886H54.0285L54.3901 23.5425H55.611L55.9946 24.3886H56.4154L55.131 21.502ZM54.9797 22.131L55.4444 23.1743H54.5501L54.9797 22.131Z" fill="white"/>
<path fill-rule="evenodd" clip-rule="evenodd" d="M58.7407 24.3884H59.8607C60.0568 24.3994 60.2531 24.3705 60.4377 24.3035C60.6223 24.2365 60.7914 24.1327 60.9348 23.9986C61.0782 23.8644 61.1929 23.7025 61.272 23.5228C61.3511 23.343 61.393 23.1491 61.395 22.9527C61.395 22.2755 60.926 21.5193 59.8607 21.5193H58.7407V24.3884ZM59.1528 21.8875H59.7884C60.5928 21.8875 60.961 22.3785 60.961 22.9527C60.961 23.3078 60.7419 24.018 59.8103 24.018H59.1528V21.8875Z" fill="white"/>
<path d="M62.7407 21.5193H62.3286V24.3884H62.7407V21.5193Z" fill="white"/>
<path fill-rule="evenodd" clip-rule="evenodd" d="M65.1652 21.6816C64.9762 21.5535 64.7535 21.4841 64.5252 21.4822C63.9969 21.4822 63.6484 21.7803 63.6484 22.2471C63.6484 23.0318 64.8912 23.0997 64.8912 23.6959C64.8912 23.8537 64.7443 24.0554 64.4243 24.0554C64.2745 24.05 64.128 24.0095 63.9967 23.9372C63.8653 23.8648 63.7528 23.7627 63.6682 23.6389V24.1628C63.8972 24.3407 64.1804 24.4343 64.4704 24.428C64.5752 24.4328 64.68 24.4161 64.7781 24.3789C64.8763 24.3417 64.9658 24.2848 65.0412 24.2117C65.1165 24.1386 65.1761 24.0508 65.2163 23.9538C65.2565 23.8569 65.2764 23.7527 65.2748 23.6477C65.2748 22.7337 64.032 22.7425 64.032 22.1923C64.032 21.9907 64.2249 21.8504 64.4879 21.8504C64.6145 21.8532 64.7393 21.881 64.8552 21.9322C64.971 21.9833 65.0756 22.0568 65.163 22.1485V21.6816" fill="white"/>
<path fill-rule="evenodd" clip-rule="evenodd" d="M68.3061 21.5193H65.9038V21.8875H66.8967V24.3884H67.311V21.8875H68.3061V21.5193Z" fill="white"/>
<path fill-rule="evenodd" clip-rule="evenodd" d="M69.8993 21.502H69.6078L68.3848 24.3886H68.8056L69.1694 23.5425H70.3903L70.7717 24.3886H71.1925L69.8993 21.502ZM69.7481 22.131L70.2106 23.1743H69.3185L69.7481 22.131Z" fill="white"/>
<path fill-rule="evenodd" clip-rule="evenodd" d="M74.5769 21.5193H74.1911V23.744L72.247 21.5193H71.916V24.3884H72.304V22.1768L74.2262 24.3884H74.5769V21.5193Z" fill="white"/>
<path fill-rule="evenodd" clip-rule="evenodd" d="M78.0794 21.7166C77.7703 21.5714 77.4345 21.4916 77.0931 21.4821C76.8887 21.4713 76.6842 21.5025 76.4923 21.5739C76.3005 21.6452 76.1253 21.7551 75.9776 21.8969C75.8299 22.0386 75.7128 22.2092 75.6336 22.3979C75.5544 22.5867 75.5148 22.7897 75.5172 22.9944C75.5219 23.1912 75.5661 23.3851 75.6471 23.5645C75.7281 23.7439 75.8443 23.9053 75.9888 24.0389C76.1333 24.1726 76.3032 24.2759 76.4884 24.3427C76.6735 24.4095 76.8702 24.4385 77.0668 24.4279C77.4304 24.4346 77.7897 24.3478 78.1101 24.1758V23.7243C77.8119 23.9248 77.4632 24.0372 77.1041 24.0487C76.4158 24.0487 75.9446 23.6103 75.9446 22.9528C75.9444 22.8047 75.9743 22.6582 76.0324 22.5219C76.0904 22.3857 76.1755 22.2627 76.2824 22.1603C76.3894 22.0579 76.5159 21.9782 76.6545 21.926C76.7931 21.8739 76.9408 21.8504 77.0887 21.8569C77.4402 21.8622 77.7833 21.9655 78.0794 22.155V21.7166Z" fill="white"/>
<path d="M79.4472 21.5193H79.0396V24.3884H79.4472V21.5193Z" fill="white"/>
<path fill-rule="evenodd" clip-rule="evenodd" d="M81.7179 21.502H81.4264L80.1924 24.3886H80.6132L80.9749 23.5425H82.1935L82.5793 24.3886H83.0001L81.7179 21.502ZM81.5645 22.131L82.0291 23.1743H81.1371L81.5645 22.131Z" fill="white"/>
</svg>
