<svg width="30" height="41" viewBox="0 0 30 41" fill="none" xmlns="http://www.w3.org/2000/svg">
<path d="M13.6122 1.33229C13.6107 1.07917 13.7068 0.835209 13.8806 0.651182C14.0544 0.467155 14.2925 0.357237 14.5453 0.344303C14.7981 0.33137 15.0461 0.416418 15.2378 0.581746C15.4294 0.747075 15.55 0.979949 15.5743 1.2319C15.5912 1.38321 15.5715 1.53636 15.5169 1.67849C15.4623 1.82061 15.3744 1.94756 15.2606 2.04867C15.2161 2.09886 15.1305 2.1308 15.1465 2.21065C15.1465 2.52436 15.1397 2.83806 15.1533 3.15176C15.4171 2.97398 15.6905 2.81099 15.9724 2.66353C15.9668 2.48334 16.0295 2.30771 16.1481 2.17187C16.2531 2.06204 16.3824 1.97839 16.5257 1.92767C16.6689 1.87695 16.8221 1.86057 16.9728 1.87984C17.0617 1.8918 17.1467 1.92378 17.2214 1.97338C17.2961 2.02298 17.3585 2.0889 17.404 2.16616C17.458 2.31031 17.456 2.46947 17.3983 2.61219C17.3369 2.84844 17.1923 3.0546 16.9911 3.19283C16.8488 3.27663 16.6811 3.3062 16.5188 3.2761C16.1195 3.65369 15.5937 3.84647 15.1397 4.13964C15.1397 5.9382 15.1343 7.73676 15.1237 9.53533C15.2935 9.67802 15.455 9.83037 15.6074 9.99162C16.5302 11.0251 16.9363 12.4248 16.9945 13.7868C16.8405 15.2812 16.1116 16.6763 15.0883 17.7623C15.0792 20.3678 15.0792 22.9721 15.0666 25.5764C15.2138 25.703 15.3895 25.7885 15.5458 25.9003C15.6594 26.0134 15.744 26.1524 15.7922 26.3053C15.8082 26.3647 15.8059 26.4275 15.7855 26.4855C15.7651 26.5436 15.7277 26.5941 15.6781 26.6304C15.493 26.7436 15.2831 26.8101 15.0666 26.8243C15.0587 27.997 15.0564 29.1697 15.0484 30.3424C14.9685 30.3424 14.8887 30.3424 14.8077 30.3332C14.7837 29.1069 14.7507 27.8829 14.7176 26.6566C13.7673 26.2003 12.9095 25.4851 12.4156 24.5394C11.9467 23.6656 11.811 22.6538 11.8566 21.6739C11.7685 20.8881 11.905 20.0935 12.2502 19.3822C12.7475 18.327 13.5563 17.4543 14.4267 16.6923C14.3799 14.7302 14.3217 12.7682 14.2727 10.805C14.259 10.4764 14.2636 10.1468 14.2396 9.82051C13.6339 9.19767 13.0612 8.50866 12.7567 7.68619C12.5168 7.07937 12.4946 6.40819 12.6939 5.78686C12.9437 5.0374 13.4822 4.41798 14.0799 3.92404C14.0719 3.32743 14.0434 2.73197 14.0297 2.13651C13.9018 2.04591 13.7972 1.92632 13.7245 1.78753C13.6517 1.64874 13.6128 1.49469 13.6111 1.33799L13.6122 1.33229ZM13.2814 6.49754C13.2939 7.27895 13.7251 7.9805 14.21 8.56342C14.1769 7.32686 14.1369 6.0903 14.0959 4.85374C13.6259 5.26783 13.2643 5.85417 13.2757 6.49754H13.2814ZM15.1168 10.7069C15.1168 12.4876 15.1031 14.2694 15.1009 16.0501C15.5143 15.5497 15.8245 14.9724 16.0135 14.3515C16.1844 13.7566 16.1958 13.1271 16.0465 12.5263C15.8679 11.8598 15.5516 11.238 15.118 10.7012L15.1168 10.7069ZM14.0103 18.7935C13.4879 19.3422 13.0167 19.956 12.727 20.6609C12.4962 21.1998 12.4215 21.7927 12.5114 22.372C12.6096 22.9019 12.8295 23.4017 13.1536 23.8322C13.5838 24.398 14.0977 24.895 14.6777 25.306C14.6161 22.9835 14.5453 20.6621 14.4803 18.3407C14.3147 18.4833 14.1577 18.6356 14.0103 18.797V18.7935ZM21.9955 37.156L22.0423 37.1446C22.2088 37.5199 22.3537 37.9066 22.5259 38.2853C22.5567 38.3731 22.6457 38.3994 22.7256 38.4302C22.545 38.4593 22.3609 38.4593 22.1803 38.4302C22.2282 38.4005 22.3183 38.4131 22.3274 38.3424C22.3037 38.2306 22.2654 38.1224 22.2134 38.0207C22.0491 38.0207 21.8848 38.0207 21.7206 38.0207C21.6637 38.1215 21.6226 38.2303 21.5985 38.3435C21.619 38.4119 21.7126 38.4119 21.7639 38.4427C21.6185 38.4553 21.4724 38.4553 21.327 38.4427C21.5072 38.3789 21.5552 38.1826 21.6225 38.0275C21.7479 37.74 21.8677 37.4503 21.9932 37.164L21.9955 37.156ZM21.7445 37.9499H22.1848C22.1153 37.7834 22.048 37.6157 21.9738 37.4514C21.8892 37.6136 21.8131 37.78 21.7457 37.9499H21.7445ZM26.0337 37.172C26.1478 37.164 26.2618 37.172 26.3828 37.172C26.6428 37.4845 26.8892 37.8108 27.1607 38.1142C27.1607 37.8404 27.1733 37.5667 27.155 37.294C27.155 37.213 27.0581 37.2096 26.9976 37.2016V37.1697C27.1413 37.1697 27.2839 37.1697 27.4277 37.1754C27.3672 37.221 27.2451 37.213 27.2543 37.3157C27.2394 37.7047 27.2543 38.0948 27.2452 38.4849C27.0828 38.3172 26.9304 38.1401 26.7889 37.9545L26.3713 37.4446C26.3713 37.6864 26.3713 37.9294 26.3713 38.1712C26.3659 38.2425 26.3744 38.3142 26.3964 38.3823C26.4523 38.4062 26.5105 38.4233 26.5698 38.4439C26.4095 38.4541 26.2487 38.4541 26.0884 38.4439C26.1386 38.4268 26.1877 38.4074 26.2379 38.3891C26.2881 38.3709 26.2789 38.2887 26.2869 38.2385C26.2869 37.9374 26.2869 37.6362 26.2869 37.3351C26.239 37.2347 26.1204 37.229 26.0394 37.1708L26.0337 37.172ZM24.0556 39.539C24.0842 39.4463 24.129 39.3593 24.188 39.2823C24.3511 39.6645 24.504 40.0523 24.6739 40.4333C24.6888 40.4711 24.7134 40.5042 24.7453 40.5292C24.7771 40.5543 24.8151 40.5704 24.8553 40.5759V40.6067C24.6888 40.6067 24.5222 40.6067 24.3568 40.6067C24.3979 40.5771 24.4389 40.5485 24.4823 40.5223C24.4658 40.4021 24.4271 40.2861 24.3682 40.1801C24.2051 40.1801 24.0397 40.1801 23.8754 40.1801C23.8187 40.2881 23.7765 40.4032 23.7499 40.5223C23.807 40.5451 23.864 40.5702 23.9188 40.5987C23.79 40.6183 23.6586 40.6125 23.5321 40.5816C23.5537 40.5303 23.6324 40.5291 23.6461 40.4675C23.7944 40.163 23.9153 39.8458 24.0522 39.5367L24.0556 39.539ZM24.1104 39.6177C24.034 39.7763 23.9712 39.9417 23.9005 40.1036H24.3363C24.269 39.9382 24.2028 39.7717 24.1298 39.6097L24.1104 39.6177Z" fill="white"/>
<path d="M0.180176 16.0762C0.18702 11.3798 0.180176 6.68225 0.180176 1.98584C4.14005 1.98584 8.10031 1.98584 12.0609 1.98584C12.0609 2.06569 12.061 2.14554 12.0507 2.22654C10.6664 2.46231 9.32788 2.91464 8.08434 3.5669C6.98912 4.14507 5.97276 4.86162 5.06025 5.69894C4.10305 6.56277 3.25284 7.53821 2.52781 8.60439C1.76186 9.73936 1.17262 10.984 0.780203 12.2958C0.474389 13.3282 0.28499 14.3915 0.215539 15.4659C0.19382 15.6728 0.185817 15.8809 0.191583 16.0888L0.180176 16.0774V16.0762ZM0.755107 32.8576C0.982663 32.548 1.30878 32.325 1.67987 32.2253C2.05096 32.1255 2.44493 32.155 2.79703 32.3089C2.90311 32.35 3.03088 32.4538 3.13925 32.3648C3.22822 32.31 3.20313 32.123 3.33774 32.1675C3.35713 32.5599 3.39021 32.95 3.41416 33.3424L3.33317 33.3242C3.26335 33.0693 3.13393 32.8347 2.95559 32.6397C2.505 32.204 1.6734 32.2553 1.30152 32.7663C1.00949 33.1656 0.959299 33.6789 0.972988 34.1615C0.993521 34.5276 1.08706 34.9155 1.35513 35.1881C1.52806 35.3517 1.74235 35.4651 1.97492 35.516C2.20749 35.5668 2.44953 35.5532 2.67497 35.4767C2.99665 35.3695 3.21682 35.0934 3.4096 34.8311C3.43812 34.8482 3.4655 34.8642 3.49288 34.8824C3.30808 35.2018 3.05483 35.5041 2.70463 35.6467C2.32364 35.7924 1.90496 35.8068 1.51484 35.6878C1.25817 35.6032 1.02689 35.4555 0.842291 35.2582C0.657696 35.0608 0.52572 34.8202 0.458516 34.5584C0.379457 34.2706 0.365049 33.9689 0.416326 33.6748C0.467602 33.3808 0.583294 33.1017 0.755107 32.8576ZM5.27242 32.1891C5.59715 32.1297 5.93225 32.1695 6.23407 32.3032C6.47876 32.4225 6.69239 32.597 6.85808 32.813C7.02378 33.029 7.13702 33.2805 7.18886 33.5477C7.28325 34.0119 7.21138 34.4944 6.98581 34.9109C6.77304 35.2814 6.43039 35.5599 6.02417 35.6923C5.75388 35.7757 5.46679 35.7886 5.19009 35.7299C4.9134 35.6712 4.65628 35.5429 4.44311 35.357C4.26913 35.2009 4.12812 35.0116 4.02841 34.8002C3.92869 34.5888 3.87227 34.3596 3.86247 34.1261C3.81986 33.7095 3.91697 33.2905 4.13853 32.9352C4.26607 32.7393 4.43256 32.5718 4.62763 32.4431C4.82271 32.3143 5.04219 32.2271 5.27242 32.1868V32.1891ZM5.26216 32.3796C5.04464 32.4374 4.85613 32.5735 4.73286 32.7618C4.48189 33.1268 4.43284 33.5877 4.43855 34.0166C4.44425 34.4455 4.53893 34.9497 4.85149 35.2942C5.2017 35.6809 5.86561 35.6627 6.23064 35.3068C6.50214 35.0592 6.60024 34.6828 6.63332 34.3292C6.66408 33.9859 6.64409 33.6399 6.57401 33.3025C6.52196 33.022 6.38357 32.7647 6.17817 32.5667C6.05086 32.4671 5.90225 32.3983 5.74394 32.3656C5.58563 32.333 5.42191 32.3374 5.26558 32.3785L5.26216 32.3796ZM13.0089 32.1618H13.1024C13.4857 33.088 13.8759 34.0109 14.2603 34.936C14.3241 35.107 14.4088 35.2695 14.5124 35.4197C14.5946 35.512 14.7087 35.5699 14.8318 35.5817C14.8991 35.5714 14.8877 35.6387 14.8923 35.6809C14.436 35.6809 13.9899 35.6809 13.5382 35.6809C13.5382 35.6581 13.5291 35.6113 13.5268 35.5885C13.6489 35.5737 13.8131 35.5703 13.869 35.4368C13.9021 35.2965 13.8291 35.1596 13.7835 35.0318C13.7139 34.8619 13.6409 34.6953 13.5713 34.5265H12.2366C12.1362 34.7889 11.9936 35.0364 11.9252 35.309C11.8807 35.4414 12.0085 35.5509 12.1305 35.56C12.1978 35.5874 12.3587 35.5463 12.3153 35.6672C12.2675 35.6803 12.2177 35.685 12.1682 35.6809C11.8545 35.6809 11.5419 35.6809 11.2294 35.6809C11.2294 35.649 11.2294 35.6159 11.2373 35.5851C11.3589 35.5784 11.4732 35.5253 11.5567 35.4368C11.6997 35.2156 11.8176 34.9792 11.9081 34.7318C12.2754 33.874 12.6423 33.0162 13.0089 32.1583V32.1618ZM12.3142 34.3406C12.7077 34.3406 13.1002 34.3406 13.4926 34.3406C13.3066 33.8763 13.107 33.4177 12.9154 32.9568C12.702 33.4131 12.5138 33.8786 12.3142 34.3406ZM24.1562 32.2462C24.5938 32.1098 25.0654 32.1316 25.4886 32.3078C25.5901 32.3283 25.7167 32.4218 25.8068 32.3329C25.8293 32.2768 25.8447 32.2182 25.8525 32.1583H25.9426L26.0316 33.2523L25.9449 33.2363C25.8525 33.0082 25.7555 32.7709 25.5639 32.6055C25.2832 32.3454 24.868 32.2918 24.5041 32.3648C24.2231 32.4263 23.9774 32.5954 23.8197 32.8359C23.5595 33.2501 23.4605 33.7453 23.5413 34.2276C23.5842 34.5746 23.7242 34.9024 23.9451 35.1733C24.0673 35.3124 24.2195 35.4216 24.3904 35.4928C24.5612 35.564 24.746 35.5952 24.9307 35.584C25.1483 35.5682 25.3599 35.5059 25.5513 35.4014C25.5513 35.0433 25.5513 34.6854 25.5513 34.328C25.5445 34.2139 25.5513 34.0679 25.4543 33.9858C25.3574 33.9037 25.2193 33.9082 25.0996 33.8968C25.0996 33.8729 25.0996 33.8261 25.0996 33.8033H26.432V33.8968C26.3777 33.8906 26.3227 33.8957 26.2704 33.9118C26.2182 33.9279 26.1699 33.9547 26.1285 33.9904C26.068 34.0938 26.0402 34.2131 26.0487 34.3326C26.0487 34.7056 26.0487 35.0798 26.0487 35.4528C25.7601 35.615 25.4406 35.7149 25.111 35.7459C24.6984 35.7935 24.2805 35.733 23.8984 35.5703C23.6224 35.4373 23.3875 35.2321 23.2186 34.9764C23.0497 34.7208 22.9531 34.4242 22.939 34.1181C22.8865 33.3196 23.3953 32.5028 24.1585 32.245L24.1562 32.2462ZM7.36682 32.2348H8.29538C8.9205 32.9991 9.54486 33.7645 10.1685 34.5311C10.2374 34.6259 10.3137 34.7151 10.3966 34.798C10.3966 34.1386 10.3966 33.4793 10.3966 32.82C10.4061 32.6906 10.3833 32.5608 10.3305 32.4424C10.2301 32.3169 10.0521 32.3283 9.90838 32.3283C9.90838 32.3066 9.90838 32.261 9.90838 32.2382H11.1107V32.3283C10.9738 32.334 10.8141 32.3203 10.708 32.4264C10.6202 32.5234 10.6293 32.666 10.6225 32.7892C10.6225 33.7748 10.6225 34.7603 10.6225 35.7459C10.5965 35.7485 10.5703 35.7443 10.5464 35.734C10.5224 35.7236 10.5015 35.7073 10.4856 35.6866L8.80415 33.6287C8.62163 33.4166 8.46193 33.1884 8.26572 32.9865C8.25773 33.6824 8.26572 34.3771 8.26572 35.0729C8.25655 35.2099 8.27838 35.3471 8.3296 35.4744C8.42656 35.5999 8.60224 35.5885 8.74483 35.5885C8.75398 35.62 8.75745 35.6528 8.75509 35.6855H7.5539C7.5539 35.665 7.5539 35.6216 7.54591 35.6011C7.67824 35.5828 7.8311 35.6011 7.93833 35.5098C8.04556 35.4186 8.03073 35.2668 8.03871 35.1425C8.03871 34.3257 8.03871 33.5086 8.03871 32.6911C7.95055 32.5705 7.83629 32.4715 7.70448 32.4013C7.5961 32.3555 7.47989 32.3311 7.36225 32.3294C7.36225 32.3078 7.36225 32.2621 7.36225 32.2393L7.36682 32.2348ZM15.0326 32.2393C15.3577 32.2393 15.6816 32.2393 16.0056 32.2393C16.3969 33.0892 16.795 33.9356 17.184 34.7854C17.2022 34.8219 17.2445 34.9474 17.2844 34.8607C17.6844 33.9884 18.0833 33.1139 18.481 32.237C18.8073 32.237 19.1324 32.237 19.4586 32.237C19.4586 32.2599 19.4586 32.3055 19.4586 32.3272C19.3206 32.3329 19.1609 32.3192 19.0559 32.4264C18.951 32.5336 18.9772 32.6648 18.9704 32.7869C18.9704 33.5588 18.9704 34.3311 18.9704 35.1037C18.9598 35.2328 18.9838 35.3623 19.04 35.479C19.1426 35.6011 19.316 35.584 19.4609 35.5931C19.4609 35.617 19.4506 35.665 19.4484 35.6889C18.9624 35.6821 18.4776 35.6889 17.9916 35.6889C17.9915 35.6567 17.995 35.6246 18.0019 35.5931C18.1377 35.5931 18.2996 35.6045 18.4012 35.4938C18.5027 35.3832 18.473 35.2372 18.481 35.1083C18.481 34.3463 18.4879 33.5843 18.481 32.8268C18.0247 33.7748 17.6061 34.7467 17.1498 35.6969L17.0733 35.6889C16.6273 34.7307 16.1916 33.7668 15.7467 32.8063C15.7387 33.5649 15.7467 34.3234 15.7467 35.082C15.7381 35.2157 15.7571 35.3496 15.8026 35.4756C15.9007 35.6125 16.0843 35.5965 16.2338 35.5999C16.2338 35.6239 16.2338 35.6718 16.2338 35.6958C15.8391 35.6958 15.4432 35.6958 15.0485 35.6958C15.0485 35.6718 15.0394 35.6239 15.0371 35.6011C15.166 35.5954 15.3143 35.6125 15.4204 35.5224C15.5265 35.4322 15.5185 35.2771 15.5254 35.1505C15.5254 34.3793 15.5254 33.6082 15.5254 32.8359C15.5254 32.7047 15.5254 32.5542 15.4284 32.4526C15.3314 32.3511 15.1706 32.35 15.0371 32.3386C15.0371 32.3158 15.0371 32.2701 15.0428 32.2484L15.0326 32.2393ZM19.6868 32.2484C20.5708 32.2484 21.4549 32.2484 22.3378 32.2484C22.3561 32.4994 22.3652 32.7515 22.3743 33.0036C22.3515 33.0036 22.3036 33.0036 22.2808 33.0036C22.2397 32.8428 22.2158 32.6534 22.0766 32.5416C21.9682 32.4676 21.838 32.4322 21.707 32.4412C21.3648 32.4355 21.0226 32.4412 20.6724 32.4412C20.661 32.8975 20.6644 33.3538 20.6724 33.8101C20.961 33.8033 21.2427 33.8101 21.5359 33.8033C21.5933 33.8062 21.6508 33.7975 21.7048 33.778C21.7589 33.7584 21.8085 33.7282 21.8508 33.6892C21.9243 33.5765 21.9638 33.445 21.9648 33.3105H22.0549C22.0549 33.7109 22.0549 34.109 22.0549 34.5128H21.9751C21.9181 34.3987 21.9432 34.247 21.861 34.1421C21.8091 34.0918 21.747 34.0532 21.6789 34.0288C21.6109 34.0044 21.5384 33.9948 21.4663 34.0006C21.2005 34.0006 20.9336 34.0006 20.6678 34.0006C20.6678 34.4352 20.661 34.8687 20.6678 35.3033C20.6678 35.3878 20.6997 35.4904 20.7944 35.5052C20.9809 35.5235 21.1684 35.5292 21.3557 35.5224C21.5713 35.5224 21.7949 35.536 22.0013 35.4642C22.2397 35.3592 22.3766 35.122 22.4987 34.9064C22.5192 34.8459 22.5785 34.8368 22.6356 34.8402C22.5375 35.1311 22.4405 35.4231 22.3344 35.7106C21.4515 35.7106 20.5686 35.7106 19.6845 35.7106C19.6845 35.6878 19.6845 35.6421 19.6845 35.6193C19.8259 35.6193 19.9845 35.6193 20.0963 35.5167C20.1796 35.4345 20.1682 35.3079 20.1773 35.2007C20.1773 34.4409 20.1773 33.6812 20.1773 32.9192C20.1889 32.7686 20.1695 32.6171 20.1203 32.4743C20.0199 32.3408 19.8316 32.3602 19.6834 32.3534C19.6834 32.3317 19.6834 32.2861 19.6834 32.2633L19.6868 32.2484ZM14.9082 37.1787C15.2504 37.1787 15.6029 37.1787 15.9497 37.1787C15.9589 37.2838 15.9623 37.3893 15.96 37.4947C15.9075 37.424 15.8995 37.3122 15.8071 37.2802C15.7128 37.2597 15.6161 37.2516 15.5197 37.2563C15.5128 37.6099 15.5117 37.9635 15.5197 38.316C15.5197 38.4301 15.6463 38.4198 15.7182 38.4518C15.5283 38.4644 15.3379 38.4667 15.1478 38.4586V38.4347C15.2185 38.421 15.3292 38.4198 15.3257 38.3206C15.3394 37.967 15.3257 37.6133 15.3314 37.2597C15.2353 37.2528 15.1386 37.2586 15.044 37.2768C14.963 37.3065 14.9379 37.3909 14.9196 37.473H14.8854C14.8923 37.3749 14.8968 37.2768 14.9059 37.1787" fill="white"/>
<path d="M17.5249 1.98698C21.4604 1.98698 25.396 1.98698 29.3327 1.98698C29.3407 5.92138 29.3327 9.85806 29.3327 13.7879C29.3327 14.5488 29.3407 15.3085 29.3247 16.0694C29.2931 14.5869 29.0314 13.1184 28.549 11.7163C28.0699 10.3434 27.3769 9.05486 26.4957 7.89828C25.7803 6.96385 24.9677 6.10806 24.0716 5.34531C22.9702 4.3987 21.7283 3.62902 20.3904 3.06384C19.4717 2.67922 18.5128 2.39838 17.5318 2.22654C17.5238 2.14668 17.5238 2.06683 17.5215 1.98584" fill="white"/>
<path d="M0.18226 19.5691C0.18226 18.7398 0.174275 17.9105 0.18226 17.0823C0.21977 18.6851 0.525935 20.2703 1.088 21.7718C1.58895 23.0842 2.28713 24.3124 3.15844 25.4142C4.6414 27.285 6.51791 28.8706 8.69672 29.8699C10.4211 30.6552 12.2871 31.0821 14.1814 31.1247C13.7068 31.143 13.23 31.135 12.7543 31.1362H0.18226C0.18226 27.2805 0.18226 23.424 0.18226 19.5668" fill="white"/>
<path d="M28.1979 22.3444C28.8977 20.6995 29.2816 18.9376 29.3295 17.1506C29.3432 19.4059 29.3295 21.6611 29.3352 23.9163C29.3352 26.3233 29.3352 28.7303 29.3352 31.1372C25.319 31.1372 21.3025 31.1372 17.2856 31.1372C16.6422 31.1372 15.9988 31.1463 15.3555 31.1269C17.402 31.079 19.4129 30.5821 21.2462 29.6714C22.7457 28.9074 24.1049 27.8949 25.2662 26.6769C26.4988 25.4225 27.4919 23.9534 28.1967 22.3421" fill="white"/>
<path d="M26.6152 32.2405C27.4997 32.2405 28.3834 32.2405 29.2663 32.2405C29.28 32.4914 29.2937 32.7424 29.3039 32.9945H29.2047C29.1636 32.8337 29.1431 32.6466 29.0074 32.5382C28.8898 32.4576 28.7478 32.4205 28.6058 32.4333C28.2636 32.4333 27.9305 32.4333 27.594 32.4333C27.5849 32.8896 27.594 33.3459 27.594 33.7942C27.8632 33.7942 28.1324 33.7942 28.4028 33.7942C28.5316 33.8036 28.6596 33.7663 28.7632 33.6892C28.849 33.5759 28.8954 33.4377 28.8956 33.2957H28.9868C28.9868 33.6904 28.9925 34.0851 28.9868 34.4797L28.8956 34.4969C28.8866 34.3748 28.8569 34.2552 28.8077 34.1432C28.721 34.012 28.5522 33.9835 28.4062 33.9812C28.1381 33.9812 27.8689 33.9812 27.6008 33.9812C27.6008 34.417 27.5917 34.8539 27.6008 35.2897C27.5933 35.3342 27.6033 35.3798 27.6285 35.4172C27.6538 35.4546 27.6925 35.4808 27.7366 35.4904C27.9647 35.519 28.2043 35.4984 28.437 35.5041C28.6457 35.4973 28.8785 35.5121 29.053 35.3786C29.2271 35.2285 29.3661 35.042 29.4602 34.8322L29.564 34.8265C29.4694 35.1174 29.369 35.406 29.2686 35.6935C28.3845 35.6935 27.5027 35.6935 26.6198 35.6935V35.5988C26.766 35.6172 26.9137 35.5802 27.0339 35.495C27.1194 35.4015 27.1023 35.2669 27.1115 35.1459C27.1115 34.3763 27.1115 33.6052 27.1115 32.8325C27.1201 32.6981 27.0966 32.5636 27.043 32.4401C26.9289 32.326 26.7612 32.3443 26.6164 32.3374C26.6164 32.3135 26.6164 32.269 26.6164 32.2462" fill="white"/>
<path d="M6.76184 36.7361C6.83256 36.7361 6.90215 36.7361 6.97287 36.7361C6.87922 36.8576 6.77665 36.972 6.66602 37.0783C6.69225 36.9642 6.72876 36.8502 6.76184 36.7361Z" fill="white"/>
<path d="M0.221093 37.2926C0.348357 37.1784 0.515741 37.1193 0.686513 37.1283C0.794884 37.1465 0.900877 37.1767 1.0025 37.2185C1.02865 37.1858 1.05851 37.1564 1.09147 37.1306C1.10174 37.2789 1.11771 37.4272 1.11657 37.5755C1.05383 37.4877 1.02988 37.3759 0.947742 37.3029C0.905204 37.2648 0.855409 37.2358 0.801353 37.2175C0.747296 37.1992 0.690095 37.192 0.63319 37.1963C0.576285 37.2007 0.520851 37.2165 0.470223 37.2429C0.419596 37.2692 0.37482 37.3056 0.338589 37.3496C0.250159 37.4849 0.206647 37.6446 0.214248 37.8059C0.206442 37.9509 0.246526 38.0944 0.328322 38.2143C0.395914 38.2957 0.488689 38.3522 0.591983 38.3749C0.695277 38.3976 0.803199 38.3853 0.89869 38.3398C1.00478 38.2908 1.05953 38.1801 1.15422 38.1117C1.02873 38.4892 0.49601 38.5771 0.214248 38.3227C0.146372 38.2555 0.0924868 38.1756 0.0557112 38.0875C0.0189357 37.9994 0 37.9048 0 37.8094C0 37.7139 0.0189357 37.6194 0.0557112 37.5312C0.0924868 37.4431 0.146372 37.3632 0.214248 37.296L0.221093 37.2926ZM16.0545 37.1591C16.2393 37.1751 16.4355 37.1295 16.6146 37.182C16.5485 37.2025 16.4447 37.182 16.4253 37.2744C16.4036 37.4637 16.4253 37.6554 16.415 37.8447C16.4089 38.0102 16.4131 38.176 16.4275 38.3409C16.464 38.4117 16.5576 38.3957 16.6203 38.4242C16.4249 38.4539 16.226 38.4539 16.0306 38.4242C16.0866 38.4129 16.1418 38.398 16.196 38.3797C16.2484 38.3079 16.2291 38.2109 16.2348 38.1276C16.2279 37.8459 16.245 37.5641 16.2268 37.2835C16.2142 37.2014 16.1184 37.2014 16.0545 37.1911V37.1603V37.1591ZM24.0397 37.1706C24.2256 37.15 24.4138 37.1706 24.6021 37.1603C24.6015 37.1709 24.6015 37.1816 24.6021 37.1922C24.5495 37.191 24.498 37.2066 24.4549 37.2367C24.4279 37.3436 24.419 37.4543 24.4287 37.5641C24.4344 37.8105 24.4195 38.058 24.4355 38.3044C24.4355 38.4105 24.5644 38.3946 24.6317 38.4265C24.4423 38.4467 24.2515 38.4513 24.0613 38.4402V38.4128C24.1078 38.4088 24.1538 38.3996 24.1982 38.3854C24.2564 38.3421 24.2382 38.26 24.245 38.1972C24.245 37.8972 24.253 37.5949 24.245 37.2938C24.245 37.1945 24.115 37.2071 24.0477 37.1706" fill="white"/>
<path d="M1.72819 37.1583C1.82753 37.1242 1.93407 37.1168 2.03717 37.1369C2.14026 37.1569 2.23629 37.2036 2.31567 37.2724C2.38816 37.338 2.44622 37.418 2.48616 37.5073C2.5261 37.5966 2.54706 37.6932 2.54771 37.791C2.54835 37.8888 2.52866 37.9857 2.4899 38.0755C2.45113 38.1653 2.39414 38.2461 2.32252 38.3127C2.21782 38.4055 2.08464 38.46 1.94489 38.467C1.80515 38.4741 1.66717 38.4333 1.55366 38.3515C1.42652 38.2471 1.33904 38.1023 1.30582 37.9412C1.2726 37.7801 1.29566 37.6124 1.37114 37.4663C1.4478 37.3216 1.57669 37.2114 1.73161 37.1583H1.72819ZM1.76127 37.2279C1.5183 37.3568 1.4989 37.6716 1.5183 37.9123C1.51886 38.0008 1.54071 38.0878 1.58201 38.166C1.62331 38.2443 1.68284 38.3114 1.75557 38.3618C1.82806 38.3959 1.9094 38.4064 1.98818 38.3918C2.06695 38.3773 2.13919 38.3385 2.19475 38.2808C2.29421 38.1565 2.3431 37.9992 2.33164 37.8405C2.34833 37.657 2.3025 37.4733 2.2016 37.3191C2.14755 37.2589 2.0758 37.2175 1.99667 37.2006C1.91754 37.1838 1.83512 37.1926 1.76127 37.2256V37.2279ZM5.06941 37.1549C5.41962 37.1549 5.76868 37.1549 6.11775 37.1549C6.11775 37.2598 6.12801 37.3636 6.12459 37.4697C6.06984 37.4047 6.07098 37.3009 5.9877 37.2621C5.88741 37.233 5.78241 37.2237 5.67856 37.2347C5.67856 37.5644 5.67856 37.8952 5.67856 38.2249C5.68541 38.2728 5.67856 38.339 5.71621 38.3732C5.76944 38.3899 5.82306 38.4093 5.87705 38.4314C5.68997 38.4439 5.50289 38.4314 5.31581 38.4371V38.4085C5.38653 38.4006 5.49605 38.3891 5.49148 38.2945C5.50061 37.942 5.49947 37.5872 5.49148 37.2336C5.39389 37.2289 5.2961 37.2369 5.20059 37.2575C5.11504 37.2975 5.11048 37.4036 5.06142 37.4754C5.05572 37.3682 5.06142 37.2621 5.06827 37.1572L5.06941 37.1549ZM9.7316 37.1629C9.83508 37.1249 9.94699 37.1159 10.0552 37.1371C10.1634 37.1582 10.2637 37.2085 10.3453 37.2826C10.4175 37.3511 10.4745 37.434 10.5123 37.526C10.5502 37.6181 10.5682 37.7171 10.5651 37.8165C10.5619 37.916 10.5378 38.0136 10.4942 38.1031C10.4506 38.1925 10.3886 38.2718 10.3122 38.3355C10.1894 38.4322 10.0343 38.4785 9.87857 38.465C9.72281 38.4514 9.57807 38.379 9.47379 38.2625C9.17606 37.9294 9.29128 37.31 9.7316 37.1629ZM9.7932 37.221C9.59585 37.3054 9.53197 37.5416 9.52741 37.7378C9.50727 37.9294 9.55711 38.1219 9.66772 38.2796C9.70109 38.3165 9.74159 38.3462 9.78677 38.3669C9.83195 38.3877 9.88088 38.399 9.93058 38.4003C9.98028 38.4016 10.0297 38.3928 10.0759 38.3744C10.1221 38.356 10.1641 38.3284 10.1993 38.2933C10.2527 38.2307 10.2931 38.1581 10.3184 38.0798C10.3436 38.0015 10.3532 37.919 10.3465 37.837C10.364 37.6513 10.316 37.4652 10.2107 37.3112C10.1585 37.2555 10.0909 37.2167 10.0165 37.1999C9.94205 37.183 9.86429 37.1888 9.7932 37.2165V37.221ZM11.9606 37.1526H12.3222C12.4739 37.4754 12.6188 37.8005 12.7785 38.1211L12.8104 38.1051C12.9633 37.7914 13.1013 37.4697 13.2485 37.1526C13.374 37.1526 13.4983 37.1526 13.6227 37.1526C13.5736 37.1902 13.5086 37.1857 13.4561 37.2222C13.4338 37.2831 13.4245 37.348 13.4287 37.4127C13.4287 37.6693 13.4287 37.9271 13.4287 38.1838C13.4232 38.2462 13.4359 38.3088 13.4652 38.364L13.6306 38.4222C13.4373 38.4348 13.2433 38.4348 13.05 38.4222C13.1002 38.4063 13.1515 38.3903 13.2006 38.3709C13.2496 38.3515 13.2416 38.2751 13.2474 38.226C13.2474 37.9408 13.2474 37.6557 13.2474 37.3716C13.0888 37.6933 12.9451 38.0241 12.7911 38.3504C12.7705 38.3789 12.7671 38.4507 12.7181 38.4199C12.5492 38.0777 12.4043 37.7161 12.2275 37.3739C12.2275 37.6819 12.2173 37.991 12.2275 38.299C12.2275 38.4051 12.3553 38.3869 12.426 38.4131C12.3037 38.4312 12.1799 38.4373 12.0564 38.4314C12.0106 38.4356 11.9646 38.4239 11.9264 38.3983C11.9982 38.388 12.1363 38.404 12.1317 38.291C12.1488 38.0344 12.1317 37.7766 12.1397 37.5188C12.1507 37.4202 12.1394 37.3204 12.1066 37.2267C12.0638 37.1974 12.0136 37.1808 11.9617 37.1788C11.9617 37.1708 11.9617 37.1549 11.9617 37.148L11.9606 37.1526ZM14.2831 37.2142C14.3014 37.1777 14.3094 37.1104 14.3653 37.14C14.5261 37.5085 14.6721 37.8849 14.8364 38.2534C14.8683 38.3447 14.9607 38.3857 15.0417 38.4256C14.8626 38.4325 14.6824 38.4348 14.5033 38.4256C14.5489 38.3926 14.6311 38.3846 14.647 38.323C14.6256 38.2099 14.5871 38.1006 14.533 37.999C14.3744 38.0047 14.2158 37.999 14.0584 37.999C13.9757 38.098 13.9315 38.2236 13.9341 38.3526C13.9854 38.3755 14.0356 38.4006 14.0892 38.4199C13.9422 38.4302 13.7947 38.4302 13.6478 38.4199C13.7151 38.3755 13.8018 38.3447 13.8314 38.2625C13.9911 37.9146 14.136 37.5587 14.2877 37.2085L14.2831 37.2142ZM14.2877 37.4127C14.217 37.5838 14.1428 37.7549 14.0687 37.9237H14.509C14.4337 37.7538 14.3721 37.5815 14.2877 37.4127ZM18.5643 37.1435C18.7104 37.0962 18.8688 37.1051 19.0086 37.1684C19.1485 37.2317 19.2597 37.3448 19.3206 37.4857C19.3775 37.6138 19.3961 37.7557 19.374 37.8942C19.3519 38.0327 19.2902 38.1618 19.1963 38.2659C19.1278 38.3381 19.0428 38.3927 18.9487 38.4248C18.8545 38.457 18.7539 38.4659 18.6556 38.4507C18.5151 38.4277 18.3866 38.3576 18.2912 38.2518C18.1959 38.1461 18.1393 38.0111 18.1308 37.869C18.1083 37.7172 18.1392 37.5623 18.2183 37.4307C18.2973 37.2992 18.4197 37.1993 18.5643 37.148V37.1435ZM18.6008 37.2153C18.5331 37.2528 18.4757 37.3063 18.4335 37.3711C18.3914 37.436 18.3658 37.5102 18.359 37.5872C18.3254 37.7738 18.3423 37.966 18.408 38.1439C18.4297 38.2048 18.4668 38.2591 18.5158 38.3013C18.5649 38.3435 18.624 38.3722 18.6875 38.3846C18.7496 38.3952 18.8132 38.3904 18.8729 38.3705C18.9326 38.3506 18.9865 38.3162 19.0297 38.2705C19.1338 38.1349 19.1827 37.965 19.1666 37.7948C19.1767 37.6241 19.1311 37.4548 19.0366 37.3123C18.9838 37.2525 18.9135 37.2108 18.8357 37.1932C18.7579 37.1756 18.6765 37.183 18.6031 37.2142L18.6008 37.2153ZM19.9264 37.1446H20.2629C20.5275 37.456 20.7717 37.7846 21.0454 38.0891C21.0534 37.8747 21.0454 37.6591 21.0454 37.4446C21.0504 37.3676 21.0415 37.2903 21.0192 37.2165C20.9754 37.1851 20.9224 37.1695 20.8686 37.172V37.1412C21.0158 37.1412 21.1618 37.1412 21.3089 37.1412C21.3083 37.1499 21.3083 37.1587 21.3089 37.1674C21.2371 37.1765 21.1321 37.1811 21.1321 37.2815C21.1162 37.6728 21.1321 38.0663 21.1219 38.4587C20.807 38.1382 20.5583 37.7572 20.2481 37.4321C20.2481 37.6807 20.2481 37.9306 20.2481 38.1804C20.2538 38.2409 20.2378 38.3173 20.2903 38.3652C20.345 38.3846 20.4043 38.3926 20.4568 38.4108C20.2935 38.4289 20.1289 38.4315 19.9652 38.4188C20.0313 38.3823 20.1579 38.388 20.1568 38.2865C20.1762 37.9808 20.1625 37.675 20.1648 37.3739C20.1648 37.2484 20.029 37.188 19.9241 37.1754C19.9241 37.1686 19.9241 37.1526 19.9241 37.1446H19.9264ZM23.0999 37.2222C23.192 37.1618 23.2982 37.1263 23.4081 37.1189C23.518 37.1115 23.6279 37.1325 23.7273 37.18C23.7969 37.2279 23.8516 37.1629 23.9007 37.1206C23.9075 37.2678 23.9269 37.4138 23.9258 37.5621C23.8608 37.4766 23.8391 37.3625 23.7547 37.2906C23.7093 37.2501 23.6556 37.22 23.5974 37.2022C23.5392 37.1845 23.4779 37.1795 23.4176 37.1878C23.3573 37.196 23.2995 37.2172 23.2482 37.2499C23.1969 37.2827 23.1533 37.3261 23.1204 37.3773C23.0571 37.4969 23.0225 37.6295 23.0194 37.7647C23.0162 37.8999 23.0445 38.0341 23.1022 38.1564C23.1665 38.2582 23.2676 38.3314 23.3844 38.3607C23.5012 38.39 23.6248 38.3732 23.7296 38.3139C23.822 38.2602 23.8722 38.1599 23.9577 38.1017C23.8322 38.4793 23.2972 38.5671 23.0178 38.3116C22.9437 38.2387 22.8863 38.1506 22.8497 38.0534C22.813 37.9561 22.798 37.852 22.8056 37.7484C22.8132 37.6447 22.8432 37.544 22.8937 37.4531C22.9441 37.3623 23.0137 37.2835 23.0976 37.2222H23.0999ZM25.1589 37.1526C25.2629 37.1143 25.3754 37.1052 25.4842 37.1263C25.593 37.1475 25.6939 37.198 25.7761 37.2724C25.8462 37.3396 25.9018 37.4207 25.9392 37.5104C25.9767 37.6001 25.9952 37.6965 25.9937 37.7937C25.9922 37.8909 25.9707 37.9868 25.9305 38.0753C25.8903 38.1638 25.8323 38.2431 25.7601 38.3082C25.6572 38.3963 25.528 38.4481 25.3927 38.4553C25.2574 38.4625 25.1235 38.4248 25.0118 38.3481C24.738 38.1644 24.6695 37.772 24.7996 37.4823C24.872 37.3298 25.0009 37.2116 25.1589 37.1526ZM25.2194 37.2108C25.0106 37.302 24.9547 37.553 24.9536 37.7629C24.9447 37.8597 24.9555 37.9573 24.9853 38.0498C25.0151 38.1423 25.0633 38.2279 25.127 38.3013C25.1979 38.3612 25.2887 38.3923 25.3814 38.3885C25.4741 38.3847 25.562 38.3463 25.6278 38.2808C25.6809 38.2181 25.7212 38.1455 25.7462 38.0672C25.7713 37.9889 25.7806 37.9064 25.7738 37.8245C25.7924 37.6378 25.7429 37.4506 25.6346 37.2975C25.5826 37.2423 25.5151 37.2041 25.4411 37.1878C25.367 37.1716 25.2898 37.178 25.2194 37.2062V37.2108ZM12.2367 39.4261C12.3122 39.3662 12.4001 39.3239 12.494 39.3022C12.5879 39.2805 12.6855 39.28 12.7796 39.3006C12.8536 39.3306 12.9299 39.3542 13.0078 39.3713C13.0296 39.3359 13.056 39.3037 13.0865 39.2755C13.1036 39.43 13.1093 39.5856 13.1036 39.7409C13.0703 39.6516 13.0259 39.5669 12.9713 39.4888C12.9299 39.4437 12.8791 39.4081 12.8226 39.3845C12.766 39.3609 12.705 39.35 12.6438 39.3524C12.5826 39.3548 12.5226 39.3704 12.4681 39.3983C12.4135 39.4262 12.3657 39.4657 12.3279 39.5139C12.236 39.6655 12.1959 39.8429 12.2138 40.0193C12.2111 40.166 12.2641 40.3082 12.3621 40.4174C12.4266 40.4743 12.5048 40.5135 12.589 40.5311C12.6732 40.5487 12.7605 40.5441 12.8424 40.5178C12.977 40.4778 13.0466 40.3466 13.1515 40.2645C13.0375 40.6318 12.5253 40.7322 12.2389 40.5029C11.9093 40.2451 11.9241 39.6862 12.2389 39.4261H12.2367ZM15.895 39.3725C15.9167 39.3439 15.9155 39.2641 15.968 39.2915C16.1346 39.6691 16.2806 40.0546 16.4517 40.4322C16.4813 40.5143 16.5658 40.5406 16.6296 40.5942C16.4642 40.601 16.2988 40.5942 16.1334 40.5942V40.5645C16.1735 40.5539 16.2119 40.5378 16.2475 40.5166C16.2612 40.3911 16.1779 40.2805 16.1334 40.1664H15.6361C15.5871 40.2631 15.5488 40.3648 15.522 40.4699C15.5083 40.5486 15.6064 40.544 15.6566 40.5634C15.6572 40.5744 15.6572 40.5855 15.6566 40.5965C15.5265 40.5965 15.3954 40.5965 15.2642 40.5965C15.3132 40.5406 15.3954 40.5178 15.4216 40.4425C15.5859 40.0923 15.7296 39.7318 15.8836 39.3759L15.895 39.3725ZM15.8836 39.5915C15.8106 39.7615 15.7342 39.9337 15.668 40.1003H16.1038C16.0296 39.9314 15.9703 39.758 15.8836 39.5926V39.5915ZM17.0928 40.0558C17.0494 39.6999 17.3209 39.3143 17.6917 39.2926C17.8393 39.2854 17.9867 39.3115 18.1229 39.369C18.1628 39.3519 18.1765 39.3052 18.2039 39.2755C18.2253 39.4209 18.2348 39.5678 18.2324 39.7147C18.1909 39.6255 18.1388 39.5416 18.0772 39.4649C18.029 39.4225 17.9721 39.3911 17.9106 39.3728C17.849 39.3544 17.7843 39.3496 17.7207 39.3586C17.6571 39.3676 17.5962 39.3902 17.5422 39.4249C17.4882 39.4595 17.4423 39.5055 17.4076 39.5595C17.3308 39.6927 17.296 39.8458 17.3076 39.9991C17.3192 40.1523 17.3767 40.2985 17.4726 40.4185C17.548 40.497 17.6482 40.5472 17.7563 40.5605C17.8643 40.5738 17.9736 40.5494 18.0658 40.4915C18.0567 40.3341 18.0727 40.1755 18.0556 40.0193C18.0419 39.9417 17.9506 39.9463 17.8947 39.9246C17.9586 39.8778 18.0442 39.9063 18.1172 39.8995C18.2134 39.8904 18.3105 39.8969 18.4046 39.9189C18.351 39.944 18.2598 39.9428 18.2563 40.0215C18.2358 40.1881 18.2563 40.3558 18.2426 40.5235C18.1267 40.5818 18.0003 40.6164 17.8709 40.6254C17.7414 40.6344 17.6115 40.6176 17.4886 40.5759C17.3814 40.5337 17.2878 40.4628 17.2181 40.3711C17.1483 40.2794 17.105 40.1704 17.0928 40.0558ZM6.98243 39.3223C7.11042 39.305 7.24041 39.3097 7.36685 39.336C7.52427 39.6599 7.66915 39.9885 7.82315 40.3136C7.98741 39.993 8.12088 39.6576 8.27944 39.3348C8.40658 39.3046 8.53902 39.3046 8.66615 39.3348C8.59429 39.3611 8.47109 39.3496 8.47223 39.4557C8.45854 39.7843 8.4631 40.1139 8.47223 40.4436C8.46082 40.5451 8.56349 40.568 8.64334 40.568C8.64334 40.5771 8.64334 40.5919 8.64334 40.5999C8.46995 40.5999 8.30112 40.5999 8.12316 40.5999C8.12316 40.5908 8.12316 40.5771 8.12316 40.5691C8.18704 40.5623 8.27488 40.544 8.27488 40.4641C8.28857 40.1527 8.27488 39.8402 8.27488 39.5287C8.10035 39.8892 7.94863 40.2622 7.76497 40.6181C7.58816 40.2577 7.43073 39.8881 7.25734 39.5265C7.25734 39.8082 7.25734 40.0911 7.25734 40.374C7.25305 40.428 7.26371 40.482 7.28814 40.5303C7.33446 40.5552 7.38613 40.5685 7.43872 40.5691C7.43872 40.5771 7.43872 40.5908 7.43872 40.5988H6.99383C6.99383 40.5908 6.99383 40.5759 6.99383 40.5668C7.04517 40.5577 7.10791 40.5668 7.14327 40.5235C7.16497 40.4636 7.17391 40.3999 7.16951 40.3364C7.16951 40.0786 7.16951 39.8208 7.16951 39.5641C7.16951 39.5048 7.16951 39.4295 7.12502 39.3862C7.07368 39.3645 7.02235 39.3451 6.97216 39.3211L6.98243 39.3223ZM19.5476 39.3314C19.6606 39.3116 19.7758 39.3074 19.8899 39.3188C19.9332 39.328 19.9515 39.3747 19.9811 39.4033C20.2161 39.6941 20.4545 39.9839 20.6895 40.2736C20.6895 40.0375 20.6895 39.8002 20.6895 39.5641C20.6939 39.5048 20.6853 39.4453 20.6644 39.3896C20.6165 39.3485 20.5504 39.3531 20.4899 39.3303C20.6508 39.3103 20.8133 39.308 20.9747 39.3234C20.9211 39.3371 20.872 39.3588 20.8207 39.377C20.7694 39.3953 20.7808 39.4763 20.7751 39.5276C20.7751 39.8949 20.7751 40.2634 20.7751 40.6318C20.6263 40.4799 20.4872 40.3187 20.3587 40.1493C20.2047 39.9622 20.0541 39.7763 19.9024 39.5915C19.9024 39.8835 19.8921 40.1755 19.9024 40.4676C19.9024 40.5508 19.9971 40.5622 20.061 40.568C20.061 40.5759 20.061 40.5908 20.061 40.5999C19.9172 40.5999 19.7735 40.5999 19.6309 40.593C19.6857 40.5463 19.8032 40.5623 19.8054 40.4687C19.8214 40.1664 19.8054 39.863 19.8134 39.5561C19.8328 39.4067 19.6549 39.3565 19.5431 39.328L19.5476 39.3314ZM22.1816 39.328C22.3287 39.3093 22.4773 39.3043 22.6254 39.3131C22.7816 39.3223 22.9619 39.3006 23.0896 39.4101C23.1496 39.46 23.1881 39.531 23.1972 39.6085C23.2063 39.686 23.1854 39.764 23.1387 39.8265C23.0724 39.8986 22.9876 39.9511 22.8934 39.9782C23.0038 40.1495 23.1253 40.3134 23.2573 40.4687C23.3029 40.5292 23.3908 40.5189 23.4398 40.5737C23.3509 40.6204 23.2265 40.5873 23.1239 40.5896C22.9892 40.39 22.8398 40.1984 22.7018 39.9987H22.566C22.5588 40.1646 22.563 40.3308 22.5786 40.4961C22.606 40.5702 22.7029 40.5565 22.7657 40.5759C22.5877 40.6273 22.3926 40.5828 22.2078 40.5976C22.2078 40.5896 22.2078 40.5748 22.2078 40.5668C22.2843 40.5668 22.3881 40.5383 22.3778 40.4413C22.3858 40.1139 22.3892 39.7843 22.3778 39.4569C22.3778 39.3428 22.2523 39.3565 22.1816 39.3303V39.328ZM22.566 39.401C22.566 39.5812 22.566 39.7615 22.566 39.9417C22.6803 39.951 22.7946 39.9226 22.8911 39.8607C22.9216 39.8351 22.9461 39.8032 22.9629 39.7671C22.9797 39.731 22.9884 39.6917 22.9884 39.6519C22.9884 39.6122 22.9797 39.5729 22.9629 39.5368C22.9461 39.5007 22.9216 39.4688 22.8911 39.4432C22.7999 39.3679 22.6755 39.393 22.5683 39.401" fill="white"/>
<path d="M2.64715 37.1617C2.77103 37.1554 2.89515 37.1554 3.01903 37.1617C3.17417 37.4925 3.3179 37.8313 3.48559 38.1553C3.63275 37.8211 3.78789 37.4914 3.94189 37.1594H4.30122C4.30122 37.1674 4.30122 37.1811 4.30122 37.1891C4.24988 37.1994 4.18714 37.1891 4.15178 37.2302C4.12246 37.3024 4.11149 37.3808 4.11984 37.4583C4.11984 37.7389 4.11186 38.0207 4.12668 38.3013C4.12668 38.4063 4.25331 38.3971 4.32175 38.4313C4.12654 38.4487 3.93008 38.446 3.73541 38.4234C3.80842 38.3983 3.93618 38.404 3.93504 38.2967C3.94417 37.9933 3.93504 37.6876 3.93504 37.3842C3.75823 37.7264 3.61221 38.0834 3.44567 38.4302H3.4103C3.24147 38.088 3.09432 37.7241 2.91979 37.3807C2.91979 37.6636 2.91979 37.9511 2.91979 38.2294C2.91979 38.2808 2.91979 38.3435 2.96313 38.3789C3.00648 38.4142 3.0715 38.4051 3.12398 38.4234C2.96178 38.4422 2.79794 38.4422 2.63574 38.4234C2.69278 38.396 2.76921 38.396 2.8137 38.3481C2.83442 38.2253 2.84092 38.1005 2.83309 37.9762C2.82739 37.748 2.84564 37.5131 2.82396 37.2826C2.81598 37.1914 2.70076 37.2062 2.64715 37.156V37.1617ZM10.6471 37.156C10.8251 37.1435 11.0042 37.1503 11.181 37.1503C11.3179 37.1503 11.4742 37.1594 11.5746 37.2644C11.6032 37.2926 11.626 37.3263 11.6415 37.3634C11.657 37.4005 11.665 37.4403 11.665 37.4805C11.665 37.5208 11.657 37.5606 11.6415 37.5977C11.626 37.6348 11.6032 37.6685 11.5746 37.6967C11.5113 37.7504 11.4369 37.7894 11.3567 37.8108C11.4707 37.9659 11.5734 38.1256 11.6989 38.2671C11.7274 38.3004 11.7622 38.3277 11.8014 38.3473C11.8406 38.3668 11.8833 38.3784 11.927 38.3812C11.927 38.3926 11.9362 38.4165 11.9384 38.4291C11.8312 38.4199 11.7229 38.4291 11.6156 38.4188C11.4548 38.2283 11.327 38.0116 11.1685 37.8188L11.0418 37.8245C11.0352 37.9888 11.0394 38.1535 11.0544 38.3173C11.0783 38.3926 11.1685 38.3777 11.2301 38.3971V38.4199C11.0399 38.4302 10.8493 38.4267 10.6597 38.4097C10.7236 38.3777 10.8262 38.3948 10.8536 38.3139C10.8764 38.1291 10.8536 37.942 10.8639 37.756C10.8663 37.5868 10.8579 37.4177 10.8388 37.2495C10.7977 37.1845 10.7087 37.2051 10.6528 37.1628L10.6471 37.156ZM11.0338 37.2416C11.0338 37.4229 11.0338 37.6032 11.0338 37.7846C11.1495 37.7917 11.2645 37.7621 11.3624 37.7001C11.3935 37.6727 11.4179 37.6385 11.4339 37.6002C11.4498 37.5619 11.4569 37.5204 11.4544 37.479C11.452 37.4376 11.4402 37.3972 11.4199 37.361C11.3996 37.3249 11.3714 37.2937 11.3373 37.2701C11.2421 37.2258 11.1345 37.2157 11.0327 37.2416H11.0338ZM16.6794 37.1594C16.8459 37.1526 17.0113 37.1594 17.1767 37.1594C17.1767 37.1674 17.1767 37.1834 17.1767 37.1925L17.049 37.245C17.0854 37.4035 17.1417 37.5568 17.2166 37.7013C17.2839 37.8519 17.3455 38.007 17.4151 38.1576C17.503 38.0515 17.5292 37.8929 17.5919 37.7674C17.6478 37.5986 17.7573 37.4412 17.7653 37.261C17.7231 37.2222 17.6672 37.2028 17.625 37.1651C17.7608 37.1594 17.8977 37.1594 18.0334 37.1651C17.8486 37.2632 17.8053 37.4754 17.7288 37.6511C17.6148 37.9306 17.5007 38.2112 17.3866 38.4884C17.3255 38.3991 17.2768 38.3021 17.2417 38.1998C17.1105 37.9032 16.9862 37.6032 16.8516 37.3089C16.8242 37.2313 16.7375 37.2176 16.6816 37.1651" fill="white"/>
<path d="M4.37256 37.1651C4.55964 37.148 4.74672 37.1651 4.93495 37.156C4.93495 37.164 4.93495 37.18 4.93495 37.1879C4.88361 37.1959 4.82087 37.1879 4.78437 37.2313C4.75673 37.315 4.74664 37.4036 4.75471 37.4914C4.76041 37.7606 4.74672 38.0321 4.76155 38.3024C4.76155 38.404 4.8916 38.3903 4.95776 38.4302C4.76181 38.4445 4.56509 38.4445 4.36914 38.4302C4.44215 38.3983 4.57219 38.4028 4.56991 38.2956C4.5779 37.9602 4.57904 37.6271 4.56991 37.2929C4.56991 37.1902 4.43873 37.2073 4.3737 37.1663" fill="white"/>
<path d="M6.20901 37.1572H7.19803C7.20374 37.2575 7.20374 37.3581 7.19803 37.4584C7.1467 37.3831 7.14214 37.2633 7.04061 37.2371C6.88423 37.2255 6.72734 37.2224 6.57063 37.228C6.57063 37.3956 6.57063 37.5645 6.57063 37.7333C6.69777 37.7377 6.82506 37.7335 6.95163 37.7208C7.03377 37.7048 7.03491 37.6067 7.06571 37.5451C7.09179 37.7008 7.09563 37.8594 7.07711 38.0162C7.04061 37.9558 7.03605 37.8748 6.98243 37.8303C6.85011 37.7789 6.70409 37.8086 6.56606 37.8018C6.57861 37.9831 6.53641 38.1805 6.59002 38.3516C6.73782 38.3744 6.88825 38.3744 7.03605 38.3516C7.16495 38.3231 7.19917 38.1759 7.29614 38.1029C7.27285 38.2177 7.23449 38.329 7.18206 38.4337C6.98357 38.4428 6.7828 38.4337 6.58432 38.4337C6.45092 38.4404 6.31718 38.4339 6.18506 38.4143C6.2478 38.3847 6.3459 38.4041 6.37784 38.3265C6.40066 38.1405 6.37784 37.9523 6.38925 37.7664C6.39479 37.591 6.3906 37.4154 6.3767 37.2405C6.34248 37.1778 6.26263 37.1926 6.20787 37.1801C6.20731 37.1702 6.20731 37.1603 6.20787 37.1504L6.20901 37.1572ZM8.73803 39.3052C9.06656 39.3052 9.39623 39.2973 9.72591 39.3121C9.72591 39.409 9.73503 39.5072 9.72591 39.6053C9.66431 39.5368 9.67001 39.4068 9.56164 39.3885C9.40657 39.3741 9.25071 39.3699 9.09508 39.376V39.8836C9.22764 39.8911 9.36062 39.8853 9.49205 39.8665C9.56848 39.8414 9.56392 39.7444 9.5913 39.684C9.63236 39.7501 9.60841 39.8311 9.61525 39.9053C9.6221 39.9794 9.63465 40.0809 9.5913 40.1574C9.56164 40.0935 9.56734 39.9977 9.49091 39.9692C9.35984 39.9505 9.22718 39.9455 9.09508 39.9543C9.09508 40.1243 9.08709 40.2965 9.09508 40.4665C9.10534 40.4768 9.12474 40.5007 9.135 40.5121C9.27711 40.5236 9.41998 40.5213 9.56164 40.5053C9.69282 40.4756 9.72134 40.3228 9.82401 40.2555C9.79321 40.3695 9.751 40.4779 9.70993 40.5886C9.37456 40.5886 9.03918 40.5988 8.70495 40.5817C8.77681 40.5372 8.91712 40.5509 8.90229 40.4312C8.90229 40.1049 8.90914 39.7764 8.90229 39.4501C8.91142 39.3463 8.79963 39.3429 8.72662 39.336L8.73803 39.3052Z" fill="white"/>
<path d="M7.81738 37.156H8.1596C8.42311 37.4674 8.66608 37.7982 8.941 38.0994C8.941 37.8256 8.95697 37.5496 8.93302 37.2758C8.93302 37.1936 8.82921 37.1948 8.76761 37.1868C8.76704 37.1765 8.76704 37.1663 8.76761 37.156C8.91933 37.156 9.07219 37.1492 9.2239 37.1651C9.16116 37.2039 9.04481 37.1845 9.03226 37.2792C9.01173 37.6773 9.03226 38.0777 9.02085 38.4747C8.70601 38.1541 8.45847 37.772 8.14705 37.448C8.14705 37.7309 8.13906 38.0184 8.14705 38.2967C8.14705 38.4108 8.27709 38.3994 8.35124 38.4325C8.18755 38.4506 8.02214 38.4464 7.85958 38.4199C7.92803 38.396 8.05237 38.4062 8.05237 38.3059C8.06948 38.0013 8.05237 37.6944 8.05921 37.3933C8.05921 37.2667 7.92118 37.2096 7.81624 37.1959C7.81567 37.1857 7.81567 37.1754 7.81624 37.1651L7.81738 37.156ZM5.33057 39.3325C5.66138 39.296 5.99904 39.3268 6.33442 39.3166C6.34356 39.4159 6.34698 39.5157 6.34469 39.6154C6.28423 39.5538 6.28993 39.4375 6.20095 39.4055C6.03949 39.3846 5.87644 39.3785 5.71386 39.3873C5.71386 39.5561 5.71386 39.7295 5.71386 39.8949C5.84097 39.9002 5.9683 39.8964 6.09486 39.8835C6.18156 39.8607 6.17928 39.7523 6.22149 39.6884C6.24233 39.849 6.23732 40.0119 6.20666 40.171C6.17928 40.1037 6.18384 40.0056 6.10171 39.9782C5.9735 39.9618 5.84409 39.9569 5.715 39.9634C5.70721 40.1425 5.71026 40.3219 5.72412 40.5006C5.8382 40.5588 5.99676 40.52 6.12795 40.5246C6.28993 40.5246 6.34354 40.3546 6.44165 40.2588C6.41277 40.3757 6.37463 40.4902 6.32757 40.601C6.00513 40.601 5.6823 40.601 5.35909 40.601C5.35966 40.5904 5.35966 40.5797 5.35909 40.5691C5.41236 40.5672 5.46392 40.5498 5.50738 40.5189C5.52524 40.4485 5.53179 40.3757 5.52678 40.3033C5.52678 40.0455 5.52678 39.7877 5.52678 39.531C5.52885 39.4805 5.51949 39.4302 5.4994 39.3839C5.44381 39.3611 5.38611 39.3439 5.32715 39.3325H5.33057ZM9.8901 39.3325C10.0265 39.314 10.1644 39.3087 10.3019 39.3166C10.5129 39.3166 10.7445 39.3051 10.9327 39.4192C11.3092 39.6633 11.2829 40.3238 10.8723 40.52C10.5723 40.6546 10.2346 40.5805 9.91747 40.5999C9.91747 40.593 9.91747 40.5771 9.91747 40.5679C9.96881 40.5588 10.0315 40.5622 10.0646 40.52C10.0849 40.461 10.0934 40.3986 10.0897 40.3364C10.0897 40.0915 10.0897 39.8462 10.0897 39.6006C10.0948 39.5276 10.0839 39.4545 10.0578 39.3861C10.0029 39.3621 9.94548 39.3441 9.88667 39.3325H9.8901ZM10.2745 39.4101C10.2654 39.7763 10.2745 40.1424 10.2688 40.5086C10.4787 40.5634 10.7331 40.5303 10.8654 40.3421C11.0491 40.082 11.0228 39.6496 10.7422 39.466C10.599 39.3889 10.4319 39.3689 10.2745 39.4101ZM18.4399 39.3325C18.773 39.2972 19.1107 39.3268 19.446 39.3177C19.4555 39.4166 19.4582 39.5161 19.454 39.6154C19.3981 39.5481 19.3981 39.4272 19.3 39.401C19.1421 39.3835 18.9829 39.3797 18.8243 39.3896C18.8243 39.5584 18.8243 39.7261 18.8243 39.896C18.9384 39.896 19.0639 39.896 19.1825 39.8881C19.3012 39.8801 19.2886 39.7603 19.3343 39.6907C19.3457 39.8514 19.3457 40.0126 19.3343 40.1732C19.2898 40.1094 19.2966 40.0067 19.2133 39.977C19.085 39.9622 18.9557 39.9576 18.8266 39.9634C18.8403 40.1459 18.7924 40.3444 18.8517 40.5177C18.9923 40.5337 19.1343 40.5337 19.2749 40.5177C19.4164 40.4984 19.462 40.3455 19.5521 40.2554C19.5279 40.3728 19.492 40.4874 19.4449 40.5976C19.1209 40.5976 18.797 40.5976 18.473 40.5976C18.4725 40.5873 18.4725 40.5771 18.473 40.5668C18.5249 40.5642 18.5752 40.5481 18.619 40.52C18.6386 40.4605 18.6464 40.3977 18.6418 40.3352V39.5618C18.645 39.4998 18.6357 39.4377 18.6145 39.3793C18.5573 39.3596 18.499 39.3433 18.4399 39.3302V39.3325ZM24.8919 39.3223C25.0982 39.3109 25.305 39.3109 25.5113 39.3223C25.452 39.3428 25.3916 39.3576 25.3322 39.3793C25.2729 39.401 25.2832 39.4991 25.2764 39.5618C25.2764 39.8322 25.2764 40.1014 25.2764 40.3717C25.2821 40.4196 25.2684 40.5041 25.3402 40.5075C25.478 40.525 25.6175 40.5219 25.7543 40.4984C25.8878 40.4653 25.9334 40.3238 26.0053 40.2223C25.9811 40.3519 25.9429 40.4786 25.8912 40.5999C25.5661 40.5999 25.2421 40.5999 24.917 40.5999C24.9176 40.5896 24.9176 40.5793 24.917 40.5691C24.9923 40.5691 25.0904 40.5383 25.0813 40.4447C25.0813 40.1162 25.0904 39.7865 25.0813 39.458C25.0813 39.3519 24.9547 39.3576 24.8862 39.3245" fill="white"/>
<path d="M27.6397 38.2773C27.8222 37.8917 27.9671 37.4901 28.1542 37.1057C28.3367 37.4936 28.4793 37.8985 28.6618 38.2864C28.6926 38.3708 28.785 38.3902 28.8534 38.4347C28.6737 38.4449 28.4936 38.4449 28.3139 38.4347C28.3618 38.4039 28.4416 38.397 28.4599 38.3343C28.4376 38.2214 28.3991 38.1123 28.3458 38.0103C28.1884 38.0103 28.0287 38.0103 27.8713 38.0103C27.8085 38.0952 27.7642 38.1924 27.7412 38.2955C27.715 38.3947 27.8428 38.3833 27.8929 38.4347C27.7497 38.4438 27.6061 38.4438 27.4629 38.4347C27.5313 38.3936 27.6135 38.3594 27.6443 38.2795L27.6397 38.2773ZM27.8838 37.9373C28.0298 37.9373 28.1781 37.9373 28.3241 37.9373C28.2481 37.7677 28.1766 37.597 28.1097 37.4251C28.0264 37.5928 27.9603 37.7673 27.8815 37.9385" fill="white"/>
<path d="M28.8988 37.157H29.4783C29.4772 37.1672 29.4772 37.1775 29.4783 37.1878C29.4156 37.1871 29.3539 37.2028 29.2992 37.2334C29.2686 37.2907 29.2563 37.356 29.2638 37.4205C29.2638 37.6897 29.2638 37.9589 29.2638 38.227C29.2638 38.2817 29.281 38.3593 29.3494 38.3525C29.488 38.366 29.6279 38.3595 29.7646 38.3331C29.8867 38.2943 29.9106 38.1528 29.9996 38.0776C29.9688 38.1973 29.9266 38.3148 29.8947 38.4346C29.5551 38.4485 29.2151 38.4447 28.876 38.4232C28.9467 38.3935 29.0779 38.4072 29.0768 38.2966C29.0905 38.0525 29.0768 37.8061 29.0768 37.5619C29.0827 37.4582 29.0766 37.354 29.0585 37.2517C29.0334 37.1866 28.9444 37.1981 28.8942 37.1866V37.157H28.8988ZM13.2319 39.3244C13.4292 39.2987 13.629 39.2987 13.8263 39.3244C13.7692 39.3483 13.6871 39.3392 13.6437 39.3894C13.6186 39.4896 13.6105 39.5934 13.6198 39.6963C13.6198 39.9529 13.6084 40.2107 13.6278 40.4674C13.638 40.5507 13.7418 40.5495 13.8 40.5598V40.5917C13.6141 40.5758 13.4179 40.6203 13.2399 40.5689C13.3004 40.5484 13.3825 40.5609 13.4224 40.5005C13.4403 40.338 13.4457 40.1744 13.4384 40.0111C13.4384 39.8138 13.4498 39.6153 13.4293 39.4179C13.3985 39.3369 13.297 39.3529 13.2319 39.3221" fill="white"/>
<path d="M3.92627 39.327C4.07771 39.3096 4.23035 39.305 4.38256 39.3134C4.58333 39.3134 4.80121 39.3134 4.97803 39.4172C5.35333 39.6613 5.32025 40.3206 4.91529 40.5157C4.61756 40.6514 4.28218 40.575 3.9662 40.5967C3.96563 40.586 3.96563 40.5754 3.9662 40.5647C4.04148 40.5647 4.13502 40.5305 4.12704 40.4393C4.12704 40.1107 4.13616 39.7833 4.12704 39.4559C4.13388 39.3476 4.0027 39.3533 3.93197 39.327H3.92627ZM4.32096 39.4058C4.31184 39.7719 4.32096 40.1381 4.32096 40.5054C4.46931 40.5471 4.62772 40.5337 4.76699 40.4678C5.07157 40.291 5.10921 39.8347 4.90958 39.5666C4.77384 39.3864 4.52972 39.3624 4.32439 39.4058" fill="white"/>
<path d="M11.3236 39.3118C11.5141 39.3118 11.7046 39.3061 11.8939 39.3187C11.8301 39.3529 11.732 39.3426 11.7 39.4214C11.6772 39.6176 11.7 39.8172 11.6897 40.0157C11.6829 40.1789 11.6875 40.3424 11.7034 40.5051C11.7445 40.5552 11.8175 40.5552 11.8723 40.5655C11.8728 40.575 11.8728 40.5845 11.8723 40.594C11.6897 40.594 11.5072 40.594 11.3259 40.594V40.5644C11.3785 40.5625 11.4301 40.5484 11.4764 40.5233C11.5026 40.463 11.5132 40.3971 11.5072 40.3317V39.5571C11.5072 39.4955 11.5164 39.4225 11.4673 39.3757C11.4201 39.3574 11.3712 39.344 11.3213 39.3358L11.3236 39.3118Z" fill="white"/>
<path d="M13.8105 39.3165C13.9554 39.3337 14.1619 39.2458 14.2532 39.4021C14.4813 39.6918 14.722 39.9827 14.9604 40.2702C14.9604 40.0204 14.9604 39.7717 14.9604 39.5219C14.9604 39.4694 14.9661 39.4021 14.9148 39.369C14.8707 39.3554 14.8258 39.3451 14.7802 39.3382V39.3131C14.9358 39.3049 15.0919 39.3099 15.2467 39.328C15.176 39.3508 15.046 39.3519 15.0528 39.4591C15.038 39.8504 15.0528 40.2417 15.0425 40.633C14.7334 40.3021 14.4722 39.9314 14.1699 39.5892C14.1699 39.8835 14.1585 40.1778 14.1767 40.4721C14.1767 40.552 14.2737 40.5565 14.3341 40.5645C14.3341 40.5736 14.3341 40.5885 14.3341 40.5965C14.1973 40.5965 14.0592 40.5965 13.9223 40.5965C13.9218 40.5862 13.9218 40.5759 13.9223 40.5657C13.9839 40.5588 14.0763 40.5463 14.0775 40.4653C14.0923 40.1516 14.0775 39.8379 14.0832 39.5253C14.0763 39.3896 13.9098 39.3656 13.8117 39.3177" fill="white"/>
<path d="M21.0225 39.3233C21.3647 39.3017 21.6989 39.3131 22.0366 39.3176C22.0366 39.4146 22.0469 39.5127 22.0434 39.612C21.9818 39.5504 21.9921 39.434 21.902 39.4009C21.7393 39.3804 21.5752 39.3746 21.4115 39.3838V39.8892C21.5428 39.8962 21.6746 39.8913 21.805 39.8743C21.8883 39.8504 21.8689 39.7409 21.9271 39.6918C21.9328 39.8481 21.9339 40.0066 21.9271 40.1641C21.8735 40.107 21.8872 40.0032 21.805 39.9736C21.6753 39.957 21.5443 39.9524 21.4137 39.9599C21.4137 40.1321 21.4058 40.3021 21.4137 40.4744L21.4503 40.5188C21.5916 40.5306 21.7337 40.5287 21.8746 40.5131C22.0104 40.4869 22.0377 40.3306 22.1415 40.2633C22.1119 40.3774 22.0685 40.4846 22.0275 40.5953C21.6967 40.5953 21.3681 40.5953 21.0384 40.5953C21.039 40.5862 21.039 40.577 21.0384 40.5679C21.1057 40.5553 21.2164 40.5542 21.2164 40.4607C21.2255 40.1276 21.2232 39.7933 21.2164 39.4602C21.2221 39.3462 21.0886 39.3541 21.0122 39.3245" fill="white"/>
</svg>
