<svg width="52" height="29" viewBox="0 0 52 29" fill="none" xmlns="http://www.w3.org/2000/svg">
<g clip-path="url(#clip0_8881_1164)">
<path d="M2.72371 19.8027H0.592755V21.4797H2.92719L2.86791 21.8679H0.160156V17.571H2.81984V17.9593H0.592755V19.4128H2.72371V19.8027Z" fill="white"/>
<path d="M3.82451 20.9983C3.92064 21.3719 4.185 21.5954 4.63363 21.5954C5.13192 21.5954 5.33219 21.367 5.33219 21.0505C5.33219 20.7341 5.18799 20.5693 4.55351 20.4143C3.72997 20.2104 3.54091 19.9559 3.54091 19.5416C3.54091 19.1272 3.86136 18.6965 4.58716 18.6965C5.31297 18.6965 5.64463 19.1403 5.68949 19.5758H5.28733C5.23766 19.3425 5.05982 19.0407 4.56633 19.0407C4.07285 19.0407 3.94307 19.2805 3.94307 19.5089C3.94307 19.7683 4.07926 19.8988 4.66086 20.0407C5.54849 20.2577 5.74877 20.5562 5.74877 21.0195C5.74877 21.5742 5.31136 21.9429 4.6176 21.9429C3.88218 21.9429 3.49605 21.5562 3.41113 21L3.82451 20.9983Z" fill="white"/>
<path d="M8.82007 20.9413C8.68067 21.4797 8.32818 21.9413 7.60398 21.9413C6.80287 21.9413 6.27734 21.3492 6.27734 20.3329C6.27734 19.4732 6.74038 18.7015 7.64083 18.7015C7.92777 18.6818 8.21104 18.7762 8.43099 18.9649C8.65094 19.1535 8.79042 19.4217 8.82007 19.713H8.4131C8.38485 19.5254 8.28959 19.3551 8.14559 19.2347C8.00159 19.1143 7.81899 19.0522 7.63282 19.0604C7.0368 19.0604 6.69873 19.5776 6.69873 20.3198C6.69873 21.0621 7.01917 21.5825 7.60719 21.5825C8.02376 21.5825 8.2705 21.3639 8.4083 20.943L8.82007 20.9413Z" fill="white"/>
<path d="M11.8451 20.9641C11.8451 21.2676 11.8451 21.7211 11.8451 21.8679H11.459C11.4432 21.7026 11.4368 21.5364 11.4398 21.3703C11.302 21.7243 10.9992 21.9478 10.4784 21.9478C9.99777 21.9478 9.47705 21.7358 9.47705 20.8222V18.77H9.87761V20.7276C9.87761 21.1583 10.0106 21.5694 10.5682 21.5694C11.1946 21.5694 11.4318 21.2137 11.4318 20.3785V18.7749H11.8371L11.8451 20.9641Z" fill="white"/>
<path d="M13.0101 20.3915C13.0101 21.1142 13.3722 21.5872 13.925 21.5872C14.1012 21.6035 14.2775 21.5587 14.4256 21.4601C14.5736 21.3615 14.6846 21.2149 14.7405 21.044H15.1507C15.0781 21.3157 14.9154 21.5535 14.6903 21.717C14.4651 21.8806 14.1913 21.9598 13.9154 21.9412C12.9749 21.9412 12.6016 21.1386 12.6016 20.3474C12.6016 19.4453 13.0454 18.6965 13.9506 18.6965C14.912 18.6965 15.2164 19.5122 15.2164 20.1288C15.2164 20.2186 15.2164 20.3018 15.2164 20.3833L13.0101 20.3915ZM14.7982 20.0652C14.7982 19.4991 14.4986 19.0489 13.9362 19.0489C13.3738 19.0489 13.0886 19.4649 13.0278 20.0652H14.7982Z" fill="white"/>
<path d="M15.9741 21.8679V17.3394H16.3795V21.8679H15.9741Z" fill="white"/>
<path d="M19.4912 21.2398C19.4895 21.4499 19.5034 21.6598 19.5328 21.8678H19.1451C19.1108 21.7225 19.093 21.5736 19.0922 21.4241C18.9881 21.6427 18.7317 21.9412 18.1213 21.9412C17.4099 21.9412 17.1055 21.473 17.1055 21.0049C17.1055 20.3181 17.6294 20.0065 18.5395 20.0065H19.089V19.7145C19.089 19.4208 19.0009 19.0424 18.3648 19.0424C17.7976 19.0424 17.7095 19.3393 17.647 19.5872H17.2497C17.2881 19.2071 17.5188 18.6949 18.3712 18.6965C19.089 18.6965 19.4928 19 19.4928 19.6916L19.4912 21.2398ZM19.0954 20.3197H18.5459C17.905 20.3197 17.5252 20.4959 17.5252 20.9853C17.5252 21.3442 17.7736 21.5954 18.1758 21.5954C18.9769 21.5954 19.0954 21.0456 19.0954 20.4257V20.3197Z" fill="white"/>
<path d="M22.2966 20.695C22.4168 21.2415 22.7773 21.5514 23.4358 21.5514C24.1552 21.5514 24.4356 21.1942 24.4356 20.7554C24.4356 20.3165 24.2257 20.0213 23.3349 19.7978C22.396 19.5629 22.0291 19.2448 22.0291 18.6314C22.0291 18.018 22.4585 17.509 23.3797 17.509C24.3411 17.509 24.7448 18.093 24.8009 18.6346H24.3539C24.2658 18.2089 23.9982 17.8859 23.3557 17.8859C22.7901 17.8859 22.4777 18.1501 22.4777 18.5971C22.4777 19.0441 22.7372 19.2121 23.4983 19.4014C24.6935 19.7015 24.8858 20.1828 24.8858 20.7064C24.8858 21.359 24.4051 21.912 23.407 21.912C22.3495 21.912 21.9313 21.3019 21.8496 20.6868L22.2966 20.695Z" fill="white"/>
<path d="M28.0035 20.9641C28.0035 21.2676 28.0035 21.7211 28.0035 21.8679H27.611C27.5998 21.788 27.5934 21.5906 27.5918 21.3638C27.4556 21.7178 27.1528 21.9413 26.6401 21.9413C26.1674 21.9413 25.6387 21.7292 25.6387 20.8157V18.77H26.0376V20.7276C26.0376 21.1583 26.1722 21.5694 26.7298 21.5694C27.3546 21.5694 27.5918 21.2137 27.5918 20.3785V18.7749H27.9971L28.0035 20.9641Z" fill="white"/>
<path d="M29.3881 21.4438V23.098H28.9844V19.5303C28.9844 19.2758 28.9844 19.0082 28.9844 18.7701H29.3801C29.3913 18.881 29.3945 19.0686 29.3945 19.2953C29.4912 19.1035 29.6409 18.9447 29.825 18.8383C30.0092 18.732 30.2199 18.6827 30.4312 18.6966C31.1426 18.6966 31.6473 19.3035 31.6473 20.2399C31.6473 21.3508 31.0609 21.9413 30.3254 21.9413C29.8015 21.9413 29.5339 21.7146 29.3881 21.4438ZM31.2179 20.2562C31.2179 19.5645 30.8974 19.067 30.3334 19.067C29.6461 19.067 29.3721 19.509 29.3721 20.31C29.3721 21.111 29.5948 21.5776 30.2982 21.5776C30.891 21.5776 31.2179 21.0686 31.2179 20.2562Z" fill="white"/>
<path d="M32.61 20.3916C32.61 21.1143 32.9721 21.5874 33.5249 21.5874C33.6995 21.6031 33.8742 21.559 34.0214 21.462C34.1685 21.3651 34.2797 21.2209 34.3372 21.0523H34.7474C34.6744 21.3241 34.5115 21.562 34.286 21.7255C34.0606 21.889 33.7866 21.9681 33.5105 21.9495C32.5716 21.9495 32.1982 21.1469 32.1982 20.3557C32.1982 19.4536 32.6421 18.7048 33.5457 18.7048C34.507 18.7048 34.8131 19.5205 34.8131 20.1371C34.8131 20.2269 34.8131 20.3101 34.8051 20.3916H32.61ZM34.3981 20.0654C34.3981 19.4993 34.0985 19.049 33.5361 19.049C32.9737 19.049 32.6885 19.465 32.6276 20.0654H34.3981Z" fill="white"/>
<path d="M35.5547 19.6117C35.5547 19.1321 35.5547 18.8988 35.5547 18.7699H35.952C35.96 18.8646 35.9665 19.0832 35.9665 19.4355C36.0465 19.2194 36.1891 19.0331 36.3753 18.9011C36.5615 18.7692 36.7826 18.6978 37.0095 18.6965V19.1223C36.3814 19.1533 35.9665 19.5481 35.9665 20.3066V21.8678H35.5611L35.5547 19.6117Z" fill="white"/>
<path d="M37.5801 17.3394H37.9854V17.9707H37.5801V17.3394ZM37.5801 18.77H37.9854V21.8695H37.5801V18.77Z" fill="white"/>
<path d="M41.4972 20.3133C41.4972 21.1893 41.0166 21.9446 40.0953 21.9446C39.2509 21.9446 38.7334 21.2578 38.7334 20.3247C38.7334 19.4258 39.2301 18.6934 40.1273 18.6934C40.9605 18.6966 41.4972 19.341 41.4972 20.3133ZM39.1548 20.3133C39.1548 21.0229 39.5185 21.5726 40.1161 21.5726C40.7137 21.5726 41.0774 21.0588 41.0774 20.3133C41.0774 19.5987 40.7362 19.0523 40.1081 19.0523C39.48 19.0523 39.1612 19.5922 39.1612 20.3198L39.1548 20.3133Z" fill="white"/>
<path d="M42.2539 19.6117C42.2539 19.1321 42.2539 18.8988 42.2539 18.7699H42.6513C42.6513 18.8646 42.6657 19.0832 42.6657 19.4355C42.7457 19.2194 42.8883 19.0331 43.0745 18.9011C43.2607 18.7692 43.4819 18.6978 43.7087 18.6965V19.1223C43.0806 19.1533 42.6657 19.5481 42.6657 20.3066V21.8678H42.2603L42.2539 19.6117Z" fill="white"/>
<path d="M48.3372 17.3393V20.9837C48.3372 21.2789 48.3372 21.5628 48.3372 21.8678H47.9543C47.9379 21.7053 47.9304 21.5419 47.9318 21.3785C47.7716 21.7308 47.4512 21.9347 46.9385 21.9347C46.1518 21.9347 45.6743 21.2822 45.6743 20.3475C45.6743 19.4127 46.1918 18.69 47.0266 18.69C47.6034 18.69 47.8453 18.9364 47.9318 19.1223V17.3279L48.3372 17.3393ZM46.0941 20.3393C46.0941 21.1435 46.4882 21.5758 46.9913 21.5758C47.7524 21.5758 47.9431 21.0261 47.9431 20.2577C47.9431 19.4894 47.7828 19.062 47.0394 19.062C46.4722 19.062 46.0989 19.5253 46.0989 20.3393H46.0941Z" fill="white"/>
<path d="M49.4942 20.3916C49.4942 21.1143 49.8563 21.5874 50.4106 21.5874C50.585 21.603 50.7595 21.5588 50.9064 21.4619C51.0533 21.3649 51.1641 21.2208 51.2213 21.0523H51.6315C51.5589 21.324 51.3962 21.5618 51.1711 21.7253C50.9459 21.8889 50.6722 21.9681 50.3962 21.9495C49.4573 21.9495 49.084 21.1469 49.084 20.3557C49.084 19.4536 49.5262 18.7048 50.4315 18.7048C51.3928 18.7048 51.6972 19.5205 51.6972 20.1371C51.6972 20.2269 51.6972 20.3101 51.6972 20.3916H49.4942ZM51.2822 20.0654C51.2822 19.4993 50.9826 19.049 50.4218 19.049C49.8611 19.049 49.5743 19.465 49.5134 20.0654H51.2822Z" fill="white"/>
<path d="M2.72371 26.8614H0.592755V28.5384H2.92719L2.86791 28.9267H0.160156V24.6331H2.81984V25.0213H0.592755V26.4764H2.72371V26.8614Z" fill="white"/>
<path d="M3.61133 26.6102C3.61133 26.3394 3.61133 26.0735 3.61133 25.8288H4.00547C4.01829 25.925 4.0263 26.2921 4.0215 26.3818C4.14967 26.0882 4.39802 25.7554 5.00846 25.7554C5.56283 25.7554 6.02747 26.0816 6.02747 26.9267V28.9267H5.61731V26.9854C5.61731 26.4715 5.41382 26.1322 4.91393 26.1322C4.25862 26.1322 4.01669 26.6689 4.01669 27.3198V28.9267H3.61133V26.6102Z" fill="white"/>
<path d="M7.09446 28.0586C7.1906 28.4322 7.45496 28.6557 7.90519 28.6557C8.40348 28.6557 8.60215 28.4273 8.60215 28.1108C8.60215 27.7944 8.45955 27.6296 7.82347 27.4746C6.99993 27.2707 6.81087 27.0162 6.81087 26.6019C6.81087 26.1875 7.13131 25.7568 7.85872 25.7568C8.58613 25.7568 8.91619 26.2006 8.95945 26.6361H8.5621C8.51243 26.4028 8.33618 26.101 7.8411 26.101C7.34601 26.101 7.21783 26.3408 7.21783 26.5692C7.21783 26.8286 7.35563 26.9591 7.93723 27.101C8.82486 27.318 9.02514 27.6165 9.02514 28.0798C9.02514 28.6345 8.58613 29.0032 7.89397 29.0032C7.15695 29.0032 6.77242 28.6165 6.6875 28.0603L7.09446 28.0586Z" fill="white"/>
<path d="M9.95767 27.4422C9.95767 28.1648 10.3198 28.6379 10.8725 28.6379C11.0471 28.6536 11.2219 28.6095 11.369 28.5125C11.5162 28.4156 11.6274 28.2714 11.6849 28.1028H12.095C12.0221 28.3747 11.8591 28.6125 11.6337 28.776C11.4083 28.9395 11.1343 29.0187 10.8581 29.0001C9.91921 29.0001 9.5459 28.1975 9.5459 27.4063C9.5459 26.5041 9.98811 25.7554 10.8934 25.7554C11.8547 25.7554 12.1607 26.571 12.1607 27.1877C12.1607 27.2774 12.1607 27.3606 12.1527 27.4422H9.95767ZM11.7441 27.1159C11.7441 26.5498 11.4445 26.0996 10.8838 26.0996C10.2989 26.0996 10.0362 26.5156 9.97529 27.1159H11.7441Z" fill="white"/>
<path d="M12.9043 26.6101C12.9043 26.3393 12.9043 26.0734 12.9043 25.8287H13.2984C13.3113 25.925 13.3177 26.292 13.3145 26.3817C13.3911 26.1836 13.5282 26.0157 13.7056 25.903C13.883 25.7902 14.0913 25.7384 14.2998 25.7553C14.8542 25.7553 15.3188 26.0816 15.3188 26.9266V28.9266H14.9103V26.9853C14.9103 26.4715 14.7052 26.1322 14.2053 26.1322C13.55 26.1322 13.3097 26.6689 13.3097 27.3198V28.9266H12.9043V26.6101ZM13.1799 25.1566V25.0375C13.1799 24.6281 13.3657 24.4764 13.6445 24.4764C13.965 24.4764 14.2854 24.8026 14.5001 24.8026C14.6203 24.8026 14.6812 24.739 14.6812 24.5269V24.4568H14.9824V24.5726C14.9824 25 14.8029 25.1615 14.5177 25.1615C14.1829 25.1615 13.9297 24.8353 13.6573 24.8353C13.5516 24.8353 13.4971 24.8972 13.4971 25.0587V25.1599L13.1799 25.1566Z" fill="white"/>
<path d="M18.4257 28.2986C18.4241 28.5087 18.438 28.7187 18.4674 28.9267H18.0797C18.0454 28.7813 18.0276 28.6324 18.0268 28.4829C17.9226 28.7015 17.6663 29.0001 17.0558 29.0001C16.3445 29.0001 16.04 28.5319 16.04 28.0637C16.04 27.3769 16.564 27.0653 17.474 27.0653H18.0236V26.7733C18.0236 26.4797 17.9355 26.1012 17.2994 26.1012C16.7322 26.1012 16.6441 26.3981 16.5816 26.6461H16.1826C16.2211 26.266 16.4518 25.7537 17.3042 25.7554C18.022 25.7554 18.4257 26.0588 18.4257 26.7505V28.2986ZM18.03 27.3785H17.4804C16.8395 27.3785 16.4598 27.5547 16.4598 28.0441C16.4598 28.403 16.7082 28.6542 17.1103 28.6542C17.9114 28.6542 18.03 28.1045 18.03 27.4846V27.3785Z" fill="white"/>
<path d="M19.4155 26.6102C19.4155 26.3394 19.4155 26.0735 19.4155 25.8288H19.8097C19.8245 26.0127 19.8299 26.1973 19.8257 26.3818C19.9026 26.1835 20.04 26.0156 20.2177 25.9028C20.3954 25.7901 20.6039 25.7384 20.8127 25.7554C21.367 25.7554 21.8317 26.0816 21.8317 26.9267V28.9267H21.4263V26.9854C21.4263 26.4715 21.2228 26.1322 20.7229 26.1322C20.0676 26.1322 19.8257 26.6689 19.8257 27.3198V28.9267H19.4219L19.4155 26.6102Z" fill="white"/>
<path d="M22.4648 28.5741L24.309 26.1924H22.5578V25.8286H24.7752V26.1957L22.9551 28.5627H24.8489L24.7704 28.9265H22.4648V28.5741Z" fill="white"/>
<path d="M27.6591 28.2986C27.6575 28.5087 27.6714 28.7187 27.7008 28.9267H27.3131C27.2779 28.7815 27.2602 28.6325 27.2602 28.4829C27.156 28.7015 26.8997 29.0001 26.2892 29.0001C25.5779 29.0001 25.2734 28.5319 25.2734 28.0637C25.2734 27.3769 25.7974 27.0653 26.7058 27.0653H27.257V26.7733C27.257 26.4797 27.1689 26.1012 26.5312 26.1012C25.9656 26.1012 25.8775 26.3981 25.815 26.6461H25.4176C25.4561 26.266 25.6868 25.7537 26.5392 25.7554C27.2554 25.7554 27.6607 26.0588 27.6607 26.7505L27.6591 28.2986ZM27.2618 27.3785H26.7138C26.0729 27.3785 25.6932 27.5547 25.6932 28.0441C25.6932 28.403 25.9416 28.6542 26.3437 28.6542C27.1448 28.6542 27.2618 28.1045 27.2618 27.4846V27.3785Z" fill="white"/>
<path d="M33.9671 27.0164C33.9671 26.2008 33.9671 25.3851 33.9927 24.9463H33.9671C33.7941 25.5776 33.0154 27.5727 32.5027 28.9267H32.1005C31.7144 27.8549 30.9085 25.6282 30.7178 24.9397H30.7018C30.7338 25.4291 30.7467 26.4079 30.7467 27.1502V28.9267H30.3301V24.6331H30.971C31.5061 26.0425 32.1694 27.8778 32.3216 28.3851H32.3329C32.4306 28.0278 33.2061 25.9985 33.754 24.6331H34.3853V28.93H33.9671V27.0164Z" fill="white"/>
<path d="M35.6143 27.4422C35.6143 28.1648 35.9764 28.6379 36.5307 28.6379C36.7051 28.6535 36.8796 28.6093 37.0265 28.5124C37.1734 28.4154 37.2843 28.2713 37.3415 28.1028H37.7516C37.679 28.3745 37.5163 28.6123 37.2912 28.7759C37.0661 28.9394 36.7923 29.0186 36.5163 29.0001C35.5774 29.0001 35.2041 28.1975 35.2041 27.4063C35.2041 26.5041 35.6463 25.7554 36.5516 25.7554C37.5129 25.7554 37.8173 26.571 37.8173 27.1877C37.8173 27.2774 37.8173 27.3606 37.8173 27.4422H35.6143ZM37.4023 27.1159C37.4023 26.5498 37.1027 26.0996 36.542 26.0996C35.9571 26.0996 35.6944 26.5156 35.6335 27.1159H37.4023ZM37.5449 24.3296L36.6333 25.2872H36.2279L37.029 24.3296H37.5449Z" fill="white"/>
<path d="M41.028 24.3981V28.0425C41.028 28.3361 41.028 28.6216 41.028 28.9267H40.6387C40.6259 28.8484 40.6179 28.5825 40.6163 28.4373C40.4657 28.7897 40.1356 28.9936 39.6245 28.9936C38.8378 28.9936 38.3604 28.341 38.3604 27.4063C38.3604 26.4715 38.8779 25.7489 39.711 25.7489C40.2878 25.7489 40.5298 25.9952 40.6163 26.1812V24.3867L41.028 24.3981ZM38.7897 27.4063C38.7897 28.2105 39.1855 28.6428 39.687 28.6428C40.448 28.6428 40.6387 28.0931 40.6387 27.3247C40.6387 26.5564 40.4785 26.129 39.7367 26.129C39.1631 26.1208 38.7897 26.5906 38.7897 27.4063Z" fill="white"/>
<path d="M42.0054 24.3979H42.4107V25.0293H42.0054V24.3979ZM42.0054 25.8286H42.4107V28.9281H42.0054V25.8286Z" fill="white"/>
<path d="M45.7097 28.0001C45.5719 28.5384 45.2178 29.0001 44.4936 29.0001C43.6925 29.0001 43.167 28.4079 43.167 27.3916C43.167 26.5319 43.6316 25.7603 44.5321 25.7603C44.8188 25.741 45.1016 25.8356 45.3212 26.0242C45.5408 26.2128 45.6801 26.4807 45.7097 26.7717H45.3027C45.2745 26.5844 45.1795 26.4144 45.0358 26.294C44.8922 26.1736 44.71 26.1114 44.5241 26.1192C43.9264 26.1192 43.59 26.6363 43.59 27.3785C43.59 28.1208 43.9104 28.6412 44.4984 28.6412C44.9134 28.6412 45.1602 28.4226 45.2995 28.0017L45.7097 28.0001Z" fill="white"/>
<path d="M48.6001 28.2986C48.5984 28.5087 48.6123 28.7187 48.6417 28.9267H48.254C48.2197 28.7813 48.2019 28.6324 48.2011 28.4829C48.097 28.7015 47.8406 29.0001 47.2302 29.0001C46.5204 29.0001 46.2144 28.5319 46.2144 28.0637C46.2144 27.3769 46.7383 27.0653 47.6483 27.0653H48.1995V26.7733C48.1995 26.4797 48.1098 26.1012 47.4737 26.1012C46.9065 26.1012 46.8184 26.3981 46.7575 26.6461H46.3602C46.397 26.266 46.6277 25.7537 47.4817 25.7554C48.1979 25.7554 48.6033 26.0588 48.6033 26.7505L48.6001 28.2986ZM48.2043 27.3785H47.6548C47.0139 27.3785 46.6341 27.5547 46.6341 28.0441C46.6341 28.403 46.8825 28.6542 47.2846 28.6542C48.0857 28.6542 48.2043 28.1045 48.2043 27.4846V27.3785Z" fill="white"/>
<path d="M8.378 7.39303H1.90344V11.8661H8.82021L8.77375 13.5399H0V0.192383H8.68242V1.86938H1.90344V5.70951H8.378V7.39303Z" fill="white"/>
<path d="M11.0922 9.78793C11.4367 11.3393 12.4878 12.1517 14.3159 12.1517C16.2594 12.1517 17.0397 11.2447 17.0397 10.031C17.0397 8.73899 16.3988 8.04241 13.8352 7.42088C10.6596 6.64437 9.623 5.52039 9.623 3.65742C9.623 1.61011 11.1115 0 14.0724 0C17.2624 0 18.5666 1.84992 18.746 3.64111H16.7705C16.5542 2.52365 15.8781 1.56444 14.0067 1.56444C12.4942 1.56444 11.6354 2.24959 11.6354 3.46003C11.6354 4.67047 12.3372 5.12398 14.6059 5.677C18.3583 6.60196 19.0521 8.07667 19.0521 9.82219C19.0521 12.0294 17.4386 13.7145 14.1829 13.7145C10.8791 13.7145 9.39709 11.9086 9.1167 9.78793H11.0922Z" fill="white"/>
<path d="M28.4844 7.39304H22.0099V11.8661H28.885V13.5431H20.1064V0.192383H28.7889V1.86938H22.0099V5.70951H28.4844V7.39304Z" fill="white"/>
<path d="M41.2025 7.98194C41.2025 5.53496 41.2297 3.01457 41.2874 1.59043H41.2137C40.6417 3.85959 38.6726 9.34736 37.2081 13.5431H35.4938C34.3931 10.0815 32.355 3.91832 31.7686 1.56269H31.7045C31.8071 3.10919 31.8535 6.03251 31.8535 8.32126V13.5399H30.0366V0.192383H32.9382C34.3386 4.21196 36.0321 9.37346 36.4631 11.1222H36.492C36.8028 9.74866 38.82 4.10755 40.2748 0.192383H43.0995V13.5399H41.2025V7.98194Z" fill="white"/>
<path d="M47.3136 5.8042V13.5856H46.1792V5.8042H47.3136Z" fill="white"/>
<path d="M49.6573 5.8042V13.5856H48.5229V5.8042H49.6573Z" fill="white"/>
<path d="M52.0001 5.8042V13.5856H50.8657V5.8042H52.0001Z" fill="white"/>
</g>
<defs>
<clipPath id="clip0_8881_1164">
<rect width="52" height="29" fill="white"/>
</clipPath>
</defs>
</svg>
