<svg width="37" height="38" viewBox="0 0 37 38" fill="none" xmlns="http://www.w3.org/2000/svg">
<path d="M2.94474 37.5834H2.26472L2.06738 36.989H0.878546L0.677634 37.5834H0L1.2138 34.2546H1.72499L2.94474 37.5834ZM1.89381 36.4433L1.48604 35.2342L1.06995 36.448L1.89381 36.4433Z" fill="white"/>
<path d="M5.76228 36.4445C5.76719 36.6027 5.73786 36.7602 5.67631 36.9061C5.61475 37.0519 5.52242 37.1828 5.40563 37.2897C5.16702 37.5089 4.85206 37.6258 4.52827 37.6155C4.20488 37.6255 3.89041 37.5086 3.6521 37.2897C3.5353 37.1828 3.44297 37.0519 3.38142 36.9061C3.31987 36.7602 3.29054 36.6027 3.29545 36.4445V34.2546H3.94693V36.4254C3.93807 36.5896 3.99351 36.7508 4.10148 36.8748C4.1563 36.9304 4.22224 36.9737 4.29497 37.0019C4.3677 37.0302 4.44558 37.0428 4.52351 37.0389C4.60372 37.0435 4.68398 37.0308 4.75885 37.0017C4.83373 36.9726 4.90145 36.9277 4.95744 36.8701C5.06631 36.7466 5.12187 36.585 5.11199 36.4207V34.2546H5.7599L5.76228 36.4445Z" fill="white"/>
<path d="M9.01504 37.5833H8.26132L7.60865 36.2566H7.14025V37.5833H6.48877V34.2546H7.79648C7.94281 34.2478 8.08898 34.2709 8.22611 34.3224C8.36324 34.3739 8.48847 34.4528 8.59419 34.5541C8.68842 34.6489 8.76233 34.7618 8.81139 34.8861C8.86045 35.0104 8.88363 35.1434 8.87951 35.277C8.886 35.4693 8.83011 35.6585 8.72019 35.8164C8.61027 35.9743 8.45222 36.0924 8.26964 36.1531L9.01504 37.5833ZM8.22803 35.2651C8.23022 35.2059 8.21968 35.1469 8.19712 35.0922C8.17456 35.0374 8.14051 34.9881 8.09726 34.9476C8.00272 34.8654 7.88006 34.8228 7.75488 34.8288H7.14025V35.7049H7.75488C7.88006 35.7109 8.00272 35.6683 8.09726 35.5861C8.14035 35.5457 8.17432 35.4966 8.19687 35.4421C8.21943 35.3876 8.23005 35.3288 8.22803 35.2698V35.2651Z" fill="white"/>
<path d="M11.754 37.5834H9.55469V34.2546H11.754V34.836H10.2085V35.6182H11.5234V36.1996H10.2062V37.0115H11.7516L11.754 37.5834Z" fill="white"/>
<path d="M14.7412 35.9189C14.7485 36.1713 14.7342 36.4239 14.6984 36.6738C14.6642 36.8916 14.5628 37.0932 14.4084 37.2504C14.1661 37.4845 13.8424 37.6154 13.5055 37.6154C13.1685 37.6154 12.8448 37.4845 12.6025 37.2504C12.4488 37.0927 12.3475 36.8913 12.3125 36.6738C12.2617 36.1718 12.2617 35.666 12.3125 35.164C12.3472 34.9467 12.448 34.7453 12.6013 34.5874C12.8432 34.3525 13.1671 34.2211 13.5043 34.2211C13.8414 34.2211 14.1653 34.3525 14.4072 34.5874C14.5618 34.7445 14.6633 34.9462 14.6973 35.164C14.7334 35.4139 14.7481 35.6665 14.7412 35.9189ZM14.0886 35.9189C14.0886 35.6621 14.0886 35.4993 14.0791 35.4315C14.0768 35.2687 14.0227 35.1108 13.9245 34.9809C13.8724 34.9222 13.808 34.8758 13.7359 34.845C13.6637 34.8142 13.5856 34.7997 13.5072 34.8026C13.4281 34.7996 13.3493 34.8139 13.2764 34.8448C13.2034 34.8756 13.1382 34.9221 13.0852 34.9809C12.9908 35.1125 12.9386 35.2696 12.9354 35.4315C12.9354 35.4874 12.9259 35.6502 12.9259 35.9189C12.9259 36.1876 12.9259 36.3505 12.9354 36.4063C12.9385 36.5679 12.9908 36.7246 13.0852 36.8557C13.1382 36.9146 13.2034 36.9611 13.2764 36.9919C13.3493 37.0227 13.4281 37.0371 13.5072 37.034C13.5958 37.0375 13.6839 37.0187 13.7634 36.9794C13.8429 36.9402 13.9114 36.8817 13.9626 36.8094C14.0489 36.6913 14.0921 36.3945 14.0921 35.9189H14.0886Z" fill="white"/>
<path d="M17.5576 34.8312H16.685V37.5834H16.0335V34.8312H15.1621V34.2546H17.5576V34.8312Z" fill="white"/>
<path d="M20.2863 37.5834H18.0869V34.2546H20.2863V34.836H18.7408V35.6182H20.0592V36.1996H18.7384V37.0115H20.2839L20.2863 37.5834Z" fill="white"/>
<path d="M23.2677 36.5609C23.2304 36.789 23.1311 37.0025 22.9805 37.1778C22.8299 37.3532 22.6339 37.4836 22.414 37.5549C22.1941 37.6261 21.9589 37.6354 21.7341 37.5817C21.5092 37.528 21.3036 37.4134 21.1396 37.2504C20.9855 37.0928 20.8837 36.8915 20.8484 36.6739C20.7992 36.1718 20.7992 35.6661 20.8484 35.164C20.8837 34.9464 20.9855 34.7451 21.1396 34.5875C21.2992 34.4145 21.5049 34.2909 21.7325 34.2313C21.9601 34.1716 22.2 34.1784 22.4239 34.2508C22.6477 34.3232 22.8461 34.4582 22.9957 34.6399C23.1452 34.8215 23.2396 35.0422 23.2677 35.2758H22.6067C22.5282 34.9607 22.3415 34.8003 22.0443 34.8003C21.956 34.796 21.868 34.814 21.7884 34.8527C21.7089 34.8913 21.6403 34.9493 21.589 35.0214C21.5046 35.1403 21.463 35.4387 21.463 35.9166C21.463 36.1757 21.463 36.3386 21.4725 36.404C21.477 36.5675 21.5309 36.7258 21.6271 36.8581C21.6795 36.9161 21.7441 36.9617 21.8162 36.9917C21.8884 37.0217 21.9663 37.0354 22.0443 37.0317C22.3415 37.0317 22.5282 36.8748 22.6067 36.5562L23.2677 36.5609Z" fill="white"/>
<path d="M27.084 37.5834H24.918V34.2546H25.5694V37.0115H27.084V37.5834Z" fill="white"/>
<path d="M29.7612 34.8312H28.8886V37.5834H28.2371V34.8312H27.3657V34.2546H29.7612V34.8312Z" fill="white"/>
<path d="M32.7143 35.9047C32.7224 36.1474 32.7153 36.3904 32.6929 36.6322C32.661 36.8715 32.5521 37.0939 32.3827 37.2659C32.2651 37.3759 32.1263 37.4608 31.9749 37.5156C31.8235 37.5704 31.6625 37.5938 31.5017 37.5845H30.2915V34.2546H31.4958C31.6565 34.2452 31.8175 34.2687 31.969 34.3234C32.1204 34.3782 32.2591 34.4632 32.3767 34.5732C32.5442 34.7408 32.6531 34.958 32.687 35.1925C32.7113 35.4291 32.7205 35.6669 32.7143 35.9047ZM32.0629 35.9047C32.0667 35.7154 32.0592 35.526 32.0403 35.3376C32.0286 35.2284 31.9875 35.1245 31.9214 35.0368C31.8615 34.9672 31.7864 34.9124 31.7018 34.8768C31.6173 34.8411 31.5256 34.8255 31.434 34.8311H30.9418V37.0067H31.434C31.5257 37.0122 31.6174 36.9964 31.702 36.9605C31.7866 36.9247 31.8617 36.8696 31.9214 36.7998C31.9893 36.7083 32.0305 36.5996 32.0403 36.486C32.059 36.2928 32.0666 36.0987 32.0629 35.9047Z" fill="white"/>
<path d="M35.9581 37.5834H35.2793L35.082 36.989H33.8931L33.6922 37.5834H33.0122L34.2284 34.2546H34.7396L35.9581 37.5834ZM34.9084 36.4433L34.5006 35.2295L34.0786 36.4433H34.9084Z" fill="white"/>
<path d="M36.9998 37.5832H36.3008V36.8937H36.9998V37.5832Z" fill="white"/>
<path d="M0.535806 32.6282H0.168457V30.2291H0.535806V32.6282Z" fill="white"/>
<path d="M2.50727 32.6283H2.1637V31.588C2.16606 31.5141 2.15056 31.4407 2.11852 31.374C2.09223 31.3212 2.05086 31.2774 1.99964 31.248C1.94452 31.2212 1.88382 31.2077 1.8225 31.2088C1.77608 31.2069 1.72975 31.2143 1.68625 31.2307C1.64275 31.247 1.60298 31.2719 1.56928 31.3039C1.53406 31.3419 1.50702 31.3867 1.48984 31.4356C1.47266 31.4845 1.46571 31.5364 1.46942 31.588V32.6283H1.12109V30.9259H1.45872V31.0982C1.5151 31.0334 1.58541 30.9822 1.66439 30.9484C1.74309 30.9155 1.82754 30.8985 1.91286 30.8985C1.99012 30.8951 2.06729 30.9072 2.13979 30.9342C2.21228 30.9611 2.27863 31.0024 2.33489 31.0554C2.39468 31.1187 2.44083 31.1935 2.47049 31.2753C2.50014 31.3571 2.51266 31.4441 2.50727 31.531V32.6283Z" fill="white"/>
<path d="M4.29979 32.1063C4.30255 32.2125 4.27085 32.3168 4.20944 32.4035C4.1452 32.4883 4.05821 32.553 3.9586 32.5902C3.83987 32.6336 3.71409 32.6546 3.58768 32.652C3.49452 32.6527 3.40146 32.6456 3.3095 32.6306C3.22923 32.6167 3.15123 32.5919 3.07767 32.5569C3.00114 32.5178 2.93099 32.4673 2.86963 32.4071L3.09551 32.1812C3.16143 32.242 3.23914 32.2885 3.3238 32.318C3.40847 32.3474 3.49829 32.3591 3.58768 32.3524C3.65282 32.3533 3.71773 32.3445 3.78027 32.3263C3.83132 32.3127 3.87774 32.2856 3.91461 32.2478C3.94673 32.212 3.96376 32.1651 3.96217 32.117C3.96217 31.9981 3.88608 31.9268 3.73391 31.9149L3.46048 31.8923C3.3649 31.8852 3.27123 31.8619 3.18348 31.8234C3.11197 31.79 3.05228 31.7357 3.01229 31.6676C2.97057 31.5916 2.95004 31.5058 2.95285 31.4192C2.95158 31.3466 2.96763 31.2748 2.99968 31.2096C3.03173 31.1445 3.07884 31.088 3.13712 31.0447C3.2702 30.9471 3.43229 30.8973 3.59719 30.9032C3.8252 30.8879 4.05094 30.9564 4.23203 31.0958L4.01685 31.3146C3.89532 31.2244 3.74582 31.1802 3.59482 31.1897C3.51358 31.1846 3.43282 31.2054 3.36418 31.2492C3.33849 31.2674 3.31776 31.2917 3.30385 31.3199C3.28994 31.3481 3.2833 31.3794 3.28453 31.4109C3.28453 31.5297 3.36299 31.5904 3.5223 31.6046L3.79216 31.6296C3.88682 31.6352 3.97958 31.6586 4.06559 31.6986C4.13906 31.7321 4.20018 31.7878 4.24035 31.8579C4.28164 31.934 4.30214 32.0197 4.29979 32.1063Z" fill="white"/>
<path d="M5.43202 32.6282H5.23111C5.14065 32.6314 5.05115 32.6088 4.97314 32.5628C4.90495 32.5213 4.85008 32.461 4.81502 32.3893C4.77925 32.3152 4.76134 32.2338 4.76271 32.1515V31.2123H4.56299V30.9496H4.75558V30.4313H5.09915V30.9496H5.42965V31.2135H5.10153V32.1361C5.10153 32.2692 5.16454 32.3358 5.29055 32.3358H5.43202V32.6282Z" fill="white"/>
<path d="M6.22316 30.5823H5.85938V30.2185H6.22316V30.5823ZM6.21365 32.6283H5.86889V30.9259H6.21365V32.6283Z" fill="white"/>
<path d="M7.4745 32.6282H7.26884C7.17877 32.6312 7.08972 32.6085 7.01205 32.5628C6.94325 32.5217 6.8879 32.4614 6.85275 32.3893C6.81698 32.3152 6.79906 32.2338 6.80044 32.1515V31.2123H6.60547V30.9496H6.80044V30.4313H7.14401V30.9496H7.4745V31.2135H7.14401V32.1361C7.14401 32.2692 7.20702 32.3358 7.33303 32.3358H7.4745V32.6282Z" fill="white"/>
<path d="M9.28 32.6283H8.94474V32.4571C8.88695 32.5188 8.81634 32.5671 8.73789 32.5986C8.65885 32.6318 8.57395 32.6487 8.48823 32.6485C8.33316 32.6539 8.18212 32.5984 8.06739 32.494C8.00671 32.4356 7.96104 32.3634 7.93424 32.2836C7.90705 32.1954 7.89421 32.1035 7.8962 32.0113V30.9259H8.23977V31.9661C8.23585 32.0178 8.24224 32.0697 8.25857 32.1189C8.27489 32.1681 8.30083 32.2136 8.33487 32.2526C8.36739 32.2846 8.40611 32.3095 8.44864 32.3259C8.49118 32.3422 8.53662 32.3497 8.58215 32.3477C8.67635 32.3505 8.76781 32.3159 8.83656 32.2514C8.87188 32.2133 8.89897 32.1683 8.91615 32.1192C8.93333 32.0701 8.94023 32.018 8.93642 31.9661V30.9259H9.28V32.6283Z" fill="white"/>
<path d="M10.5399 32.6282H10.3343C10.2442 32.6312 10.1552 32.6085 10.0775 32.5628C10.009 32.5213 9.95372 32.4611 9.91818 32.3893C9.88298 32.315 9.86509 32.2337 9.86587 32.1515V31.2123H9.6709V30.9496H9.86706V30.4313H10.2106V30.9496H10.5411V31.2135H10.2094V32.1361C10.2094 32.2692 10.2724 32.3358 10.3985 32.3358H10.5399V32.6282Z" fill="white"/>
<path d="M12.3234 31.7722C12.3262 31.9055 12.3118 32.0386 12.2806 32.1681C12.2518 32.2731 12.1966 32.3689 12.1201 32.4463C11.982 32.5762 11.7996 32.6485 11.6101 32.6485C11.4205 32.6485 11.2381 32.5762 11.1 32.4463C11.0232 32.3683 10.9672 32.2722 10.9372 32.1669C10.906 32.0378 10.8916 31.9051 10.8944 31.7722C10.8916 31.6405 10.9064 31.509 10.9384 31.3811C10.9663 31.276 11.0207 31.1798 11.0965 31.1017C11.1345 31.061 11.1782 31.0257 11.2261 30.9971C11.28 30.9656 11.338 30.9416 11.3984 30.9258C11.4659 30.9075 11.5354 30.8983 11.6053 30.8984C11.7071 30.8965 11.8083 30.9156 11.9025 30.9543C11.983 30.9886 12.0558 31.0388 12.1165 31.1017C12.1923 31.1795 12.2471 31.2752 12.2758 31.3799C12.3086 31.5081 12.3246 31.64 12.3234 31.7722ZM11.9786 31.7722C11.9803 31.6778 11.9727 31.5834 11.956 31.4905C11.9433 31.4203 11.9102 31.3554 11.8609 31.3038C11.8278 31.2713 11.7883 31.246 11.7449 31.2294C11.7016 31.2129 11.6552 31.2054 11.6089 31.2075C11.5627 31.2058 11.5167 31.2135 11.4736 31.2301C11.4305 31.2466 11.3912 31.2717 11.358 31.3038C11.3095 31.3558 11.2769 31.4206 11.2641 31.4905C11.234 31.6767 11.234 31.8666 11.2641 32.0528C11.2769 32.1227 11.3095 32.1875 11.358 32.2394C11.3908 32.2724 11.43 32.2983 11.4731 32.3157C11.5162 32.3331 11.5624 32.3415 11.6089 32.3405C11.6556 32.3421 11.7021 32.3339 11.7455 32.3165C11.7889 32.2991 11.8282 32.2729 11.8609 32.2394C11.9102 32.1879 11.9433 32.123 11.956 32.0528C11.9726 31.9606 11.9801 31.8671 11.9786 31.7734V31.7722Z" fill="white"/>
<path d="M14.9163 32.6283H14.5799V32.4464C14.5425 32.4927 14.498 32.5329 14.4479 32.5652C14.4033 32.5935 14.3543 32.6144 14.3029 32.6271C14.2453 32.6407 14.1862 32.6471 14.127 32.6461C14.0458 32.6467 13.9653 32.6326 13.8892 32.6045C13.8178 32.581 13.7531 32.541 13.7002 32.4877C13.6473 32.4344 13.6078 32.3693 13.5849 32.2978C13.5573 32.2209 13.5389 32.1411 13.5302 32.06C13.5127 31.8698 13.5127 31.6784 13.5302 31.4882C13.5386 31.407 13.557 31.3271 13.5849 31.2504C13.6098 31.1772 13.6504 31.1102 13.7037 31.0542C13.7556 31.004 13.8176 30.9655 13.8856 30.9413C13.9618 30.9138 14.0424 30.9001 14.1234 30.9009C14.209 30.899 14.2941 30.9136 14.3742 30.9437C14.4517 30.9772 14.5198 31.029 14.5728 31.0947V30.2316H14.9163V32.6283ZM14.5728 31.7735C14.5745 31.6738 14.5657 31.5742 14.5466 31.4763C14.5327 31.4021 14.4961 31.3339 14.442 31.2813C14.3769 31.2339 14.2984 31.2083 14.2179 31.2083C14.1374 31.2083 14.0589 31.2339 13.9938 31.2813C13.9393 31.3338 13.9023 31.4019 13.888 31.4763C13.8688 31.5737 13.8601 31.673 13.8618 31.7723C13.8602 31.872 13.8689 31.9716 13.888 32.0695C13.9023 32.1442 13.9393 32.2127 13.9938 32.2657C14.0564 32.3193 14.1375 32.3462 14.2197 32.3406C14.2763 32.3472 14.3336 32.3364 14.3839 32.3096C14.4343 32.2829 14.4753 32.2414 14.5014 32.1908C14.5548 32.0584 14.5792 31.9161 14.5728 31.7735Z" fill="white"/>
<path d="M16.8244 31.8768H15.7152C15.7125 31.9648 15.73 32.0523 15.7663 32.1324C15.7975 32.2009 15.8489 32.2582 15.9137 32.2965C15.9859 32.3381 16.0682 32.3587 16.1515 32.3559C16.2296 32.3591 16.3074 32.3453 16.3797 32.3155C16.4489 32.2813 16.512 32.2359 16.5664 32.1812L16.7851 32.3857C16.7035 32.4704 16.6073 32.5397 16.501 32.5901C16.3877 32.6353 16.2663 32.6568 16.1443 32.6531C16.0402 32.6538 15.9367 32.6377 15.8376 32.6056C15.7457 32.5744 15.6623 32.5223 15.5939 32.4534C15.5195 32.377 15.4641 32.2842 15.4322 32.1824C15.3903 32.0514 15.3707 31.9144 15.374 31.777C15.3694 31.6138 15.4002 31.4516 15.4643 31.3014C15.5177 31.179 15.6057 31.0749 15.7175 31.0019C15.832 30.9311 15.9646 30.8952 16.0992 30.8984C16.236 30.8949 16.3709 30.9308 16.4879 31.0019C16.5986 31.0719 16.6859 31.1733 16.7388 31.2931C16.7979 31.4279 16.8271 31.5739 16.8244 31.7211V31.8768ZM16.4832 31.6391C16.4825 31.5597 16.4672 31.4811 16.438 31.4073C16.4111 31.343 16.3661 31.2881 16.3084 31.2491C16.246 31.2103 16.1739 31.1896 16.1004 31.1896C16.0268 31.1896 15.9547 31.2103 15.8923 31.2491C15.8333 31.2875 15.787 31.3426 15.7592 31.4073C15.7454 31.4368 15.7355 31.468 15.7294 31.5C15.7221 31.546 15.7173 31.5925 15.7152 31.6391H16.4832Z" fill="white"/>
<path d="M19.762 31.9102C19.7448 32.0212 19.709 32.1285 19.6561 32.2276C19.6085 32.3159 19.5448 32.3945 19.4683 32.4595C19.3928 32.5224 19.3061 32.5704 19.2127 32.6009C19.1136 32.6329 19.0101 32.6489 18.906 32.6485C18.8259 32.649 18.746 32.6395 18.6682 32.62C18.5938 32.5999 18.5223 32.5704 18.4554 32.532C18.3894 32.4937 18.3287 32.4469 18.2747 32.3929C18.2044 32.3233 18.1494 32.24 18.113 32.148C18.0795 32.0574 18.0591 31.9626 18.0524 31.8662C18.0453 31.764 18.0405 31.619 18.0405 31.4288C18.0405 31.2825 18.0405 31.1672 18.0465 31.0816C18.0496 31.0018 18.0583 30.9224 18.0726 30.8438C18.0862 30.7745 18.109 30.7074 18.1404 30.6441C18.1755 30.5769 18.2208 30.5155 18.2747 30.4622C18.3556 30.3803 18.4523 30.3156 18.5589 30.272C18.6684 30.23 18.7851 30.2098 18.9024 30.2126C19.108 30.2061 19.3089 30.2741 19.4683 30.404C19.6278 30.5453 19.7308 30.7395 19.7584 30.9508H19.3899C19.3674 30.8359 19.3091 30.7311 19.2234 30.6513C19.1353 30.5758 19.0219 30.5363 18.906 30.5407C18.8381 30.5401 18.7706 30.5526 18.7075 30.5775C18.6483 30.6019 18.5948 30.6384 18.5505 30.6845C18.5213 30.7163 18.4965 30.7519 18.4768 30.7903C18.4562 30.8353 18.4418 30.8829 18.434 30.9318C18.4222 30.9974 18.4146 31.0638 18.4114 31.1304C18.4114 31.2029 18.4055 31.3039 18.4055 31.4323C18.4055 31.5607 18.4055 31.6594 18.4114 31.7319C18.4147 31.7985 18.4222 31.8648 18.434 31.9304C18.4414 31.979 18.4558 32.0263 18.4768 32.0707C18.4973 32.1098 18.522 32.1465 18.5505 32.1801C18.5949 32.2259 18.6483 32.262 18.7075 32.2859C18.7706 32.3113 18.838 32.3242 18.906 32.3239C18.9855 32.3257 19.0642 32.3082 19.1354 32.2728C19.201 32.239 19.2574 32.1896 19.2995 32.129C19.3443 32.0639 19.3762 31.9909 19.3934 31.9138L19.762 31.9102Z" fill="white"/>
<path d="M21.4642 32.6282H21.1266V32.4713C21.0709 32.5288 21.0042 32.5745 20.9305 32.6056C20.8478 32.6352 20.7603 32.6489 20.6725 32.6461C20.5814 32.6478 20.4906 32.6345 20.4038 32.6068C20.3316 32.5827 20.266 32.542 20.2124 32.488C20.1208 32.3881 20.0725 32.256 20.0781 32.1206C20.0763 32.03 20.0998 31.9407 20.1458 31.8626C20.1935 31.7864 20.2632 31.7263 20.3456 31.6902C20.4471 31.6461 20.5571 31.625 20.6677 31.6284H21.1195V31.5095C21.1227 31.4659 21.1165 31.4221 21.1013 31.3811C21.0861 31.3401 21.0623 31.3028 21.0315 31.2718C20.9484 31.2133 20.8474 31.186 20.7462 31.1945C20.67 31.1915 20.5939 31.2041 20.5227 31.2314C20.4628 31.2614 20.4107 31.305 20.3705 31.3586L20.1458 31.1469C20.2136 31.0616 20.3019 30.9949 20.4026 30.9532C20.5172 30.9135 20.6381 30.895 20.7593 30.8985C21.2285 30.8985 21.4635 31.0942 21.4642 31.4858V32.6282ZM21.1195 32.0112V31.8769H20.7177C20.6368 31.8711 20.5565 31.8938 20.4906 31.9411C20.4643 31.9632 20.4435 31.9912 20.4299 32.0228C20.4162 32.0543 20.4102 32.0886 20.4121 32.123C20.4121 32.2847 20.5167 32.3607 20.7248 32.3607C20.7868 32.3622 20.8487 32.3558 20.9091 32.3417C20.9606 32.3276 21.0076 32.3006 21.0458 32.2633C21.1015 32.1917 21.1279 32.1016 21.1195 32.0112Z" fill="white"/>
<path d="M23.3912 31.7723C23.3912 31.8805 23.3912 31.9756 23.3782 32.0588C23.3684 32.14 23.3492 32.2198 23.3211 32.2966C23.2955 32.3691 23.255 32.4356 23.2022 32.4915C23.1511 32.5413 23.0899 32.5794 23.0227 32.6033C22.8656 32.6602 22.6935 32.6602 22.5365 32.6033C22.4594 32.5703 22.3916 32.5188 22.3391 32.4535V33.3201H21.9932V30.9258H22.3308V31.1077C22.3832 31.0392 22.4518 30.9849 22.5305 30.9496C22.6103 30.918 22.6956 30.9026 22.7814 30.9044C22.8625 30.9041 22.943 30.9182 23.0191 30.9461C23.0868 30.9688 23.1483 31.0071 23.1986 31.0578C23.2515 31.1138 23.292 31.1802 23.3175 31.2528C23.346 31.3295 23.3651 31.4093 23.3746 31.4905C23.3865 31.5702 23.3912 31.6653 23.3912 31.7723ZM23.0465 31.7723C23.0482 31.6726 23.0394 31.573 23.0203 31.4751C23.0064 31.4009 22.9698 31.3328 22.9157 31.2801C22.8506 31.2327 22.7721 31.2071 22.6916 31.2071C22.6111 31.2071 22.5326 31.2327 22.4675 31.2801C22.413 31.3326 22.376 31.4007 22.3617 31.4751C22.3431 31.5726 22.3344 31.6718 22.3355 31.7711C22.3344 31.8708 22.3432 31.9703 22.3617 32.0683C22.376 32.143 22.413 32.2115 22.4675 32.2645C22.5302 32.3179 22.6112 32.3448 22.6934 32.3394C22.75 32.346 22.8073 32.3352 22.8576 32.3084C22.908 32.2817 22.949 32.2402 22.9751 32.1896C23.0284 32.0576 23.0527 31.9157 23.0465 31.7735V31.7723Z" fill="white"/>
<path d="M25.114 32.6282H24.7764V32.4713C24.7214 32.5291 24.655 32.5748 24.5814 32.6056C24.4983 32.6351 24.4104 32.6488 24.3223 32.646C24.2316 32.6478 24.1412 32.6346 24.0548 32.6068C23.9824 32.5831 23.9167 32.5423 23.8634 32.4879C23.8178 32.4386 23.7824 32.3808 23.7593 32.3177C23.7363 32.2546 23.726 32.1876 23.729 32.1205C23.7269 32.03 23.7499 31.9407 23.7956 31.8626C23.8436 31.7866 23.9131 31.7266 23.9953 31.6902C24.0969 31.6463 24.2069 31.6252 24.3175 31.6284H24.7705V31.5095C24.7738 31.4658 24.7675 31.4218 24.7521 31.3808C24.7367 31.3397 24.7125 31.3025 24.6813 31.2717C24.5986 31.2135 24.498 31.1861 24.3972 31.1944C24.3209 31.1913 24.2449 31.2039 24.1737 31.2313C24.1136 31.261 24.0614 31.3046 24.0215 31.3585L23.7956 31.1469C23.8638 31.062 23.9521 30.9954 24.0524 30.9531C24.1671 30.9137 24.2879 30.8952 24.4091 30.8984C24.8783 30.8984 25.1128 31.0942 25.1128 31.4857L25.114 32.6282ZM24.7705 32.0112V31.8768H24.371C24.2898 31.8716 24.2093 31.8942 24.1428 31.941C24.1167 31.9633 24.0961 31.9913 24.0827 32.0229C24.0693 32.0544 24.0634 32.0887 24.0655 32.1229C24.0655 32.2846 24.1689 32.3607 24.3781 32.3607C24.4401 32.3621 24.502 32.3557 24.5624 32.3417C24.6137 32.3271 24.6606 32.3001 24.6991 32.2632C24.754 32.1913 24.7795 32.1012 24.7705 32.0112Z" fill="white"/>
<path d="M26.8804 32.4059C26.8315 32.4588 26.7759 32.5051 26.7152 32.5439C26.6584 32.58 26.5962 32.6069 26.5309 32.6235C26.4605 32.6408 26.3882 32.6492 26.3157 32.6485C26.1855 32.6495 26.057 32.6189 25.9412 32.5593C25.8203 32.4952 25.7222 32.3951 25.6607 32.2728C25.585 32.1171 25.5487 31.9453 25.5549 31.7723C25.552 31.6365 25.5733 31.5012 25.6179 31.3729C25.6534 31.2704 25.711 31.177 25.7867 31.0994C25.8557 31.031 25.9389 30.9787 26.0304 30.9461C26.1223 30.9147 26.2187 30.8986 26.3157 30.8985C26.4231 30.8961 26.5299 30.9156 26.6296 30.9556C26.7254 30.9984 26.8109 31.0613 26.8804 31.1398L26.6427 31.3693C26.6009 31.3183 26.5496 31.2759 26.4917 31.2445C26.4365 31.2193 26.3763 31.2071 26.3157 31.2088C26.2547 31.2064 26.194 31.2188 26.1389 31.2452C26.0838 31.2715 26.036 31.3108 25.9995 31.3598C25.9606 31.4067 25.9322 31.4614 25.9163 31.5203C25.9004 31.6021 25.8932 31.6854 25.8949 31.7687C25.883 31.9149 25.918 32.061 25.9947 32.186C26.0312 32.235 26.0791 32.2743 26.1342 32.3006C26.1893 32.3269 26.25 32.3394 26.311 32.337C26.3713 32.3385 26.4312 32.3259 26.4857 32.3001C26.5431 32.2699 26.5947 32.2297 26.6379 32.1813L26.8804 32.4059Z" fill="white"/>
<path d="M27.6304 30.5823H27.2666V30.2185H27.6304V30.5823ZM27.6209 32.6283H27.2761V30.9259H27.6209V32.6283Z" fill="white"/>
<path d="M28.8812 32.6282H28.6756C28.5851 32.6314 28.4956 32.6088 28.4176 32.5628C28.3494 32.5213 28.2945 32.461 28.2595 32.3893C28.2233 32.3153 28.205 32.2339 28.206 32.1515V31.2123H28.0122V30.9496H28.206V30.4313H28.5507V30.9496H28.8812V31.2135H28.5507V32.1361C28.5507 32.2692 28.6138 32.3358 28.7398 32.3358H28.8812V32.6282Z" fill="white"/>
<path d="M30.5771 32.6282H30.2394V32.4713C30.184 32.5292 30.1173 32.5749 30.0433 32.6056C29.9606 32.6353 29.8731 32.649 29.7853 32.646C29.6942 32.6478 29.6034 32.6345 29.5166 32.6068C29.4447 32.5827 29.3796 32.542 29.3264 32.4879C29.2806 32.4387 29.2451 32.3809 29.2218 32.3178C29.1985 32.2548 29.188 32.1877 29.1909 32.1206C29.1891 32.03 29.2126 31.9406 29.2587 31.8626C29.3066 31.7866 29.3762 31.7266 29.4584 31.6902C29.5599 31.6463 29.6699 31.6252 29.7805 31.6284H30.2335V31.5095C30.2368 31.4658 30.2305 31.4219 30.2151 31.3808C30.1997 31.3397 30.1756 31.3025 30.1443 31.2718C30.0612 31.2133 29.9602 31.186 29.859 31.1945C29.7832 31.1914 29.7075 31.2039 29.6367 31.2313C29.5764 31.2607 29.5242 31.3044 29.4845 31.3585L29.2587 31.1469C29.3268 31.062 29.4151 30.9954 29.5154 30.9531C29.6301 30.9136 29.7509 30.8951 29.8721 30.8985C30.3413 30.8985 30.5763 31.0942 30.5771 31.4857V32.6282ZM30.2335 32.0112V31.8769H29.8317C29.7505 31.8716 29.6699 31.8943 29.6034 31.9411C29.5771 31.9632 29.5563 31.9912 29.5427 32.0227C29.5291 32.0543 29.523 32.0886 29.525 32.123C29.525 32.2846 29.6296 32.3607 29.8376 32.3607C29.8996 32.3622 29.9615 32.3558 30.0219 32.3417C30.0734 32.3276 30.1204 32.3006 30.1586 32.2632C30.2158 32.1924 30.2427 32.1018 30.2335 32.0112Z" fill="white"/>
<path d="M32.3421 32.4059C32.2939 32.459 32.2387 32.5053 32.1781 32.5438C32.1212 32.5797 32.059 32.6066 31.9938 32.6234C31.923 32.6407 31.8503 32.6491 31.7774 32.6484C31.6476 32.6492 31.5195 32.6187 31.4041 32.5592C31.2832 32.4951 31.1851 32.395 31.1236 32.2727C31.0479 32.117 31.0116 31.9452 31.0178 31.7722C31.0143 31.6363 31.0357 31.501 31.0808 31.3728C31.1163 31.2703 31.1739 31.177 31.2496 31.0993C31.3184 31.0307 31.4016 30.9783 31.4933 30.946C31.5848 30.9146 31.6808 30.8986 31.7774 30.8984C31.8848 30.8958 31.9917 30.9152 32.0913 30.9555C32.1872 30.998 32.2728 31.0609 32.3421 31.1398L32.1044 31.3692C32.0624 31.3184 32.0111 31.2761 31.9534 31.2444C31.8978 31.2191 31.8372 31.2069 31.7762 31.2087C31.7154 31.2063 31.6549 31.2188 31.6 31.2451C31.5451 31.2714 31.4974 31.3107 31.4612 31.3597C31.424 31.4067 31.398 31.4616 31.3851 31.5202C31.3687 31.602 31.3611 31.6853 31.3625 31.7686C31.3504 31.915 31.3858 32.0614 31.4636 32.1859C31.4998 32.2349 31.5474 32.2742 31.6023 32.3005C31.6573 32.3269 31.7178 32.3393 31.7786 32.3369C31.839 32.3387 31.8989 32.3261 31.9534 32.3001C32.0114 32.2702 32.0634 32.2299 32.1067 32.1812L32.3421 32.4059Z" fill="white"/>
<path d="M33.0938 30.5823H32.73V30.2185H33.0938V30.5823ZM33.0831 32.6283H32.7395V30.9259H33.0831V32.6283Z" fill="white"/>
<path d="M34.9743 31.7723C34.9772 31.9055 34.9628 32.0386 34.9315 32.1681C34.9028 32.2728 34.848 32.3685 34.7722 32.4463C34.6339 32.576 34.4513 32.6482 34.2616 32.6482C34.072 32.6482 33.8894 32.576 33.751 32.4463C33.6758 32.3679 33.6215 32.2718 33.5929 32.1669C33.5335 31.9084 33.5335 31.6397 33.5929 31.3811C33.6209 31.2763 33.6749 31.1802 33.7499 31.1018C33.7883 31.0609 33.8323 31.0257 33.8806 30.9971C33.9345 30.9654 33.9925 30.9414 34.053 30.9258C34.12 30.9074 34.1892 30.8982 34.2587 30.8985C34.3609 30.8966 34.4624 30.9156 34.5571 30.9543C34.6376 30.9886 34.7103 31.0388 34.7711 31.1018C34.8465 31.1796 34.9009 31.2753 34.9292 31.3799C34.9617 31.5081 34.9769 31.64 34.9743 31.7723ZM34.6308 31.7723C34.6321 31.6778 34.6242 31.5834 34.607 31.4905C34.5947 31.4202 34.5616 31.3551 34.5119 31.3039C34.4431 31.2418 34.3537 31.2074 34.261 31.2074C34.1684 31.2074 34.079 31.2418 34.0102 31.3039C33.961 31.3553 33.9283 31.4203 33.9163 31.4905C33.8846 31.6766 33.8846 31.8667 33.9163 32.0528C33.9283 32.123 33.961 32.188 34.0102 32.2395C34.0427 32.2725 34.0816 32.2985 34.1246 32.3159C34.1675 32.3332 34.2135 32.3416 34.2599 32.3405C34.3066 32.3422 34.3532 32.3341 34.3966 32.3166C34.44 32.2992 34.4793 32.273 34.5119 32.2395C34.5616 32.1882 34.5947 32.1232 34.607 32.0528C34.624 31.9607 34.632 31.8671 34.6308 31.7734V31.7723ZM34.7187 30.0615L34.3443 30.6084H34.0851L34.3371 30.0615H34.7187Z" fill="white"/>
<path d="M36.8253 32.6282H36.4817V31.588C36.4841 31.514 36.4686 31.4406 36.4365 31.374C36.4105 31.3209 36.3691 31.277 36.3176 31.248C36.2629 31.2212 36.2026 31.2077 36.1417 31.2087C36.0951 31.2068 36.0486 31.2142 36.0049 31.2306C35.9612 31.2469 35.9212 31.2718 35.8873 31.3038C35.8521 31.3418 35.825 31.3866 35.8078 31.4355C35.7907 31.4844 35.7837 31.5363 35.7874 31.588V32.6282H35.4438V30.9258H35.7839V31.0982C35.8406 31.0353 35.911 30.9861 35.9895 30.9543C36.0682 30.9213 36.1527 30.9043 36.238 30.9044C36.3151 30.9009 36.3921 30.913 36.4644 30.94C36.5367 30.967 36.6028 31.0082 36.6588 31.0613C36.7186 31.1245 36.7648 31.1994 36.7944 31.2812C36.8241 31.363 36.8366 31.45 36.8312 31.5368L36.8253 32.6282Z" fill="white"/>
<path d="M24.4055 0.25388L16.4403 3.62541L8.47517 0.25388L6.92969 0.0161133L15.5832 26.0515H17.2975L25.951 0.0161133L24.4055 0.25388ZM16.4403 25.1005L8.83182 1.08606L16.4403 4.19248L24.0489 1.08606L16.4403 25.1005Z" fill="white"/>
<path d="M22.7707 23.875L22.5556 24.5336L22.3285 24.4587C22.3783 24.6023 22.4025 24.7537 22.3998 24.9057C22.389 25.0841 22.3534 25.2602 22.294 25.4288C22.2387 25.6058 22.1621 25.7755 22.0658 25.934C21.9902 26.0578 21.8908 26.1652 21.7733 26.2503C21.6836 26.314 21.5797 26.3552 21.4707 26.3703C21.3616 26.3854 21.2505 26.374 21.1468 26.337C21.0085 26.2938 20.8898 26.2034 20.8115 26.0814C20.7261 25.9377 20.6825 25.7731 20.6855 25.6059C20.6883 25.3817 20.7284 25.1595 20.8044 24.9485L21.0933 24.0652L20.9162 24.0069C20.8487 23.9792 20.7751 23.9699 20.7028 23.9799C20.6305 23.99 20.5622 24.019 20.5048 24.064C20.3603 24.2062 20.2579 24.3856 20.2088 24.5823C20.1559 24.7278 20.1258 24.8806 20.1196 25.0353C20.1239 25.1593 20.1547 25.2809 20.21 25.3919L19.7547 25.7295C19.6707 25.5429 19.63 25.3397 19.6358 25.1351C19.6507 24.8885 19.7004 24.6451 19.7832 24.4123C20.0844 23.4961 20.5203 23.132 21.0909 23.3198L22.7707 23.875ZM21.6437 24.2483L21.4404 24.1817L21.1837 24.9663C21.1243 25.1174 21.1066 25.2816 21.1325 25.4418C21.144 25.4976 21.1704 25.5492 21.209 25.591C21.2475 25.6329 21.2967 25.6635 21.3513 25.6796C21.589 25.7581 21.7733 25.5928 21.9065 25.1863C21.9481 25.0665 21.9783 24.9431 21.9968 24.8177C22.0098 24.7155 22.0005 24.6117 21.9695 24.5134C21.9398 24.4467 21.8948 24.388 21.8382 24.3419C21.7817 24.2959 21.715 24.2638 21.6437 24.2483Z" fill="white"/>
<path d="M23.9837 20.1739L23.7685 20.8289L23.5177 20.7469C23.5722 20.8993 23.598 21.0606 23.5937 21.2224C23.5899 21.3961 23.5606 21.5684 23.507 21.7336C23.4234 22.0286 23.2496 22.2901 23.01 22.4814C22.895 22.5675 22.7592 22.6216 22.6165 22.6383C22.4727 22.6497 22.3281 22.6307 22.1921 22.5824L20.5884 22.0582L20.8083 21.3865L22.336 21.887C22.4143 21.9188 22.4992 21.9311 22.5833 21.9226C22.6675 21.9141 22.7483 21.8851 22.8186 21.8382C22.9632 21.7299 23.068 21.577 23.117 21.4031C23.1818 21.2289 23.1889 21.0384 23.1372 20.8598C23.1103 20.7791 23.0635 20.7065 23.0012 20.6485C22.9389 20.5906 22.863 20.5492 22.7806 20.5281L21.2517 20.0276L21.4717 19.356L23.9837 20.1739Z" fill="white"/>
<path d="M22.7984 16.012L23.0135 16.6444C22.9378 16.6937 22.8701 16.7543 22.8126 16.8239C22.7554 16.9043 22.7116 16.9934 22.683 17.0879C22.644 17.2024 22.631 17.3243 22.645 17.4445C22.6565 17.5555 22.6976 17.6614 22.7639 17.7512C22.831 17.8402 22.9247 17.9056 23.0314 17.9379L24.5555 18.4372L24.3355 19.1089L21.8247 18.2862L22.0411 17.6276L22.3133 17.7167C22.2444 17.5793 22.2101 17.4271 22.2135 17.2733C22.2122 17.0891 22.2411 16.906 22.2991 16.7312C22.3451 16.5836 22.4116 16.4432 22.4964 16.3139C22.5782 16.196 22.6805 16.0938 22.7984 16.012Z" fill="white"/>
<path d="M25.039 13.2003L24.3257 15.3652C24.4569 15.4121 24.5989 15.4203 24.7346 15.3889C24.8647 15.3541 24.9815 15.2813 25.0699 15.1797C25.1795 15.0535 25.2606 14.905 25.3077 14.7446C25.361 14.5948 25.3907 14.4375 25.3956 14.2786C25.3905 14.1327 25.3636 13.9885 25.316 13.8506L25.7558 13.5213C25.8302 13.7306 25.8704 13.9506 25.8747 14.1728C25.8684 14.4213 25.8227 14.6673 25.7392 14.9015C25.6757 15.1015 25.5874 15.2928 25.4765 15.471C25.3785 15.6298 25.25 15.7676 25.0984 15.8764C24.9488 15.9789 24.7759 16.0422 24.5955 16.0606C24.3816 16.0785 24.1663 16.0501 23.9643 15.9774C23.7194 15.9052 23.4995 15.766 23.3294 15.5756C23.1758 15.3953 23.079 15.1736 23.0513 14.9384C23.0217 14.6693 23.0534 14.397 23.144 14.1418C23.2221 13.8769 23.359 13.6331 23.5446 13.4285C23.7036 13.2615 23.9083 13.1449 24.1331 13.0933C24.3606 13.0426 24.5977 13.0562 24.8179 13.1325L25.039 13.2003ZM24.4707 13.7495C24.3503 13.7145 24.2235 13.7072 24.0998 13.7281C23.9794 13.7535 23.8695 13.8148 23.7848 13.9041C23.6856 14.0132 23.6107 14.1421 23.5648 14.2822C23.5189 14.4224 23.5031 14.5706 23.5185 14.7172C23.5331 14.8408 23.5844 14.9572 23.6659 15.0513C23.7001 15.0919 23.7401 15.1272 23.7848 15.1559C23.8476 15.1915 23.9127 15.2229 23.9797 15.2498L24.4707 13.7495Z" fill="white"/>
<path d="M26.0423 9.6374C26.2406 9.69682 26.4275 9.78926 26.5951 9.91083C26.7387 10.0272 26.8453 10.183 26.9018 10.359C27.0148 10.7169 27.0026 11.1026 26.8674 11.4527C26.7677 11.8134 26.5479 12.1292 26.2444 12.3479C26.0942 12.454 25.9169 12.5151 25.7332 12.5239C25.5262 12.5245 25.3206 12.4891 25.1257 12.4193C24.9287 12.3601 24.7436 12.2667 24.5789 12.1435C24.4357 12.0284 24.3281 11.875 24.2686 11.7012C24.2334 11.6029 24.2103 11.5007 24.1996 11.3969C24.1861 11.274 24.1861 11.15 24.1996 11.0271C24.2163 10.8857 24.2474 10.7462 24.2923 10.6111C24.353 10.4127 24.4449 10.2253 24.5646 10.0559C24.6619 9.9202 24.7827 9.80304 24.9212 9.70992C25.0715 9.60401 25.2488 9.54299 25.4324 9.53397C25.6402 9.53266 25.8466 9.56766 26.0423 9.6374ZM25.8236 10.3091C25.6849 10.261 25.5407 10.2306 25.3944 10.2187C25.2749 10.2111 25.1564 10.2452 25.0591 10.315C24.9183 10.4311 24.8134 10.5848 24.7565 10.7583C24.6997 10.9317 24.6933 11.1177 24.7382 11.2946C24.7773 11.4069 24.8525 11.5031 24.9521 11.5681C25.0772 11.6447 25.2114 11.7054 25.3516 11.7488C25.4893 11.7971 25.6328 11.827 25.7784 11.8379C25.897 11.846 26.0149 11.8133 26.1124 11.7452C26.2617 11.637 26.3709 11.4823 26.4227 11.3053C26.4878 11.1319 26.4916 10.9415 26.4334 10.7656C26.3961 10.6517 26.321 10.554 26.2206 10.4886C26.0965 10.4121 25.963 10.3517 25.8236 10.3091Z" fill="white"/>
<path d="M28.0563 7.74362L27.9256 8.14545C27.8742 8.32116 27.7849 8.48348 27.664 8.62098C27.569 8.72889 27.4453 8.80763 27.3074 8.84805C27.1822 8.88144 27.05 8.87772 26.9269 8.83735L25.5455 8.3844L25.4266 8.76364L25.0391 8.63644L25.1639 8.25839L24.4019 8.00873L24.6218 7.33704L25.3826 7.5867L25.5943 6.94116L25.9818 7.06718L25.7702 7.71271L27.1267 8.15734C27.3216 8.22153 27.4595 8.13039 27.5404 7.88391L27.6307 7.6081L28.0563 7.74362Z" fill="white"/>
<path d="M28.0942 3.87266L27.3809 6.03752C27.5117 6.08463 27.6535 6.09248 27.7887 6.06011C27.9189 6.0255 28.036 5.95311 28.1251 5.85206C28.2348 5.7254 28.3159 5.57659 28.3629 5.41576C28.4174 5.26667 28.4471 5.10964 28.4509 4.95093C28.4464 4.80503 28.4195 4.66069 28.3712 4.52295L28.8111 4.19364C28.8856 4.40297 28.9257 4.62297 28.93 4.84512C28.9238 5.09331 28.878 5.33891 28.7944 5.57269C28.7314 5.77441 28.6432 5.96734 28.5317 6.14689C28.4336 6.30567 28.3047 6.44312 28.1525 6.5511C28.0038 6.65458 27.8311 6.71804 27.6508 6.73537C27.4365 6.75366 27.2208 6.72569 27.0183 6.65334C26.7765 6.57969 26.5596 6.44063 26.3918 6.25151C26.2383 6.07103 26.1412 5.84947 26.1124 5.6143C26.0835 5.3452 26.1152 5.07304 26.2052 4.81778C26.2837 4.55306 26.4206 4.30932 26.6058 4.10448C26.7625 3.93223 26.967 3.81055 27.1931 3.75497C27.4206 3.70423 27.6577 3.71781 27.8779 3.7942L28.0942 3.87266ZM27.526 4.4219C27.4056 4.38628 27.2787 4.37896 27.155 4.4005C27.0346 4.42582 26.9247 4.48718 26.84 4.57645C26.7378 4.68326 26.6624 4.81284 26.6201 4.9545C26.5716 5.09368 26.5561 5.24223 26.5749 5.38842C26.589 5.51216 26.6404 5.62867 26.7223 5.72248C26.7565 5.76312 26.7965 5.79839 26.8412 5.8271C26.9045 5.86265 26.97 5.89402 27.0374 5.92102L27.526 4.4219Z" fill="white"/>
<path d="M29.9586 0.82361C30.0056 0.948642 30.0379 1.0787 30.0549 1.21117C30.0716 1.3434 30.0716 1.4772 30.0549 1.60943C30.0361 1.75475 30.0039 1.89802 29.9586 2.03741C29.8791 2.28779 29.7538 2.5212 29.5889 2.72574C29.4359 2.9179 29.2289 3.05991 28.9945 3.13351C28.7298 3.20712 28.4486 3.19547 28.1909 3.10022C27.9867 3.03877 27.7996 2.93095 27.644 2.78518C27.5086 2.65886 27.4054 2.5019 27.3432 2.32748C27.2852 2.15053 27.2618 1.96405 27.2743 1.77824C27.2868 1.5813 27.3244 1.38675 27.386 1.19928C27.4487 0.989661 27.5438 0.791115 27.6678 0.610809C27.7852 0.450593 27.932 0.314219 28.1005 0.208984L28.286 0.782001C28.1798 0.844983 28.0849 0.925357 28.0054 1.01977C27.9312 1.11813 27.8748 1.2288 27.839 1.3467C27.796 1.45712 27.7756 1.57506 27.7791 1.69351C27.7825 1.81196 27.8098 1.9285 27.8592 2.03622C27.9027 2.13192 27.9708 2.21437 28.0565 2.27517C28.1643 2.34644 28.2821 2.40132 28.406 2.43804C28.6882 2.53077 28.9141 2.53077 29.0837 2.43804C29.1873 2.38073 29.2784 2.30306 29.3513 2.2097C29.4242 2.11634 29.4776 2.00922 29.5081 1.89475C29.5483 1.78024 29.5676 1.65944 29.5651 1.5381C29.5566 1.41541 29.5281 1.29494 29.4807 1.18145L29.9586 0.82361Z" fill="white"/>
</svg>
