<svg width="95" height="15" viewBox="0 0 95 15" fill="none" xmlns="http://www.w3.org/2000/svg">
<g clip-path="url(#clip0_8881_1248)">
<path d="M2.53641 4.83374H0V10.7661H2.53641V4.83374Z" fill="white"/>
<path d="M8.41627 2.85631C9.24402 2.85631 9.91505 2.2169 9.91505 1.42815C9.91505 0.639406 9.24402 0 8.41627 0C7.58851 0 6.91748 0.639406 6.91748 1.42815C6.91748 2.2169 7.58851 2.85631 8.41627 2.85631Z" fill="white"/>
<path d="M7.60929 6.26636C7.79425 5.72639 8.11025 5.23559 8.53162 4.83381C8.10638 4.36144 7.64386 3.92072 7.14812 3.51552C5.98709 2.56939 4.66017 1.82563 3.22822 1.31836L1.84473 2.85637C2.57744 3.14741 3.27354 3.51591 3.91997 3.95495C4.90456 4.6141 5.58708 5.09308 5.99521 5.93239C6.53939 7.05514 6.22579 8.18009 5.99521 9.00841C5.6827 10.0615 5.13174 11.0364 4.38113 11.8647C3.90567 12.4337 3.36421 12.9497 2.76706 13.4027L4.15055 14.9407C4.75237 14.4046 5.37033 13.818 5.99521 13.183C6.95674 12.2031 7.79837 11.2407 8.53162 10.3267C8.41172 10.1773 6.91754 8.28994 7.60929 6.26636Z" fill="white"/>
<path d="M12.6822 11.8647C11.9316 11.0364 11.3807 10.0615 11.0681 9.00841C10.8376 8.18009 10.524 7.05514 11.0681 5.93239C11.4763 5.09308 12.1588 4.6141 13.1434 3.95495C13.7898 3.51591 14.4859 3.14741 15.2186 2.85637L13.8351 1.31836C12.4032 1.82563 11.0763 2.56939 9.91523 3.51552C9.41949 3.92072 8.95698 4.36144 8.53174 4.83381C8.95311 5.23559 9.26911 5.72639 9.45407 6.26636C10.1458 8.28994 8.65164 10.1773 8.53174 10.3267C9.26499 11.2407 10.1066 12.2031 11.0681 13.183C11.693 13.818 12.311 14.4046 12.9128 14.9407L14.2963 13.4027C13.6992 12.9497 13.1577 12.4337 12.6822 11.8647Z" fill="white"/>
<path d="M22.7122 2.85631C23.5399 2.85631 24.2109 2.2169 24.2109 1.42815C24.2109 0.639406 23.5399 0 22.7122 0C21.8844 0 21.2134 0.639406 21.2134 1.42815C21.2134 2.2169 21.8844 2.85631 22.7122 2.85631Z" fill="white"/>
<path d="M21.6746 4.83381H22.8275C22.4023 4.36144 21.9398 3.92072 21.444 3.51552C20.283 2.56939 18.9561 1.82563 17.5241 1.31836L16.1406 2.85637C16.8733 3.14741 17.5694 3.51591 18.2159 3.95495C19.2005 4.6141 19.883 5.09308 20.2911 5.93239C20.8353 7.05514 20.5217 8.18009 20.2911 9.00841C19.9786 10.0615 19.4276 11.0364 18.677 11.8647C18.2016 12.4337 17.6601 12.9497 17.063 13.4027L18.4465 14.9407C19.0483 14.4046 19.6662 13.818 20.2911 13.183C21.2526 12.2031 22.0943 11.2407 22.8275 10.3267H21.6746V4.83381Z" fill="white"/>
<path d="M26.9781 11.8647C26.2275 11.0364 25.6766 10.0615 25.364 9.00841C25.1335 8.18009 24.8199 7.05514 25.364 5.93239C25.7722 5.09308 26.4547 4.6141 27.4393 3.95495C28.0857 3.51591 28.7818 3.14741 29.5145 2.85637L28.131 1.31836C26.6991 1.82563 25.3722 2.56939 24.2111 3.51552C23.7154 3.92072 23.2529 4.36144 22.8276 4.83381H23.9805V10.3267H22.8276C23.5609 11.2407 24.4025 12.2031 25.364 13.183C25.9889 13.818 26.6069 14.4046 27.2087 14.9407L28.5922 13.4027C27.995 12.9497 27.4536 12.4337 26.9781 11.8647Z" fill="white"/>
<path d="M30.8982 6.37175C30.7063 5.80356 30.3921 5.27974 29.9758 4.83374C29.5595 5.27974 29.2454 5.80356 29.0535 6.37175C28.779 7.23116 28.779 8.14893 29.0535 9.00834C29.2391 9.64543 29.5523 10.2423 29.9758 10.7661C30.3993 10.2423 30.7125 9.64543 30.8982 9.00834C31.1726 8.14893 31.1726 7.23116 30.8982 6.37175Z" fill="white"/>
<path d="M17.3744 6.59145C17.0552 6.17865 16.6551 5.82871 16.1961 5.56098C16.0452 5.46949 15.87 5.4209 15.6911 5.4209C15.5123 5.4209 15.3371 5.46949 15.1862 5.56098C14.7268 5.82812 14.3265 6.17816 14.0079 6.59145C13.2769 7.60874 13.7773 8.47442 14.0079 8.83914C14.299 9.28129 14.6772 9.66554 15.1216 9.97068C15.2855 10.0881 15.4849 10.1517 15.69 10.1517C15.895 10.1517 16.0945 10.0881 16.2584 9.97068C16.7035 9.66559 17.0824 9.28136 17.3744 8.83914C17.5981 8.46563 18.1053 7.59995 17.3744 6.59145Z" fill="white"/>
<path d="M41.8666 6.11475V10.5091H40.9927L38.6984 7.84611V10.5003H37.647V6.10596H38.5278L40.8129 8.78869V6.11475H41.8666Z" fill="white"/>
<path d="M43.4165 10.0564C43.0498 9.7093 42.8677 9.21274 42.8677 8.57117V6.11475H43.933V8.53162C43.933 9.31527 44.275 9.70783 44.9591 9.7093C45.1005 9.71778 45.2421 9.6966 45.374 9.64725C45.5058 9.5979 45.6247 9.52158 45.7223 9.42367C45.9192 9.16589 46.0124 8.84937 45.9851 8.53162V6.11475H47.0389V8.56897C47.0389 9.21054 46.8568 9.7071 46.4901 10.0543C46.0557 10.3896 45.5136 10.5726 44.9544 10.5726C44.3953 10.5726 43.8532 10.3896 43.4188 10.0543L43.4165 10.0564Z" fill="white"/>
<path d="M48.9109 6.94088H47.4375V6.11475H51.4496V6.94088H49.9762V10.5003H48.9109V6.94088Z" fill="white"/>
<path d="M54.9017 10.5002L54.014 9.27863H53.034V10.5002H51.9688V6.10593H53.9564C54.3211 6.09758 54.6835 6.1635 55.0193 6.29928C55.2281 6.39413 55.4136 6.52984 55.5636 6.69756C55.7137 6.86527 55.825 7.06124 55.8903 7.27268C55.9555 7.48412 55.9733 7.7063 55.9424 7.92472C55.9116 8.14315 55.8327 8.35292 55.7111 8.54038C55.5411 8.78126 55.3005 8.96921 55.0193 9.08088L56.0523 10.4915L54.9017 10.5002ZM54.632 7.13859C54.42 6.99341 54.1614 6.92345 53.901 6.94085H53.034V8.47886H53.901C54.1618 8.49676 54.4208 8.42591 54.632 8.27892C54.7165 8.20775 54.7827 8.11902 54.8255 8.01959C54.8682 7.92015 54.8865 7.81267 54.8787 7.70546C54.8857 7.59929 54.8671 7.493 54.8244 7.39474C54.7816 7.29648 54.7158 7.20885 54.632 7.13859Z" fill="white"/>
<path d="M56.7485 6.11475H57.8138V10.5091H56.7485V6.11475Z" fill="white"/>
<path d="M59.7833 10.2848C59.4136 10.0977 59.1043 9.81814 58.8886 9.47623C58.6755 9.12013 58.5635 8.71727 58.5635 8.30734C58.5635 7.89741 58.6755 7.49455 58.8886 7.13845C59.1043 6.79654 59.4136 6.51703 59.7833 6.3299C60.1475 6.15567 60.5465 6.05751 60.9537 6.04198C61.3609 6.02645 61.7668 6.09389 62.1445 6.23981C62.456 6.36748 62.7317 6.56317 62.9492 6.81107L62.2574 7.4131C62.1178 7.25072 61.9418 7.12025 61.7423 7.03127C61.5427 6.9423 61.3248 6.89708 61.1045 6.89896C60.8383 6.89441 60.5753 6.95573 60.3413 7.07693C60.1213 7.19323 59.9399 7.36604 59.8179 7.57569C59.6952 7.80029 59.6312 8.04975 59.6312 8.30295C59.6312 8.55614 59.6952 8.8056 59.8179 9.0302C59.9394 9.2397 60.1209 9.41193 60.3413 9.52676C60.5747 9.64968 60.8379 9.71183 61.1045 9.70693C61.3255 9.70865 61.544 9.6627 61.7436 9.57252C61.9433 9.48234 62.119 9.35027 62.2574 9.1862L62.9492 9.78822C62.731 10.0419 62.4518 10.2416 62.1352 10.3705C61.7915 10.5076 61.4218 10.5757 61.0492 10.5704C60.6089 10.5765 60.174 10.4783 59.7833 10.2848Z" fill="white"/>
<path d="M63.6201 6.11475H64.6854V10.5091H63.6201V6.11475Z" fill="white"/>
<path d="M66.6614 10.2806C66.289 10.0944 65.9778 9.81386 65.7621 9.46984C65.5476 9.11661 65.4346 8.71569 65.4346 8.30755C65.4346 7.89941 65.5476 7.49849 65.7621 7.14525C65.9778 6.80123 66.289 6.52066 66.6614 6.3345C67.0615 6.14093 67.5039 6.04004 67.9527 6.04004C68.4014 6.04004 68.8438 6.14093 69.2439 6.3345C69.6213 6.5246 69.9372 6.80919 70.1575 7.15762C70.3779 7.50606 70.4943 7.90515 70.4943 8.31194C70.4943 8.71873 70.3779 9.11782 70.1575 9.46626C69.9372 9.81469 69.6213 10.0993 69.2439 10.2894C68.8438 10.483 68.4014 10.5838 67.9527 10.5838C67.5039 10.5838 67.0615 10.483 66.6614 10.2894V10.2806ZM68.6905 9.53136C68.908 9.41506 69.0869 9.24304 69.207 9.03481C69.3297 8.81021 69.3937 8.56074 69.3937 8.30755C69.3937 8.05435 69.3297 7.80489 69.207 7.58029C69.0863 7.37194 68.9075 7.19936 68.6905 7.08153C68.4643 6.9648 68.2111 6.90368 67.9538 6.90368C67.6965 6.90368 67.4433 6.9648 67.2171 7.08153C67.0009 7.20034 66.8224 7.37268 66.7006 7.58029C66.5779 7.80489 66.5139 8.05435 66.5139 8.30755C66.5139 8.56074 66.5779 8.81021 66.7006 9.03481C66.8214 9.24255 67.0002 9.41441 67.2171 9.53136C67.4428 9.64965 67.6962 9.71167 67.9538 9.71167C68.2114 9.71167 68.4648 9.64965 68.6905 9.53136Z" fill="white"/>
<path d="M75.4441 6.11475V10.5091H74.5702L72.2643 7.84611V10.5003H71.2129V6.10596H72.0937L74.3926 8.78869V6.11475H75.4441Z" fill="white"/>
<path d="M76.4819 6.11475H77.5472V10.5091H76.4819V6.11475Z" fill="white"/>
<path d="M79.0437 10.4342C78.7493 10.3612 78.4718 10.2367 78.2251 10.0673L78.5871 9.30267C78.8011 9.44934 79.0386 9.56211 79.2904 9.63664C79.5539 9.71883 79.8294 9.76109 80.1066 9.76188C80.3384 9.77633 80.5701 9.73158 80.7776 9.63224C80.8425 9.59918 80.8968 9.55013 80.9349 9.49022C80.973 9.43032 80.9936 9.36175 80.9944 9.29168C80.9949 9.24164 80.9836 9.19213 80.9613 9.14685C80.9389 9.10157 80.9061 9.0617 80.8653 9.03022C80.7682 8.95587 80.657 8.89994 80.5378 8.86543C80.4041 8.82369 80.2219 8.77755 79.9937 8.72701C79.7023 8.6643 79.4151 8.58506 79.1336 8.48972C78.9106 8.41078 78.7123 8.27925 78.5571 8.10742C78.393 7.90764 78.311 7.65763 78.3266 7.40432C78.3235 7.15802 78.3991 6.91665 78.5433 6.71222C78.7066 6.49088 78.9342 6.31981 79.1982 6.22005C79.5374 6.09112 79.9007 6.0298 80.2657 6.03989C80.5563 6.03944 80.8459 6.07265 81.1281 6.13876C81.3851 6.19828 81.6309 6.29538 81.8568 6.42659L81.5293 7.19779C81.1396 6.9774 80.6959 6.85845 80.2427 6.85284C80.0134 6.83732 79.7844 6.8854 79.5832 6.99126C79.5175 7.0287 79.4631 7.08183 79.4255 7.14541C79.3879 7.20899 79.3684 7.28081 79.3688 7.35379C79.369 7.42803 79.3935 7.50035 79.439 7.56063C79.4845 7.62091 79.5486 7.66612 79.6224 7.68995C79.8652 7.78763 80.1178 7.86125 80.3764 7.90967C80.6676 7.97402 80.9548 8.05398 81.2365 8.14916C81.4582 8.22722 81.6562 8.35629 81.8129 8.52487C81.9779 8.72087 82.0601 8.96846 82.0435 9.21918C82.043 9.4656 81.9625 9.70584 81.8129 9.90689C81.6496 10.1245 81.425 10.2936 81.165 10.3947C80.8241 10.5232 80.4593 10.5845 80.0928 10.5748C79.7379 10.5756 79.3846 10.5282 79.0437 10.4342Z" fill="white"/>
<path d="M83.6184 6.94088H82.145V6.11475H86.1549V6.94088H84.6837V10.5003H83.6184V6.94088Z" fill="white"/>
<path d="M89.4775 9.55989H87.34L86.9295 10.5003H85.8389L87.8887 6.10596H88.9425L90.9993 10.5003H89.881L89.4775 9.55989ZM89.1408 8.78869L88.4122 7.11006L87.6812 8.78869H89.1408Z" fill="white"/>
<path d="M91.8871 10.4342C91.5967 10.3604 91.323 10.236 91.0801 10.0673L91.4421 9.3027C91.6558 9.44981 91.8934 9.56262 92.1454 9.63667C92.4081 9.71885 92.6828 9.76111 92.9593 9.76191C93.1911 9.77691 93.4229 9.73213 93.6303 9.63228C93.6955 9.59959 93.7501 9.55062 93.7882 9.49063C93.8264 9.43064 93.8468 9.36188 93.8471 9.29172C93.8481 9.24183 93.8372 9.19238 93.8152 9.14709C93.7932 9.10179 93.7608 9.06185 93.7202 9.03026C93.6223 8.95593 93.5104 8.90001 93.3905 8.86547C93.2568 8.82372 93.0769 8.77758 92.8486 8.72705C92.5565 8.66429 92.2685 8.58506 91.9863 8.48975C91.7636 8.41136 91.5659 8.2797 91.4121 8.10745C91.247 7.90816 91.1649 7.65779 91.1815 7.40436C91.1785 7.15806 91.2541 6.91669 91.3983 6.71225C91.5616 6.49091 91.7892 6.31985 92.0531 6.22009C92.3923 6.09098 92.7557 6.02965 93.1207 6.03992C93.4113 6.03963 93.7009 6.07283 93.9831 6.1388C94.2424 6.19808 94.4905 6.29517 94.7187 6.42662L94.3889 7.19783C94.0028 6.97862 93.5632 6.85968 93.1138 6.85287C92.8846 6.8371 92.6554 6.8852 92.4543 6.99129C92.3886 7.02874 92.3343 7.08187 92.2966 7.14545C92.259 7.20902 92.2395 7.28085 92.2399 7.35383C92.2378 7.42471 92.258 7.49459 92.2978 7.55448C92.3377 7.61438 92.3954 7.66156 92.4636 7.68999C92.7056 7.7874 92.9575 7.86102 93.2153 7.90971C93.5071 7.97265 93.795 8.05114 94.0776 8.1448C94.299 8.22236 94.4964 8.35153 94.6518 8.52051C94.8217 8.71448 94.9082 8.96255 94.8939 9.21482C94.8934 9.46124 94.8129 9.70148 94.6633 9.90253C94.4966 10.1235 94.267 10.2943 94.0016 10.3947C93.6615 10.5234 93.2974 10.5847 92.9317 10.5749C92.5783 10.5752 92.2266 10.5278 91.8871 10.4342Z" fill="white"/>
<path d="M39.621 12.3525C39.7252 12.4456 39.8083 12.558 39.8651 12.6829C39.9219 12.8078 39.9512 12.9425 39.9512 13.0786C39.9512 13.2147 39.9219 13.3494 39.8651 13.4743C39.8083 13.5992 39.7252 13.7117 39.621 13.8048C39.3563 13.9943 39.029 14.0871 38.6987 14.0662H37.8824V14.9803H37.585V12.0844H38.7217C39.0454 12.0688 39.3643 12.1639 39.621 12.3525ZM39.3904 13.6092C39.4682 13.5432 39.5294 13.4613 39.5693 13.3696C39.6092 13.2779 39.6269 13.1788 39.621 13.0797C39.6287 12.9788 39.6119 12.8776 39.5719 12.7838C39.5319 12.6901 39.4698 12.6064 39.3904 12.5392C39.1899 12.4016 38.9451 12.3355 38.6987 12.3525H37.8916V13.7982H38.6987C38.9454 13.8145 39.1903 13.7476 39.3904 13.6092Z" fill="white"/>
<path d="M42.2542 14.9803L41.6916 14.2267C41.6263 14.23 41.5609 14.23 41.4956 14.2267H40.8339V14.9716H40.5825V12.6338H41.5048C41.7705 12.6205 42.0323 12.6985 42.2427 12.8535C42.3315 12.9262 42.4017 13.0172 42.4481 13.1196C42.4944 13.222 42.5157 13.3331 42.5102 13.4445C42.5159 13.6103 42.464 13.7733 42.3626 13.9081C42.2584 14.0389 42.113 14.1344 41.9476 14.1806L42.5471 14.9847L42.2542 14.9803ZM42.0467 13.8708C42.1098 13.8145 42.1601 13.7464 42.1945 13.6708C42.2289 13.5952 42.2467 13.5137 42.2467 13.4313C42.2467 13.349 42.2289 13.2675 42.1945 13.1919C42.1601 13.1163 42.1098 13.0482 42.0467 12.9919C41.8848 12.8794 41.6864 12.8249 41.4864 12.8381H40.8339V14.0136H41.4864C41.685 14.03 41.8833 13.9794 42.0467 13.8708Z" fill="white"/>
<path d="M43.5988 14.8439C43.4068 14.745 43.2472 14.5975 43.1376 14.4176C43.0288 14.2312 42.9717 14.0213 42.9717 13.8079C42.9717 13.5945 43.0288 13.3847 43.1376 13.1982C43.2448 13.0132 43.4047 12.8609 43.5988 12.7588C43.803 12.6569 44.0301 12.6038 44.2606 12.6038C44.491 12.6038 44.7181 12.6569 44.9223 12.7588C45.1157 12.8618 45.2753 13.0139 45.3835 13.1982C45.4938 13.385 45.5517 13.5958 45.5517 13.8101C45.5517 14.0245 45.4938 14.2352 45.3835 14.422C45.2729 14.6011 45.1135 14.7484 44.9223 14.8483C44.7199 14.9525 44.4929 15.0054 44.2629 15.0021C44.031 15.004 43.8024 14.9496 43.5988 14.8439ZM44.7886 14.6527C44.9437 14.572 45.0722 14.4518 45.1598 14.3056C45.2476 14.153 45.2936 13.9819 45.2936 13.8079C45.2936 13.634 45.2476 13.4628 45.1598 13.3103C45.0726 13.1638 44.944 13.0435 44.7886 12.9631C44.6277 12.8786 44.4465 12.8354 44.2629 12.8379C44.0777 12.8355 43.8951 12.8786 43.7325 12.9631C43.5774 13.0447 43.4489 13.1656 43.3613 13.3125C43.272 13.4645 43.2252 13.6359 43.2252 13.8101C43.2252 13.9844 43.272 14.1557 43.3613 14.3078C43.4496 14.4535 43.5779 14.5735 43.7325 14.6549C43.8951 14.7394 44.0777 14.7826 44.2629 14.7802C44.4467 14.7819 44.6279 14.738 44.7886 14.6527Z" fill="white"/>
<path d="M48.1919 12.6335L47.1013 14.9801H46.8453L45.7432 12.6335H46.0245L46.9652 14.6725L47.9152 12.6335H48.1919Z" fill="white"/>
<path d="M48.6045 12.6335H48.865V14.9801H48.6045V12.6335Z" fill="white"/>
<path d="M51.7936 12.6335V14.9801H51.5792L49.9974 13.0774V14.9801H49.7368V12.6335H49.9513L51.5376 14.5385V12.6335H51.7936Z" fill="white"/>
<path d="M53.0753 14.8463C52.8841 14.7464 52.7248 14.5991 52.6141 14.42C52.5053 14.2327 52.4482 14.0222 52.4482 13.8081C52.4482 13.594 52.5053 13.3835 52.6141 13.1962C52.7226 13.0121 52.8821 12.8601 53.0753 12.7568C53.254 12.6683 53.4503 12.6168 53.6513 12.6054C53.8523 12.5941 54.0536 12.6232 54.2421 12.6909C54.3984 12.7492 54.5376 12.8427 54.6479 12.9633L54.4819 13.1215C54.3878 13.0295 54.2746 12.9571 54.1495 12.9091C54.0245 12.861 53.8903 12.8384 53.7555 12.8425C53.5694 12.8401 53.3858 12.884 53.2229 12.9699C53.0677 13.0512 52.9385 13.1712 52.8493 13.317C52.7585 13.4681 52.7115 13.6395 52.7133 13.8136C52.7109 13.9878 52.7579 14.1593 52.8493 14.3102C52.9385 14.4566 53.0676 14.5773 53.2229 14.6595C53.3864 14.7437 53.5697 14.7868 53.7555 14.7847C53.8892 14.7879 54.0221 14.7643 54.1456 14.7154C54.2691 14.6666 54.3805 14.5937 54.4726 14.5013L54.6387 14.6595C54.5291 14.7723 54.3944 14.8602 54.2444 14.9166C54.0818 14.9762 53.9089 15.006 53.7348 15.0045C53.5043 15.0068 53.2772 14.9523 53.0753 14.8463Z" fill="white"/>
<path d="M55.2661 12.6335H55.5244V14.9801H55.2661V12.6335Z" fill="white"/>
<path d="M57.9408 14.3539H56.5688L56.2737 14.9801H56.0039L57.1291 12.6335H57.3851L58.5103 14.9801H58.2359L57.9408 14.3539ZM57.8463 14.1518L57.256 12.8928L56.6657 14.1518H57.8463Z" fill="white"/>
<path d="M59.9814 12.6336H60.9822C61.2221 12.6288 61.4596 12.6801 61.6739 12.783C61.865 12.8781 62.0247 13.0218 62.1351 13.1983C62.2425 13.3848 62.2987 13.5941 62.2987 13.8069C62.2987 14.0196 62.2425 14.229 62.1351 14.4155C62.0259 14.5929 61.866 14.737 61.6739 14.8308C61.4596 14.9337 61.2221 14.985 60.9822 14.9802H59.9814V12.6336ZM60.9683 14.7649C61.165 14.7696 61.3598 14.7281 61.5356 14.644C61.6914 14.5667 61.8216 14.4495 61.9114 14.3056C61.9992 14.1531 62.0452 13.982 62.0452 13.808C62.0452 13.634 61.9992 13.4629 61.9114 13.3103C61.8239 13.1625 61.6934 13.0419 61.5356 12.9632C61.36 12.8783 61.1652 12.8361 60.9683 12.8401H60.242V14.7649H60.9683Z" fill="white"/>
<path d="M64.697 14.7648V14.9845H62.9492V12.6335H64.6371V12.8533H63.2098V13.6882H64.4826V13.9079H63.2098V14.7868L64.697 14.7648Z" fill="white"/>
<path d="M68.7461 13.7345C68.8581 13.8682 68.9154 14.036 68.9075 14.2069C68.9141 14.3179 68.8912 14.4286 68.8408 14.5289C68.7904 14.6292 68.7142 14.7157 68.6193 14.7803C68.3638 14.9302 68.0655 15.0002 67.7661 14.9803H66.3711V12.0844H67.6808C67.958 12.069 68.2332 12.1374 68.4671 12.28C68.5584 12.3419 68.632 12.4246 68.6811 12.5205C68.7302 12.6165 68.7534 12.7226 68.7484 12.8293C68.7528 12.9739 68.7092 13.1161 68.6239 13.2357C68.5387 13.3496 68.4199 13.4368 68.2826 13.4862C68.4622 13.5165 68.6256 13.6041 68.7461 13.7345ZM66.6916 12.3393V13.3895H67.6578C67.8574 13.4005 68.0559 13.3538 68.2273 13.2555C68.2892 13.2088 68.3392 13.1494 68.3736 13.0816C68.408 13.0139 68.4259 12.9396 68.4259 12.8644C68.4259 12.7892 68.408 12.7149 68.3736 12.6472C68.3392 12.5794 68.2892 12.52 68.2273 12.4733C68.0564 12.374 67.8575 12.3272 67.6578 12.3393H66.6916ZM68.3795 14.5958C68.4488 14.5501 68.5044 14.4879 68.5408 14.4155C68.5772 14.3431 68.5931 14.2628 68.587 14.1827C68.587 13.8224 68.3126 13.6422 67.7638 13.6422H66.6916V14.721H67.7638C67.9774 14.7358 68.1909 14.6924 68.3795 14.5958Z" fill="white"/>
<path d="M69.7786 14.7384C69.6834 14.6349 69.6108 14.5144 69.5649 14.3839C69.519 14.2534 69.5007 14.1155 69.5112 13.9782V12.6335H69.7694V13.9672C69.7514 14.1868 69.8205 14.4047 69.9631 14.578C70.1188 14.7071 70.3182 14.7782 70.5246 14.7782C70.7309 14.7782 70.9303 14.7071 71.086 14.578C71.2286 14.4047 71.2977 14.1868 71.2797 13.9672V12.6335H71.5334V13.9782C71.5535 14.2554 71.4573 14.5288 71.2659 14.7384C71.0579 14.9057 70.7945 14.9975 70.5223 14.9975C70.2501 14.9975 69.9866 14.9057 69.7786 14.7384Z" fill="white"/>
<path d="M74.1276 14.7648V14.9845H72.3867V12.6335H74.0746V12.8533H72.6473V13.6882H73.9201V13.9079H72.6473V14.7868L74.1276 14.7648Z" fill="white"/>
<path d="M76.8669 12.6335V14.9801H76.6524L75.0706 13.0774V14.9801H74.8101V12.6335H75.0245L76.6109 14.5385V12.6335H76.8669Z" fill="white"/>
<path d="M78.1515 14.8439C77.9595 14.745 77.8 14.5975 77.6904 14.4176C77.5815 14.2311 77.5244 14.0213 77.5244 13.8079C77.5244 13.5945 77.5815 13.3847 77.6904 13.1982C77.7975 13.0132 77.9574 12.8609 78.1515 12.7588C78.3557 12.6569 78.5828 12.6038 78.8133 12.6038C79.0438 12.6038 79.2708 12.6569 79.4751 12.7588C79.6689 12.8613 79.8287 13.0135 79.9362 13.1982C80.0481 13.3845 80.1069 13.5955 80.1069 13.8101C80.1069 14.0248 80.0481 14.2357 79.9362 14.422C79.8263 14.6016 79.6668 14.749 79.4751 14.8483C79.2728 14.9527 79.0456 15.0057 78.8156 15.0021C78.5837 15.004 78.3551 14.9496 78.1515 14.8439ZM79.3436 14.6527C79.4975 14.5712 79.6251 14.4512 79.7126 14.3056C79.8004 14.153 79.8464 13.9819 79.8464 13.8079C79.8464 13.634 79.8004 13.4628 79.7126 13.3103C79.6256 13.1643 79.4979 13.0442 79.3436 12.9631C79.1806 12.881 78.9989 12.838 78.8144 12.838C78.63 12.838 78.4483 12.881 78.2853 12.9631C78.1301 13.0447 78.0016 13.1656 77.914 13.3125C77.8248 13.4645 77.7779 13.6359 77.7779 13.8101C77.7779 13.9844 77.8248 14.1557 77.914 14.3078C78.0023 14.4535 78.1307 14.5735 78.2853 14.6549C78.4483 14.7371 78.63 14.78 78.8144 14.78C78.9989 14.78 79.1806 14.7371 79.3436 14.6549V14.6527Z" fill="white"/>
<path d="M80.9136 14.9166C80.7671 14.8742 80.6334 14.7988 80.5239 14.6968L80.6254 14.5079C80.7275 14.5988 80.8485 14.6684 80.9805 14.7122C81.1279 14.7651 81.2841 14.7919 81.4416 14.7913C81.6153 14.803 81.7885 14.7631 81.9374 14.6771C81.9883 14.6434 82.0299 14.5984 82.0584 14.5459C82.087 14.4935 82.1016 14.4351 82.1011 14.3761C82.1027 14.3355 82.0955 14.2951 82.08 14.2573C82.0646 14.2195 82.0411 14.1852 82.0112 14.1563C81.9458 14.0968 81.8669 14.0524 81.7806 14.0267C81.662 13.9873 81.5411 13.9542 81.4186 13.9278C81.2683 13.8937 81.1204 13.8504 80.9759 13.7982C80.866 13.7591 80.7685 13.6941 80.6923 13.6092C80.6092 13.5123 80.5673 13.3892 80.5747 13.2643C80.5731 13.1496 80.6076 13.0371 80.6738 12.9413C80.7479 12.8367 80.8531 12.7556 80.9759 12.7084C81.136 12.6461 81.3079 12.6162 81.4808 12.6205C81.6211 12.6212 81.7607 12.6397 81.8959 12.6755C82.0201 12.7078 82.1378 12.7598 82.244 12.8293L82.1564 13.027C82.055 12.9622 81.9438 12.9125 81.8267 12.8798C81.7142 12.849 81.5979 12.8327 81.4808 12.8315C81.3091 12.8196 81.1381 12.8621 80.9943 12.9523C80.9431 12.9868 80.9015 13.0326 80.873 13.0858C80.8445 13.139 80.8299 13.198 80.8306 13.2577C80.8295 13.2982 80.837 13.3384 80.8524 13.3762C80.8678 13.4139 80.891 13.4483 80.9205 13.4774C80.986 13.5373 81.0648 13.5824 81.1511 13.6092C81.241 13.6378 81.3609 13.6708 81.5154 13.7081C81.6634 13.7406 81.809 13.7824 81.9512 13.8334C82.0608 13.8718 82.1583 13.9361 82.2348 14.0201C82.3174 14.1156 82.3593 14.2371 82.3524 14.3607C82.3532 14.4756 82.3178 14.5881 82.251 14.6837C82.1733 14.7837 82.0667 14.86 81.9443 14.9034C81.7823 14.9646 81.6089 14.9937 81.4347 14.9891C81.258 14.9926 81.0819 14.9681 80.9136 14.9166Z" fill="white"/>
<path d="M85.9796 14.2069H84.2894L83.932 14.9803H83.5977L84.9812 12.0867H85.2971L86.6806 14.9803H86.3416L85.9796 14.2069ZM85.8643 13.9586L85.1356 12.4053L84.407 13.9586H85.8643Z" fill="white"/>
<path d="M87.2363 12.6335H87.4969V14.9801H87.2363V12.6335Z" fill="white"/>
<path d="M90.0496 14.9803L89.487 14.2267C89.4209 14.2301 89.3547 14.2301 89.2887 14.2267H88.6292V14.9715H88.3687V12.6338H89.291C89.5573 12.6206 89.8198 12.6985 90.0312 12.8535C90.1199 12.9262 90.1902 13.0172 90.2365 13.1196C90.2829 13.222 90.3041 13.3331 90.2986 13.4445C90.3062 13.6101 90.2544 13.7732 90.1518 13.907C90.0491 14.0408 89.9016 14.1373 89.7337 14.1806L90.3355 14.9847L90.0496 14.9803ZM89.8421 13.8708C89.9052 13.8145 89.9555 13.7464 89.9899 13.6708C90.0243 13.5952 90.042 13.5137 90.042 13.4313C90.042 13.3489 90.0243 13.2674 89.9899 13.1919C89.9555 13.1163 89.9052 13.0482 89.8421 12.9919C89.6802 12.8793 89.4817 12.8249 89.2818 12.8381H88.6292V14.0136H89.2818C89.4803 14.03 89.6786 13.9794 89.8421 13.8708Z" fill="white"/>
<path d="M92.7218 14.7648V14.9845H90.981V12.6335H92.6688V12.8533H91.2415V13.6882H92.5143V13.9079H91.2415V14.7868L92.7218 14.7648Z" fill="white"/>
<path d="M93.5567 14.9166C93.4102 14.8742 93.2765 14.7988 93.167 14.6969L93.2708 14.5079C93.369 14.6014 93.4869 14.674 93.6166 14.721C93.764 14.774 93.9203 14.8008 94.0778 14.8001C94.2515 14.8118 94.4247 14.7719 94.5736 14.6859C94.6251 14.6526 94.6672 14.6077 94.6962 14.5552C94.7251 14.5027 94.74 14.4442 94.7396 14.3849C94.7412 14.3443 94.734 14.3039 94.7185 14.2661C94.7031 14.2283 94.6796 14.194 94.6497 14.1652C94.5841 14.1059 94.5052 14.0616 94.4191 14.0355C94.3006 13.9958 94.1797 13.9628 94.0571 13.9367C93.9067 13.9025 93.7589 13.8592 93.6143 13.807C93.5049 13.7672 93.4075 13.7023 93.3307 13.6181C93.2477 13.5211 93.2057 13.3981 93.2131 13.2731C93.2126 13.1586 93.2471 13.0464 93.3123 12.9501C93.3863 12.8455 93.4915 12.7644 93.6143 12.7172C93.7752 12.6548 93.948 12.6249 94.1216 12.6293C94.2612 12.6299 94.4 12.6484 94.5344 12.6843C94.6592 12.7171 94.7775 12.7691 94.8849 12.8381L94.7972 13.0358C94.695 12.971 94.5831 12.9213 94.4652 12.8886C94.3535 12.8578 94.2379 12.8416 94.1216 12.8403C93.9499 12.8281 93.7787 12.8706 93.6351 12.9611C93.5835 12.9952 93.5415 13.0409 93.5129 13.0942C93.4844 13.1475 93.4701 13.2067 93.4714 13.2665C93.4703 13.307 93.4777 13.3473 93.4932 13.385C93.5086 13.4227 93.5318 13.4571 93.5613 13.4862C93.6262 13.5469 93.7052 13.5921 93.7919 13.6181C93.8818 13.6466 94.004 13.6796 94.1562 13.7169C94.305 13.7495 94.4513 13.7913 94.5943 13.8422C94.7034 13.8814 94.8008 13.9456 94.8779 14.0289C94.9589 14.1252 94.9999 14.2463 94.9932 14.3695C94.9948 14.4842 94.9603 14.5967 94.8941 14.6925C94.815 14.7921 94.7079 14.8683 94.5851 14.9122C94.4231 14.9734 94.2497 15.0026 94.0755 14.9979C93.8991 14.998 93.7238 14.9705 93.5567 14.9166Z" fill="white"/>
<path d="M38.7126 4.14383C38.3619 3.96284 38.0706 3.69288 37.871 3.36384C37.6666 3.0236 37.5615 2.63747 37.5666 2.24549C37.5615 1.8535 37.6666 1.46737 37.871 1.12713C38.0716 0.797358 38.3646 0.527289 38.7172 0.347141C39.0878 0.155665 39.5039 0.0580721 39.9254 0.0637075C40.2407 0.0614163 40.5536 0.115832 40.8478 0.2241C41.1227 0.32454 41.3696 0.483919 41.5695 0.689898L41.2743 0.977726C41.1008 0.81019 40.8929 0.678479 40.6636 0.590785C40.4343 0.503091 40.1885 0.461291 39.9416 0.467985C39.6016 0.46456 39.2664 0.544778 38.9685 0.700884C38.6814 0.849296 38.4422 1.06961 38.2768 1.33806C38.1155 1.6152 38.0358 1.92873 38.0462 2.24549C38.0358 2.56224 38.1155 2.87577 38.2768 3.15291C38.4422 3.42136 38.6814 3.64168 38.9685 3.79009C39.2658 3.94583 39.6001 4.02603 39.9393 4.02299C40.1867 4.03229 40.4334 3.99192 40.6634 3.90448C40.8934 3.81704 41.1016 3.6845 41.2743 3.51544L41.5764 3.80327C41.3751 4.00971 41.1276 4.1704 40.8524 4.27346C40.5584 4.38253 40.2455 4.4377 39.93 4.43605C39.5045 4.44092 39.0849 4.34021 38.7126 4.14383Z" fill="white"/>
<path d="M42.9459 4.20981C42.6774 4.07059 42.4541 3.86389 42.3003 3.61218C42.143 3.35427 42.0632 3.0601 42.0697 2.76188C42.0638 2.46373 42.1436 2.16971 42.3003 1.91158C42.4545 1.66128 42.6778 1.45609 42.9459 1.31835C43.2304 1.17611 43.5469 1.10181 43.8682 1.10181C44.1895 1.10181 44.506 1.17611 44.7906 1.31835C45.0595 1.45604 45.283 1.66217 45.4362 1.91378C45.5926 2.17285 45.6722 2.46747 45.6668 2.76628C45.6726 3.06581 45.5929 3.36122 45.4362 3.62097C45.2817 3.87159 45.0585 4.07742 44.7906 4.2164C44.506 4.35864 44.1895 4.43294 43.8682 4.43294C43.5469 4.43294 43.2304 4.35864 42.9459 4.2164V4.20981ZM44.6084 3.94176C44.8241 3.82886 45.0022 3.66065 45.1226 3.45618C45.2486 3.24471 45.3131 3.00503 45.3094 2.76188C45.3125 2.5188 45.2481 2.27926 45.1226 2.06758C45.0015 1.86362 44.8235 1.69556 44.6084 1.58201C44.3813 1.4666 44.1279 1.40624 43.8705 1.40624C43.6132 1.40624 43.3598 1.4666 43.1327 1.58201C42.9162 1.69537 42.7367 1.86338 42.6139 2.06758C42.4867 2.27868 42.4214 2.51848 42.4248 2.76188C42.4208 3.00535 42.4861 3.24529 42.6139 3.45618C42.736 3.66088 42.9157 3.82904 43.1327 3.94176C43.3598 4.05716 43.6132 4.11753 43.8705 4.11753C44.1279 4.11753 44.3813 4.05716 44.6084 3.94176Z" fill="white"/>
<path d="M46.5776 1.1272H46.9397V4.09995H48.8627V4.39437H46.5776V1.1272Z" fill="white"/>
<path d="M52.0009 4.09995V4.39437H49.5752V1.1272H51.9271V1.42601H49.9349V2.5905H51.7104V2.88492H49.9349V4.09995H52.0009Z" fill="white"/>
<path d="M55.3515 2.76175H55.6996V4.00974C55.5326 4.14708 55.3392 4.25228 55.1301 4.31954C54.9072 4.39118 54.6736 4.42754 54.4383 4.4272C54.1163 4.42952 53.799 4.35392 53.516 4.20748C53.2475 4.06855 53.0235 3.86276 52.8681 3.61205C52.7114 3.3523 52.6317 3.05689 52.6375 2.75736C52.632 2.45855 52.7117 2.16393 52.8681 1.90486C53.0223 1.657 53.2448 1.45411 53.5114 1.31822C53.7946 1.17222 54.1118 1.09665 54.4337 1.0985C54.6799 1.09596 54.9244 1.13617 55.1555 1.21715C55.3667 1.29165 55.5564 1.41289 55.7089 1.57089L55.4783 1.79061C55.3423 1.66267 55.1803 1.56257 55.0023 1.49644C54.8243 1.43032 54.6339 1.39958 54.443 1.4061C54.1808 1.40297 53.9221 1.46346 53.6913 1.58188C53.4716 1.69422 53.2889 1.86228 53.1632 2.06745C53.0353 2.27837 52.9692 2.51816 52.9718 2.76175C52.9686 3.00472 53.0348 3.24395 53.1632 3.45386C53.2887 3.65838 53.4705 3.8263 53.689 3.93943C53.9459 4.0679 54.2341 4.12872 54.5239 4.11558C54.8138 4.10245 55.0947 4.01585 55.3376 3.86472L55.3515 2.76175Z" fill="white"/>
<path d="M56.8223 1.1272H57.1843V4.39437H56.8223V1.1272Z" fill="white"/>
<path d="M58.9783 4.20981C58.7112 4.07031 58.4895 3.86358 58.3373 3.61218C58.1811 3.35384 58.1014 3.05997 58.1067 2.76188C58.102 2.46386 58.1816 2.17013 58.3373 1.91158C58.4898 1.66159 58.7116 1.45637 58.9783 1.31835C59.2628 1.17611 59.5793 1.10181 59.9006 1.10181C60.2219 1.10181 60.5384 1.17611 60.823 1.31835C61.0907 1.45674 61.3133 1.66275 61.4663 1.91378C61.6236 2.17246 61.7034 2.46735 61.6969 2.76628C61.7037 3.06593 61.6239 3.3616 61.4663 3.62097C61.3119 3.87096 61.0897 4.07666 60.823 4.2164C60.5384 4.35864 60.2219 4.43294 59.9006 4.43294C59.5793 4.43294 59.2628 4.35864 58.9783 4.2164V4.20981ZM60.6385 3.94176C60.8541 3.82886 61.0323 3.66065 61.1527 3.45618C61.2787 3.24471 61.3431 3.00503 61.3395 2.76188C61.3426 2.5188 61.2782 2.27926 61.1527 2.06758C61.0329 1.8642 60.8565 1.6962 60.6431 1.58201C60.4164 1.46661 60.1634 1.40624 59.9064 1.40624C59.6494 1.40624 59.3964 1.46661 59.1697 1.58201C58.9525 1.69523 58.7722 1.86322 58.6486 2.06758C58.5214 2.27868 58.4561 2.51848 58.4595 2.76188C58.4555 3.00535 58.5208 3.24529 58.6486 3.45618C58.7715 3.66104 58.952 3.82918 59.1697 3.94176C59.3964 4.05716 59.6494 4.11753 59.9064 4.11753C60.1634 4.11753 60.4164 4.05716 60.6431 3.94176H60.6385Z" fill="white"/>
<path d="M63.998 1.1272H65.3954C65.7288 1.12006 66.0589 1.19097 66.3569 1.33373C66.6269 1.46378 66.8518 1.66515 67.0048 1.91378C67.1613 2.17118 67.2411 2.46445 67.2354 2.76189C67.2417 3.05939 67.1619 3.3528 67.0048 3.60999C66.8518 3.85862 66.6269 4.06 66.3569 4.19004C66.0591 4.33356 65.729 4.40523 65.3954 4.39877H63.998V1.1272ZM65.3815 4.09996C65.6552 4.10602 65.9262 4.04713 66.1701 3.92858C66.3888 3.8217 66.5711 3.65789 66.6959 3.45619C66.8232 3.24524 66.8878 3.0052 66.8826 2.76189C66.8874 2.51861 66.8229 2.27865 66.6959 2.06758C66.5722 1.86731 66.3926 1.70375 66.177 1.59519C65.9326 1.47844 65.6619 1.42036 65.3885 1.42601H64.3739V4.09996H65.3815Z" fill="white"/>
<path d="M70.5765 4.09995V4.39437H68.1484V1.1272H70.5027V1.42601H68.5105V2.5905H70.2859V2.88492H68.5105V4.09995H70.5765Z" fill="white"/>
</g>
<defs>
<clipPath id="clip0_8881_1248">
<rect width="95" height="15" fill="white"/>
</clipPath>
</defs>
</svg>
