<svg width="87" height="19" viewBox="0 0 87 19" fill="none" xmlns="http://www.w3.org/2000/svg">
<path d="M8.58984 18.7971C11.0463 18.624 13.4701 18.1335 15.8006 17.338C18.2741 16.4988 20.6158 15.3121 22.7553 13.8137C24.0992 12.8739 25.4244 11.9129 26.7049 10.2095C27.5862 9.03466 28.2812 7.73102 28.7654 6.34448C28.8346 7.39351 28.6891 8.44562 28.3378 9.43649C28.1898 9.85941 27.7951 11.006 25.7533 12.8715C24.314 14.1781 22.6981 15.2759 20.9532 16.1327C18.8899 17.1514 16.6934 17.8744 14.4285 18.2802C12.5056 18.6552 10.5487 18.8285 8.58984 18.7971Z" fill="white"/>
<path d="M28.049 3.2358C26.8507 0.331751 22.2056 -0.662109 16.6818 0.435131C16.8226 0.639035 16.9151 0.872346 16.9522 1.11734C16.9894 1.36233 16.9702 1.61257 16.8961 1.84903C16.822 2.08549 16.6951 2.30197 16.5248 2.48201C16.3545 2.66205 16.1455 2.80091 15.9135 2.88806V12.1171L16.4422 12.0725C17.1549 11.9656 17.8609 11.8181 18.5568 11.6307C18.6719 11.6026 19.318 11.4169 19.5272 11.1021C19.552 11.0467 19.5649 10.9866 19.5649 10.9259C19.5649 10.8651 19.552 10.8051 19.5272 10.7497C19.4567 10.6298 19.2241 10.651 19.0854 10.6627C18.8718 10.6863 18.6636 10.7459 18.4699 10.8389C18.189 10.9497 17.8906 11.0094 17.5888 11.0152C17.4924 11.0152 16.7805 10.9799 16.5315 10.4842C16.4793 10.3587 16.4525 10.2241 16.4525 10.0883C16.4525 9.95238 16.4793 9.81784 16.5315 9.69237C16.6858 9.26543 17.0024 8.91669 17.4126 8.722C18.0247 8.46358 18.7022 8.40199 19.3509 8.54578C20.232 8.722 20.4012 8.81833 20.8499 9.25065C21.2078 9.60176 21.423 10.073 21.4538 10.5734C21.4556 11.0773 21.3022 11.5695 21.0144 11.9832C20.4388 12.8596 19.4872 13.1768 18.8105 13.3929C18.0328 13.642 17.4337 13.7289 17.1494 13.8229C16.7663 13.9223 16.378 14.0008 15.9864 14.0578C15.9558 14.0578 15.9159 14.0719 15.8877 14.0578L15.9018 16.2782C16.273 16.1419 16.6442 15.997 17.0155 15.8435L17.3468 15.7049V15.6884C17.3657 15.3066 17.2602 14.929 17.046 14.6123C16.9077 14.4637 16.7496 14.3348 16.5761 14.2294C17.2622 14.0578 18.3265 13.9286 18.8082 13.6279C19.111 13.9282 19.3507 14.2861 19.5131 14.6805C25.7135 11.4404 29.4423 6.6121 28.049 3.2358ZM27.6237 4.41057C27.4618 4.66755 27.2109 4.85579 26.9188 4.93922L25.4198 5.0285C25.3807 5.22694 25.2994 5.41464 25.1814 5.57887C25.0634 5.7431 24.9114 5.88001 24.7357 5.9803C24.5601 6.0806 24.365 6.14193 24.1635 6.16013C23.9621 6.17833 23.7591 6.15298 23.5684 6.0858C23.519 6.36736 23.3948 6.63045 23.2088 6.84748C23.0228 7.06451 22.7818 7.22749 22.5111 7.31932C22.0927 7.42464 21.6497 7.36135 21.2776 7.1431C21.0749 7.03173 20.8955 6.88259 20.7489 6.70374C20.4667 7.2041 20.0355 7.60406 19.5154 7.84797C18.9069 8.12286 18.3195 8.08292 17.4877 8.02418C17.0728 7.99547 16.6606 7.93658 16.2542 7.84797V3.78794C16.4398 3.52244 17.1705 2.53798 18.1057 2.55443C18.4055 2.57662 18.7014 2.63581 18.9868 2.73064C19.3536 2.83969 19.708 2.98695 20.0441 3.17001C20.4881 3.40496 21.2423 3.63992 22.6004 3.61173L27.7999 3.69866C27.814 3.94605 27.7526 4.19187 27.6237 4.40352V4.41057Z" fill="white"/>
<path d="M11.8487 17.4483C11.259 17.1335 11.0851 16.3558 11.0546 16.2148C10.9629 15.7087 11.0242 15.1868 11.2308 14.7158C11.4309 14.1463 11.7635 13.6325 12.2012 13.2168C12.6337 12.8227 13.1434 12.5227 13.6978 12.3357C13.8177 12.2958 13.9187 12.2652 14.0127 12.2417C14.2291 12.1811 14.4498 12.1372 14.6729 12.1101H14.6588H14.7551V2.88815C14.4448 2.77159 14.1773 2.56321 13.9884 2.29078C13.7995 2.01834 13.6982 1.69481 13.6978 1.36329C13.6978 1.30925 13.6978 1.25521 13.6978 1.20117C12.9146 1.45022 12.1236 1.73922 11.3248 2.06816C10.2313 2.51835 9.16578 3.03384 8.13409 3.61181C9.44514 3.62826 10.1805 3.40035 10.6129 3.1701C10.9498 2.9872 11.305 2.83995 11.6725 2.73073C11.9577 2.63544 12.2537 2.57625 12.5536 2.55451C13.4934 2.53807 14.2171 3.52253 14.4027 3.78803V7.841C13.9964 7.92979 13.5841 7.98869 13.1692 8.01722C12.3374 8.07361 11.7594 8.1159 11.1439 7.841C10.623 7.59737 10.191 7.1974 9.908 6.69677C9.76144 6.87563 9.58199 7.02477 9.37935 7.13614C9.00721 7.35439 8.56421 7.41767 8.14584 7.31236C7.87514 7.22052 7.63415 7.05754 7.44812 6.84051C7.26209 6.62348 7.13789 6.36039 7.08854 6.07884C6.90149 6.14324 6.70321 6.16854 6.50598 6.15318C6.30876 6.13783 6.11678 6.08213 5.94196 5.98956C5.69717 5.85558 5.49765 5.65197 5.36867 5.40452C1.31804 8.3955 -0.817703 12.0021 0.291286 14.6899C1.50365 17.6222 6.238 18.609 11.8581 17.453L11.8487 17.4483ZM9.72943 11.9833C9.44166 11.5696 9.28825 11.0774 9.29007 10.5735C9.32402 10.0715 9.54343 9.60001 9.90565 9.25074C10.3568 8.81842 10.5236 8.72209 11.4047 8.54587C12.0534 8.40208 12.7308 8.46366 13.343 8.72209C13.7532 8.91677 14.0698 9.26551 14.2241 9.69245C14.2763 9.81793 14.3031 9.95247 14.3031 10.0884C14.3031 10.2242 14.2763 10.3588 14.2241 10.4842C13.9751 10.98 13.2632 11.0105 13.1668 11.0152C12.865 11.0095 12.5666 10.9498 12.2857 10.839C12.092 10.7459 11.8838 10.6864 11.6702 10.6628C11.5315 10.6511 11.2989 10.6299 11.2284 10.7497C11.2036 10.8052 11.1907 10.8652 11.1907 10.926C11.1907 10.9867 11.2036 11.0468 11.2284 11.1022C11.4376 11.417 12.0837 11.6026 12.1988 11.6308C12.7627 11.7671 13.4253 11.9457 13.7401 12.0115C13.1143 12.1915 12.5337 12.5022 12.0367 12.9231C11.9129 13.0399 11.7953 13.163 11.6843 13.292C11.0428 13.0594 10.2369 12.7539 9.72943 11.9833Z" fill="white"/>
<path d="M14.7557 14.0627L14.5795 14.098C14.2406 14.1846 13.9343 14.3683 13.6984 14.6266C13.4826 14.9427 13.3754 15.3204 13.393 15.7027C13.393 16.081 13.8276 16.6426 14.2506 16.8423C14.4166 16.7921 14.5834 16.7404 14.751 16.6872L14.7557 14.0627Z" fill="white"/>
<path d="M32.0693 5.85325V10.3385H33.7986V7.57077H39.9074V10.3385H41.6391V3.05493H34.8606C34.4935 3.05493 34.1299 3.12736 33.7908 3.26808C33.4517 3.40879 33.1437 3.61503 32.8844 3.87497C32.6251 4.13491 32.4196 4.44344 32.2798 4.78291C32.1399 5.12238 32.0684 5.4861 32.0693 5.85325ZM33.7986 5.83915C33.7986 5.70154 33.8257 5.56527 33.8784 5.43814C33.931 5.311 34.0082 5.19548 34.1055 5.09817C34.2028 5.00087 34.3184 4.92368 34.4455 4.87102C34.5726 4.81836 34.7089 4.79125 34.8465 4.79125H39.9027V5.83915H33.7986Z" fill="white"/>
<path d="M42.9971 5.38099V10.2587H44.8203V7.53553H51.3991V5.69113H44.8203C44.8203 5.47988 44.9042 5.27729 45.0536 5.12792C45.203 4.97855 45.4056 4.89463 45.6168 4.89463H51.9254V3.05493H45.3161C44.7002 3.05618 44.11 3.30187 43.6752 3.73802C43.2403 4.17417 42.9964 4.76511 42.9971 5.38099Z" fill="white"/>
<path d="M55.2729 4.89463H61.5837V3.05493H54.9792C54.3637 3.05618 53.7739 3.30154 53.3391 3.73719C52.9043 4.17283 52.6602 4.76317 52.6602 5.37864V10.2587H61.5885V8.7103H54.4764V7.53553H61.0551V5.69113H54.4764C54.4764 5.47988 54.5603 5.27729 54.7096 5.12792C54.859 4.97855 55.0616 4.89463 55.2729 4.89463Z" fill="white"/>
<path d="M79.323 4.89463H85.6315V3.05493H79.0222C78.407 3.05618 77.8174 3.30162 77.383 3.73733C76.9486 4.17304 76.7049 4.76338 76.7056 5.37864V10.2587H85.6339V8.7103H78.5265V7.53553H85.1052V5.69113H78.5265C78.5265 5.47988 78.6104 5.27729 78.7598 5.12792C78.9091 4.97855 79.1117 4.89463 79.323 4.89463Z" fill="white"/>
<path d="M69.3259 5.52197H67.5942V10.2587H69.3259V5.52197Z" fill="white"/>
<path d="M72.404 3.94306C72.2613 3.68153 72.0526 3.46192 71.7987 3.3061C71.5448 3.15028 71.2544 3.06368 70.9567 3.05493H63.041V10.2587H64.7726V4.79125H70.8979L73.9124 10.2258L75.886 10.2587L72.404 3.94306Z" fill="white"/>
<path d="M30.9224 14.6619L31.4839 12.4885H32.0713L32.6305 14.6619H32.2193L32.1112 14.192H31.4299L31.3194 14.6619H30.9224ZM31.4839 13.8983H32.0525L31.7823 12.7775H31.7659L31.4839 13.8983Z" fill="white"/>
<path d="M33.0235 14.6382C32.9807 14.6267 32.9409 14.6057 32.9072 14.5769C32.8734 14.548 32.8466 14.512 32.8285 14.4714C32.7895 14.3501 32.7727 14.2228 32.7792 14.0955V13.9804H33.1293V14.0673C33.1264 14.1341 33.1351 14.2009 33.1551 14.2647C33.162 14.2855 33.1737 14.3044 33.1892 14.3199C33.2047 14.3354 33.2236 14.347 33.2444 14.3539C33.3142 14.3718 33.3862 14.3797 33.4582 14.3774H33.5099C33.5765 14.3808 33.6433 14.3729 33.7073 14.3539C33.7265 14.348 33.7442 14.3377 33.7589 14.3239C33.7735 14.31 33.7848 14.293 33.7918 14.2741C33.8086 14.2137 33.8157 14.151 33.813 14.0884V14.0156C33.8169 13.9598 33.8064 13.904 33.7824 13.8535C33.7554 13.8104 33.7137 13.7787 33.665 13.7642C33.5722 13.7351 33.477 13.7139 33.3807 13.7008C33.2506 13.6856 33.1237 13.6499 33.0047 13.595C32.926 13.5589 32.8639 13.4942 32.8309 13.4141C32.7936 13.3094 32.7769 13.1986 32.7815 13.0875V13.0217C32.7765 12.9086 32.7957 12.7956 32.8379 12.6905C32.8762 12.6104 32.9446 12.5487 33.0282 12.5189C33.1486 12.4794 33.2752 12.4619 33.4018 12.4673H33.4723C33.6158 12.4613 33.7593 12.4779 33.8976 12.5166C33.9394 12.529 33.9781 12.5504 34.011 12.5792C34.0438 12.608 34.0701 12.6435 34.0879 12.6834C34.1261 12.7944 34.1428 12.9116 34.1372 13.0288V13.1275H33.7848V13.0476C33.7872 12.9896 33.7801 12.9317 33.7636 12.8761C33.7557 12.8574 33.7441 12.8406 33.7296 12.8265C33.7151 12.8123 33.6979 12.8013 33.6791 12.7938C33.6174 12.7751 33.5531 12.7672 33.4887 12.7703H33.4371C33.376 12.7679 33.315 12.775 33.2561 12.7915C33.2379 12.7969 33.2212 12.8066 33.2073 12.8196C33.1934 12.8327 33.1828 12.8488 33.1763 12.8667C33.1575 12.9186 33.1495 12.9737 33.1528 13.0288V13.0828C33.1501 13.1368 33.1597 13.1906 33.181 13.2403C33.2058 13.2818 33.2452 13.3127 33.2914 13.3272C33.3787 13.355 33.4683 13.3746 33.5592 13.3859C33.6961 13.4027 33.8298 13.4391 33.9563 13.494C34.0356 13.5295 34.0997 13.5919 34.1372 13.6702C34.1747 13.7724 34.1915 13.881 34.1866 13.9898V14.0649C34.1922 14.1956 34.1739 14.3262 34.1325 14.4503C34.1149 14.4925 34.0887 14.5307 34.0555 14.5622C34.0224 14.5938 33.983 14.6181 33.9399 14.6335C33.8111 14.6717 33.677 14.6884 33.5428 14.6829H33.4699C33.3198 14.6887 33.1696 14.6737 33.0235 14.6382Z" fill="white"/>
<path d="M34.7288 14.6123C34.6772 14.5874 34.6316 14.5516 34.5951 14.5074C34.5586 14.4632 34.5321 14.4116 34.5174 14.3562C34.4707 14.1729 34.451 13.9837 34.4586 13.7947V13.3389C34.4513 13.1568 34.4711 12.9747 34.5174 12.7985C34.532 12.7427 34.5588 12.6908 34.5957 12.6465C34.6327 12.6023 34.6789 12.5667 34.7312 12.5424C34.8809 12.485 35.041 12.4594 35.2011 12.4672H35.2598C35.42 12.4594 35.58 12.485 35.7298 12.5424C35.782 12.5667 35.8283 12.6023 35.8652 12.6465C35.9022 12.6908 35.9289 12.7427 35.9436 12.7985C35.9899 12.9747 36.0097 13.1568 36.0023 13.3389V13.7947C36.0115 13.9835 35.9933 14.1726 35.9483 14.3562C35.9336 14.4116 35.9071 14.4632 35.8706 14.5074C35.8341 14.5516 35.7885 14.5874 35.7368 14.6123C35.5863 14.6664 35.4266 14.6904 35.2669 14.6828H35.2082C35.0453 14.6917 34.8823 14.6677 34.7288 14.6123ZM35.2645 14.3633C35.345 14.3704 35.4259 14.3566 35.4995 14.3233C35.5256 14.3068 35.5477 14.2848 35.5643 14.2588C35.581 14.2328 35.5917 14.2035 35.5958 14.1729C35.616 14.0566 35.6247 13.9386 35.6217 13.8205V13.306C35.6249 13.1926 35.6162 13.0792 35.5958 12.9676C35.5914 12.9375 35.5805 12.9086 35.5639 12.8831C35.5472 12.8575 35.5253 12.8359 35.4995 12.8196C35.4255 12.7876 35.3449 12.7739 35.2645 12.7797H35.2105C35.1301 12.7741 35.0496 12.7878 34.9756 12.8196C34.9491 12.8354 34.9265 12.8568 34.9095 12.8825C34.8924 12.9081 34.8813 12.9372 34.8769 12.9676C34.8565 13.0792 34.8478 13.1926 34.851 13.306V13.8205C34.848 13.9386 34.8567 14.0566 34.8769 14.1729C34.8809 14.2038 34.8919 14.2334 34.909 14.2594C34.9261 14.2855 34.9488 14.3073 34.9756 14.3233C35.0491 14.3566 35.1301 14.3704 35.2105 14.3633H35.2645Z" fill="white"/>
<path d="M36.5449 14.6123C36.4942 14.5884 36.4494 14.5534 36.414 14.5099C36.3787 14.4664 36.3535 14.4154 36.3405 14.3609C36.2981 14.1753 36.2799 13.9849 36.2865 13.7946V13.3388C36.2803 13.1555 36.2985 12.9722 36.3405 12.7937C36.3547 12.739 36.3805 12.6881 36.4162 12.6443C36.4518 12.6005 36.4966 12.5649 36.5473 12.54C36.697 12.4829 36.8572 12.4581 37.0172 12.4671H37.0618C37.2102 12.4613 37.3586 12.4795 37.5012 12.5212C37.5471 12.536 37.5893 12.5607 37.6246 12.5936C37.6599 12.6265 37.6876 12.6667 37.7056 12.7115C37.7491 12.8392 37.7682 12.9739 37.762 13.1086V13.2073H37.3837V13.1227C37.3869 13.0506 37.3789 12.9785 37.3602 12.9089C37.3536 12.8865 37.3422 12.8659 37.3268 12.8485C37.3113 12.831 37.2923 12.8171 37.2709 12.8078C37.2059 12.7861 37.1374 12.7766 37.0689 12.7796H37.0313C36.9511 12.773 36.8705 12.7859 36.7963 12.8172C36.771 12.8326 36.7494 12.8535 36.7332 12.8783C36.7169 12.9031 36.7064 12.9312 36.7023 12.9606C36.6829 13.0746 36.675 13.1903 36.6788 13.3059V13.8205C36.675 13.9424 36.6829 14.0643 36.7023 14.1847C36.7061 14.2138 36.7163 14.2418 36.7321 14.2666C36.748 14.2913 36.7691 14.3123 36.794 14.328C36.8687 14.3572 36.949 14.3692 37.0289 14.3632H37.0712C37.1411 14.3673 37.2112 14.3586 37.278 14.3374C37.2994 14.3289 37.3186 14.3156 37.3341 14.2985C37.3496 14.2813 37.3609 14.2609 37.3673 14.2387C37.3884 14.1623 37.3971 14.0829 37.3931 14.0038V13.9192H37.7714V14.0225C37.7782 14.1638 37.7574 14.3051 37.7103 14.4384C37.6924 14.4835 37.6648 14.5242 37.6295 14.5575C37.5942 14.5908 37.552 14.6159 37.5059 14.6311C37.3624 14.6719 37.2132 14.6893 37.0642 14.6828H37.0195C36.8582 14.6922 36.6966 14.6682 36.5449 14.6123Z" fill="white"/>
<path d="M38.0625 14.6619V12.4885H38.4549V14.6619H38.0625Z" fill="white"/>
<path d="M38.6616 14.6619L39.2208 12.4885H39.8082L40.3674 14.6619H39.9562L39.8481 14.192H39.1668L39.054 14.6619H38.6616ZM39.2208 13.8983H39.7894L39.5192 12.7775H39.5028L39.2208 13.8983Z" fill="white"/>
<path d="M40.7744 14.6123C40.7236 14.5884 40.6789 14.5534 40.6435 14.5099C40.6081 14.4664 40.583 14.4154 40.5699 14.3609C40.5263 14.1755 40.5081 13.985 40.5159 13.7946V13.3388C40.5086 13.1555 40.5267 12.972 40.5699 12.7937C40.5841 12.739 40.6099 12.6881 40.6456 12.6443C40.6813 12.6005 40.726 12.5649 40.7767 12.54C40.9265 12.4829 41.0866 12.4581 41.2466 12.4671H41.2913C41.4397 12.4615 41.588 12.4797 41.7306 12.5212C41.7766 12.536 41.8187 12.5607 41.854 12.5936C41.8894 12.6265 41.917 12.6667 41.935 12.7115C41.9785 12.8392 41.9976 12.9739 41.9914 13.1086V13.2073H41.6131V13.1227C41.6163 13.0506 41.6084 12.9785 41.5897 12.9089C41.5826 12.8864 41.5708 12.8657 41.555 12.8482C41.5392 12.8308 41.5197 12.817 41.498 12.8078C41.4338 12.7859 41.3661 12.7764 41.2983 12.7796H41.2584C41.1782 12.7728 41.0975 12.7857 41.0234 12.8172C40.9981 12.8326 40.9765 12.8535 40.9603 12.8783C40.944 12.9031 40.9335 12.9312 40.9294 12.9606C40.91 13.0746 40.9021 13.1903 40.9059 13.3059V13.8205C40.9021 13.9424 40.91 14.0643 40.9294 14.1847C40.9332 14.2138 40.9434 14.2418 40.9592 14.2666C40.9751 14.2913 40.9962 14.3123 41.0211 14.328C41.0958 14.3572 41.176 14.3692 41.256 14.3632H41.2983C41.3675 14.3676 41.4368 14.3588 41.5027 14.3374C41.5247 14.3294 41.5445 14.3162 41.5604 14.2991C41.5763 14.2819 41.588 14.2612 41.5944 14.2387C41.6143 14.1621 41.623 14.0829 41.6202 14.0038V13.9192H41.9961V14.0225C42.0034 14.1637 41.9835 14.3049 41.9374 14.4384C41.9191 14.4833 41.8914 14.5237 41.8561 14.557C41.8209 14.5902 41.7789 14.6155 41.733 14.6311C41.5894 14.6716 41.4403 14.689 41.2913 14.6828H41.2466C41.086 14.6919 40.9253 14.6679 40.7744 14.6123Z" fill="white"/>
<path d="M42.2925 14.6619V12.4885H42.6849V14.6619H42.2925Z" fill="white"/>
<path d="M43.2765 14.6123C43.2248 14.5872 43.179 14.5514 43.1421 14.5072C43.1053 14.4631 43.0782 14.4116 43.0627 14.3562C43.0183 14.1725 42.9993 13.9836 43.0063 13.7947V13.3389C42.9996 13.157 43.0186 12.975 43.0627 12.7985C43.0782 12.7431 43.1053 12.6916 43.1421 12.6475C43.179 12.6033 43.2248 12.5675 43.2765 12.5424C43.4264 12.4855 43.5863 12.4599 43.7464 12.4672H43.8052C43.9653 12.4594 44.1253 12.485 44.2751 12.5424C44.3271 12.5671 44.3731 12.6028 44.41 12.647C44.4469 12.6912 44.4738 12.7429 44.4889 12.7985C44.534 12.9749 44.5538 13.1569 44.5476 13.3389V13.7947C44.5541 13.9837 44.5343 14.1727 44.4889 14.3562C44.4742 14.4116 44.4477 14.4632 44.4112 14.5074C44.3747 14.5516 44.3291 14.5874 44.2774 14.6123C44.1269 14.6665 43.9672 14.6904 43.8075 14.6828H43.7488C43.5882 14.6909 43.4277 14.6669 43.2765 14.6123ZM43.8122 14.3633C43.8888 14.369 43.9656 14.3552 44.0354 14.3233C44.0621 14.3073 44.0849 14.2855 44.102 14.2594C44.119 14.2334 44.13 14.2038 44.1341 14.1729C44.1543 14.0566 44.163 13.9386 44.1599 13.8205V13.306C44.1631 13.1926 44.1545 13.0792 44.1341 12.9676C44.1297 12.9372 44.1186 12.9081 44.1015 12.8825C44.0844 12.8569 44.0618 12.8354 44.0354 12.8196C43.9652 12.7888 43.8887 12.7751 43.8122 12.7797H43.7558C43.6754 12.774 43.5948 12.7877 43.5209 12.8196C43.4944 12.8354 43.4719 12.8569 43.4548 12.8825C43.4377 12.9081 43.4266 12.9372 43.4222 12.9676C43.4006 13.079 43.3919 13.1926 43.3963 13.306V13.8205C43.3921 13.9386 43.4008 14.0568 43.4222 14.1729C43.4263 14.2035 43.437 14.2328 43.4537 14.2588C43.4703 14.2848 43.4925 14.3068 43.5185 14.3233C43.5921 14.3566 43.673 14.3704 43.7535 14.3633H43.8122ZM43.542 12.3239L43.4692 12.1899L44.0119 11.8398L44.1364 12.0889L43.542 12.3239Z" fill="white"/>
<path d="M44.8765 14.6619V12.4885H45.4545L46.1593 14.3094H46.1734L46.1499 12.4885H46.5094V14.6619H45.9408L45.2359 12.8316H45.2195L45.2336 14.6619H44.8765Z" fill="white"/>
<path d="M47.5454 12.4882H48.2738C48.4451 12.481 48.6165 12.5017 48.7813 12.5493C48.8356 12.5683 48.8849 12.5993 48.9256 12.64C48.9662 12.6806 48.9972 12.73 49.0162 12.7842C49.0675 12.962 49.0897 13.1469 49.082 13.3317V13.8016C49.0902 13.9899 49.0704 14.1783 49.0233 14.3608C49.0063 14.414 48.9777 14.4627 48.9395 14.5033C48.9013 14.544 48.8544 14.5756 48.8024 14.5958C48.6334 14.6461 48.457 14.6675 48.2808 14.6592H47.5525L47.5454 12.4882ZM48.2691 14.3514C48.3605 14.3566 48.4522 14.3446 48.5393 14.3162C48.5678 14.3028 48.5927 14.2828 48.6119 14.2579C48.6311 14.233 48.6441 14.2038 48.6497 14.1728C48.6725 14.056 48.682 13.937 48.6779 13.8181V13.3058C48.6827 13.193 48.6724 13.08 48.6474 12.9699C48.6409 12.9398 48.6275 12.9117 48.6084 12.8876C48.5892 12.8636 48.5648 12.8443 48.5369 12.8312C48.4506 12.8029 48.3598 12.791 48.2691 12.796H47.9307V14.3514H48.2691Z" fill="white"/>
<path d="M49.3975 14.6619V12.4885H50.5722V12.7963H49.7804V13.3931H50.5158V13.6891H49.7804V14.3494H50.5934V14.6619H49.3975Z" fill="white"/>
<path d="M51.5469 14.6619V12.4885H52.7005V12.8057H51.9392V13.4824H52.6441V13.7902H51.9392V14.6619H51.5469Z" fill="white"/>
<path d="M52.6489 14.6619L53.2081 12.4885H53.8049L54.3641 14.6619H53.9506L53.8425 14.192H53.1635L53.0507 14.6619H52.6489ZM53.2081 13.8983H53.7767L53.5042 12.7775H53.4877L53.2081 13.8983Z" fill="white"/>
<path d="M54.7588 14.6124C54.7085 14.5878 54.6642 14.5526 54.6289 14.5092C54.5936 14.4658 54.5681 14.4152 54.5544 14.361C54.5119 14.1754 54.4938 13.985 54.5003 13.7947V13.3389C54.4942 13.1556 54.5124 12.9723 54.5544 12.7938C54.5689 12.739 54.5952 12.6879 54.6312 12.6441C54.6673 12.6004 54.7124 12.5649 54.7635 12.5401C54.9132 12.4827 55.0734 12.4579 55.2334 12.4672H55.278C55.4264 12.4617 55.5748 12.48 55.7174 12.5213C55.7633 12.5361 55.8055 12.5608 55.8408 12.5937C55.8761 12.6266 55.9038 12.6668 55.9218 12.7116C55.9631 12.8397 55.9814 12.9742 55.9759 13.1087V13.2074H55.5999V13.1228C55.6031 13.0507 55.5952 12.9786 55.5764 12.909C55.5694 12.8865 55.5576 12.8658 55.5418 12.8483C55.5259 12.8309 55.5065 12.8171 55.4848 12.8079C55.4198 12.7861 55.3513 12.7765 55.2827 12.7797H55.2451C55.1649 12.7729 55.0843 12.7858 55.0102 12.8173C54.9844 12.8325 54.9624 12.8532 54.9457 12.878C54.9291 12.9028 54.9182 12.9311 54.9139 12.9607C54.8956 13.0748 54.8878 13.1904 54.8904 13.306V13.8206C54.8878 13.9424 54.8956 14.0643 54.9139 14.1848C54.9176 14.2142 54.928 14.2425 54.9443 14.2673C54.9605 14.2921 54.9823 14.3129 55.0078 14.3281C55.0824 14.3578 55.1628 14.3699 55.2428 14.3633H55.2827C55.3527 14.3676 55.4228 14.3589 55.4895 14.3375C55.5115 14.3295 55.5313 14.3163 55.5472 14.2992C55.5631 14.282 55.5747 14.2613 55.5811 14.2388C55.6011 14.1622 55.6098 14.083 55.607 14.0039V13.9193H55.9829V14.0226C55.9902 14.1638 55.9703 14.305 55.9242 14.4385C55.9058 14.4837 55.8777 14.5244 55.842 14.5576C55.8063 14.5909 55.7638 14.616 55.7174 14.6312C55.5747 14.672 55.4263 14.6894 55.278 14.6829H55.2334C55.072 14.6919 54.9106 14.6679 54.7588 14.6124Z" fill="white"/>
<path d="M56.5346 14.6219C56.4868 14.6038 56.4436 14.5752 56.4082 14.5382C56.3728 14.5012 56.3462 14.4567 56.3302 14.4081C56.286 14.2556 56.267 14.0969 56.2738 13.9382V12.4885H56.6662V13.9523C56.6629 14.0416 56.6716 14.1308 56.692 14.2178C56.6972 14.2429 56.7081 14.2663 56.724 14.2864C56.74 14.3064 56.7604 14.3223 56.7837 14.3329C56.8514 14.3574 56.9233 14.3678 56.9951 14.3635H57.0421C57.114 14.3678 57.1859 14.3574 57.2536 14.3329C57.277 14.3222 57.2976 14.3062 57.3139 14.2862C57.3302 14.2663 57.3417 14.2429 57.3476 14.2178C57.3669 14.1307 57.3748 14.0414 57.3711 13.9523V12.4885H57.7658V13.9358C57.7724 14.0945 57.7534 14.2532 57.7094 14.4058C57.6931 14.4542 57.6664 14.4985 57.6311 14.5355C57.5957 14.5724 57.5527 14.6011 57.505 14.6196C57.3574 14.6684 57.202 14.6891 57.0468 14.6807H56.9928C56.8377 14.6899 56.6823 14.67 56.5346 14.6219Z" fill="white"/>
<path d="M58.1089 14.6619V12.4885H58.5036V14.3494H59.2085V14.6619H58.1089Z" fill="white"/>
<path d="M59.5372 14.6619V12.8034H59.0391V12.4885H60.4276V12.8034H59.9295V14.6619H59.5372Z" fill="white"/>
<path d="M60.3081 14.6619L60.8673 12.4885H61.4547L62.0139 14.6619H61.6004L61.4923 14.192H60.8133L60.7005 14.6619H60.3081ZM60.8673 13.8983H61.4359L61.1633 12.7775H61.1469L60.8673 13.8983Z" fill="white"/>
<path d="M62.2139 12.4883H62.9422C63.1136 12.4808 63.285 12.5014 63.4497 12.5494C63.5041 12.5683 63.5535 12.5992 63.5942 12.6399C63.6349 12.6806 63.6658 12.73 63.6847 12.7844C63.7349 12.9623 63.7563 13.1471 63.7481 13.3318V13.8017C63.7556 13.9898 63.7366 14.1781 63.6917 14.3609C63.6747 14.4144 63.6458 14.4633 63.6071 14.504C63.5685 14.5447 63.5211 14.5761 63.4685 14.5959C63.2995 14.6465 63.1231 14.668 62.9469 14.6593H62.2186L62.2139 12.4883ZM62.9399 14.3515C63.0313 14.3565 63.1229 14.3445 63.2101 14.3163C63.2386 14.3029 63.2635 14.2829 63.2827 14.258C63.3019 14.2331 63.3149 14.2039 63.3205 14.1729C63.3433 14.0561 63.3528 13.9371 63.3487 13.8182V13.306C63.3535 13.1931 63.3432 13.0801 63.3182 12.97C63.3109 12.9399 63.297 12.9118 63.2775 12.8879C63.258 12.8639 63.2333 12.8446 63.2054 12.8314C63.1198 12.8032 63.0298 12.7912 62.9399 12.7961H62.6062V14.3515H62.9399Z" fill="white"/>
<path d="M64.0674 14.6619V12.4885H65.2422V12.7963H64.4504V13.3931H65.1858V13.6891H64.4504V14.3494H65.261V14.6619H64.0674Z" fill="white"/>
<path d="M65.7291 14.6381C65.6862 14.6266 65.6465 14.6056 65.6127 14.5768C65.579 14.5479 65.5521 14.5119 65.5341 14.4713C65.495 14.35 65.4783 14.2227 65.4847 14.0954V13.9803H65.8442V14.0672C65.8408 14.1338 65.8488 14.2006 65.8677 14.2646C65.875 14.2852 65.8867 14.3039 65.9022 14.3194C65.9176 14.3348 65.9364 14.3466 65.957 14.3539C66.0276 14.3718 66.1004 14.3797 66.1732 14.3773H66.2225C66.2892 14.3807 66.3559 14.3728 66.4199 14.3539C66.4391 14.3479 66.4568 14.3376 66.4715 14.3238C66.4861 14.3099 66.4974 14.2929 66.5044 14.274C66.5212 14.2136 66.5283 14.1509 66.5256 14.0884V14.0155C66.526 13.9628 66.5148 13.9106 66.4927 13.8628C66.4635 13.8208 66.4215 13.7894 66.3729 13.7735C66.2801 13.7444 66.185 13.7232 66.0886 13.7101C65.9585 13.6949 65.8316 13.6592 65.7127 13.6043C65.6339 13.5682 65.5718 13.5035 65.5388 13.4234C65.5016 13.3187 65.4848 13.2079 65.4894 13.0968V13.0311C65.4849 12.9134 65.5066 12.7962 65.5529 12.688C65.5912 12.608 65.6596 12.5463 65.7432 12.5165C65.8636 12.477 65.9902 12.4595 66.1168 12.4648H66.1873C66.3307 12.4588 66.4742 12.4755 66.6125 12.5142C66.6544 12.5266 66.6931 12.548 66.7259 12.5767C66.7588 12.6055 66.785 12.6411 66.8028 12.681C66.841 12.7919 66.8578 12.9091 66.8522 13.0264V13.125H66.4927V13.0452C66.4952 12.9872 66.488 12.9292 66.4716 12.8736C66.4636 12.855 66.4521 12.8381 66.4375 12.824C66.423 12.8099 66.4058 12.7988 66.387 12.7914C66.3254 12.7727 66.261 12.7647 66.1967 12.7679H66.145C66.0839 12.7654 66.0229 12.7726 65.9641 12.789C65.9458 12.7945 65.9291 12.8041 65.9152 12.8172C65.9013 12.8302 65.8907 12.8463 65.8842 12.8642C65.8654 12.9161 65.8574 12.9713 65.8607 13.0264V13.0804C65.858 13.1343 65.8676 13.1882 65.8889 13.2378C65.9138 13.2794 65.9531 13.3103 65.9993 13.3247C66.0866 13.3525 66.1762 13.3722 66.2671 13.3835C66.404 13.4003 66.5377 13.4367 66.6642 13.4916C66.744 13.5263 66.8083 13.589 66.8451 13.6678C66.8826 13.77 66.8994 13.8786 66.8945 13.9873V14.0625C66.9012 14.1932 66.8829 14.324 66.8404 14.4478C66.8229 14.4901 66.7966 14.5282 66.7635 14.5598C66.7303 14.5914 66.6909 14.6156 66.6478 14.6311C66.519 14.6693 66.3849 14.686 66.2507 14.6804H66.1779C66.027 14.6873 65.876 14.673 65.7291 14.6381Z" fill="white"/>
<path d="M67.9019 14.6619V12.4885H69.0766V12.7963H68.2825V13.3931H69.0179V13.6891H68.2825V14.3494H69.0954V14.6619H67.9019Z" fill="white"/>
<path d="M69.5723 14.6124C69.522 14.5879 69.4776 14.5527 69.4423 14.5093C69.407 14.4658 69.3816 14.4153 69.3678 14.361C69.3254 14.1754 69.3072 13.9851 69.3138 13.7948V13.339C69.3077 13.1557 69.3258 12.9724 69.3678 12.7939C69.3824 12.739 69.4086 12.688 69.4447 12.6442C69.4808 12.6004 69.5259 12.5649 69.577 12.5401C69.7266 12.4827 69.8868 12.4578 70.0469 12.4673H70.0939C70.2415 12.4616 70.3891 12.4798 70.5309 12.5213C70.5772 12.5354 70.6197 12.5598 70.6552 12.5928C70.6906 12.6258 70.718 12.6664 70.7353 12.7116C70.7787 12.8393 70.7979 12.974 70.7917 13.1087V13.2074H70.4158V13.1228C70.4176 13.0508 70.4097 12.9789 70.3923 12.909C70.3852 12.8865 70.3734 12.8658 70.3576 12.8484C70.3418 12.8309 70.3223 12.8172 70.3006 12.808C70.2356 12.7861 70.1671 12.7766 70.0986 12.7798H70.061C69.9808 12.7732 69.9001 12.7861 69.826 12.8174C69.8007 12.8328 69.7791 12.8537 69.7629 12.8784C69.7466 12.9032 69.7361 12.9313 69.732 12.9607C69.7138 13.0749 69.7059 13.1905 69.7085 13.3061V13.8206C69.7059 13.9425 69.7138 14.0643 69.732 14.1848C69.7357 14.2143 69.7461 14.2425 69.7624 14.2674C69.7787 14.2922 69.8005 14.313 69.826 14.3281C69.9006 14.3579 69.981 14.37 70.061 14.3634H70.1009C70.1708 14.3675 70.2409 14.3587 70.3077 14.3375C70.3292 14.3288 70.3486 14.3154 70.3644 14.2983C70.3802 14.2813 70.3921 14.261 70.3993 14.2389C70.4193 14.1622 70.428 14.0831 70.4251 14.0039V13.9193H70.8011V14.0227C70.8084 14.1638 70.7885 14.305 70.7423 14.4386C70.7239 14.4838 70.6959 14.5244 70.6602 14.5577C70.6245 14.591 70.582 14.6161 70.5356 14.6312C70.3928 14.6719 70.2445 14.6893 70.0962 14.6829H70.0492C69.8871 14.6927 69.7247 14.6687 69.5723 14.6124Z" fill="white"/>
<path d="M71.3465 14.6219C71.2989 14.6035 71.2558 14.5748 71.2205 14.5378C71.1851 14.5009 71.1584 14.4566 71.1421 14.4081C71.1001 14.2552 71.0819 14.0967 71.0881 13.9382V12.4885H71.4805V13.9523C71.476 14.0416 71.4847 14.131 71.5063 14.2178C71.5114 14.2429 71.5224 14.2663 71.5383 14.2864C71.5542 14.3064 71.5747 14.3223 71.598 14.3329C71.6656 14.3574 71.7376 14.3678 71.8094 14.3635H71.8564C71.9282 14.3678 72.0002 14.3574 72.0679 14.3329C72.0911 14.3223 72.1116 14.3064 72.1275 14.2864C72.1434 14.2663 72.1544 14.2429 72.1595 14.2178C72.1811 14.131 72.1898 14.0416 72.1853 13.9523V12.4885H72.5801V13.9358C72.5867 14.0945 72.5677 14.2532 72.5237 14.4058C72.5074 14.4542 72.4807 14.4985 72.4453 14.5355C72.41 14.5724 72.367 14.6011 72.3193 14.6196C72.1717 14.6684 72.0163 14.6891 71.8611 14.6807H71.8071C71.6512 14.6896 71.4951 14.6697 71.3465 14.6219Z" fill="white"/>
<path d="M72.7134 14.6619L73.2702 12.4885H73.86L74.4191 14.6619H74.0103L73.9023 14.192H73.2209L73.1105 14.6619H72.7134ZM73.2702 13.8983H73.8388L73.5686 12.7775H73.5522L73.2702 13.8983Z" fill="white"/>
<path d="M74.8052 14.6619V12.8034H74.3071V12.4885H75.6957V12.8034H75.1976V14.6619H74.8052Z" fill="white"/>
<path d="M76.069 14.6124C76.0173 14.5873 75.9715 14.5515 75.9346 14.5073C75.8977 14.4632 75.8707 14.4117 75.8552 14.3563C75.8107 14.1726 75.7918 13.9836 75.7988 13.7948V13.339C75.7921 13.1571 75.811 12.9751 75.8552 12.7986C75.8707 12.7432 75.8977 12.6917 75.9346 12.6476C75.9715 12.6034 76.0173 12.5676 76.069 12.5425C76.2189 12.4856 76.3788 12.46 76.5389 12.4673H76.5953C76.7554 12.46 76.9153 12.4856 77.0652 12.5425C77.1172 12.5672 77.1632 12.6029 77.2001 12.6471C77.237 12.6913 77.2639 12.743 77.279 12.7986C77.3231 12.9751 77.3421 13.1571 77.3354 13.339V13.7948C77.3493 13.9827 77.3375 14.1716 77.3002 14.3563C77.2851 14.4115 77.2584 14.4629 77.2219 14.5071C77.1855 14.5512 77.1401 14.5871 77.0887 14.6124C76.9382 14.6664 76.7785 14.6903 76.6188 14.6829H76.5624C76.3948 14.6939 76.2268 14.6699 76.069 14.6124ZM76.5953 14.3634C76.6757 14.3705 76.7567 14.3567 76.8302 14.3234C76.8566 14.307 76.8791 14.2851 76.8962 14.2591C76.9132 14.2331 76.9244 14.2038 76.9289 14.173C76.9481 14.0566 76.9559 13.9386 76.9524 13.8206V13.3061C76.9561 13.1928 76.9482 13.0794 76.9289 12.9677C76.9241 12.9374 76.9127 12.9085 76.8957 12.883C76.8787 12.8574 76.8564 12.8358 76.8302 12.8197C76.7564 12.7872 76.6757 12.7735 76.5953 12.7798H76.5412C76.4609 12.7741 76.3803 12.7878 76.3063 12.8197C76.2799 12.8355 76.2573 12.8569 76.2402 12.8826C76.2231 12.9082 76.212 12.9373 76.2076 12.9677C76.186 13.0791 76.1774 13.1927 76.1818 13.3061V13.8206C76.1775 13.9387 76.1862 14.0569 76.2076 14.173C76.2117 14.2036 76.2225 14.2329 76.2391 14.2589C76.2558 14.2849 76.2779 14.3069 76.3039 14.3234C76.3775 14.3567 76.4585 14.3705 76.5389 14.3634H76.5953Z" fill="white"/>
<path d="M77.6665 12.4883H78.4043C78.547 12.4821 78.6897 12.4988 78.8272 12.5377C78.8702 12.5507 78.9097 12.5733 78.9427 12.6038C78.9756 12.6343 79.0012 12.672 79.0175 12.7139C79.0583 12.8356 79.0758 12.9639 79.0692 13.0921V13.1697C79.0715 13.2637 79.062 13.3576 79.041 13.4493C79.0262 13.5108 78.9945 13.567 78.9494 13.6114C78.9036 13.6519 78.8475 13.6788 78.7872 13.6889V13.7007C78.853 13.7086 78.9151 13.7356 78.9658 13.7782C79.0088 13.8253 79.0367 13.8842 79.0457 13.9474C79.0645 14.0583 79.0724 14.1709 79.0692 14.2834V14.6616H78.6815V14.3163C78.6856 14.2186 78.6777 14.1207 78.658 14.0249C78.6526 13.9994 78.6415 13.9754 78.6257 13.9547C78.6098 13.934 78.5896 13.917 78.5664 13.9051C78.4945 13.8812 78.4188 13.8708 78.3432 13.8745H78.0495V14.6616H77.6665V12.4883ZM78.4113 13.5809C78.4676 13.5839 78.5238 13.5743 78.5758 13.5527C78.5953 13.5431 78.6127 13.5296 78.6269 13.513C78.641 13.4964 78.6516 13.4771 78.658 13.4563C78.6766 13.3931 78.6846 13.3272 78.6815 13.2613V13.1227C78.6849 13.0499 78.677 12.9769 78.658 12.9065C78.651 12.8854 78.6391 12.8662 78.6231 12.8507C78.6072 12.8351 78.5877 12.8237 78.5664 12.8173C78.4967 12.7985 78.4246 12.7906 78.3526 12.7938H78.0495V13.5809H78.4113Z" fill="white"/>
<path d="M79.4155 14.6619V12.4885H79.8103V14.6619H79.4155Z" fill="white"/>
<path d="M79.9951 14.6619L80.5543 12.4885H81.1417L81.7009 14.6619H81.2944L81.1863 14.192H80.5073L80.3945 14.6619H79.9951ZM80.5543 13.8983H81.1229L80.8504 12.7775H80.8245L80.5543 13.8983Z" fill="white"/>
<path d="M81.9009 14.6619V12.4885H82.4812L83.1861 14.3094L83.1743 12.4885H83.5315V14.6619H82.9629L82.258 12.8316H82.2345L82.2463 14.6619H81.9009Z" fill="white"/>
<path d="M83.729 14.6619L84.2882 12.4885H84.8756L85.4348 14.6619H85.0236L84.9132 14.192H84.2342L84.1214 14.6619H83.729ZM84.2882 13.8983H84.8568L84.5842 12.7775H84.5701L84.2882 13.8983Z" fill="white"/>
<path d="M85.8268 14.6382C85.7843 14.6266 85.7448 14.6056 85.7115 14.5768C85.6781 14.5479 85.6517 14.5119 85.6342 14.4714C85.5951 14.3501 85.5784 14.2227 85.5848 14.0954V13.9803H85.942V14.0673C85.9398 14.1338 85.9477 14.2004 85.9655 14.2646C85.9732 14.2853 85.9855 14.3041 86.0013 14.3195C86.0172 14.3349 86.0362 14.3467 86.0571 14.3539C86.1269 14.3719 86.1989 14.3798 86.2709 14.3774H86.3226C86.3892 14.3808 86.456 14.3728 86.52 14.3539C86.5389 14.3474 86.5563 14.3369 86.5709 14.3231C86.5855 14.3093 86.5969 14.2926 86.6045 14.274C86.6213 14.2136 86.6284 14.151 86.6257 14.0884V14.0156C86.6297 13.9598 86.6191 13.9039 86.5951 13.8534C86.5675 13.811 86.526 13.7794 86.4777 13.7642C86.384 13.7351 86.2882 13.7139 86.191 13.7007C86.0609 13.6855 85.934 13.6498 85.8151 13.595C85.7374 13.5574 85.6758 13.4932 85.6412 13.4141C85.6061 13.3089 85.5902 13.1983 85.5942 13.0875V13.0217C85.5892 12.9085 85.6084 12.7956 85.6506 12.6904C85.6889 12.6104 85.7573 12.5487 85.8409 12.5189C85.9614 12.4794 86.0879 12.4619 86.2145 12.4672H86.285C86.4277 12.4614 86.5704 12.478 86.7079 12.5165C86.7498 12.529 86.7885 12.5504 86.8213 12.5791C86.8542 12.6079 86.8804 12.6435 86.8982 12.6834C86.9364 12.7943 86.9532 12.9115 86.9476 13.0288V13.1274H86.5975V13.0475C86.6004 12.9894 86.5924 12.9313 86.574 12.876C86.5668 12.8569 86.5555 12.8397 86.5409 12.8255C86.5263 12.8113 86.5087 12.8004 86.4894 12.7938C86.4279 12.7747 86.3634 12.7668 86.2991 12.7703H86.2498C86.1887 12.7677 86.1276 12.7748 86.0688 12.7914C86.0502 12.7967 86.0331 12.8063 86.0189 12.8193C86.0046 12.8324 85.9935 12.8486 85.9866 12.8666C85.9701 12.919 85.963 12.9739 85.9655 13.0288V13.0828C85.9633 13.1365 85.9721 13.19 85.9913 13.2402C86.0179 13.2812 86.0577 13.3119 86.1041 13.3271C86.1906 13.3547 86.2795 13.3744 86.3696 13.3859C86.5073 13.4024 86.6418 13.4388 86.769 13.494C86.8483 13.5294 86.9124 13.5919 86.9499 13.6702C86.9874 13.7724 87.0042 13.881 86.9993 13.9897V14.0649C87.0025 14.1964 86.9801 14.3272 86.9335 14.4502C86.916 14.4922 86.8901 14.5301 86.8574 14.5617C86.8246 14.5932 86.7858 14.6176 86.7432 14.6335C86.6136 14.6717 86.4787 14.6883 86.3437 14.6828H86.2709C86.1215 14.6882 85.9722 14.6732 85.8268 14.6382Z" fill="white"/>
<path d="M35.5488 15.8058H36.2772C36.4493 15.7985 36.6215 15.8191 36.787 15.8668C36.8413 15.8858 36.8907 15.9168 36.9313 15.9575C36.972 15.9982 37.003 16.0475 37.022 16.1018C37.0735 16.2795 37.0957 16.4644 37.0878 16.6492V17.1192C37.0948 17.3074 37.075 17.4957 37.029 17.6783C37.0127 17.7318 36.9843 17.7809 36.946 17.8216C36.9077 17.8623 36.8606 17.8937 36.8082 17.9133C36.6388 17.966 36.4614 17.9882 36.2842 17.9791H35.5559L35.5488 15.8058ZM36.2748 17.6689C36.3663 17.6741 36.458 17.6622 36.545 17.6337C36.5733 17.62 36.598 17.6 36.6172 17.5751C36.6364 17.5502 36.6495 17.5212 36.6555 17.4904C36.6783 17.3736 36.6877 17.2545 36.6837 17.1356V16.6234C36.6885 16.5105 36.6782 16.3976 36.6531 16.2874C36.647 16.2572 36.6338 16.2289 36.6146 16.2048C36.5954 16.1807 36.5707 16.1615 36.5427 16.1488C36.4563 16.1207 36.3655 16.1087 36.2748 16.1135H35.9483V17.6689H36.2748Z" fill="white"/>
<path d="M37.4028 17.9792V15.8059H38.5776V16.1137H37.7858V16.7105H38.533V17.0065H37.7976V17.6644H38.6082V17.9792H37.4028Z" fill="white"/>
<path d="M39.7681 17.9299C39.7178 17.9054 39.6734 17.8702 39.6381 17.8268C39.6028 17.7834 39.5774 17.7328 39.5637 17.6785C39.5212 17.4929 39.503 17.3026 39.5096 17.1123V16.6565C39.5035 16.4732 39.5217 16.2899 39.5637 16.1114C39.5782 16.0565 39.6044 16.0055 39.6405 15.9617C39.6766 15.9179 39.7217 15.8824 39.7728 15.8576C39.9224 15.8002 40.0826 15.7753 40.2427 15.7848H40.2873C40.4358 15.7777 40.5844 15.796 40.7267 15.8388C40.7726 15.8536 40.8148 15.8783 40.8501 15.9112C40.8854 15.9441 40.9131 15.9844 40.9311 16.0292C40.9746 16.1568 40.9937 16.2915 40.9875 16.4262V16.5249H40.6116V16.4474C40.6134 16.3761 40.6055 16.305 40.5881 16.2359C40.581 16.2134 40.5692 16.1927 40.5534 16.1753C40.5376 16.1578 40.5181 16.1441 40.4964 16.1349C40.4314 16.113 40.3629 16.1035 40.2944 16.1067H40.2568C40.1766 16.1001 40.0959 16.113 40.0218 16.1443C39.9963 16.1594 39.9745 16.1802 39.9582 16.2051C39.9419 16.2299 39.9315 16.2581 39.9278 16.2876C39.9084 16.4016 39.9005 16.5174 39.9043 16.633V17.1475C39.9004 17.2686 39.9083 17.3898 39.9278 17.5094C39.9312 17.5393 39.9414 17.568 39.9577 17.5932C39.9741 17.6185 39.996 17.6397 40.0218 17.655C40.0927 17.6832 40.1689 17.6952 40.245 17.6903H40.2873C40.3572 17.6944 40.4273 17.6856 40.4941 17.6644C40.5156 17.6557 40.535 17.6423 40.5508 17.6252C40.5666 17.6082 40.5785 17.5879 40.5857 17.5658C40.6046 17.4889 40.6125 17.4098 40.6092 17.3308V17.2462H40.9875V17.3496C40.9936 17.4907 40.9737 17.6316 40.9287 17.7655C40.9103 17.8107 40.8823 17.8513 40.8466 17.8846C40.8109 17.9179 40.7684 17.943 40.722 17.9581C40.5785 17.9989 40.4293 18.0164 40.2803 18.0098H40.2356C40.076 18.0153 39.9169 17.9881 39.7681 17.9299Z" fill="white"/>
<path d="M41.2954 17.9792V15.8059H41.6878V17.9792H41.2954Z" fill="white"/>
<path d="M42.043 17.9792V15.8059H43.2177V16.1137H42.4259V16.7105H43.1614V17.0065H42.4259V17.6644H43.2389V17.9792H42.043Z" fill="white"/>
<path d="M43.5068 17.9792V15.8059H44.0848L44.7897 17.6268L44.7685 15.8059H45.1257V17.9792H44.5571L43.8522 16.1489H43.8358V17.9792H43.5068Z" fill="white"/>
<path d="M45.7065 17.9299C45.6563 17.9054 45.6119 17.8702 45.5766 17.8268C45.5413 17.7834 45.5159 17.7328 45.5021 17.6785C45.4597 17.4929 45.4415 17.3026 45.4481 17.1123V16.6565C45.442 16.4732 45.4601 16.2899 45.5021 16.1114C45.5167 16.0565 45.5429 16.0055 45.579 15.9617C45.6151 15.9179 45.6602 15.8824 45.7112 15.8576C45.8609 15.8002 46.0211 15.7753 46.1812 15.7848H46.2258C46.3743 15.7777 46.5228 15.796 46.6652 15.8388C46.7115 15.8529 46.754 15.8773 46.7894 15.9103C46.8249 15.9433 46.8523 15.9839 46.8696 16.0292C46.913 16.1568 46.9322 16.2915 46.926 16.4262V16.5249H46.55V16.4474C46.5519 16.3761 46.544 16.305 46.5265 16.2359C46.5195 16.2134 46.5077 16.1927 46.4919 16.1753C46.476 16.1578 46.4566 16.1441 46.4349 16.1349C46.3699 16.113 46.3014 16.1035 46.2328 16.1067H46.1952C46.115 16.1001 46.0344 16.113 45.9603 16.1443C45.9347 16.1594 45.913 16.1802 45.8967 16.2051C45.8804 16.2299 45.87 16.2581 45.8663 16.2876C45.8481 16.4018 45.8402 16.5174 45.8428 16.633V17.1475C45.8401 17.2686 45.848 17.3897 45.8663 17.5094C45.8697 17.5393 45.8799 17.568 45.8962 17.5932C45.9125 17.6185 45.9345 17.6397 45.9603 17.655C46.0348 17.6848 46.1153 17.6969 46.1952 17.6903H46.2352C46.3051 17.6944 46.3752 17.6856 46.442 17.6644C46.4635 17.6557 46.4828 17.6423 46.4987 17.6252C46.5145 17.6082 46.5264 17.5879 46.5336 17.5658C46.5535 17.4891 46.5622 17.41 46.5594 17.3308V17.2462H46.9354V17.3496C46.9427 17.4907 46.9227 17.6319 46.8766 17.7655C46.8582 17.8107 46.8302 17.8513 46.7945 17.8846C46.7588 17.9179 46.7162 17.943 46.6699 17.9581C46.5263 17.9989 46.3772 18.0164 46.2281 18.0098H46.1835C46.0207 18.0166 45.8583 17.9894 45.7065 17.9299Z" fill="white"/>
<path d="M47.2261 17.9792V15.8059H47.6184V17.9792H47.2261Z" fill="white"/>
<path d="M47.8257 17.9792L48.3825 15.8059H48.9723L49.5291 17.9792H49.1179L49.0099 17.5093H48.3285L48.2181 17.9792H47.8257ZM48.3825 17.2156H48.9511L48.6809 16.0949H48.6645L48.3825 17.2156Z" fill="white"/>
<path d="M49.9234 17.9532C49.8805 17.9426 49.8406 17.9222 49.8068 17.8937C49.773 17.8652 49.7462 17.8293 49.7284 17.7888C49.6894 17.6675 49.6726 17.5401 49.6791 17.4128V17.2977H50.0456V17.387C50.0422 17.4536 50.0502 17.5204 50.0691 17.5844C50.0766 17.605 50.0887 17.6236 50.1046 17.6387C50.1205 17.6538 50.1398 17.6649 50.1607 17.6713C50.2301 17.6916 50.3023 17.7003 50.3745 17.6971H50.4239C50.4905 17.6993 50.557 17.6914 50.6212 17.6736C50.6409 17.6676 50.6588 17.657 50.6735 17.6427C50.6882 17.6284 50.6993 17.6108 50.7058 17.5914C50.7239 17.5321 50.7318 17.4701 50.7293 17.4081V17.3353C50.7321 17.2796 50.7216 17.2241 50.6988 17.1732C50.6696 17.1312 50.6276 17.0998 50.579 17.0839C50.486 17.0549 50.3909 17.0329 50.2947 17.0181C50.1645 17.0048 50.0374 16.9699 49.9187 16.9147C49.84 16.8786 49.7779 16.8139 49.7449 16.7338C49.7075 16.6284 49.6907 16.5167 49.6955 16.4049V16.3414C49.6902 16.2282 49.7094 16.1152 49.7519 16.0102C49.7902 15.9301 49.8586 15.8684 49.9422 15.8386C50.0626 15.7991 50.1892 15.7816 50.3158 15.787H50.3863C50.5298 15.781 50.6733 15.7976 50.8116 15.8363C50.8533 15.8482 50.892 15.8691 50.9249 15.8975C50.9578 15.9259 50.984 15.9611 51.0019 16.0008C51.04 16.1125 51.0568 16.2305 51.0512 16.3485V16.4472H50.6988V16.3673C50.7012 16.3093 50.6941 16.2514 50.6776 16.1958C50.6701 16.1769 50.6586 16.1599 50.644 16.1457C50.6295 16.1316 50.6121 16.1206 50.5931 16.1135C50.5314 16.0948 50.4671 16.0869 50.4027 16.09H50.3511C50.29 16.0876 50.229 16.0947 50.1701 16.1112C50.152 16.1169 50.1355 16.1267 50.1216 16.1397C50.1078 16.1527 50.0971 16.1687 50.0903 16.1864C50.0715 16.2383 50.0635 16.2934 50.0668 16.3485V16.4025C50.0641 16.4565 50.0737 16.5103 50.095 16.56C50.1194 16.6014 50.159 16.6317 50.2054 16.6445C50.2925 16.6734 50.3822 16.6938 50.4732 16.7056C50.6101 16.7224 50.7438 16.7588 50.8703 16.8137C50.9501 16.8485 51.0144 16.9111 51.0512 16.9899C51.0908 17.0916 51.1084 17.2005 51.1029 17.3095V17.387C51.1093 17.5187 51.0901 17.6503 51.0465 17.7747C51.0292 17.8168 51.003 17.8548 50.9698 17.886C50.9365 17.9172 50.897 17.9409 50.8539 17.9556C50.7255 17.9959 50.5911 18.0134 50.4568 18.0073H50.3839C50.2286 18.0129 50.0733 17.9947 49.9234 17.9532Z" fill="white"/>
<path d="M52.0869 17.9792V15.8059H52.6907L53.1607 17.5798L53.6306 15.8059H54.2227V17.9792H53.8632L53.8796 16.1325H53.8655L53.3557 17.9792H52.9515L52.4417 16.1325H52.4276L52.444 17.9792H52.0869Z" fill="white"/>
<path d="M54.5806 17.9792V15.8059H55.7553V16.1136H54.98V16.7104H55.7154V17.0065H54.98V17.6643H55.7906V17.9792H54.5806ZM54.9236 15.6296L54.8508 15.4934L55.3935 15.1456L55.518 15.3947L54.9236 15.6296Z" fill="white"/>
<path d="M56.0415 15.8058H56.7699C56.9412 15.7983 57.1127 15.819 57.2774 15.8669C57.3317 15.8858 57.3811 15.9167 57.4218 15.9574C57.4625 15.9981 57.4935 16.0475 57.5123 16.1019C57.5628 16.2798 57.5842 16.4646 57.5758 16.6493V17.1192C57.5833 17.3073 57.5643 17.4956 57.5194 17.6784C57.503 17.7322 57.4743 17.7815 57.4355 17.8223C57.3968 17.8631 57.3491 17.8943 57.2962 17.9134C57.1276 17.9663 56.951 17.9885 56.7746 17.9792H56.0462L56.0415 15.8058ZM56.7675 17.669C56.859 17.674 56.9506 17.662 57.0377 17.6338C57.0657 17.6197 57.0901 17.5995 57.1092 17.5747C57.1283 17.5499 57.1416 17.5211 57.1481 17.4905C57.1709 17.3736 57.1804 17.2546 57.1763 17.1357V16.6235C57.1811 16.5106 57.1709 16.3976 57.1458 16.2875C57.1389 16.2573 57.1251 16.2291 57.1056 16.205C57.086 16.181 57.0612 16.1618 57.033 16.1489C56.9475 16.1207 56.8574 16.1087 56.7675 16.1136H56.4339V17.669H56.7675Z" fill="white"/>
<path d="M57.895 17.9792V15.8059H58.2874V17.9792H57.895Z" fill="white"/>
<path d="M58.8584 17.9299C58.8081 17.9054 58.7638 17.8702 58.7285 17.8268C58.6932 17.7834 58.6678 17.7328 58.654 17.6785C58.6115 17.4929 58.5934 17.3026 58.5999 17.1123V16.6565C58.5938 16.4732 58.612 16.2899 58.654 16.1114C58.6686 16.0565 58.6948 16.0055 58.7309 15.9617C58.7669 15.9179 58.812 15.8824 58.8631 15.8576C59.0128 15.8002 59.173 15.7753 59.333 15.7848H59.3776C59.5261 15.7777 59.6747 15.796 59.817 15.8388C59.8633 15.8529 59.9059 15.8773 59.9413 15.9103C59.9767 15.9433 60.0041 15.9839 60.0214 16.0292C60.0649 16.1568 60.084 16.2915 60.0778 16.4262V16.5249H59.7019V16.4474C59.7037 16.3761 59.6958 16.305 59.6784 16.2359C59.6714 16.2134 59.6595 16.1927 59.6437 16.1753C59.6279 16.1578 59.6085 16.1441 59.5868 16.1349C59.5217 16.113 59.4532 16.1035 59.3847 16.1067H59.3471C59.2669 16.1001 59.1863 16.113 59.1121 16.1443C59.0866 16.1594 59.0649 16.1802 59.0486 16.2051C59.0323 16.2299 59.0219 16.2581 59.0182 16.2876C58.9987 16.4016 58.9908 16.5174 58.9947 16.633V17.1475C58.9907 17.2686 58.9986 17.3898 59.0182 17.5094C59.0215 17.5393 59.0318 17.568 59.0481 17.5932C59.0644 17.6185 59.0863 17.6397 59.1121 17.655C59.183 17.6832 59.2593 17.6952 59.3354 17.6903H59.3776C59.4476 17.6944 59.5176 17.6856 59.5844 17.6644C59.6059 17.6557 59.6253 17.6423 59.6411 17.6252C59.657 17.6082 59.6689 17.5879 59.676 17.5658C59.6949 17.4889 59.7029 17.4098 59.6995 17.3308V17.2462H60.0778V17.3496C60.084 17.4907 60.064 17.6316 60.0191 17.7655C60.0007 17.8107 59.9726 17.8513 59.9369 17.8846C59.9012 17.9179 59.8587 17.943 59.8123 17.9581C59.6688 17.9989 59.5197 18.0164 59.3706 18.0098H59.326C59.1663 18.0153 59.0072 17.9881 58.8584 17.9299Z" fill="white"/>
<path d="M60.189 17.9792L60.7482 15.8059H61.3355L61.8947 17.9792H61.4812L61.3731 17.5093H60.6941L60.5813 17.9792H60.189ZM60.7482 17.2156H61.3238L61.0512 16.0949H61.0348L60.7482 17.2156Z" fill="white"/>
<path d="M62.2863 17.9532C62.2438 17.9424 62.2042 17.922 62.1708 17.8934C62.1374 17.8649 62.111 17.8291 62.0937 17.7888C62.0546 17.6675 62.0379 17.5401 62.0443 17.4128V17.2977H62.4014V17.387C62.3981 17.4536 62.406 17.5204 62.4249 17.5844C62.4324 17.605 62.4446 17.6236 62.4605 17.6387C62.4764 17.6538 62.4956 17.6649 62.5166 17.6713C62.5859 17.6916 62.6582 17.7003 62.7304 17.6971H62.7821C62.8479 17.6994 62.9137 17.6915 62.9771 17.6736C62.9967 17.6676 63.0146 17.657 63.0293 17.6427C63.044 17.6284 63.0551 17.6108 63.0617 17.5914C63.0809 17.5323 63.0888 17.4702 63.0852 17.4081V17.3353C63.088 17.2796 63.0775 17.2241 63.0546 17.1732C63.0255 17.1312 62.9834 17.0998 62.9348 17.0839C62.8419 17.0546 62.7468 17.0326 62.6505 17.0181C62.5203 17.0048 62.3932 16.9699 62.2746 16.9147C62.1964 16.8778 62.1345 16.8134 62.1007 16.7338C62.0643 16.6282 62.0483 16.5165 62.0537 16.4049V16.3414C62.049 16.2285 62.0673 16.1158 62.1078 16.0102C62.146 15.9301 62.2145 15.8684 62.2981 15.8386C62.4185 15.7991 62.545 15.7816 62.6716 15.787H62.7421C62.8856 15.781 63.0291 15.7976 63.1674 15.8363C63.2092 15.8482 63.2479 15.8691 63.2807 15.8975C63.3136 15.9259 63.3399 15.9611 63.3577 16.0008C63.3959 16.1125 63.4126 16.2305 63.4071 16.3485V16.4472H63.0546V16.3673C63.0571 16.3093 63.0499 16.2514 63.0335 16.1958C63.0266 16.1765 63.0154 16.1591 63.0007 16.1448C62.9861 16.1306 62.9683 16.1199 62.9489 16.1135C62.8873 16.0948 62.8229 16.0869 62.7586 16.09H62.7069C62.6466 16.0874 62.5863 16.0945 62.5283 16.1112C62.5097 16.1165 62.4926 16.126 62.4783 16.1391C62.4641 16.1521 62.453 16.1683 62.4461 16.1864C62.4273 16.2383 62.4193 16.2934 62.4226 16.3485V16.4025C62.4199 16.4565 62.4295 16.5103 62.4508 16.56C62.4758 16.6009 62.5152 16.6311 62.5612 16.6445C62.6484 16.6734 62.738 16.6938 62.8291 16.7056C62.966 16.722 63.0998 16.7585 63.2261 16.8137C63.3065 16.8483 63.3716 16.911 63.4094 16.9899C63.4469 17.0921 63.4637 17.2007 63.4587 17.3095V17.387C63.4651 17.5187 63.446 17.6503 63.4024 17.7747C63.385 17.8168 63.3588 17.8548 63.3256 17.886C63.2924 17.9172 63.2529 17.9409 63.2097 17.9556C63.0814 17.9959 62.947 18.0134 62.8126 18.0073H62.7327C62.5821 18.0113 62.4317 17.9931 62.2863 17.9532Z" fill="white"/>
<path d="M64.8668 17.9792V17.2743L64.2817 15.8105H64.6788L65.0688 16.9078L65.4471 15.8105H65.8442L65.2568 17.2743V17.9792H64.8668Z" fill="white"/>
<path d="M66.7271 15.8058H67.4554C67.6268 15.7983 67.7982 15.819 67.9629 15.8669C68.0173 15.8858 68.0667 15.9167 68.1074 15.9574C68.1481 15.9981 68.179 16.0475 68.1979 16.1019C68.2493 16.2796 68.2716 16.4645 68.2637 16.6493V17.1192C68.2707 17.3075 68.2509 17.4957 68.2049 17.6784C68.1886 17.7319 68.1602 17.7809 68.1219 17.8217C68.0836 17.8624 68.0364 17.8938 67.9841 17.9134C67.8147 17.966 67.6373 17.9883 67.4601 17.9792H66.7271V15.8058ZM67.4531 17.669C67.5445 17.674 67.6361 17.662 67.7233 17.6338C67.7515 17.6201 67.7762 17.6 67.7954 17.5752C67.8146 17.5503 67.8277 17.5213 67.8337 17.4905C67.8565 17.3736 67.8659 17.2546 67.8619 17.1357V16.6235C67.8667 16.5106 67.8564 16.3976 67.8313 16.2875C67.8248 16.2571 67.8111 16.2288 67.7915 16.2047C67.7719 16.1806 67.7469 16.1615 67.7186 16.1489C67.6331 16.1203 67.543 16.1083 67.4531 16.1136H67.1218V17.669H67.4531Z" fill="white"/>
<path d="M68.5791 17.9792V15.8059H69.7539V16.1137H68.9621V16.7105H69.6975V17.0065H68.9621V17.6644H69.7821V17.9792H68.5791Z" fill="white"/>
<path d="M70.7212 17.9792V15.8059H71.1136V17.6644H71.8184V17.9792H70.7212Z" fill="white"/>
<path d="M71.8779 17.9792L72.4371 15.8059H73.0245L73.5837 17.9792H73.1725L73.0621 17.5093H72.3831L72.2703 17.9792H71.8779ZM72.4371 17.2156H73.0057L72.7332 16.0949H72.7191L72.4371 17.2156Z" fill="white"/>
<path d="M74.6691 17.9534C74.6266 17.9426 74.5871 17.9222 74.5536 17.8936C74.5202 17.8651 74.4938 17.8293 74.4765 17.789C74.4374 17.6677 74.4207 17.5403 74.4271 17.413V17.2979H74.7843V17.3872C74.7809 17.4538 74.7888 17.5206 74.8078 17.5846C74.8152 17.6052 74.8274 17.6238 74.8433 17.6389C74.8592 17.654 74.8784 17.6651 74.8994 17.6715C74.9688 17.6918 75.041 17.7005 75.1132 17.6973H75.1649C75.2307 17.6998 75.2965 17.6918 75.3599 17.6738C75.3796 17.6675 75.3977 17.6568 75.4127 17.6426C75.4277 17.6284 75.4394 17.6109 75.4468 17.5916C75.4638 17.5321 75.471 17.4702 75.468 17.4083V17.3355C75.472 17.2797 75.4614 17.2239 75.4374 17.1734C75.4098 17.1309 75.3683 17.0993 75.32 17.0841C75.2262 17.0551 75.1304 17.0332 75.0333 17.0183C74.9031 17.005 74.7761 16.9701 74.6574 16.9149C74.5797 16.8773 74.518 16.8131 74.4835 16.734C74.4484 16.628 74.4325 16.5167 74.4365 16.4051V16.3416C74.4312 16.2284 74.4504 16.1154 74.4929 16.0104C74.5312 15.9303 74.5996 15.8686 74.6832 15.8388C74.8036 15.7993 74.9302 15.7818 75.0568 15.7872H75.1273C75.27 15.7813 75.4127 15.798 75.5502 15.8365C75.592 15.8484 75.6307 15.8693 75.6635 15.8977C75.6964 15.9261 75.7227 15.9613 75.7405 16.001C75.7787 16.1127 75.7954 16.2307 75.7899 16.3487V16.4474H75.4398V16.3675C75.4426 16.3094 75.4347 16.2512 75.4163 16.196C75.4094 16.1767 75.3982 16.1593 75.3835 16.145C75.3689 16.1308 75.3511 16.1201 75.3317 16.1137C75.2702 16.0947 75.2057 16.0867 75.1414 16.0902H75.0921C75.031 16.0876 74.9699 16.0947 74.9111 16.1114C74.8925 16.1167 74.8754 16.1262 74.8611 16.1393C74.8469 16.1523 74.8358 16.1685 74.8289 16.1866C74.8124 16.239 74.8053 16.2938 74.8078 16.3487V16.4027C74.8045 16.4565 74.8133 16.5103 74.8336 16.5602C74.8597 16.6011 74.8998 16.6312 74.9464 16.6447C75.0328 16.6733 75.1217 16.6938 75.2119 16.7058C75.3488 16.7222 75.4826 16.7587 75.609 16.8139C75.6893 16.8485 75.7545 16.9111 75.7922 16.9901C75.8297 17.0923 75.8465 17.2009 75.8416 17.3097V17.3872C75.8479 17.5189 75.8288 17.6505 75.7852 17.7749C75.7679 17.8167 75.7421 17.8544 75.7093 17.8856C75.6765 17.9168 75.6375 17.9407 75.5949 17.9558C75.4657 17.9959 75.3306 18.0134 75.1954 18.0075H75.1226C74.9696 18.0122 74.8167 17.994 74.6691 17.9534Z" fill="white"/>
<path d="M75.9844 17.9792L76.5436 15.8059H77.131L77.6902 17.9792H77.279L77.1709 17.5093H76.4895L76.3768 17.9792H75.9844ZM76.5436 17.2156H77.1122L76.842 16.0949H76.8302L76.5436 17.2156Z" fill="white"/>
<path d="M77.8921 17.9792V15.8059H78.2845V17.6644H78.9893V17.9792H77.8921Z" fill="white"/>
<path d="M79.4145 17.9393C79.3668 17.9209 79.3237 17.8922 79.2884 17.8552C79.2531 17.8183 79.2263 17.774 79.2101 17.7255C79.166 17.5729 79.1469 17.4142 79.1537 17.2556V15.8059H79.546V17.2697C79.5429 17.3589 79.5516 17.4482 79.5719 17.5352C79.5778 17.5603 79.5893 17.5837 79.6056 17.6036C79.6218 17.6236 79.6425 17.6395 79.6659 17.6503C79.7327 17.6748 79.8039 17.6852 79.875 17.6809H79.9243C79.9954 17.685 80.0665 17.6747 80.1334 17.6503C80.1568 17.6395 80.1774 17.6236 80.1937 17.6036C80.21 17.5837 80.2215 17.5603 80.2274 17.5352C80.2477 17.4482 80.2564 17.3589 80.2533 17.2697V15.8059H80.6456V17.2532C80.6523 17.4119 80.6332 17.5706 80.5892 17.7231C80.573 17.7716 80.5462 17.8159 80.5109 17.8529C80.4756 17.8898 80.4325 17.9185 80.3848 17.937C80.2336 17.9873 80.074 18.008 79.9149 17.998H79.8609C79.7097 18.0058 79.5584 17.9859 79.4145 17.9393Z" fill="white"/>
<path d="M80.9844 15.8058H81.7127C81.8841 15.7983 82.0555 15.819 82.2202 15.8669C82.2745 15.8859 82.3239 15.9169 82.3645 15.9576C82.4052 15.9983 82.4362 16.0476 82.4552 16.1019C82.5078 16.2793 82.53 16.4644 82.521 16.6493V17.1192C82.5292 17.3075 82.5094 17.496 82.4622 17.6784C82.4463 17.7321 82.418 17.7813 82.3796 17.822C82.3413 17.8628 82.294 17.8941 82.2414 17.9134C82.0728 17.9659 81.8962 17.9881 81.7198 17.9792H80.9914L80.9844 15.8058ZM81.708 17.669C81.7995 17.6742 81.8912 17.6623 81.9782 17.6338C82.0065 17.6201 82.0312 17.6 82.0504 17.5752C82.0696 17.5503 82.0827 17.5213 82.0887 17.4905C82.1115 17.3736 82.1209 17.2546 82.1169 17.1357V16.6235C82.1217 16.5106 82.1114 16.3976 82.0863 16.2875C82.0802 16.2573 82.067 16.229 82.0478 16.2049C82.0286 16.1808 82.0039 16.1616 81.9759 16.1489C81.8896 16.1206 81.7987 16.1086 81.708 16.1136H81.3768V17.669H81.708Z" fill="white"/>
</svg>
