<svg width="78" height="23" viewBox="0 0 78 23" fill="none" xmlns="http://www.w3.org/2000/svg">
<path d="M77.0001 23C75.1441 22.9821 73.2882 22.9443 71.4322 22.9622C70.9294 22.9622 70.6903 22.8189 70.5083 22.3649C69.8951 20.8377 69.2819 19.3165 68.6074 17.8132C67.7285 15.822 66.6738 15.2526 64.4642 15.4238C64.084 15.4537 64.0207 15.607 64.0248 15.9176C64.037 16.714 64.0248 17.5105 64.0248 18.307C64.042 18.9742 63.8816 19.6344 63.5593 20.2234C63.2369 20.8124 62.7635 21.3101 62.1852 21.668C61.2265 22.3012 60.1412 22.6317 59.0231 22.8627C58.5264 22.9642 58.3936 22.8109 58.3997 22.3251C58.4242 20.2981 58.4099 18.2711 58.4099 16.2422C58.4099 11.4395 58.4222 6.63693 58.3936 1.83433C58.3936 1.22305 58.5591 1.0777 59.1723 1.08367C62.3446 1.11553 65.5087 1.10358 68.6871 1.09761C70.0523 1.06056 71.41 1.30553 72.6709 1.81641C75.0746 2.84582 76.1886 4.8031 75.9127 7.3398C75.6388 9.83867 74.3286 11.4316 71.6796 12.0847C73.8442 13.0563 74.0015 15.1411 74.7456 16.8634C75.4896 18.5857 76.0517 20.3479 76.7017 22.0901C76.7834 22.3091 76.7896 22.566 77.0083 22.7233L77.0001 23ZM64.0289 7.66834C64.0289 8.34333 64.0289 9.01833 64.0289 9.69332C64.0289 9.92429 64.0391 10.1314 64.3661 10.1214C65.5925 10.0816 66.8434 10.2429 68.0596 9.93624C69.2758 9.6296 69.9381 8.86302 69.9687 7.6783C69.9953 6.61105 69.3106 5.78871 68.1046 5.46814C66.8986 5.14757 65.6518 5.19137 64.4254 5.1854C64.0677 5.1854 64.0309 5.37257 64.033 5.64336C64.035 6.32433 64.0289 6.99932 64.0289 7.67431V7.66834Z" fill="white"/>
<path d="M42.5358 9.2971C41.6263 13.5263 40.7351 17.7256 39.8112 21.9169C39.5496 23.1116 39.8541 22.9363 38.5112 22.9463C36.6512 22.9463 34.7911 22.9045 32.9352 22.9702C32.1707 22.9961 31.9418 22.7193 31.7926 22.0463C30.881 17.9008 29.9264 13.7652 28.9821 9.62563C28.9535 9.49621 28.9964 9.32896 28.7286 9.22741C28.4588 10.4997 28.1911 11.7522 27.9315 13.0106C27.2815 16.1512 26.6342 19.2926 25.9897 22.4346C25.9406 22.6656 25.959 22.9363 25.6054 22.9563C25.2518 22.9762 25.2191 22.7014 25.1332 22.4883C24.1276 19.9477 23.1322 17.405 22.1204 14.8683C22.0367 14.6179 22.0367 14.3481 22.1204 14.0977C23.0743 9.93492 24.0193 5.77147 24.9554 1.60735C25.0392 1.22904 25.1966 1.09165 25.5972 1.09563C27.8272 1.11156 30.0572 1.1255 32.2872 1.09563C32.8534 1.09563 32.8657 1.42019 32.9413 1.75868C33.8952 6.06748 34.8545 10.3763 35.8193 14.6851C35.8704 14.9161 35.944 15.1431 36.0462 15.5114C36.9823 10.9059 37.898 6.4458 38.779 1.97173C38.9057 1.34054 39.0856 1.05581 39.8439 1.08169C41.9226 1.14939 44.0075 1.11753 46.0883 1.09563C46.5625 1.09563 46.7608 1.20713 46.8712 1.69297C48.426 8.58626 50.0005 15.4756 51.5949 22.3609C51.7052 22.8408 51.6439 23.0299 51.1084 22.9821C50.3705 22.9164 49.6224 22.9224 48.8866 22.8268C47.0858 22.5939 45.8533 21.6322 45.1808 19.9815C44.4695 18.2413 44.2671 16.3855 43.8563 14.5756C43.5108 13.0464 43.2247 11.5053 42.8915 9.97408C42.8343 9.7451 42.8874 9.45838 42.5358 9.2971Z" fill="white"/>
<path d="M21.2353 22.9483C20.4668 22.9483 19.6962 22.9284 18.9297 22.9483C18.5373 22.9622 18.3656 22.8149 18.245 22.4604C17.8362 21.2259 17.3538 20.0074 16.9409 18.7709C16.806 18.3726 16.6343 18.2034 16.1703 18.2074C13.742 18.2339 11.3138 18.2339 8.8855 18.2074C8.42764 18.2074 8.26207 18.3687 8.1006 18.7589C6.94574 21.5147 4.51542 23.0637 1.62316 22.9582C1.03245 22.9363 0.862794 22.8228 1.10399 22.2115C3.81161 15.3329 6.50219 8.44487 9.17574 1.54759C9.32495 1.15136 9.51709 1.00003 9.96881 1.00003C11.6531 1.02791 13.3373 1.02194 15.0236 1.00003C15.1795 0.978097 15.3383 1.01315 15.4692 1.09845C15.6002 1.18374 15.6941 1.31324 15.7329 1.46198C18.4841 8.45483 21.2456 15.4483 24.0172 22.4425C24.1971 22.8985 24.0397 22.9682 23.6084 22.9542C22.8235 22.9323 22.0305 22.9483 21.2353 22.9483ZM12.6996 5.73295C12.5974 5.79468 12.534 5.8106 12.5218 5.84246C11.7682 8.02872 11.0187 10.219 10.2734 12.4132C10.1548 12.7517 10.3163 12.8333 10.6311 12.8333C11.8922 12.8333 13.1534 12.8333 14.4125 12.8532C14.8458 12.8532 14.9235 12.7059 14.8008 12.3355C14.5372 11.5391 14.2919 10.7287 14.0384 9.92627L12.6996 5.73295Z" fill="white"/>
<path d="M57.1526 12.0647C57.1526 15.4497 57.1383 18.8167 57.1669 22.1936C57.1669 22.791 57.0075 22.9901 56.382 22.9622C55.3948 22.9124 54.4014 22.9343 53.4121 22.9622C53.0033 22.9622 52.7989 22.8825 52.709 22.4425C52.2184 20.2065 51.687 17.9804 51.1698 15.7483C51.1353 15.5337 51.1243 15.3161 51.1371 15.0992C51.1371 10.6869 51.1535 6.27254 51.1167 1.8582C51.1167 1.18321 51.3375 1.06175 51.9568 1.08365C53.4162 1.12546 54.8777 1.12945 56.3371 1.08365C56.9789 1.06175 57.1771 1.21706 57.169 1.8801C57.1322 5.26303 57.1526 8.66388 57.1526 12.0647Z" fill="white"/>
</svg>
