<svg xmlns="http://www.w3.org/2000/svg" viewBox="0 0 437.61 102.17"><defs><style>.cls-1{fill:#fff;}</style></defs><g id="Capa_2" data-name="Capa 2"><g id="Capa_1-2" data-name="Capa 1"><path class="cls-1" d="M185.82,39.4a6.31,6.31,0,0,0-2.41-5.3q-2.41-1.86-8.72-3.75a41.87,41.87,0,0,1-10-4.23q-7.12-4.47-7.12-11.66a12.69,12.69,0,0,1,5.14-10.38Q167.82,0,176,0a22.59,22.59,0,0,1,9.69,2,16,16,0,0,1,6.7,5.71,14.66,14.66,0,0,1,2.43,8.21h-9a8.15,8.15,0,0,0-2.56-6.38Q180.71,7.23,176,7.23a11,11,0,0,0-6.89,1.9,6.3,6.3,0,0,0-2.46,5.29,5.74,5.74,0,0,0,2.65,4.78A30.35,30.35,0,0,0,178,22.92,40.2,40.2,0,0,1,187.75,27a15.6,15.6,0,0,1,5.41,5.29,13.89,13.89,0,0,1,1.72,7,12.4,12.4,0,0,1-5,10.36q-5,3.84-13.54,3.85a25.4,25.4,0,0,1-10.4-2.1,17.38,17.38,0,0,1-7.37-5.78,14.4,14.4,0,0,1-2.63-8.58H165A8.44,8.44,0,0,0,167.93,44c1.95,1.62,4.76,2.43,8.41,2.43q4.72,0,7.1-1.92A6.15,6.15,0,0,0,185.82,39.4Z"/><path class="cls-1" d="M233.28,29.56H211.87v16h25v7.23H202.82V.72h33.82V8H211.87V22.4h21.41Z"/><path class="cls-1" d="M284,35.86q-.78,8.34-6.15,13t-14.28,4.67a20.31,20.31,0,0,1-11-3,19.33,19.33,0,0,1-7.32-8.39,30.17,30.17,0,0,1-2.68-12.63V24.69a30.55,30.55,0,0,1,2.61-13A19.7,19.7,0,0,1,252.73,3,20.88,20.88,0,0,1,264,0q8.63,0,13.88,4.67T284,17.89h-9q-.64-5.61-3.27-8.1C270,8.13,267.4,7.3,264,7.3a10.59,10.59,0,0,0-9.08,4.32q-3.16,4.31-3.23,12.66V28.9q0,8.46,3,12.89a10,10,0,0,0,8.86,4.45q5.32,0,8-2.4c1.79-1.6,2.93-4.26,3.4-8Z"/><path class="cls-1" d="M301.66,52.82h-9V.72h9Z"/><path class="cls-1" d="M321.85,33.5V52.82h-9.06V.72h19.94q8.73,0,13.86,4.55a15.26,15.26,0,0,1,5.14,12q0,7.66-5,11.93T332.62,33.5Zm0-7.3h10.88c3.22,0,5.67-.76,7.37-2.28a8.35,8.35,0,0,0,2.54-6.56,9,9,0,0,0-2.58-6.75A9.89,9.89,0,0,0,333,8H321.85Z"/><path class="cls-1" d="M161,78.89a1.17,1.17,0,0,0-.45-1,6.31,6.31,0,0,0-1.65-.73,11.68,11.68,0,0,1-1.87-.76,3.06,3.06,0,0,1-1.89-2.74,2.65,2.65,0,0,1,.51-1.6,3.23,3.23,0,0,1,1.45-1.1,5.52,5.52,0,0,1,2.12-.4,5.11,5.11,0,0,1,2.12.43,3.45,3.45,0,0,1,1.44,1.22,3.17,3.17,0,0,1,.51,1.78H161a1.5,1.5,0,0,0-.48-1.19,2,2,0,0,0-1.35-.42,2.09,2.09,0,0,0-1.3.36,1.12,1.12,0,0,0-.46.93,1.06,1.06,0,0,0,.54.9,6.71,6.71,0,0,0,1.6.69,6.87,6.87,0,0,1,2.84,1.45,2.88,2.88,0,0,1,.89,2.16,2.65,2.65,0,0,1-1.09,2.25,4.71,4.71,0,0,1-2.92.82,5.67,5.67,0,0,1-2.33-.47,3.69,3.69,0,0,1-1.6-1.28,3.26,3.26,0,0,1-.55-1.89h2.29c0,1.23.73,1.84,2.19,1.84a2.15,2.15,0,0,0,1.27-.33A1.1,1.1,0,0,0,161,78.89Z"/><path class="cls-1" d="M174,76.51a6.77,6.77,0,0,1-.58,2.87,4.4,4.4,0,0,1-1.66,1.9,4.88,4.88,0,0,1-4.92,0,4.34,4.34,0,0,1-1.67-1.89,6.37,6.37,0,0,1-.6-2.83V76a6.7,6.7,0,0,1,.59-2.88,4.38,4.38,0,0,1,1.66-1.91,4.85,4.85,0,0,1,4.92,0,4.4,4.4,0,0,1,1.67,1.91A6.66,6.66,0,0,1,174,76Zm-2.32-.5a4.66,4.66,0,0,0-.62-2.65,2,2,0,0,0-1.78-.9,2.05,2.05,0,0,0-1.77.89,4.62,4.62,0,0,0-.63,2.62v.54a4.76,4.76,0,0,0,.62,2.63,2,2,0,0,0,1.8.94,2,2,0,0,0,1.76-.9,4.67,4.67,0,0,0,.62-2.63Z"/><path class="cls-1" d="M184.3,78.11A3.86,3.86,0,0,1,183,80.92a4.58,4.58,0,0,1-3.13,1,4.15,4.15,0,0,1-3.35-1.44,5.87,5.87,0,0,1-1.22-3.93V75.9a6.71,6.71,0,0,1,.56-2.81,4.28,4.28,0,0,1,1.61-1.87,5,5,0,0,1,5.51.38,4.23,4.23,0,0,1,1.36,2.88H182a2.34,2.34,0,0,0-.6-1.55,2.21,2.21,0,0,0-1.56-.49,2,2,0,0,0-1.71.82,4.58,4.58,0,0,0-.58,2.54v.83a5,5,0,0,0,.54,2.63,1.92,1.92,0,0,0,1.72.82,2.28,2.28,0,0,0,1.58-.48,2.2,2.2,0,0,0,.59-1.49Z"/><path class="cls-1" d="M188.23,81.8H186V70.73h2.28Z"/><path class="cls-1" d="M197,77h-4.38v3h5.14V81.8h-7.42V70.73h7.4v1.84h-5.12v2.64H197Z"/><path class="cls-1" d="M199.1,81.8V70.73h3.4a5.27,5.27,0,0,1,2.62.65,4.67,4.67,0,0,1,1.79,1.87,5.8,5.8,0,0,1,.65,2.76v.51a5.68,5.68,0,0,1-.64,2.74,4.49,4.49,0,0,1-1.79,1.87,5.27,5.27,0,0,1-2.6.67Zm2.28-9.23V80h1.1a2.51,2.51,0,0,0,2.05-.87,4,4,0,0,0,.72-2.5V76a4.07,4.07,0,0,0-.7-2.56,2.48,2.48,0,0,0-2.05-.87Z"/><path class="cls-1" d="M215.47,79.51h-4l-.76,2.29h-2.43l4.12-11.07h2.12l4.14,11.07h-2.43Zm-3.39-1.84h2.77l-1.39-4.15Z"/><path class="cls-1" d="M219.69,81.8V70.73h3.41a5.26,5.26,0,0,1,2.61.65,4.63,4.63,0,0,1,1.8,1.87,5.8,5.8,0,0,1,.65,2.76v.51a5.8,5.8,0,0,1-.64,2.74,4.49,4.49,0,0,1-1.79,1.87,5.28,5.28,0,0,1-2.61.67ZM222,72.57V80h1.11a2.47,2.47,0,0,0,2-.87,4,4,0,0,0,.72-2.5V76a4,4,0,0,0-.7-2.56,2.45,2.45,0,0,0-2-.87Z"/><path class="cls-1" d="M237.51,75.71l2.3-5h2.49l-3.63,7v4h-2.32v-4l-3.63-7h2.5Z"/><path class="cls-1" d="M253.85,77.27h-4.38V81.8h-2.28V70.73h7.21v1.84h-4.93v2.86h4.38Z"/><path class="cls-1" d="M264.1,70.73V78A3.71,3.71,0,0,1,263,80.89a4.35,4.35,0,0,1-3.1,1.06,4.41,4.41,0,0,1-3.08-1,3.64,3.64,0,0,1-1.16-2.82V70.73h2.28V78a2.1,2.1,0,0,0,.52,1.59,2,2,0,0,0,1.44.5c1.28,0,1.93-.68,1.95-2V70.73Z"/><path class="cls-1" d="M275,81.8h-2.28l-4.44-7.29V81.8H266V70.73h2.28L272.7,78v-7.3H275Z"/><path class="cls-1" d="M277,81.8V70.73h3.41a5.26,5.26,0,0,1,2.61.65,4.63,4.63,0,0,1,1.8,1.87,5.79,5.79,0,0,1,.64,2.76v.51a5.8,5.8,0,0,1-.63,2.74A4.49,4.49,0,0,1,283,81.13a5.28,5.28,0,0,1-2.61.67Zm2.28-9.23V80h1.11a2.47,2.47,0,0,0,2-.87,4,4,0,0,0,.72-2.5V76a4,4,0,0,0-.7-2.56,2.45,2.45,0,0,0-2-.87Z"/><path class="cls-1" d="M293.33,79.51h-4l-.76,2.29h-2.42l4.12-11.07h2.11l4.14,11.07H294.1ZM290,77.67h2.77l-1.4-4.15Z"/><path class="cls-1" d="M306.25,78.11a3.93,3.93,0,0,1-1.32,2.81,4.61,4.61,0,0,1-3.14,1,4.17,4.17,0,0,1-3.35-1.44,5.87,5.87,0,0,1-1.22-3.93V75.9a6.56,6.56,0,0,1,.57-2.81,4.26,4.26,0,0,1,1.6-1.87,5,5,0,0,1,5.52.38,4.22,4.22,0,0,1,1.35,2.88H304a2.29,2.29,0,0,0-.59-1.55,2.25,2.25,0,0,0-1.57-.49,1.93,1.93,0,0,0-1.7.82,4.49,4.49,0,0,0-.58,2.54v.83a5,5,0,0,0,.54,2.63,1.89,1.89,0,0,0,1.71.82,2.26,2.26,0,0,0,1.58-.48,2.16,2.16,0,0,0,.6-1.49Z"/><path class="cls-1" d="M310.17,81.8h-2.28V70.73h2.28Z"/><path class="cls-1" d="M321.38,76.51a6.63,6.63,0,0,1-.58,2.87,4.45,4.45,0,0,1-1.65,1.9,4.9,4.9,0,0,1-4.93,0,4.4,4.4,0,0,1-1.67-1.89,6.65,6.65,0,0,1-.6-2.83V76a6.7,6.7,0,0,1,.59-2.88,4.38,4.38,0,0,1,1.66-1.91,4.63,4.63,0,0,1,2.46-.67,4.58,4.58,0,0,1,2.46.67,4.34,4.34,0,0,1,1.67,1.91,6.66,6.66,0,0,1,.59,2.87Zm-2.31-.5a4.65,4.65,0,0,0-.63-2.65,2,2,0,0,0-1.78-.9,2.05,2.05,0,0,0-1.77.89,4.71,4.71,0,0,0-.63,2.62v.54a4.67,4.67,0,0,0,.63,2.63,2.17,2.17,0,0,0,3.55,0,4.74,4.74,0,0,0,.63-2.63Zm-2-8.25h2.39l-2.11,2.36h-1.78Z"/><path class="cls-1" d="M332,81.8h-2.28l-4.44-7.29V81.8H323V70.73h2.28l4.44,7.3v-7.3H332Z"/><path class="cls-1" d="M344.57,77h-4.38v3h5.14V81.8h-7.42V70.73h7.4v1.84h-5.12v2.64h4.38Z"/><path class="cls-1" d="M352.4,78.89a1.17,1.17,0,0,0-.45-1,6.15,6.15,0,0,0-1.65-.73,11.68,11.68,0,0,1-1.87-.76,3.06,3.06,0,0,1-1.89-2.74,2.65,2.65,0,0,1,.51-1.6A3.23,3.23,0,0,1,348.5,71a5.52,5.52,0,0,1,2.12-.4,5.11,5.11,0,0,1,2.12.43,3.33,3.33,0,0,1,1.44,1.22,3.17,3.17,0,0,1,.51,1.78h-2.28a1.5,1.5,0,0,0-.48-1.19,2,2,0,0,0-1.34-.42,2.05,2.05,0,0,0-1.3.36,1.1,1.1,0,0,0-.47.93,1,1,0,0,0,.55.9,6.36,6.36,0,0,0,1.6.69,6.89,6.89,0,0,1,2.83,1.45,2.88,2.88,0,0,1,.89,2.16,2.65,2.65,0,0,1-1.09,2.25,4.71,4.71,0,0,1-2.92.82,5.7,5.7,0,0,1-2.33-.47,3.69,3.69,0,0,1-1.6-1.28,3.26,3.26,0,0,1-.55-1.89h2.29c0,1.23.73,1.84,2.19,1.84a2.15,2.15,0,0,0,1.27-.33A1.1,1.1,0,0,0,352.4,78.89Z"/><path class="cls-1" d="M358.52,77.9v3.9h-2.28V70.73h4.31a5.09,5.09,0,0,1,2.2.45,3.4,3.4,0,0,1,1.45,1.3,3.62,3.62,0,0,1,.51,1.91A3.19,3.19,0,0,1,363.6,77a4.66,4.66,0,0,1-3.08.94Zm0-1.85h2a2,2,0,0,0,1.38-.43,1.53,1.53,0,0,0,.48-1.21,1.83,1.83,0,0,0-.48-1.32,1.81,1.81,0,0,0-1.32-.52h-2.09Z"/><path class="cls-1" d="M371.17,79.51h-4l-.76,2.29H364l4.12-11.07h2.11l4.15,11.07h-2.43Zm-3.38-1.84h2.77l-1.39-4.15Z"/><path class="cls-1" d="M384.4,81.8h-2.28l-4.44-7.29V81.8H375.4V70.73h2.28l4.45,7.3v-7.3h2.27Zm-1.61-13.93a2.16,2.16,0,0,1-.5,1.44,1.55,1.55,0,0,1-1.22.58,2,2,0,0,1-.52-.06,4.61,4.61,0,0,1-.62-.28,3,3,0,0,0-.57-.26,1.13,1.13,0,0,0-.38-.05.58.58,0,0,0-.45.19.74.74,0,0,0-.19.54l-1.27-.08a2.19,2.19,0,0,1,.49-1.44,1.56,1.56,0,0,1,1.22-.59,1.44,1.44,0,0,1,.43.06,4.25,4.25,0,0,1,.66.28,5.73,5.73,0,0,0,.63.26,1.5,1.5,0,0,0,.37.05.68.68,0,0,0,.46-.19.7.7,0,0,0,.19-.54Z"/><path class="cls-1" d="M395.49,76.51a6.77,6.77,0,0,1-.58,2.87,4.45,4.45,0,0,1-1.65,1.9,4.9,4.9,0,0,1-4.93,0,4.4,4.4,0,0,1-1.67-1.89,6.65,6.65,0,0,1-.6-2.83V76a6.7,6.7,0,0,1,.59-2.88,4.38,4.38,0,0,1,1.66-1.91,4.63,4.63,0,0,1,2.46-.67,4.58,4.58,0,0,1,2.46.67,4.4,4.4,0,0,1,1.67,1.91,6.66,6.66,0,0,1,.59,2.87Zm-2.31-.5a4.65,4.65,0,0,0-.63-2.65,2,2,0,0,0-1.78-.9,2.05,2.05,0,0,0-1.77.89,4.71,4.71,0,0,0-.63,2.62v.54a4.76,4.76,0,0,0,.62,2.63,2,2,0,0,0,1.8.94,2,2,0,0,0,1.76-.9,4.74,4.74,0,0,0,.63-2.63Z"/><path class="cls-1" d="M399.43,80h4.84V81.8h-7.13V70.73h2.29Z"/><path class="cls-1" d="M412,79.51h-4l-.76,2.29h-2.43l4.13-11.07H411l4.14,11.07h-2.42Zm-3.38-1.84h2.76L410,73.52Z"/><path class="cls-1" d="M420.07,81.8V70.73h3.41a5.26,5.26,0,0,1,2.61.65,4.63,4.63,0,0,1,1.8,1.87,5.8,5.8,0,0,1,.65,2.76v.51a5.8,5.8,0,0,1-.64,2.74,4.49,4.49,0,0,1-1.79,1.87,5.28,5.28,0,0,1-2.61.67Zm2.29-9.23V80h1.1a2.47,2.47,0,0,0,2-.87,4,4,0,0,0,.72-2.5V76a4.07,4.07,0,0,0-.69-2.56,2.48,2.48,0,0,0-2-.87Z"/><path class="cls-1" d="M436.85,77h-4.38v3h5.14V81.8h-7.42V70.73h7.41v1.84h-5.13v2.64h4.38Z"/><path class="cls-1" d="M164,98.33a3.86,3.86,0,0,1-1.32,2.81,4.6,4.6,0,0,1-3.13,1,4.18,4.18,0,0,1-3.35-1.43A5.86,5.86,0,0,1,155,96.8v-.68a6.56,6.56,0,0,1,.56-2.81,4.2,4.2,0,0,1,1.61-1.86,4.45,4.45,0,0,1,2.43-.66,4.53,4.53,0,0,1,3.08,1A4.28,4.28,0,0,1,164,94.7h-2.28a2.34,2.34,0,0,0-.6-1.55,2.21,2.21,0,0,0-1.56-.48,2,2,0,0,0-1.71.81,4.58,4.58,0,0,0-.58,2.54v.83a5,5,0,0,0,.54,2.63,1.92,1.92,0,0,0,1.72.83,2.19,2.19,0,0,0,1.57-.49,2.16,2.16,0,0,0,.6-1.49Z"/><path class="cls-1" d="M173.86,91v7.29a3.71,3.71,0,0,1-1.14,2.87,5.09,5.09,0,0,1-6.18,0,3.68,3.68,0,0,1-1.17-2.82V91h2.28v7.3a2.14,2.14,0,0,0,.52,1.59,2,2,0,0,0,1.45.5c1.28,0,1.93-.68,1.95-2V91Z"/><path class="cls-1" d="M178.15,102h-2.28V91h2.28Z"/><path class="cls-1" d="M180.27,102V91h3.4a5.21,5.21,0,0,1,2.61.65,4.6,4.6,0,0,1,1.8,1.88,5.73,5.73,0,0,1,.65,2.75v.51a5.75,5.75,0,0,1-.64,2.75,4.52,4.52,0,0,1-1.79,1.86,5.27,5.27,0,0,1-2.6.67Zm2.28-9.23v7.39h1.1a2.51,2.51,0,0,0,2-.87,4,4,0,0,0,.72-2.5v-.59a4,4,0,0,0-.7-2.55,2.46,2.46,0,0,0-2.05-.88Z"/><path class="cls-1" d="M196.63,99.74h-4l-.76,2.28h-2.43L193.57,91h2.11L199.83,102H197.4Zm-3.38-1.85H196l-1.39-4.14Z"/><path class="cls-1" d="M200.86,102V91h3.41a5.26,5.26,0,0,1,2.61.65,4.6,4.6,0,0,1,1.8,1.88,5.72,5.72,0,0,1,.64,2.75v.51a5.87,5.87,0,0,1-.63,2.75,4.58,4.58,0,0,1-1.79,1.86,5.28,5.28,0,0,1-2.61.67Zm2.28-9.23v7.39h1.1a2.48,2.48,0,0,0,2-.87,4,4,0,0,0,.72-2.5v-.59a4,4,0,0,0-.7-2.55,2.44,2.44,0,0,0-2-.88Z"/><path class="cls-1" d="M220.07,96.73a6.63,6.63,0,0,1-.58,2.87,4.32,4.32,0,0,1-1.65,1.9,4.55,4.55,0,0,1-2.47.67,4.61,4.61,0,0,1-2.45-.66,4.34,4.34,0,0,1-1.67-1.89,6.37,6.37,0,0,1-.6-2.83v-.54a6.56,6.56,0,0,1,.59-2.88,4.32,4.32,0,0,1,1.66-1.91,4.85,4.85,0,0,1,4.92,0,4.32,4.32,0,0,1,1.66,1.91,6.51,6.51,0,0,1,.59,2.87Zm-2.31-.5a4.74,4.74,0,0,0-.62-2.65,2.21,2.21,0,0,0-3.55,0,4.54,4.54,0,0,0-.63,2.62v.54a4.67,4.67,0,0,0,.62,2.63,2.18,2.18,0,0,0,3.56,0,4.67,4.67,0,0,0,.62-2.63Z"/><path class="cls-1" d="M227.47,99.11a1.15,1.15,0,0,0-.46-1,6.05,6.05,0,0,0-1.64-.73,11.85,11.85,0,0,1-1.88-.76,3.06,3.06,0,0,1-1.88-2.74,2.71,2.71,0,0,1,.5-1.6,3.31,3.31,0,0,1,1.46-1.1,5.52,5.52,0,0,1,2.12-.4,5,5,0,0,1,2.11.43,3.49,3.49,0,0,1,1.45,1.22,3.17,3.17,0,0,1,.51,1.78h-2.28A1.52,1.52,0,0,0,227,93a2,2,0,0,0-1.35-.42,2.09,2.09,0,0,0-1.3.36,1.09,1.09,0,0,0-.46.93,1.06,1.06,0,0,0,.54.9,6.71,6.71,0,0,0,1.6.69,6.87,6.87,0,0,1,2.84,1.45,2.91,2.91,0,0,1,.89,2.16,2.65,2.65,0,0,1-1.09,2.25,4.72,4.72,0,0,1-2.93.82,5.66,5.66,0,0,1-2.32-.47,3.69,3.69,0,0,1-1.6-1.28,3.26,3.26,0,0,1-.55-1.89h2.28c0,1.23.74,1.84,2.19,1.84A2.11,2.11,0,0,0,227,100,1.07,1.07,0,0,0,227.47,99.11Z"/><path class="cls-1" d="M237.6,102h-2.28V91h2.28Z"/><path class="cls-1" d="M248.72,102h-2.28L242,94.73V102h-2.28V91H242l4.45,7.3V91h2.27Z"/><path class="cls-1" d="M259,92.79h-3.39V102h-2.28V92.79H250V91h9Z"/><path class="cls-1" d="M267,97.22h-4.38v3h5.14V102h-7.42V91h7.41v1.84h-5.13v2.64H267Z"/><path class="cls-1" d="M278.1,102h-2.28l-4.44-7.29V102H269.1V91h2.28l4.45,7.3V91h2.27Z"/><path class="cls-1" d="M285.84,99.11a1.18,1.18,0,0,0-.46-1,6.05,6.05,0,0,0-1.64-.73,11.85,11.85,0,0,1-1.88-.76A3.05,3.05,0,0,1,280,93.89a2.65,2.65,0,0,1,.51-1.6,3.28,3.28,0,0,1,1.45-1.1,5.54,5.54,0,0,1,2.13-.4,5.06,5.06,0,0,1,2.11.43,3.4,3.4,0,0,1,1.44,1.22,3.17,3.17,0,0,1,.51,1.78h-2.28a1.52,1.52,0,0,0-.48-1.19,2,2,0,0,0-1.34-.42,2.07,2.07,0,0,0-1.3.36,1.1,1.1,0,0,0-.47.93,1.07,1.07,0,0,0,.55.9,6.36,6.36,0,0,0,1.6.69,6.82,6.82,0,0,1,2.83,1.45,2.87,2.87,0,0,1,.89,2.16,2.67,2.67,0,0,1-1.08,2.25,4.74,4.74,0,0,1-2.93.82,5.7,5.7,0,0,1-2.33-.47,3.69,3.69,0,0,1-1.6-1.28,3.33,3.33,0,0,1-.55-1.89h2.29c0,1.23.73,1.84,2.19,1.84a2.13,2.13,0,0,0,1.27-.33A1.09,1.09,0,0,0,285.84,99.11Z"/><path class="cls-1" d="M292.09,102h-2.28V91h2.28Z"/><path class="cls-1" d="M298.3,99.27,300.8,91h2.54L299.49,102h-2.38L293.27,91h2.53Z"/><path class="cls-1" d="M313.38,96.73a6.63,6.63,0,0,1-.58,2.87,4.32,4.32,0,0,1-1.65,1.9,4.88,4.88,0,0,1-4.92,0,4.43,4.43,0,0,1-1.68-1.89,6.65,6.65,0,0,1-.6-2.83v-.54a6.7,6.7,0,0,1,.59-2.88,4.34,4.34,0,0,1,1.67-1.91,4.58,4.58,0,0,1,2.46-.67,4.63,4.63,0,0,1,2.46.67,4.38,4.38,0,0,1,1.66,1.91,6.66,6.66,0,0,1,.59,2.87Zm-2.31-.5a4.74,4.74,0,0,0-.62-2.65,2.22,2.22,0,0,0-3.56,0,4.71,4.71,0,0,0-.63,2.62v.54a4.67,4.67,0,0,0,.63,2.63,2.18,2.18,0,0,0,3.56,0,4.75,4.75,0,0,0,.62-2.63Z"/><path class="cls-1" d="M320.78,99.11a1.18,1.18,0,0,0-.46-1,6.05,6.05,0,0,0-1.64-.73,11.85,11.85,0,0,1-1.88-.76,3.05,3.05,0,0,1-1.89-2.74,2.65,2.65,0,0,1,.51-1.6,3.28,3.28,0,0,1,1.45-1.1,5.54,5.54,0,0,1,2.13-.4,5.06,5.06,0,0,1,2.11.43,3.4,3.4,0,0,1,1.44,1.22,3.18,3.18,0,0,1,.52,1.78h-2.28a1.55,1.55,0,0,0-.48-1.19,2,2,0,0,0-1.35-.42,2.07,2.07,0,0,0-1.3.36,1.09,1.09,0,0,0-.46.93,1.06,1.06,0,0,0,.54.9,6.53,6.53,0,0,0,1.6.69,6.94,6.94,0,0,1,2.84,1.45,2.91,2.91,0,0,1,.89,2.16,2.67,2.67,0,0,1-1.09,2.25,4.74,4.74,0,0,1-2.93.82,5.7,5.7,0,0,1-2.33-.47,3.75,3.75,0,0,1-1.6-1.28,3.33,3.33,0,0,1-.55-1.89h2.29c0,1.23.73,1.84,2.19,1.84a2.13,2.13,0,0,0,1.27-.33A1.09,1.09,0,0,0,320.78,99.11Z"/><path class="cls-1" d="M330.77,98.12V102h-2.28V91h4.31a5.09,5.09,0,0,1,2.2.45,3.4,3.4,0,0,1,1.45,1.3,3.62,3.62,0,0,1,.51,1.91,3.19,3.19,0,0,1-1.11,2.57,4.66,4.66,0,0,1-3.08.94Zm0-1.85h2a2,2,0,0,0,1.38-.43,1.53,1.53,0,0,0,.48-1.21,1.83,1.83,0,0,0-.48-1.32,1.81,1.81,0,0,0-1.32-.52h-2.09Z"/><path class="cls-1" d="M345.19,97.22h-4.38v3H346V102h-7.42V91h7.4v1.84h-5.12v2.64h4.38Z"/><path class="cls-1" d="M347.29,102V91h3.4a5.21,5.21,0,0,1,2.61.65,4.6,4.6,0,0,1,1.8,1.88,5.73,5.73,0,0,1,.65,2.75v.51a5.75,5.75,0,0,1-.64,2.75,4.52,4.52,0,0,1-1.79,1.86,5.27,5.27,0,0,1-2.6.67Zm2.28-9.23v7.39h1.1a2.51,2.51,0,0,0,2.05-.87,4,4,0,0,0,.72-2.5v-.59a4,4,0,0,0-.7-2.55,2.46,2.46,0,0,0-2.05-.88Z"/><path class="cls-1" d="M359.83,102h-2.28V91h2.28Z"/><path class="cls-1" d="M368.19,99.74h-4l-.76,2.28H361L365.13,91h2.11L371.39,102H369Zm-3.38-1.85h2.77l-1.39-4.14ZM366.66,88h2.39L367,90.34h-1.79Z"/><path class="cls-1" d="M380.75,92.79h-3.39V102h-2.28V92.79h-3.34V91h9Z"/><path class="cls-1" d="M386.15,98h-1.82V102h-2.28V91h4.12a4.66,4.66,0,0,1,3,.87,3,3,0,0,1,1.07,2.47,3.44,3.44,0,0,1-.49,1.89,3.37,3.37,0,0,1-1.49,1.21l2.39,4.52V102h-2.44Zm-1.82-1.84h1.84a1.87,1.87,0,0,0,1.33-.44,1.55,1.55,0,0,0,.48-1.21,1.66,1.66,0,0,0-.45-1.23,1.83,1.83,0,0,0-1.36-.45h-1.84Z"/><path class="cls-1" d="M394.41,102h-2.28V91h2.28Z"/><path class="cls-1" d="M405.22,98.33a3.93,3.93,0,0,1-1.32,2.81,4.61,4.61,0,0,1-3.14,1,4.19,4.19,0,0,1-3.35-1.43,5.91,5.91,0,0,1-1.22-3.94v-.68a6.56,6.56,0,0,1,.57-2.81,4.18,4.18,0,0,1,1.6-1.86,4.47,4.47,0,0,1,2.43-.66,4.54,4.54,0,0,1,3.09,1,4.22,4.22,0,0,1,1.35,2.88H403a2.29,2.29,0,0,0-.59-1.55,2.25,2.25,0,0,0-1.57-.48,1.92,1.92,0,0,0-1.7.81A4.57,4.57,0,0,0,398.5,96v.83a5,5,0,0,0,.55,2.63,1.9,1.9,0,0,0,1.71.83,2.22,2.22,0,0,0,1.58-.49,2.16,2.16,0,0,0,.6-1.49Z"/><path class="cls-1" d="M415.81,96.73a6.63,6.63,0,0,1-.58,2.87,4.38,4.38,0,0,1-1.65,1.9,4.55,4.55,0,0,1-2.47.67,4.62,4.62,0,0,1-2.46-.66A4.4,4.4,0,0,1,407,99.62a6.65,6.65,0,0,1-.6-2.83v-.54a6.7,6.7,0,0,1,.59-2.88,4.34,4.34,0,0,1,1.67-1.91,4.83,4.83,0,0,1,4.91,0,4.34,4.34,0,0,1,1.67,1.91,6.66,6.66,0,0,1,.59,2.87Zm-2.31-.5a4.65,4.65,0,0,0-.63-2.65,2,2,0,0,0-1.78-.9,2.05,2.05,0,0,0-1.77.89,4.71,4.71,0,0,0-.63,2.62v.54a4.67,4.67,0,0,0,.63,2.63,2.17,2.17,0,0,0,3.55,0,4.74,4.74,0,0,0,.63-2.63Z"/><path class="cls-1" d="M423.21,99.11a1.18,1.18,0,0,0-.46-1,6.05,6.05,0,0,0-1.64-.73,11.85,11.85,0,0,1-1.88-.76,3.05,3.05,0,0,1-1.89-2.74,2.65,2.65,0,0,1,.51-1.6,3.28,3.28,0,0,1,1.45-1.1,5.54,5.54,0,0,1,2.13-.4,5.06,5.06,0,0,1,2.11.43A3.4,3.4,0,0,1,425,92.44a3.17,3.17,0,0,1,.51,1.78h-2.28a1.52,1.52,0,0,0-.48-1.19,2,2,0,0,0-1.34-.42,2.07,2.07,0,0,0-1.3.36,1.1,1.1,0,0,0-.47.93,1.07,1.07,0,0,0,.55.9,6.36,6.36,0,0,0,1.6.69,6.82,6.82,0,0,1,2.83,1.45,2.87,2.87,0,0,1,.89,2.16,2.67,2.67,0,0,1-1.08,2.25,4.74,4.74,0,0,1-2.93.82,5.7,5.7,0,0,1-2.33-.47,3.69,3.69,0,0,1-1.6-1.28,3.33,3.33,0,0,1-.55-1.89h2.29c0,1.23.73,1.84,2.19,1.84a2.13,2.13,0,0,0,1.27-.33A1.09,1.09,0,0,0,423.21,99.11Z"/><circle class="cls-1" cx="115.78" cy="61.1" r="10.69"/><polygon class="cls-1" points="57.94 52.35 48.22 52.35 48.22 46.52 51.62 46.52 51.62 42.15 43.84 42.15 43.84 46.52 46.76 46.52 46.76 52.35 46.76 53.81 57.94 53.81 57.94 73.74 59.4 73.74 59.4 52.35 57.94 52.35"/><path class="cls-1" d="M130.36,74.71c-2.54-1.17-5.3-.12-6.8.49a103.62,103.62,0,0,0-17.5,9.24c-4.19,2.85-7.93,5.47-11.18,7.77H87.1a4.86,4.86,0,0,0,2.43-3.89,4.79,4.79,0,0,0-1.94-3.88H67.66V80.55H82.73l19-12.66a1.41,1.41,0,0,0-1.44-2.42l-15.7,8.27H57L24.89,65.48l-22.36,19v3.3a1.72,1.72,0,0,0,2.81,1.33L20.51,76.66l29.15,3.89h4.39v3.89H40.93a29.14,29.14,0,0,0-12.64-4.38,13.67,13.67,0,0,0-7.78,1A21.66,21.66,0,0,0,16.62,84c-3.93,3.32-3.68,3.64-5.34,4.86C6.76,92.12,4,90.47,1.55,93.67A6.13,6.13,0,0,0,.1,98.53a5.64,5.64,0,0,0,2.43,3.4H95.36l37-25.76A6.1,6.1,0,0,0,130.36,74.71ZM66.2,84.44H61.83V80.55H66.2ZM55.51,80.55h4.86v3.89H55.51Z"/><path class="cls-1" d="M47.73,13.47c10.81,0,19.94,2.35,22.85,5.58V.83H25.86V18.17C29.51,15.4,37.93,13.47,47.73,13.47Z"/><path class="cls-1" d="M48.7,29.51c-10.81,0-19.94-2.35-22.84-5.58V42.15H70.58V24.81C66.92,27.58,58.51,29.51,48.7,29.51Z"/><polygon class="cls-1" points="55.63 25.98 53.91 21.59 52.82 24.06 46.12 23.54 43.48 21.11 38.18 25.04 36.53 17.92 34.56 25.6 30.63 21.67 28.82 23.48 25.86 23.48 25.86 22.75 28.52 22.75 30.63 20.64 34.17 24.18 36.57 14.85 38.64 23.79 43.52 20.17 46.43 22.84 52.36 23.29 53.94 19.69 55.56 23.81 58.39 15.01 60.17 22.83 65.07 22.83 67.6 20.14 70.8 22.7 70.35 23.27 67.67 21.13 65.39 23.55 59.59 23.55 58.27 17.76 55.63 25.98"/></g></g></svg>