<svg xmlns="http://www.w3.org/2000/svg" viewBox="0 0 378.69 155.94"><defs><style>.cls-1{fill:#f5333f;}.cls-1,.cls-2{fill-rule:evenodd;}.cls-2,.cls-3{fill:#095540;}</style></defs><g id="Capa_2" data-name="Capa 2"><g id="Capa_1-2" data-name="Capa 1"><polyline class="cls-1" points="39.24 0 38.35 0 38.56 2.35 36.36 1.5 36.06 2.37 38.45 2.87 36.89 4.67 37.64 5.18 38.81 3.1 39.95 5.18 40.68 4.59 39.16 2.87 41.5 2.31 41.23 1.47 39.06 2.35 39.24 0"/><polyline class="cls-1" points="30.63 0 29.73 0 29.94 2.35 27.73 1.5 27.44 2.37 29.83 2.87 28.27 4.67 29.02 5.18 30.19 3.1 31.32 5.18 32.06 4.59 30.54 2.87 32.88 2.31 32.61 1.47 30.45 2.35 30.63 0"/><polyline class="cls-1" points="47.93 0 47.03 0 47.24 2.35 45.04 1.5 44.74 2.37 47.13 2.87 45.58 4.67 46.33 5.18 47.49 3.1 48.63 5.18 49.36 4.59 47.85 2.87 50.18 2.31 49.91 1.47 47.75 2.35 47.93 0"/><polyline class="cls-1" points="56.57 0 55.68 0 55.89 2.35 53.69 1.5 53.38 2.37 55.78 2.87 54.23 4.67 54.97 5.18 56.14 3.1 57.28 5.18 58.01 4.59 56.49 2.87 58.83 2.31 58.56 1.47 56.39 2.35 56.57 0"/><polyline class="cls-1" points="43.57 7.97 42.66 7.97 42.88 10.32 40.68 9.47 40.38 10.34 42.76 10.84 41.21 12.64 41.97 13.14 43.13 11.07 44.27 13.14 45 12.55 43.48 10.84 45.82 10.27 45.55 9.44 43.38 10.32 43.57 7.97"/><polyline class="cls-1" points="34.95 7.97 34.05 7.97 34.26 10.32 32.06 9.47 31.76 10.34 34.15 10.84 32.6 12.64 33.35 13.14 34.52 11.07 35.65 13.14 36.38 12.55 34.87 10.84 37.2 10.27 36.93 9.44 34.77 10.32 34.95 7.97"/><polyline class="cls-1" points="52.25 7.97 51.35 7.97 51.57 10.32 49.36 9.47 49.06 10.34 51.45 10.84 49.9 12.64 50.65 13.14 51.81 11.07 52.95 13.14 53.69 12.55 52.17 10.84 54.51 10.27 54.24 9.44 52.06 10.32 52.25 7.97"/><polyline class="cls-1" points="34.2 32.92 43.12 45.23 52.06 32.92 52.06 51.32 64.72 51.32 64.72 16.11 53.66 16.11 43.12 30.36 32.59 16.11 21.55 16.1 21.55 51.32 34.2 51.32 34.2 32.92"/><path class="cls-2" d="M0,51.32H21.55v63c0,14.57,8.53,20.71,21.54,20.71s21.63-6.14,21.63-20.71v-63H86.33v63.19c0,29.14-17.23,41.43-43.26,41.43S0,143.65,0,114.51V51.32"/><path class="cls-2" d="M34.2,51.32H52.07v62.93c0,6.32-2.84,9.62-9,9.62s-8.89-3.3-8.89-9.62V51.32"/><path class="cls-2" d="M112.21,51.44v23c-1.51,1.35-3.13,2.74-4.59,2.74-1.9,0-2.58-1.34-2.58-3.35V51.44H98v23.2c0,5.66,2.24,7.85,6.56,7.85,2.91,0,5.32-1.8,7.9-4v3.47h6.83V51.44h-7.06"/><path class="cls-2" d="M140.22,75A5.58,5.58,0,0,1,136,77.21c-1.9,0-3.47-1.23-3.47-7.27V63.43c0-6,1.57-7.28,3.47-7.28a5.6,5.6,0,0,1,4.25,2.19V75m7.07,6.89V41.47h-7.07V54.25c-3.35-2.46-5.15-3.37-7.05-3.37-5.49,0-7.73,4.27-7.73,12.11v7.39c0,7.85,2.24,12.11,7.73,12.11,3.13,0,6.27-2.36,7.51-4.26h.1v3.69Z"/><path class="cls-2" d="M154.91,51.44V81.92H162V51.44ZM162,46.18V39.8h-7.06v6.38Z"/><path class="cls-1" d="M169.57,81.92h7.06v-23c.84-1.18,2.86-2.75,4.37-2.75,1.12,0,1.9.56,1.9,2.58V81.92H190v-23c.9-1.18,3.08-2.75,4.43-2.75,1.12,0,1.84.56,1.84,2.58V81.92h7.07V59c0-5.49-2.19-8.08-6.44-8.08-3.09,0-5.32,2.19-7.51,4.61-.85-2.81-2.76-4.61-5.38-4.61-3,0-5.26,2-7.57,4V51.44h-6.83V81.92"/><path class="cls-1" d="M216.39,60.35a3.8,3.8,0,0,1,3.93-3.75A3.31,3.31,0,0,1,224,60.25v2.23c-8.8,2.64-15.53,5.66-15.53,12.72,0,4.93,2.74,7.29,7,7.29a11.63,11.63,0,0,0,8.4-3.53c.23,1.23.34,2.18.5,3h7.06a9.17,9.17,0,0,1-.39-2.47V60.13c0-5.43-2.86-9.25-10.37-9.25-5.65,0-10.8,2.69-11.31,9.47h7M224,74.42c-1.69,1.67-3.2,2.79-5.32,2.79A2.92,2.92,0,0,1,215.51,74c0-3.19,4.25-5.54,8.46-7Z"/><path class="cls-2" d="M98.41,134.62h5.11a6.63,6.63,0,0,0,7-6.57c0-3.08-2.13-6.54-7-6.54H98.41v13.11m1.89-11.43h2.9c3.66,0,5.34,2.24,5.34,4.86,0,1.62-1,4.86-5.25,4.86h-3Z"/><polyline class="cls-2" points="122.16 121.51 114.73 121.51 114.73 134.62 122.33 134.62 122.33 132.91 116.6 132.91 116.6 128.84 121.97 128.84 121.97 127.16 116.6 127.16 116.6 123.19 122.16 123.19 122.16 121.51"/><polyline class="cls-2" points="145.7 121.51 143.95 121.51 139.59 126.88 135.25 121.51 133.48 121.51 133.48 134.62 135.36 134.62 135.36 124.41 135.4 124.41 139.44 129.48 139.74 129.48 143.77 124.41 143.81 124.41 143.81 134.62 145.7 134.62 145.7 121.51"/><path class="cls-2" d="M156,121.43h-1.33L149,134.62h1.92l1.65-3.88h5.58l1.75,3.88h1.91L156,121.43m-.69,2.88,2.11,4.74h-4.07Z"/><path class="cls-2" d="M165.2,134.62h5.11a6.63,6.63,0,0,0,7-6.57c0-3.08-2.13-6.54-7-6.54h-5.1v13.11m1.88-11.43H170c3.68,0,5.35,2.24,5.35,4.86,0,1.62-1,4.86-5.24,4.86h-3Z"/><path class="cls-2" d="M181.55,121.51v13.11h1.9v-5.7h.77c1,0,1.76.3,3.49,3l1.73,2.71h2.24c-.9-1.26-1.23-1.71-1.79-2.61a10.66,10.66,0,0,0-2.92-3.63,3.28,3.28,0,0,0,2.19-3.21c0-2.26-1.65-3.66-4.3-3.66h-3.31m1.9,1.6h1.2c1.83,0,2.55.76,2.57,2s-.55,2.12-2.57,2.12h-1.2Z"/><rect class="cls-3" x="195.06" y="121.51" width="1.88" height="13.11"/><path class="cls-2" d="M201.78,134.62h5.12a6.64,6.64,0,0,0,7-6.57c0-3.08-2.14-6.54-7-6.54h-5.1v13.11m1.89-11.43h2.9c3.67,0,5.34,2.24,5.34,4.86,0,1.62-1,4.86-5.24,4.86h-3Z"/><path class="cls-2" d="M110.15,98.18h-1.89v7.62a3.83,3.83,0,0,1-.83,2.86,4.24,4.24,0,0,1-3.06,1.06,3.83,3.83,0,0,1-2.83-1.12c-.6-.59-.79-1.21-.79-2.68V98.18H98.87v8.14c0,3.57,2.69,5.13,5.45,5.13,3.9,0,5.83-2.12,5.83-5.32V98.18"/><polyline class="cls-2" points="126.78 98.18 125.02 98.18 125.02 108.33 116.13 98.18 114.64 98.18 114.64 111.27 116.41 111.27 116.41 101.18 125.17 111.27 126.78 111.27 126.78 98.18"/><rect class="cls-3" x="131.6" y="98.18" width="1.89" height="13.09"/><polyline class="cls-2" points="148.47 98.18 146.61 98.18 142.69 107.37 138.75 98.18 136.87 98.18 142.54 111.39 142.92 111.39 148.47 98.18"/><polyline class="cls-2" points="159.27 98.18 151.83 98.18 151.83 111.27 159.44 111.27 159.44 109.58 153.72 109.58 153.72 105.51 159.07 105.51 159.07 103.82 153.72 103.82 153.72 99.86 159.27 99.86 159.27 98.18"/><path class="cls-2" d="M163.4,98.18v13.09h1.88v-5.68h.79c1,0,1.75.3,3.48,3l1.72,2.69h2.26c-.91-1.25-1.23-1.69-1.79-2.58a10.62,10.62,0,0,0-2.92-3.64,3.28,3.28,0,0,0,2.19-3.21c0-2.27-1.66-3.66-4.3-3.66H163.4m1.88,1.6h1.21c1.83,0,2.56.75,2.58,2s-.56,2.13-2.58,2.13h-1.21Z"/><path class="cls-2" d="M183.11,98.92a5.23,5.23,0,0,0-2.92-.91c-2.4,0-4,1.36-4,3.49,0,3.58,5.66,3.89,5.66,6.61,0,.72-.68,1.64-2.13,1.64a4.39,4.39,0,0,1-3.46-1.9v2.39a5.83,5.83,0,0,0,3.67,1.21,3.51,3.51,0,0,0,3.67-3.56c0-4.17-5.67-4.13-5.67-6.64,0-.92.87-1.56,2.08-1.56a4.39,4.39,0,0,1,3.07,1.36V98.92"/><rect class="cls-3" x="187.62" y="98.18" width="1.88" height="13.09"/><path class="cls-2" d="M194.35,111.27h5.11a6.62,6.62,0,0,0,6.95-6.55c0-3.09-2.13-6.54-7-6.54h-5.09v13.09m1.88-11.41h2.9c3.67,0,5.34,2.24,5.34,4.86,0,1.62-1,4.86-5.24,4.86h-3Z"/><path class="cls-2" d="M215.12,98.1h-1.33l-5.63,13.17h1.92l1.65-3.86h5.58l1.75,3.86H221L215.12,98.1m-.69,2.87,2.11,4.76h-4.07Z"/><path class="cls-2" d="M224.36,111.27h5.11a6.62,6.62,0,0,0,7-6.55c0-3.09-2.13-6.54-7-6.54h-5.1v13.09m1.88-11.41h2.91c3.67,0,5.34,2.24,5.34,4.86,0,1.62-1,4.86-5.24,4.86h-3Z"/><path class="cls-2" d="M251.53,98.1H250.2l-5.63,13.17h1.93l1.65-3.86h5.57l1.75,3.86h1.92L251.53,98.1m-.69,2.87,2.12,4.76h-4.08Z"/><path class="cls-2" d="M268,111.27h5.11a6.63,6.63,0,0,0,7-6.55c0-3.09-2.14-6.54-7-6.54H268v13.09m1.88-11.41h2.9c3.67,0,5.35,2.24,5.35,4.86,0,1.62-1,4.86-5.25,4.86h-3Z"/><rect class="cls-3" x="284.37" y="98.18" width="1.88" height="13.09"/><path class="cls-2" d="M297.31,98.92a5.28,5.28,0,0,0-2.92-.91c-2.41,0-4,1.36-4,3.49,0,3.58,5.67,3.89,5.67,6.61,0,.72-.67,1.64-2.13,1.64a4.37,4.37,0,0,1-3.45-1.9v2.39a5.76,5.76,0,0,0,3.66,1.21,3.51,3.51,0,0,0,3.67-3.56c0-4.17-5.67-4.13-5.67-6.64,0-.92.88-1.56,2.08-1.56a4.39,4.39,0,0,1,3.08,1.36V98.92"/><polyline class="cls-2" points="311.64 98.18 300.68 98.18 300.68 99.86 305.21 99.86 305.21 111.27 307.1 111.27 307.1 99.86 311.64 99.86 311.64 98.18"/><path class="cls-2" d="M318.91,98.1h-1.33L312,111.27h1.92l1.66-3.86h5.57l1.74,3.86h1.92L318.91,98.1m-.69,2.87,2.11,4.76h-4.07Z"/><polyline class="cls-2" points="340.25 98.18 338.49 98.18 338.49 108.33 329.62 98.18 328.11 98.18 328.11 111.27 329.88 111.27 329.88 101.18 338.65 111.27 340.25 111.27 340.25 98.18"/><path class="cls-2" d="M356.23,99.08a11.33,11.33,0,0,0-4.5-1.07,6.83,6.83,0,0,0-7.19,6.9,6.71,6.71,0,0,0,7.07,6.54,9.69,9.69,0,0,0,4.76-1.15v-2.06a8.73,8.73,0,0,1-4.59,1.48c-3.14,0-5.29-2-5.29-5a5,5,0,0,1,5.22-5,8.63,8.63,0,0,1,4.52,1.36v-2"/><rect class="cls-3" x="360.61" y="98.18" width="1.86" height="13.09"/><path class="cls-2" d="M372.83,98.1H371.5l-5.63,13.17h1.92l1.65-3.86H375l1.76,3.86h1.92L372.83,98.1m-.7,2.87,2.12,4.76h-4.07Z"/></g></g></svg>