<svg xmlns="http://www.w3.org/2000/svg" viewBox="0 0 352 274.15"><defs><style>.cls-1{fill:#fff;}</style></defs><g id="Capa_2" data-name="Capa 2"><g id="Capa_1-2" data-name="Capa 1"><path class="cls-1" d="M176,0a71.64,71.64,0,1,0,71.64,71.64A71.63,71.63,0,0,0,176,0Zm0,128.62a57,57,0,1,1,57-57A57,57,0,0,1,176,128.62Z"/><circle class="cls-1" cx="175.44" cy="23.69" r="11.28"/><path class="cls-1" d="M180.67,57l29.74-33.45c-3.09.14-18.61,1.17-28.5,13.63a34.5,34.5,0,0,0-6.19,12.38,34.38,34.38,0,0,0-6.2-12.38C159.63,24.73,144.11,23.7,141,23.56L170.76,57a74,74,0,0,0-8.67,23.55c-5.32,29.17,9.08,52.64,13.63,59.47,4.55-6.83,18.94-30.3,13.63-59.47A74,74,0,0,0,180.67,57Z"/><path class="cls-1" d="M57.4,156.6l36,77.3H85.1L72.94,208.47H39.64l-12,25.43H19L55.5,156.6Zm-1,16.42L43.17,201H69.6Z"/><path class="cls-1" d="M180,169.58l-6,5.67a45.92,45.92,0,0,0-14.16-9.64,38.06,38.06,0,0,0-15-3.28,35.86,35.86,0,0,0-17.32,4.46,32.43,32.43,0,0,0-12.74,12.12,31.26,31.26,0,0,0-4.52,16.15,31.87,31.87,0,0,0,4.68,16.58A33.1,33.1,0,0,0,127.86,224a37.15,37.15,0,0,0,18.08,4.5q11.92,0,20.18-6.73a26.51,26.51,0,0,0,9.77-17.45H151.25v-7.46h33.32q-.1,17.93-10.65,28.46t-28.19,10.53q-21.43,0-33.95-14.61a38.8,38.8,0,0,1-9.61-26,39.87,39.87,0,0,1,5.52-20.44A39.1,39.1,0,0,1,122.82,160a44,44,0,0,1,21.76-5.34,48.43,48.43,0,0,1,18.49,3.55A55.31,55.31,0,0,1,180,169.58Z"/><path class="cls-1" d="M236.09,154.65q17.57,0,29.39,11.72a41,41,0,0,1,0,57.65,39.15,39.15,0,0,1-28.79,11.82q-17.19,0-29-11.77a38.68,38.68,0,0,1-11.84-28.48,41.2,41.2,0,0,1,5.39-20.65,39.83,39.83,0,0,1,34.84-20.29Zm.34,7.52a33,33,0,0,0-28.26,16.51,33.48,33.48,0,0,0-4.32,16.88,32.51,32.51,0,0,0,32.58,32.77A33.06,33.06,0,0,0,253.09,224,31.27,31.27,0,0,0,265,212a33.55,33.55,0,0,0,4.29-16.83A32.73,32.73,0,0,0,265,178.55,32.06,32.06,0,0,0,253,166.64,32.68,32.68,0,0,0,236.43,162.17Z"/><path class="cls-1" d="M292.82,156.6h38.73v7.57h-31v24.22h31V196h-31V233.9h-7.72Z"/><path class="cls-1" d="M9,257.54l3.89,8.35H12l-1.31-2.75H7.07l-1.3,2.75H4.84l3.94-8.35Zm-.11,1.77-1.43,3h2.86Z"/><path class="cls-1" d="M13.31,264.33l.71-.42c.5.91,1.08,1.37,1.73,1.37a1.67,1.67,0,0,0,.79-.19,1.37,1.37,0,0,0,.56-.53,1.34,1.34,0,0,0,.2-.69A1.44,1.44,0,0,0,17,263a7.07,7.07,0,0,0-1.43-1.34,7.09,7.09,0,0,1-1.3-1.14,2.1,2.1,0,0,1-.44-1.27,2,2,0,0,1,.26-1,1.79,1.79,0,0,1,.74-.7,2,2,0,0,1,1-.26,2.23,2.23,0,0,1,1.1.29,3.78,3.78,0,0,1,1.09,1.08l-.68.51a3.44,3.44,0,0,0-.81-.82,1.39,1.39,0,0,0-.72-.2,1.14,1.14,0,0,0-.83.31,1,1,0,0,0-.32.75,1.24,1.24,0,0,0,.12.53,1.84,1.84,0,0,0,.41.56c.11.1.47.38,1.08.83a6,6,0,0,1,1.48,1.42,2.32,2.32,0,0,1,.41,1.26,2.15,2.15,0,0,1-.69,1.58,2.35,2.35,0,0,1-1.68.67,2.46,2.46,0,0,1-1.38-.41A3.72,3.72,0,0,1,13.31,264.33Z"/><path class="cls-1" d="M23.94,257.33a4.34,4.34,0,0,1,3.17,1.26,4.41,4.41,0,0,1-6.24,6.23,4.17,4.17,0,0,1-1.28-3.07,4.43,4.43,0,0,1,.59-2.23,4.14,4.14,0,0,1,1.58-1.61A4.26,4.26,0,0,1,23.94,257.33Zm0,.81a3.45,3.45,0,0,0-1.76.48,3.52,3.52,0,0,0-1.3,1.3,3.66,3.66,0,0,0-.46,1.83A3.5,3.5,0,0,0,24,265.28a3.5,3.5,0,0,0,1.79-.47,3.2,3.2,0,0,0,1.29-1.29,3.59,3.59,0,0,0,.47-1.81,3.5,3.5,0,0,0-.47-1.8,3.36,3.36,0,0,0-1.3-1.29A3.55,3.55,0,0,0,24,258.14Z"/><path class="cls-1" d="M37.84,259.09l-.66.5a3.54,3.54,0,0,0-1.31-1.07,3.72,3.72,0,0,0-1.67-.37,3.67,3.67,0,0,0-1.85.48A3.41,3.41,0,0,0,31,259.92a3.48,3.48,0,0,0-.47,1.82,3.41,3.41,0,0,0,1.05,2.55,3.6,3.6,0,0,0,2.64,1,3.7,3.7,0,0,0,2.93-1.38l.66.5a4.27,4.27,0,0,1-1.56,1.23,4.87,4.87,0,0,1-2.08.44,4.29,4.29,0,0,1-4.52-4.44A4.14,4.14,0,0,1,31,258.58a4.42,4.42,0,0,1,3.23-1.25,4.73,4.73,0,0,1,2.11.46A4.13,4.13,0,0,1,37.84,259.09Z"/><path class="cls-1" d="M39.4,257.54h.83v8.35H39.4Z"/><path class="cls-1" d="M45.55,257.54l3.9,8.35h-.91l-1.31-2.75H43.64l-1.31,2.75H41.4l4-8.35Zm-.1,1.77-1.43,3h2.85Z"/><path class="cls-1" d="M58.52,259.09l-.66.5a3.62,3.62,0,0,0-1.31-1.07,3.89,3.89,0,0,0-3.53.11,3.41,3.41,0,0,0-1.32,1.29,3.58,3.58,0,0,0-.47,1.82,3.41,3.41,0,0,0,1.05,2.55,3.64,3.64,0,0,0,2.64,1,3.72,3.72,0,0,0,2.94-1.38l.66.5A4.27,4.27,0,0,1,57,265.66a4.92,4.92,0,0,1-2.09.44,4.33,4.33,0,0,1-3.45-1.46,4.39,4.39,0,0,1-1.07-3,4.11,4.11,0,0,1,1.29-3.08,4.41,4.41,0,0,1,3.22-1.25,4.7,4.7,0,0,1,2.11.46A4.16,4.16,0,0,1,58.52,259.09Z"/><path class="cls-1" d="M60.07,257.54h.83v8.35h-.83Z"/><path class="cls-1" d="M66.79,257.33A4.34,4.34,0,0,1,70,258.59a4.41,4.41,0,0,1-6.24,6.23,4.13,4.13,0,0,1-1.28-3.07,4.42,4.42,0,0,1,.58-2.23,4.3,4.3,0,0,1,3.76-2.19Zm0,.81a3.54,3.54,0,0,0-3,1.78,3.67,3.67,0,0,0-.47,1.83,3.5,3.5,0,0,0,3.52,3.53,3.51,3.51,0,0,0,1.8-.47,3.33,3.33,0,0,0,1.29-1.29,3.58,3.58,0,0,0,.46-1.81,3.5,3.5,0,0,0-.46-1.8,3.38,3.38,0,0,0-1.31-1.29A3.52,3.52,0,0,0,66.83,258.14Zm.41-3h1.22l-1.67,1.75H66Z"/><path class="cls-1" d="M72.92,265.89v-8.35h.19l5.55,6.4v-6.4h.83v8.35H79.3l-5.51-6.33v6.33Z"/><path class="cls-1" d="M84.74,265.89v-8.35h1.73a8.82,8.82,0,0,1,2.71.3,3.59,3.59,0,0,1,1.9,1.47,4.47,4.47,0,0,1,.69,2.51,4.37,4.37,0,0,1-.54,2.2,3.54,3.54,0,0,1-1.41,1.41,5.36,5.36,0,0,1-2.43.46Zm.8-.79h1a8.71,8.71,0,0,0,2.4-.22,2.74,2.74,0,0,0,1.48-1.1,3.39,3.39,0,0,0,.54-1.95,3.56,3.56,0,0,0-.58-2.06,3,3,0,0,0-1.63-1.18,9.9,9.9,0,0,0-2.58-.23h-.59Z"/><path class="cls-1" d="M93.39,257.54h4.78v.82h-4V261h3.92v.82H94.22v3.28h3.92v.82H93.39Z"/><path class="cls-1" d="M110.89,258.94l-.65.61a5.26,5.26,0,0,0-1.53-1,4,4,0,0,0-1.62-.35,3.89,3.89,0,0,0-1.87.48,3.55,3.55,0,0,0-1.38,1.31,3.42,3.42,0,0,0,0,3.53,3.61,3.61,0,0,0,1.4,1.34,4,4,0,0,0,1.95.48,3.37,3.37,0,0,0,2.18-.72,2.91,2.91,0,0,0,1-1.89h-2.66v-.8h3.6a4.19,4.19,0,0,1-1.15,3.07,4.1,4.1,0,0,1-3,1.14,4.58,4.58,0,0,1-3.67-1.58,4.22,4.22,0,0,1-1-2.81,4.37,4.37,0,0,1,2.23-3.81,4.81,4.81,0,0,1,2.35-.57,5.31,5.31,0,0,1,2,.38A6.26,6.26,0,0,1,110.89,258.94Z"/><path class="cls-1" d="M112.85,257.54h.84v8.35h-.84Z"/><path class="cls-1" d="M115.6,265.89v-8.35h.18l5.56,6.4v-6.4h.82v8.35H122l-5.51-6.33v6.33Z"/><path class="cls-1" d="M124.2,257.54H129v.82h-4V261H129v.82H125v3.28H129v.82H124.2Z"/><path class="cls-1" d="M138.2,259.09l-.66.5a3.59,3.59,0,0,0-1.3-1.07,3.76,3.76,0,0,0-1.68-.37,3.7,3.7,0,0,0-1.85.48,3.41,3.41,0,0,0-1.32,1.29,3.58,3.58,0,0,0-.47,1.82,3.41,3.41,0,0,0,1.05,2.55,3.64,3.64,0,0,0,2.64,1,3.69,3.69,0,0,0,2.93-1.38l.66.5a4.11,4.11,0,0,1-1.56,1.23,4.84,4.84,0,0,1-2.08.44,4.36,4.36,0,0,1-3.46-1.46,4.44,4.44,0,0,1-1.06-3,4.11,4.11,0,0,1,1.29-3.08,4.4,4.4,0,0,1,3.22-1.25,4.7,4.7,0,0,1,2.11.46A4.05,4.05,0,0,1,138.2,259.09Z"/><path class="cls-1" d="M143.85,257.33a4.36,4.36,0,0,1,3.18,1.26,4.41,4.41,0,0,1-6.24,6.23,4.13,4.13,0,0,1-1.28-3.07,4.42,4.42,0,0,1,.58-2.23,4.3,4.3,0,0,1,3.76-2.19Zm0,.81a3.54,3.54,0,0,0-3,1.78,3.67,3.67,0,0,0-.47,1.83,3.5,3.5,0,0,0,3.52,3.53,3.51,3.51,0,0,0,1.8-.47,3.33,3.33,0,0,0,1.29-1.29,3.58,3.58,0,0,0,.46-1.81,3.5,3.5,0,0,0-.46-1.8,3.45,3.45,0,0,0-1.31-1.29A3.52,3.52,0,0,0,143.89,258.14Z"/><path class="cls-1" d="M150,257.54h.83v7.54H154v.81H150Z"/><path class="cls-1" d="M159.32,257.33a4.34,4.34,0,0,1,3.18,1.26,4.41,4.41,0,0,1-6.24,6.23,4.13,4.13,0,0,1-1.28-3.07,4.42,4.42,0,0,1,.58-2.23,4.3,4.3,0,0,1,3.76-2.19Zm0,.81a3.54,3.54,0,0,0-3.05,1.78,3.67,3.67,0,0,0-.47,1.83,3.5,3.5,0,0,0,3.52,3.53,3.51,3.51,0,0,0,1.8-.47,3.33,3.33,0,0,0,1.29-1.29,3.58,3.58,0,0,0,.46-1.81,3.5,3.5,0,0,0-.46-1.8,3.38,3.38,0,0,0-1.31-1.29A3.52,3.52,0,0,0,159.36,258.14Z"/><path class="cls-1" d="M173.5,258.94l-.64.61a5.26,5.26,0,0,0-1.53-1,4.08,4.08,0,0,0-1.62-.35,3.86,3.86,0,0,0-1.87.48,3.49,3.49,0,0,0-1.38,1.31,3.32,3.32,0,0,0-.49,1.74,3.4,3.4,0,0,0,.51,1.79,3.58,3.58,0,0,0,1.39,1.34,4.09,4.09,0,0,0,2,.48,3.34,3.34,0,0,0,2.17-.72,2.88,2.88,0,0,0,1.06-1.89H170.4v-.8H174a4.19,4.19,0,0,1-1.15,3.07,4.13,4.13,0,0,1-3,1.14,4.57,4.57,0,0,1-3.66-1.58,4.17,4.17,0,0,1-1-2.81,4.32,4.32,0,0,1,2.23-3.81,4.78,4.78,0,0,1,2.35-.57,5.35,5.35,0,0,1,2,.38A6.1,6.1,0,0,1,173.5,258.94Z"/><path class="cls-1" d="M176.27,255.13h1.22l-1.67,1.75H175Zm-.8,2.41h.83v8.35h-.83Z"/><path class="cls-1" d="M181.62,257.54l3.9,8.35h-.9l-1.32-2.75h-3.59l-1.3,2.75h-.93l3.94-8.35Zm-.1,1.77-1.43,3h2.85Z"/><path class="cls-1" d="M189.37,257.54h1l2.14,3.44,2.1-3.44h1l-2.64,4.36v4h-.82v-4Z"/><path class="cls-1" d="M204.1,257.33a4.36,4.36,0,0,1,3.18,1.26,4.4,4.4,0,0,1-3.11,7.51,4.29,4.29,0,0,1-3.14-1.28,4.16,4.16,0,0,1-1.27-3.07,4.42,4.42,0,0,1,.58-2.23,4.3,4.3,0,0,1,3.76-2.19Zm0,.81a3.54,3.54,0,0,0-3,1.78,3.56,3.56,0,0,0-.47,1.83,3.5,3.5,0,0,0,3.52,3.53,3.51,3.51,0,0,0,1.8-.47,3.33,3.33,0,0,0,1.29-1.29,3.58,3.58,0,0,0,.46-1.81,3.5,3.5,0,0,0-.46-1.8,3.45,3.45,0,0,0-1.31-1.29A3.52,3.52,0,0,0,204.14,258.14Z"/><path class="cls-1" d="M210.25,257.54h1.65a4,4,0,0,1,1.52.23,1.89,1.89,0,0,1,.85.73,2,2,0,0,1,.31,1.08,1.94,1.94,0,0,1-.28,1,1.89,1.89,0,0,1-.79.74,3.3,3.3,0,0,1,1,.52,2.3,2.3,0,0,1,.55.72,2.2,2.2,0,0,1,.19.92,2.24,2.24,0,0,1-.73,1.7,2.78,2.78,0,0,1-2,.7h-2.29Zm.82.82V261h.48a4,4,0,0,0,1.28-.16,1.4,1.4,0,0,0,.64-.51,1.38,1.38,0,0,0,.24-.78,1.1,1.1,0,0,0-.4-.9,2,2,0,0,0-1.28-.32Zm0,3.51v3.2h1a3.66,3.66,0,0,0,1.34-.18,1.52,1.52,0,0,0,.69-.56,1.45,1.45,0,0,0,.26-.82,1.38,1.38,0,0,0-.37-1,1.81,1.81,0,0,0-1-.57,7.1,7.1,0,0,0-1.48-.1Z"/><path class="cls-1" d="M216,264.33l.71-.42c.5.91,1.08,1.37,1.73,1.37a1.67,1.67,0,0,0,.79-.19,1.43,1.43,0,0,0,.56-.53,1.33,1.33,0,0,0,.19-.69,1.43,1.43,0,0,0-.28-.83,7.07,7.07,0,0,0-1.43-1.34,6.74,6.74,0,0,1-1.3-1.14,2,2,0,0,1-.44-1.27,1.89,1.89,0,0,1,.26-1,1.82,1.82,0,0,1,.73-.7,2,2,0,0,1,1-.26,2.27,2.27,0,0,1,1.11.29,3.64,3.64,0,0,1,1.08,1.08l-.68.51a3.26,3.26,0,0,0-.8-.82,1.39,1.39,0,0,0-.72-.2,1.12,1.12,0,0,0-.83.31,1,1,0,0,0-.32.75,1.4,1.4,0,0,0,.11.53,2.09,2.09,0,0,0,.42.56c.11.1.47.38,1.08.83a6.14,6.14,0,0,1,1.48,1.42,2.32,2.32,0,0,1,.41,1.26,2.15,2.15,0,0,1-.69,1.58,2.35,2.35,0,0,1-1.68.67,2.46,2.46,0,0,1-1.38-.41A3.72,3.72,0,0,1,216,264.33Z"/><path class="cls-1" d="M221.86,258.36v-.82h4.58v.82h-1.87v7.53h-.85v-7.53Z"/><path class="cls-1" d="M227.65,257.54h4.78v.82h-4V261h3.92v.82h-3.92v3.28h3.92v.82h-4.75Z"/><path class="cls-1" d="M233,258.36v-.82h4.58v.82h-1.86v7.53h-.86v-7.53Z"/><path class="cls-1" d="M238.87,257.54h1.66a10.66,10.66,0,0,1,1.88.11,2.19,2.19,0,0,1,1.21.73,2.08,2.08,0,0,1,.47,1.38,2.29,2.29,0,0,1-.32,1.2,2.08,2.08,0,0,1-.92.78,4.11,4.11,0,0,1-1.65.27l3,3.88h-1l-3-3.88h-.47v3.88h-.83Zm.83.82v2.83h1.44a3.73,3.73,0,0,0,1.23-.15,1.33,1.33,0,0,0,.63-.51,1.44,1.44,0,0,0,.22-.78A1.38,1.38,0,0,0,243,259a1.31,1.31,0,0,0-.6-.49,3.67,3.67,0,0,0-1.23-.14Z"/><path class="cls-1" d="M245.75,257.54h.84v8.35h-.84Z"/><path class="cls-1" d="M256.28,259.09l-.66.5a3.54,3.54,0,0,0-1.31-1.07,3.89,3.89,0,0,0-3.53.11,3.43,3.43,0,0,0-1.78,3.11,3.44,3.44,0,0,0,1,2.55,3.64,3.64,0,0,0,2.65,1,3.72,3.72,0,0,0,2.93-1.38l.66.5a4.27,4.27,0,0,1-1.56,1.23,4.89,4.89,0,0,1-2.09.44,4.33,4.33,0,0,1-3.45-1.46,4.39,4.39,0,0,1-1.06-3,4.11,4.11,0,0,1,1.28-3.08,4.41,4.41,0,0,1,3.22-1.25,4.67,4.67,0,0,1,2.11.46A4.08,4.08,0,0,1,256.28,259.09Z"/><path class="cls-1" d="M257.83,257.54h.84v8.35h-.84Z"/><path class="cls-1" d="M264,257.54l3.89,8.35H267l-1.31-2.75h-3.6l-1.3,2.75h-.93l4-8.35Zm-.11,1.77-1.43,3h2.86Z"/><path class="cls-1" d="M272.4,265.89v-8.35h1.73a8.77,8.77,0,0,1,2.71.3,3.59,3.59,0,0,1,1.9,1.47,4.47,4.47,0,0,1,.69,2.51,4.37,4.37,0,0,1-.54,2.2,3.54,3.54,0,0,1-1.41,1.41,5.36,5.36,0,0,1-2.43.46Zm.8-.79h1a8.71,8.71,0,0,0,2.4-.22,2.74,2.74,0,0,0,1.48-1.1,3.39,3.39,0,0,0,.54-1.95,3.56,3.56,0,0,0-.58-2.06,3,3,0,0,0-1.63-1.18,9.9,9.9,0,0,0-2.58-.23h-.59Z"/><path class="cls-1" d="M281.05,257.54h4.78v.82h-3.95V261h3.92v.82h-3.92v3.28h3.92v.82h-4.75Z"/><path class="cls-1" d="M290.49,257.54h4.19v.82h-3.35V261h3.35v.82h-3.35v4.1h-.84Z"/><path class="cls-1" d="M300.1,257.33a4.34,4.34,0,0,1,3.18,1.26,4.41,4.41,0,0,1-6.24,6.23,4.17,4.17,0,0,1-1.28-3.07,4.42,4.42,0,0,1,.58-2.23,4.3,4.3,0,0,1,3.76-2.19Zm0,.81a3.42,3.42,0,0,0-1.75.48,3.45,3.45,0,0,0-1.3,1.3,3.67,3.67,0,0,0-.47,1.83,3.52,3.52,0,0,0,3.52,3.53,3.51,3.51,0,0,0,1.8-.47,3.33,3.33,0,0,0,1.29-1.29,3.58,3.58,0,0,0,.46-1.81,3.5,3.5,0,0,0-.46-1.8,3.43,3.43,0,0,0-1.3-1.29A3.56,3.56,0,0,0,300.14,258.14Z"/><path class="cls-1" d="M306.28,257.54h1.66a10.58,10.58,0,0,1,1.88.11,2.19,2.19,0,0,1,1.21.73,2.08,2.08,0,0,1,.47,1.38,2.29,2.29,0,0,1-.32,1.2,2.08,2.08,0,0,1-.92.78,4.05,4.05,0,0,1-1.64.27l3,3.88h-1l-3-3.88h-.47v3.88h-.83Zm.83.82v2.83h1.44a3.8,3.8,0,0,0,1.24-.15,1.35,1.35,0,0,0,.62-.51,1.45,1.45,0,0,0,.23-.78,1.39,1.39,0,0,0-.23-.77,1.31,1.31,0,0,0-.6-.49,3.63,3.63,0,0,0-1.23-.14Z"/><path class="cls-1" d="M312.91,265.89l1.19-8.35h.14l3.39,6.85,3.36-6.85h.14l1.2,8.35h-.82l-.83-6-2.95,6h-.21l-3-6-.82,6Z"/><path class="cls-1" d="M327.94,257.33a4.34,4.34,0,0,1,3.18,1.26,4.41,4.41,0,0,1-6.24,6.23,4.13,4.13,0,0,1-1.28-3.07,4.42,4.42,0,0,1,.58-2.23,4.3,4.3,0,0,1,3.76-2.19Zm0,.81a3.54,3.54,0,0,0-3.05,1.78,3.67,3.67,0,0,0-.47,1.83,3.5,3.5,0,0,0,3.52,3.53,3.51,3.51,0,0,0,1.8-.47,3.33,3.33,0,0,0,1.29-1.29,3.58,3.58,0,0,0,.46-1.81,3.5,3.5,0,0,0-.46-1.8,3.38,3.38,0,0,0-1.31-1.29A3.52,3.52,0,0,0,328,258.14Z"/><path class="cls-1" d="M333.21,264.33l.71-.42c.5.91,1.07,1.37,1.73,1.37a1.67,1.67,0,0,0,.79-.19,1.43,1.43,0,0,0,.56-.53,1.33,1.33,0,0,0,.19-.69,1.43,1.43,0,0,0-.28-.83,7.07,7.07,0,0,0-1.43-1.34,6.74,6.74,0,0,1-1.3-1.14,2.05,2.05,0,0,1-.45-1.27,1.9,1.9,0,0,1,.27-1,1.76,1.76,0,0,1,.73-.7,2,2,0,0,1,1-.26,2.23,2.23,0,0,1,1.1.29A3.55,3.55,0,0,1,338,258.7l-.68.51a3.26,3.26,0,0,0-.8-.82,1.43,1.43,0,0,0-.73-.2,1.12,1.12,0,0,0-.82.31,1,1,0,0,0-.32.75,1.23,1.23,0,0,0,.11.53,2,2,0,0,0,.41.56c.11.1.47.38,1.08.83a6,6,0,0,1,1.49,1.42,2.31,2.31,0,0,1,.4,1.26,2.15,2.15,0,0,1-.69,1.58,2.34,2.34,0,0,1-1.67.67,2.46,2.46,0,0,1-1.38-.41A3.53,3.53,0,0,1,333.21,264.33Z"/><path class="cls-1" d="M343.27,257.54l3.89,8.35h-.9L345,263.14h-3.6l-1.3,2.75h-.93l3.94-8.35Zm-.11,1.77-1.43,3h2.86Z"/><rect class="cls-1" y="273.13" width="352" height="1.03"/><rect class="cls-1" y="248.15" width="352" height="1.28"/></g></g></svg>