<svg xmlns="http://www.w3.org/2000/svg" xmlns:xlink="http://www.w3.org/1999/xlink" viewBox="0 0 396 284.31"><defs><style>.cls-1{fill:url(#Degradado_sin_nombre_5);}.cls-2{fill:#e13692;}.cls-3{fill:#7e81ae;}</style><linearGradient id="Degradado_sin_nombre_5" y1="195.74" x2="396" y2="195.74" gradientUnits="userSpaceOnUse"><stop offset="0" stop-color="#d7d8da"/><stop offset="0.52" stop-color="#f7f7f7"/><stop offset="1" stop-color="#d5d6d8"/></linearGradient></defs><g id="Capa_2" data-name="Capa 2"><g id="Capa_1-2" data-name="Capa 1"><rect class="cls-1" y="107.18" width="396" height="177.13"/><path class="cls-2" d="M198,0a71.64,71.64,0,1,0,71.64,71.64A71.63,71.63,0,0,0,198,0Zm0,128.62a57,57,0,1,1,57-57A57,57,0,0,1,198,128.62Z"/><circle class="cls-2" cx="197.44" cy="23.69" r="11.28"/><path class="cls-2" d="M202.67,57l29.74-33.45c-3.09.14-18.61,1.17-28.5,13.63a34.5,34.5,0,0,0-6.19,12.38,34.38,34.38,0,0,0-6.2-12.38C181.63,24.73,166.11,23.7,163,23.56L192.76,57a74,74,0,0,0-8.67,23.55c-5.32,29.17,9.08,52.64,13.63,59.47,4.55-6.83,18.94-30.3,13.63-59.47A74,74,0,0,0,202.67,57Z"/><path class="cls-2" d="M79.4,151.6l36,77.3H107.1L94.94,203.47H61.64l-12,25.43H41L77.5,151.6Zm-1,16.42L65.17,196H91.6Z"/><path class="cls-2" d="M202,164.58l-6,5.67a45.92,45.92,0,0,0-14.16-9.64,38.06,38.06,0,0,0-15-3.28,35.86,35.86,0,0,0-17.32,4.46,32.43,32.43,0,0,0-12.74,12.12,31.26,31.26,0,0,0-4.52,16.15,31.87,31.87,0,0,0,4.68,16.58A33.1,33.1,0,0,0,149.86,219a37.15,37.15,0,0,0,18.08,4.5q11.92,0,20.18-6.73a26.51,26.51,0,0,0,9.77-17.45H173.25v-7.46h33.32q-.1,17.93-10.65,28.46t-28.19,10.53q-21.43,0-33.95-14.61a38.8,38.8,0,0,1-9.61-26,39.87,39.87,0,0,1,5.52-20.44A39.1,39.1,0,0,1,144.82,155a44,44,0,0,1,21.76-5.34,48.43,48.43,0,0,1,18.49,3.55A55.31,55.31,0,0,1,202,164.58Z"/><path class="cls-2" d="M258.09,149.65q17.57,0,29.39,11.72a41,41,0,0,1,0,57.65,39.15,39.15,0,0,1-28.79,11.82q-17.19,0-29-11.77a38.68,38.68,0,0,1-11.84-28.48,41.2,41.2,0,0,1,5.39-20.65,39.83,39.83,0,0,1,34.84-20.29Zm.34,7.52a33,33,0,0,0-28.26,16.51,33.48,33.48,0,0,0-4.32,16.88,32.51,32.51,0,0,0,32.58,32.77A33.06,33.06,0,0,0,275.09,219,31.27,31.27,0,0,0,287,207a33.55,33.55,0,0,0,4.29-16.83A32.73,32.73,0,0,0,287,173.55,32.06,32.06,0,0,0,275,161.64,32.68,32.68,0,0,0,258.43,157.17Z"/><path class="cls-2" d="M314.82,151.6h38.73v7.57h-31v24.22h31V191h-31V228.9h-7.72Z"/><path class="cls-3" d="M31,249.54l3.89,8.35H34l-1.31-2.75h-3.6l-1.3,2.75h-.93l3.94-8.35Zm-.11,1.77-1.43,3h2.86Z"/><path class="cls-3" d="M35.31,256.33l.71-.42c.5.91,1.08,1.37,1.73,1.37a1.67,1.67,0,0,0,.79-.19,1.37,1.37,0,0,0,.56-.53,1.34,1.34,0,0,0,.2-.69A1.44,1.44,0,0,0,39,255a7.07,7.07,0,0,0-1.43-1.34,7.09,7.09,0,0,1-1.3-1.14,2.1,2.1,0,0,1-.44-1.27,2,2,0,0,1,.26-1,1.79,1.79,0,0,1,.74-.7,2,2,0,0,1,1-.26,2.23,2.23,0,0,1,1.1.29,3.78,3.78,0,0,1,1.09,1.08l-.68.51a3.44,3.44,0,0,0-.81-.82,1.39,1.39,0,0,0-.72-.2,1.14,1.14,0,0,0-.83.31,1,1,0,0,0-.32.75,1.24,1.24,0,0,0,.12.53,1.84,1.84,0,0,0,.41.56c.11.1.47.38,1.08.83a6,6,0,0,1,1.48,1.42,2.32,2.32,0,0,1,.41,1.26,2.15,2.15,0,0,1-.69,1.58,2.35,2.35,0,0,1-1.68.67,2.46,2.46,0,0,1-1.38-.41A3.72,3.72,0,0,1,35.31,256.33Z"/><path class="cls-3" d="M45.94,249.33a4.34,4.34,0,0,1,3.17,1.26,4.41,4.41,0,0,1-6.24,6.23,4.17,4.17,0,0,1-1.28-3.07,4.43,4.43,0,0,1,.59-2.23,4.14,4.14,0,0,1,1.58-1.61A4.26,4.26,0,0,1,45.94,249.33Zm0,.81a3.45,3.45,0,0,0-1.76.48,3.52,3.52,0,0,0-1.3,1.3,3.66,3.66,0,0,0-.46,1.83A3.5,3.5,0,0,0,46,257.28a3.5,3.5,0,0,0,1.79-.47,3.2,3.2,0,0,0,1.29-1.29,3.59,3.59,0,0,0,.47-1.81,3.5,3.5,0,0,0-.47-1.8,3.36,3.36,0,0,0-1.3-1.29A3.55,3.55,0,0,0,46,250.14Z"/><path class="cls-3" d="M59.84,251.09l-.66.5a3.54,3.54,0,0,0-1.31-1.07,3.72,3.72,0,0,0-1.67-.37,3.67,3.67,0,0,0-1.85.48A3.41,3.41,0,0,0,53,251.92a3.48,3.48,0,0,0-.47,1.82,3.41,3.41,0,0,0,1,2.55,3.6,3.6,0,0,0,2.64,1,3.7,3.7,0,0,0,2.93-1.38l.66.5a4.27,4.27,0,0,1-1.56,1.23,4.87,4.87,0,0,1-2.08.44,4.29,4.29,0,0,1-4.52-4.44A4.14,4.14,0,0,1,53,250.58a4.42,4.42,0,0,1,3.23-1.25,4.73,4.73,0,0,1,2.11.46A4.13,4.13,0,0,1,59.84,251.09Z"/><path class="cls-3" d="M61.4,249.54h.83v8.35H61.4Z"/><path class="cls-3" d="M67.55,249.54l3.9,8.35h-.91l-1.31-2.75H65.64l-1.31,2.75H63.4l3.95-8.35Zm-.1,1.77-1.43,3h2.85Z"/><path class="cls-3" d="M80.52,251.09l-.66.5a3.62,3.62,0,0,0-1.31-1.07,3.89,3.89,0,0,0-3.53.11,3.41,3.41,0,0,0-1.32,1.29,3.58,3.58,0,0,0-.47,1.82,3.41,3.41,0,0,0,1,2.55,3.64,3.64,0,0,0,2.64,1,3.72,3.72,0,0,0,2.94-1.38l.66.5A4.27,4.27,0,0,1,79,257.66a4.92,4.92,0,0,1-2.09.44,4.33,4.33,0,0,1-3.45-1.46,4.39,4.39,0,0,1-1.07-3,4.11,4.11,0,0,1,1.29-3.08,4.41,4.41,0,0,1,3.22-1.25,4.7,4.7,0,0,1,2.11.46A4.16,4.16,0,0,1,80.52,251.09Z"/><path class="cls-3" d="M82.07,249.54h.83v8.35h-.83Z"/><path class="cls-3" d="M88.79,249.33A4.34,4.34,0,0,1,92,250.59a4.41,4.41,0,0,1-6.24,6.23,4.13,4.13,0,0,1-1.28-3.07,4.42,4.42,0,0,1,.58-2.23,4.3,4.3,0,0,1,3.76-2.19Zm0,.81a3.54,3.54,0,0,0-3,1.78,3.67,3.67,0,0,0-.47,1.83,3.5,3.5,0,0,0,3.52,3.53,3.51,3.51,0,0,0,1.8-.47,3.33,3.33,0,0,0,1.29-1.29,3.58,3.58,0,0,0,.46-1.81,3.5,3.5,0,0,0-.46-1.8,3.38,3.38,0,0,0-1.31-1.29A3.52,3.52,0,0,0,88.83,250.14Zm.41-3h1.22l-1.67,1.75H88Z"/><path class="cls-3" d="M94.92,257.89v-8.35h.19l5.55,6.4v-6.4h.83v8.35h-.19l-5.51-6.33v6.33Z"/><path class="cls-3" d="M106.74,257.89v-8.35h1.73a8.82,8.82,0,0,1,2.71.3,3.59,3.59,0,0,1,1.9,1.47,4.47,4.47,0,0,1,.69,2.51,4.37,4.37,0,0,1-.54,2.2,3.54,3.54,0,0,1-1.41,1.41,5.36,5.36,0,0,1-2.43.46Zm.8-.79h1a8.71,8.71,0,0,0,2.4-.22,2.74,2.74,0,0,0,1.48-1.1,3.39,3.39,0,0,0,.54-1.95,3.56,3.56,0,0,0-.58-2.06,3,3,0,0,0-1.63-1.18,9.9,9.9,0,0,0-2.58-.23h-.59Z"/><path class="cls-3" d="M115.39,249.54h4.78v.82h-4V253h3.92v.82h-3.92v3.28h3.92v.82h-4.75Z"/><path class="cls-3" d="M132.89,250.94l-.65.61a5.26,5.26,0,0,0-1.53-1,4,4,0,0,0-1.62-.35,3.89,3.89,0,0,0-1.87.48,3.55,3.55,0,0,0-1.38,1.31,3.42,3.42,0,0,0,0,3.53,3.61,3.61,0,0,0,1.4,1.34,4,4,0,0,0,2,.48,3.37,3.37,0,0,0,2.18-.72,2.91,2.91,0,0,0,1.05-1.89h-2.66v-.8h3.6a4.19,4.19,0,0,1-1.15,3.07,4.1,4.1,0,0,1-3,1.14,4.58,4.58,0,0,1-3.67-1.58,4.22,4.22,0,0,1-1-2.81,4.37,4.37,0,0,1,2.23-3.81,4.81,4.81,0,0,1,2.35-.57,5.31,5.31,0,0,1,2,.38A6.26,6.26,0,0,1,132.89,250.94Z"/><path class="cls-3" d="M134.85,249.54h.84v8.35h-.84Z"/><path class="cls-3" d="M137.6,257.89v-8.35h.18l5.56,6.4v-6.4h.82v8.35H144l-5.51-6.33v6.33Z"/><path class="cls-3" d="M146.2,249.54H151v.82h-4V253H151v.82H147v3.28H151v.82H146.2Z"/><path class="cls-3" d="M160.2,251.09l-.66.5a3.59,3.59,0,0,0-1.3-1.07,3.76,3.76,0,0,0-1.68-.37,3.7,3.7,0,0,0-1.85.48,3.41,3.41,0,0,0-1.32,1.29,3.58,3.58,0,0,0-.47,1.82,3.41,3.41,0,0,0,1.05,2.55,3.64,3.64,0,0,0,2.64,1,3.69,3.69,0,0,0,2.93-1.38l.66.5a4.11,4.11,0,0,1-1.56,1.23,4.84,4.84,0,0,1-2.08.44,4.36,4.36,0,0,1-3.46-1.46,4.44,4.44,0,0,1-1.06-3,4.11,4.11,0,0,1,1.29-3.08,4.4,4.4,0,0,1,3.22-1.25,4.7,4.7,0,0,1,2.11.46A4.05,4.05,0,0,1,160.2,251.09Z"/><path class="cls-3" d="M165.85,249.33a4.36,4.36,0,0,1,3.18,1.26,4.41,4.41,0,0,1-6.24,6.23,4.13,4.13,0,0,1-1.28-3.07,4.42,4.42,0,0,1,.58-2.23,4.3,4.3,0,0,1,3.76-2.19Zm0,.81a3.54,3.54,0,0,0-3,1.78,3.67,3.67,0,0,0-.47,1.83,3.5,3.5,0,0,0,3.52,3.53,3.51,3.51,0,0,0,1.8-.47,3.33,3.33,0,0,0,1.29-1.29,3.58,3.58,0,0,0,.46-1.81,3.5,3.5,0,0,0-.46-1.8,3.45,3.45,0,0,0-1.31-1.29A3.52,3.52,0,0,0,165.89,250.14Z"/><path class="cls-3" d="M172,249.54h.83v7.54H176v.81H172Z"/><path class="cls-3" d="M181.32,249.33a4.34,4.34,0,0,1,3.18,1.26,4.41,4.41,0,0,1-6.24,6.23,4.13,4.13,0,0,1-1.28-3.07,4.42,4.42,0,0,1,.58-2.23,4.3,4.3,0,0,1,3.76-2.19Zm0,.81a3.54,3.54,0,0,0-3.05,1.78,3.67,3.67,0,0,0-.47,1.83,3.5,3.5,0,0,0,3.52,3.53,3.51,3.51,0,0,0,1.8-.47,3.33,3.33,0,0,0,1.29-1.29,3.58,3.58,0,0,0,.46-1.81,3.5,3.5,0,0,0-.46-1.8,3.38,3.38,0,0,0-1.31-1.29A3.52,3.52,0,0,0,181.36,250.14Z"/><path class="cls-3" d="M195.5,250.94l-.64.61a5.26,5.26,0,0,0-1.53-1,4.08,4.08,0,0,0-1.62-.35,3.86,3.86,0,0,0-1.87.48,3.49,3.49,0,0,0-1.38,1.31,3.32,3.32,0,0,0-.49,1.74,3.4,3.4,0,0,0,.51,1.79,3.58,3.58,0,0,0,1.39,1.34,4.09,4.09,0,0,0,2,.48,3.34,3.34,0,0,0,2.17-.72,2.88,2.88,0,0,0,1.06-1.89H192.4v-.8H196a4.19,4.19,0,0,1-1.15,3.07,4.13,4.13,0,0,1-3,1.14,4.57,4.57,0,0,1-3.66-1.58,4.17,4.17,0,0,1-1-2.81,4.32,4.32,0,0,1,2.23-3.81,4.78,4.78,0,0,1,2.35-.57,5.35,5.35,0,0,1,2,.38A6.1,6.1,0,0,1,195.5,250.94Z"/><path class="cls-3" d="M198.27,247.13h1.22l-1.67,1.75H197Zm-.8,2.41h.83v8.35h-.83Z"/><path class="cls-3" d="M203.62,249.54l3.9,8.35h-.9l-1.32-2.75h-3.59l-1.3,2.75h-.93l3.94-8.35Zm-.1,1.77-1.43,3h2.85Z"/><path class="cls-3" d="M211.37,249.54h1l2.14,3.44,2.1-3.44h1l-2.64,4.36v4h-.82v-4Z"/><path class="cls-3" d="M226.1,249.33a4.36,4.36,0,0,1,3.18,1.26,4.4,4.4,0,0,1-3.11,7.51,4.29,4.29,0,0,1-3.14-1.28,4.16,4.16,0,0,1-1.27-3.07,4.42,4.42,0,0,1,.58-2.23,4.3,4.3,0,0,1,3.76-2.19Zm0,.81a3.54,3.54,0,0,0-3,1.78,3.56,3.56,0,0,0-.47,1.83,3.5,3.5,0,0,0,3.52,3.53,3.51,3.51,0,0,0,1.8-.47,3.33,3.33,0,0,0,1.29-1.29,3.58,3.58,0,0,0,.46-1.81,3.5,3.5,0,0,0-.46-1.8,3.45,3.45,0,0,0-1.31-1.29A3.52,3.52,0,0,0,226.14,250.14Z"/><path class="cls-3" d="M232.25,249.54h1.65a4,4,0,0,1,1.52.23,1.89,1.89,0,0,1,.85.73,2,2,0,0,1,.31,1.08,1.94,1.94,0,0,1-.28,1,1.89,1.89,0,0,1-.79.74,3.3,3.3,0,0,1,1,.52,2.3,2.3,0,0,1,.55.72,2.2,2.2,0,0,1,.19.92,2.24,2.24,0,0,1-.73,1.7,2.78,2.78,0,0,1-2,.7h-2.29Zm.82.82V253h.48a4,4,0,0,0,1.28-.16,1.4,1.4,0,0,0,.64-.51,1.38,1.38,0,0,0,.24-.78,1.1,1.1,0,0,0-.4-.9,2,2,0,0,0-1.28-.32Zm0,3.51v3.2h1a3.66,3.66,0,0,0,1.34-.18,1.52,1.52,0,0,0,.69-.56,1.45,1.45,0,0,0,.26-.82,1.38,1.38,0,0,0-.37-1,1.81,1.81,0,0,0-1-.57,7.1,7.1,0,0,0-1.48-.1Z"/><path class="cls-3" d="M238,256.33l.71-.42c.5.91,1.08,1.37,1.73,1.37a1.67,1.67,0,0,0,.79-.19,1.43,1.43,0,0,0,.56-.53,1.33,1.33,0,0,0,.19-.69,1.43,1.43,0,0,0-.28-.83,7.07,7.07,0,0,0-1.43-1.34,6.74,6.74,0,0,1-1.3-1.14,2,2,0,0,1-.44-1.27,1.89,1.89,0,0,1,.26-1,1.82,1.82,0,0,1,.73-.7,2,2,0,0,1,1-.26,2.27,2.27,0,0,1,1.11.29,3.64,3.64,0,0,1,1.08,1.08l-.68.51a3.26,3.26,0,0,0-.8-.82,1.39,1.39,0,0,0-.72-.2,1.12,1.12,0,0,0-.83.31,1,1,0,0,0-.32.75,1.4,1.4,0,0,0,.11.53,2.09,2.09,0,0,0,.42.56c.11.1.47.38,1.08.83a6.14,6.14,0,0,1,1.48,1.42,2.32,2.32,0,0,1,.41,1.26,2.15,2.15,0,0,1-.69,1.58,2.35,2.35,0,0,1-1.68.67,2.46,2.46,0,0,1-1.38-.41A3.72,3.72,0,0,1,238,256.33Z"/><path class="cls-3" d="M243.86,250.36v-.82h4.58v.82h-1.87v7.53h-.85v-7.53Z"/><path class="cls-3" d="M249.65,249.54h4.78v.82h-4V253h3.92v.82h-3.92v3.28h3.92v.82h-4.75Z"/><path class="cls-3" d="M255,250.36v-.82h4.58v.82h-1.86v7.53h-.86v-7.53Z"/><path class="cls-3" d="M260.87,249.54h1.66a10.66,10.66,0,0,1,1.88.11,2.19,2.19,0,0,1,1.21.73,2.08,2.08,0,0,1,.47,1.38,2.29,2.29,0,0,1-.32,1.2,2.08,2.08,0,0,1-.92.78,4.11,4.11,0,0,1-1.65.27l3,3.88h-1l-3-3.88h-.47v3.88h-.83Zm.83.82v2.83h1.44a3.73,3.73,0,0,0,1.23-.15,1.33,1.33,0,0,0,.63-.51,1.44,1.44,0,0,0,.22-.78A1.38,1.38,0,0,0,265,251a1.31,1.31,0,0,0-.6-.49,3.67,3.67,0,0,0-1.23-.14Z"/><path class="cls-3" d="M267.75,249.54h.84v8.35h-.84Z"/><path class="cls-3" d="M278.28,251.09l-.66.5a3.54,3.54,0,0,0-1.31-1.07,3.89,3.89,0,0,0-3.53.11,3.43,3.43,0,0,0-1.78,3.11,3.44,3.44,0,0,0,1,2.55,3.64,3.64,0,0,0,2.65,1,3.72,3.72,0,0,0,2.93-1.38l.66.5a4.27,4.27,0,0,1-1.56,1.23,4.89,4.89,0,0,1-2.09.44,4.33,4.33,0,0,1-3.45-1.46,4.39,4.39,0,0,1-1.06-3,4.11,4.11,0,0,1,1.28-3.08,4.41,4.41,0,0,1,3.22-1.25,4.67,4.67,0,0,1,2.11.46A4.08,4.08,0,0,1,278.28,251.09Z"/><path class="cls-3" d="M279.83,249.54h.84v8.35h-.84Z"/><path class="cls-3" d="M286,249.54l3.89,8.35H289l-1.31-2.75h-3.6l-1.3,2.75h-.93l4-8.35Zm-.11,1.77-1.43,3h2.86Z"/><path class="cls-3" d="M294.4,257.89v-8.35h1.73a8.77,8.77,0,0,1,2.71.3,3.59,3.59,0,0,1,1.9,1.47,4.47,4.47,0,0,1,.69,2.51,4.37,4.37,0,0,1-.54,2.2,3.54,3.54,0,0,1-1.41,1.41,5.36,5.36,0,0,1-2.43.46Zm.8-.79h1a8.71,8.71,0,0,0,2.4-.22,2.74,2.74,0,0,0,1.48-1.1,3.39,3.39,0,0,0,.54-1.95,3.56,3.56,0,0,0-.58-2.06,3,3,0,0,0-1.63-1.18,9.9,9.9,0,0,0-2.58-.23h-.59Z"/><path class="cls-3" d="M303.05,249.54h4.78v.82h-3.95V253h3.92v.82h-3.92v3.28h3.92v.82h-4.75Z"/><path class="cls-3" d="M312.49,249.54h4.19v.82h-3.35V253h3.35v.82h-3.35v4.1h-.84Z"/><path class="cls-3" d="M322.1,249.33a4.34,4.34,0,0,1,3.18,1.26,4.41,4.41,0,0,1-6.24,6.23,4.17,4.17,0,0,1-1.28-3.07,4.42,4.42,0,0,1,.58-2.23,4.3,4.3,0,0,1,3.76-2.19Zm0,.81a3.42,3.42,0,0,0-1.75.48,3.45,3.45,0,0,0-1.3,1.3,3.67,3.67,0,0,0-.47,1.83,3.52,3.52,0,0,0,3.52,3.53,3.51,3.51,0,0,0,1.8-.47,3.33,3.33,0,0,0,1.29-1.29,3.58,3.58,0,0,0,.46-1.81,3.5,3.5,0,0,0-.46-1.8,3.43,3.43,0,0,0-1.3-1.29A3.56,3.56,0,0,0,322.14,250.14Z"/><path class="cls-3" d="M328.28,249.54h1.66a10.58,10.58,0,0,1,1.88.11,2.19,2.19,0,0,1,1.21.73,2.08,2.08,0,0,1,.47,1.38,2.29,2.29,0,0,1-.32,1.2,2.08,2.08,0,0,1-.92.78,4.05,4.05,0,0,1-1.64.27l3,3.88h-1l-3-3.88h-.47v3.88h-.83Zm.83.82v2.83h1.44a3.8,3.8,0,0,0,1.24-.15,1.35,1.35,0,0,0,.62-.51,1.45,1.45,0,0,0,.23-.78,1.39,1.39,0,0,0-.23-.77,1.31,1.31,0,0,0-.6-.49,3.63,3.63,0,0,0-1.23-.14Z"/><path class="cls-3" d="M334.91,257.89l1.19-8.35h.14l3.39,6.85,3.36-6.85h.14l1.2,8.35h-.82l-.83-6-2.95,6h-.21l-3-6-.82,6Z"/><path class="cls-3" d="M349.94,249.33a4.34,4.34,0,0,1,3.18,1.26,4.41,4.41,0,0,1-6.24,6.23,4.13,4.13,0,0,1-1.28-3.07,4.42,4.42,0,0,1,.58-2.23,4.3,4.3,0,0,1,3.76-2.19Zm0,.81a3.54,3.54,0,0,0-3.05,1.78,3.67,3.67,0,0,0-.47,1.83,3.5,3.5,0,0,0,3.52,3.53,3.51,3.51,0,0,0,1.8-.47,3.33,3.33,0,0,0,1.29-1.29,3.58,3.58,0,0,0,.46-1.81,3.5,3.5,0,0,0-.46-1.8,3.38,3.38,0,0,0-1.31-1.29A3.52,3.52,0,0,0,350,250.14Z"/><path class="cls-3" d="M355.21,256.33l.71-.42c.5.91,1.07,1.37,1.73,1.37a1.67,1.67,0,0,0,.79-.19,1.43,1.43,0,0,0,.56-.53,1.33,1.33,0,0,0,.19-.69,1.43,1.43,0,0,0-.28-.83,7.07,7.07,0,0,0-1.43-1.34,6.74,6.74,0,0,1-1.3-1.14,2.05,2.05,0,0,1-.45-1.27,1.9,1.9,0,0,1,.27-1,1.76,1.76,0,0,1,.73-.7,2,2,0,0,1,1-.26,2.23,2.23,0,0,1,1.1.29A3.55,3.55,0,0,1,360,250.7l-.68.51a3.26,3.26,0,0,0-.8-.82,1.43,1.43,0,0,0-.73-.2,1.12,1.12,0,0,0-.82.31,1,1,0,0,0-.32.75,1.23,1.23,0,0,0,.11.53,2,2,0,0,0,.41.56c.11.1.47.38,1.08.83a6,6,0,0,1,1.49,1.42,2.31,2.31,0,0,1,.4,1.26,2.15,2.15,0,0,1-.69,1.58,2.34,2.34,0,0,1-1.67.67,2.46,2.46,0,0,1-1.38-.41A3.53,3.53,0,0,1,355.21,256.33Z"/><path class="cls-3" d="M365.27,249.54l3.89,8.35h-.9L367,255.14h-3.6l-1.3,2.75h-.93l3.94-8.35Zm-.11,1.77-1.43,3h2.86Z"/><rect class="cls-3" x="22" y="265.13" width="352" height="1.03"/><rect class="cls-3" x="22" y="240.15" width="352" height="1.28"/></g></g></svg>