<svg xmlns="http://www.w3.org/2000/svg" viewBox="0 0 338.2 307.9"><defs><style>.cls-1{fill:#28704a;}.cls-2{fill:#d9eada;}.cls-3{fill:#fff;}</style></defs><g id="Capa_2" data-name="Capa 2"><g id="Capa_1-2" data-name="Capa 1"><path class="cls-1" d="M91.1,0h156a0,0,0,0,1,0,0V149.66A68.34,68.34,0,0,1,178.76,218H159.44A68.34,68.34,0,0,1,91.1,149.66V0A0,0,0,0,1,91.1,0Z"/><path class="cls-2" d="M97.1,80h144a0,0,0,0,1,0,0v68.39A62.61,62.61,0,0,1,178.49,211H159.71A62.61,62.61,0,0,1,97.1,148.39V80a0,0,0,0,1,0,0Z"/><rect class="cls-3" x="133.1" y="67" width="8" height="4"/><path class="cls-3" d="M240.33,67.2l-33.55.08C213.46,60.91,230.3,45,230.3,45l-30.62,13c4.26-6.93,17.76-28.63,17.76-28.63L190.08,50.36c2.32-6.32,12.08-32.55,12.08-32.55L180.81,42.43C180.69,34,180.45,9,180.45,9L168.77,41.17,157.09,9s-.25,25-.36,33.43L135.37,17.81S145.14,44,147.45,50.36L120.09,29.29s13.5,21.7,17.77,28.63L107.23,45s16.84,15.95,23.52,22.32L97.2,67.2s29.32,11.92,32.27,13.08h77.18m0,0H208L240.33,67.2"/><rect class="cls-1" x="163.48" y="47" width="11.63" height="148"/><path class="cls-1" d="M175.11,174.42c-3.06-1.32-6.16-2.22-8.87-3.13a22.55,22.55,0,0,1-5.49-2.44,9.53,9.53,0,0,1-3.12-3.49,11.12,11.12,0,0,1-1.14-4.75,9.78,9.78,0,0,1,.9-4.57,11.74,11.74,0,0,1,3.11-3.67,64.66,64.66,0,0,1,5.25-3.86c3-2.08,6.14-4,9.36-5.77V128l-4.1,2.56c-4.15,2.66-8.26,5.55-12.17,8.64a77.09,77.09,0,0,0-5.91,5.06,22.32,22.32,0,0,0-5.33,7.7,20.08,20.08,0,0,0-1.21,9.43,20.91,20.91,0,0,0,2.9,8.82l.66,1c.24.32.5.63.76.94a13.09,13.09,0,0,0,1.63,1.78,19,19,0,0,0,3.83,2.77,29.46,29.46,0,0,0,7.78,2.74c4.19.94,7.91,1.62,11.16,3.07Z"/><path class="cls-1" d="M180.29,177.25c-.31-.22-.64-.41-1-.61v8.26c.39.27.72.6,1.09.89s.8.66,1.16,1a24.06,24.06,0,0,1,3.85,5.06l0,0a2.61,2.61,0,0,0,4.7-2.25A27,27,0,0,0,180.29,177.25Z"/><path class="cls-1" d="M193.14,114.78c-.86-1.32-1.64-2.35-2.37-3.34-.32-.46-.84-1.06-1.27-1.59l-1.36-1.65c-.92-1.08-2-2.06-3-3.09s-2.17-1.89-3.29-2.8c-.84-.59-1.67-1.22-2.52-1.8V119c.68.78,1.33,1.43,1.77,2a6.1,6.1,0,0,1,.39.75,2.35,2.35,0,0,1-1.38,3.27c-.28.09-.55.16-.78.22v15.23l4.41-2.29c1.1-.59,2.22-1.19,3.41-1.9A29.17,29.17,0,0,0,191,133.6c.34-.28.72-.67,1.07-1a9.81,9.81,0,0,0,1.06-1.18c.35-.46.7-.94,1-1.43s.6-1.15.87-1.75a9,9,0,0,0,.61-1.88,12,12,0,0,0,.35-2,13,13,0,0,0-.29-4A17.86,17.86,0,0,0,193.14,114.78Z"/><path class="cls-1" d="M198.61,67.62a17.11,17.11,0,0,0-5.08-7.25,22.24,22.24,0,0,0-7.35-4.17A47.66,47.66,0,0,0,168.64,54l-2.31.2c-.77.08-1.54.25-2.3.38s-1.54.24-2.3.46l-2.27.65-1.13.33-.93.32c-.64.24-1.33.49-2,.79A36.29,36.29,0,0,0,151,59.17a26.94,26.94,0,0,0-8.24,7.12,24.07,24.07,0,0,0-4.5,10.59,28.17,28.17,0,0,0,.38,10.52,31,31,0,0,0,1.52,4.85,24.34,24.34,0,0,0,2.4,4.6c.5.74,1,1.48,1.51,2.19s1.18,1.36,1.78,2a19.24,19.24,0,0,0,1.94,1.8l1,.85c.34.26.68.48,1,.72a39.54,39.54,0,0,0,7.95,4.17l1.43.56V89.37a6.58,6.58,0,0,1-1.41-1.89,10.75,10.75,0,0,1-1.31-3.76,10,10,0,0,1,0-3.68A5.54,5.54,0,0,1,157,78.7a4.42,4.42,0,0,1,.66-1,8.33,8.33,0,0,1,2.61-2,18,18,0,0,1,2.13-.95c.4-.16.83-.31,1.31-.47l.76-.26.59-.16,1.16-.33a12.32,12.32,0,0,1,1.21-.24c.4-.06.79-.17,1.21-.21l1.25-.09a29.75,29.75,0,0,1,10.63,1.41,28.94,28.94,0,0,0,5.94,1,28.63,28.63,0,0,0,7.43-.36l.53-.1a6.93,6.93,0,0,0,.75-.2A5.57,5.57,0,0,0,198.61,67.62Zm-8-3.59c-.38,1.1-2,1.54-3.68,1s-2.7-1.93-2.32-3,2-1.54,3.69-1S191,62.93,190.59,64Z"/><path class="cls-1" d="M184.9,174.15l.48-.44,1-.89c.64-.6,1.29-1.19,2-1.79a27.46,27.46,0,0,1,4.51-3.44,14.17,14.17,0,0,1,5.62-1.94,27.38,27.38,0,0,1,5.28,0,29.28,29.28,0,0,0,4.51-.07,25.48,25.48,0,0,0,4.45-.86,39.77,39.77,0,0,0,4.59-1.65c1.56-.65,3.13-1.42,4.82-2.18a19.83,19.83,0,0,1-7.31,8.32,19.35,19.35,0,0,1-5.39,2.37,22.09,22.09,0,0,1-5.82.69,32.76,32.76,0,0,1-5.09-.37c-1.54-.24-3-.49-4.64-.6a13.56,13.56,0,0,0-5,.61,11.39,11.39,0,0,0-2.35,1.09,12.72,12.72,0,0,0-1.06.75l-.5.41"/><path class="cls-1" d="M194.5,161.3l.24-.26.48-.52c.33-.35.65-.7,1-1.07a14.86,14.86,0,0,0,1.87-2.46,7.71,7.71,0,0,0,1.06-3.06,15.25,15.25,0,0,0,0-2.87,16.7,16.7,0,0,1,0-2.46,13.41,13.41,0,0,1,.47-2.42,23.57,23.57,0,0,1,.89-2.5c.36-.84.78-1.7,1.19-2.62a10.84,10.84,0,0,0-4.53,4,10.39,10.39,0,0,0-1.28,2.93,12,12,0,0,0-.38,3.17,17.83,17.83,0,0,0,.2,2.77c.13.84.27,1.63.33,2.53a7.78,7.78,0,0,1-.33,2.73,6,6,0,0,1-.6,1.28c-.12.2-.26.39-.4.58l-.23.27"/><path class="cls-1" d="M206.58,145.79l.15-.23.31-.46.62-.95A12,12,0,0,0,208.8,142a6,6,0,0,0,.43-2.5,11.61,11.61,0,0,0-.35-2.22,13,13,0,0,1-.28-1.9,11.42,11.42,0,0,1,.06-1.93,20.31,20.31,0,0,1,.38-2.05c.18-.7.39-1.41.6-2.17a8.42,8.42,0,0,0-3,3.64,8.54,8.54,0,0,0-.63,2.42,9.4,9.4,0,0,0,.11,2.5,12.72,12.72,0,0,0,.5,2.12c.2.63.41,1.22.56,1.91a5.74,5.74,0,0,1,.09,2.15,4.92,4.92,0,0,1-.3,1.06,4.59,4.59,0,0,1-.24.5l-.15.24"/><path class="cls-1" d="M213.72,134.66l.14-.27.3-.56c.2-.37.39-.75.59-1.14a13.68,13.68,0,0,0,1-2.53,6.77,6.77,0,0,0,.21-2.86,13.27,13.27,0,0,0-.65-2.46,13.41,13.41,0,0,1-.53-2.12,11.92,11.92,0,0,1-.15-2.18,19.29,19.29,0,0,1,.2-2.34c.11-.81.28-1.64.42-2.52a9.53,9.53,0,0,0-3,4.44,9.38,9.38,0,0,0-.44,2.81,10.7,10.7,0,0,0,.4,2.8,15.77,15.77,0,0,0,.81,2.33c.3.69.6,1.33.85,2.08a6.73,6.73,0,0,1,.34,2.42,5.67,5.67,0,0,1-.22,1.23,4.19,4.19,0,0,1-.22.59c0,.09-.08.19-.13.28"/><path class="cls-1" d="M202.26,161.52l.2-.35.41-.69c.28-.47.56-.94.85-1.41a17.89,17.89,0,0,1,2.07-2.85,8.89,8.89,0,0,1,3-2.14,17.37,17.37,0,0,1,3.14-.94,17.25,17.25,0,0,0,2.66-.84,15.19,15.19,0,0,0,2.49-1.3,27.05,27.05,0,0,0,2.44-1.79c.81-.66,1.6-1.4,2.47-2.15a12.21,12.21,0,0,1-2.87,6.23,11.67,11.67,0,0,1-2.77,2.36,13.34,13.34,0,0,1-3.34,1.44,19.88,19.88,0,0,1-3.09.69c-1,.13-1.86.23-2.86.46a8.68,8.68,0,0,0-2.87,1.25,7.18,7.18,0,0,0-1.2,1.07,7.68,7.68,0,0,0-.5.63l-.22.33"/><path class="cls-1" d="M228.11,136.37l-.34.09-.69.19-1.4.39a18.58,18.58,0,0,0-3,1.06,10.32,10.32,0,0,0-2.79,1.91,20,20,0,0,0-1.92,2.23,19.38,19.38,0,0,1-1.67,1.9,16.9,16.9,0,0,1-2,1.67,27.05,27.05,0,0,1-2.3,1.54c-.82.5-1.68,1-2.58,1.5a11.92,11.92,0,0,0,5.84-1,13.32,13.32,0,0,0,2.86-1.7,15.86,15.86,0,0,0,2.39-2.3,22.38,22.38,0,0,0,1.71-2.25c.47-.71.9-1.39,1.46-2.11a9.48,9.48,0,0,1,2.06-2,8,8,0,0,1,1.27-.72c.22-.1.44-.19.67-.27l.34-.11"/><path class="cls-1" d="M224.88,102.39l-.09.26-.18.53c-.13.35-.25.71-.37,1.08a14.5,14.5,0,0,0-.62,2.38,8.35,8.35,0,0,0,0,2.64,15,15,0,0,0,.6,2.24,15.78,15.78,0,0,1,.49,1.91,14.23,14.23,0,0,1,.22,2,19.75,19.75,0,0,1,0,2.17c0,.75-.11,1.52-.17,2.34a9.51,9.51,0,0,0,1.91-4.24,11.25,11.25,0,0,0,.16-2.61,12.13,12.13,0,0,0-.43-2.55,16.63,16.63,0,0,0-.7-2.1c-.25-.62-.5-1.2-.73-1.88a7.93,7.93,0,0,1-.37-2.21,6.27,6.27,0,0,1,.1-1.14,4.88,4.88,0,0,1,.12-.55c0-.09,0-.18.08-.27"/><path class="cls-1" d="M222.46,92.93l-.05.15-.11.3c-.07.2-.14.4-.2.6a7.73,7.73,0,0,0-.35,1.34,4.66,4.66,0,0,0,0,1.49,7.37,7.37,0,0,0,.34,1.26,8.82,8.82,0,0,1,.27,1.07,8.13,8.13,0,0,1,.13,1.13c0,.39,0,.8,0,1.22s-.07.85-.1,1.31a5.26,5.26,0,0,0,1.07-2.38,6,6,0,0,0,.09-1.47,6.57,6.57,0,0,0-.24-1.43,10.4,10.4,0,0,0-.39-1.19,10,10,0,0,1-.41-1,4.18,4.18,0,0,1-.21-1.24,4.48,4.48,0,0,1,.05-.64c0-.11,0-.21.07-.32s0-.1.05-.15"/><path class="cls-1" d="M231.43,118.6l-.22.17-.45.35-.9.72a15.71,15.71,0,0,0-1.85,1.68,9.14,9.14,0,0,0-1.55,2.22,16.88,16.88,0,0,0-.87,2.2,16.3,16.3,0,0,1-1.77,3.67c-.39.6-.81,1.21-1.28,1.81s-1,1.22-1.5,1.88a10.14,10.14,0,0,0,3.89-2.57,12.23,12.23,0,0,0,1.65-2.1,14.21,14.21,0,0,0,1.18-2.38,21.57,21.57,0,0,0,.72-2.14c.17-.65.33-1.27.56-2a8.53,8.53,0,0,1,1-2.05,6.53,6.53,0,0,1,.74-.91,5.14,5.14,0,0,1,.41-.4l.22-.19"/><path class="cls-1" d="M19.19,252.2l-.63,0h-1q-4.83,0-7.41,2a8,8,0,0,0,0,11.72q2.58,2,7.41,2h1.66v6.92h-.77a32.11,32.11,0,0,1-6.76-.62,14.76,14.76,0,0,1-4.88-1.88,14.73,14.73,0,0,1-5-5.29,14.84,14.84,0,0,1,0-14,14.53,14.53,0,0,1,5-5.27,14.76,14.76,0,0,1,4.88-1.88,32.11,32.11,0,0,1,6.76-.62h.77Z"/><path class="cls-1" d="M21.5,260a15,15,0,0,1,1.15-5.84,15.51,15.51,0,0,1,3.34-5,15.18,15.18,0,0,1,16.56-3.29,15.32,15.32,0,0,1,8.19,8.25A15.42,15.42,0,0,1,51.87,260,15.66,15.66,0,0,1,50.74,266a15.44,15.44,0,0,1-8.19,8.27,15,15,0,0,1-5.83,1.16,14.78,14.78,0,0,1-5.79-1.16A15.39,15.39,0,0,1,26,270.87a15.69,15.69,0,0,1-3.34-5A14.93,14.93,0,0,1,21.5,260Zm7.55,0a7.86,7.86,0,0,0,2.25,5.66A7.25,7.25,0,0,0,36.72,268a7.16,7.16,0,0,0,5.38-2.33,8.32,8.32,0,0,0,0-11.33,7.2,7.2,0,0,0-5.39-2.3,7.28,7.28,0,0,0-5.44,2.31A7.84,7.84,0,0,0,29.05,260Z"/><path class="cls-1" d="M55.2,274.86V249.8A5.5,5.5,0,0,1,56.43,246a4.15,4.15,0,0,1,3.28-1.39,4.55,4.55,0,0,1,2.91,1,12.19,12.19,0,0,1,2.71,3.69l3.89,7c.81,1.47,1.45,2.71,1.91,3.72a26.83,26.83,0,0,1,1.11,2.79c-.17-1.82-.3-3.47-.39-4.94s-.13-2.61-.13-3.39v-9.24h7.11v26.05a4.13,4.13,0,0,1-1,2.91,3.47,3.47,0,0,1-2.7,1.12,4,4,0,0,1-2.43-.75,9.1,9.1,0,0,1-2.18-2.87l-5.77-10.4-.56-1a36,36,0,0,1-2.64-5.59c.27,2,.48,3.77.61,5.39s.19,3.14.19,4.56v10.21Z"/><path class="cls-1" d="M82.37,274.86v-7.07H92.56a2.24,2.24,0,0,0,1.38-.37,1.29,1.29,0,0,0,.48-1.08,2,2,0,0,0-.49-1.23,6.74,6.74,0,0,0-1.53-1.25l-5.69-3.43a9.25,9.25,0,0,1-3.1-3.09,7.39,7.39,0,0,1-1.16-3.9,9,9,0,0,1,.66-3.52,7.19,7.19,0,0,1,5-4.22,26.3,26.3,0,0,1,5.77-.44h6.76V252H92.85a6.2,6.2,0,0,0-2.22.26.88.88,0,0,0-.61.87,1.92,1.92,0,0,0,.47,1.19A5.55,5.55,0,0,0,92,255.55l5.56,3.31a10.79,10.79,0,0,1,3.62,3.43,8,8,0,0,1,1.24,4.32,8.2,8.2,0,0,1-.85,3.72,7.38,7.38,0,0,1-2.35,2.8,8.84,8.84,0,0,1-3,1.33,24.36,24.36,0,0,1-5.25.4H82.37Z"/><path class="cls-1" d="M124.11,274.86h-.76a32.21,32.21,0,0,1-6.77-.62,14.24,14.24,0,0,1-9.89-7.17,14.84,14.84,0,0,1,0-14,14.33,14.33,0,0,1,9.9-7.15,32.21,32.21,0,0,1,6.77-.62h.76V252l-.61,0h-.92a14,14,0,0,0-6.18,1.13,6.66,6.66,0,0,0-3.29,3.52h11v6.61H113a5.91,5.91,0,0,0,3.18,3.67,14.76,14.76,0,0,0,6.58,1.23h1.38Z"/><path class="cls-1" d="M141.73,245.26V265q0,5-2.55,7.47t-7.79,2.43h-5.25V268h5.12a3.2,3.2,0,0,0,2.32-.77,3,3,0,0,0,.78-2.27V245.26Z"/><path class="cls-1" d="M144.89,260A15,15,0,0,1,146,254.2a15.35,15.35,0,0,1,3.34-5,15,15,0,0,1,10.72-4.45,15.17,15.17,0,0,1,14,9.41,15.24,15.24,0,0,1,1.14,5.87,15.47,15.47,0,0,1-1.14,5.91,14.79,14.79,0,0,1-3.26,4.92,14.92,14.92,0,0,1-10.76,4.51,14.77,14.77,0,0,1-5.78-1.16,15.29,15.29,0,0,1-4.94-3.35,15.53,15.53,0,0,1-3.34-5A14.93,14.93,0,0,1,144.89,260Zm7.54,0a7.87,7.87,0,0,0,2.26,5.66,7.41,7.41,0,0,0,10.8,0,8.35,8.35,0,0,0,0-11.33,7.51,7.51,0,0,0-10.83,0A7.85,7.85,0,0,0,152.43,260Z"/><path class="cls-1" d="M189,274.86l3.2-24a8.14,8.14,0,0,1,1.82-4.51,4.79,4.79,0,0,1,3.7-1.59,4.94,4.94,0,0,1,3.58,1.41,8.25,8.25,0,0,1,2.09,4.09l1.94,8.21c.19.78.36,1.66.5,2.61s.25,2.05.35,3.28c.09-1.23.21-2.32.35-3.28s.3-1.83.49-2.61l1.95-8.21a8.17,8.17,0,0,1,2.09-4.09,4.93,4.93,0,0,1,3.59-1.41,4.73,4.73,0,0,1,3.69,1.59,8.14,8.14,0,0,1,1.81,4.51l3.23,24h-7.07l-1.66-18.5c-.08-1-.15-1.91-.22-2.82s-.13-1.8-.17-2.64c-.23,1.24-.43,2.27-.59,3.08s-.31,1.54-.46,2.17l-3.08,14.39a8.17,8.17,0,0,1-1.46,3.52,3.16,3.16,0,0,1-2.49,1.05,3.1,3.1,0,0,1-2.47-1.05,8.05,8.05,0,0,1-1.46-3.52l-3.1-14.39c-.18-.87-.51-2.51-1-4.94,0-.14-.05-.24-.07-.31a49.3,49.3,0,0,1-.29,5c0,.22,0,.38,0,.48l-1.65,18.5Z"/><path class="cls-1" d="M244.23,274.86h-.76a32.21,32.21,0,0,1-6.77-.62,14.24,14.24,0,0,1-9.89-7.17,14.84,14.84,0,0,1,0-14,14.33,14.33,0,0,1,9.9-7.15,32.21,32.21,0,0,1,6.77-.62h.76V252l-.61,0h-.92a14,14,0,0,0-6.18,1.13,6.66,6.66,0,0,0-3.29,3.52h11v6.61H233.09a5.91,5.91,0,0,0,3.18,3.67,14.76,14.76,0,0,0,6.58,1.23h1.38Z"/><path class="cls-1" d="M248.2,274.86v-29.6h5.44a34.49,34.49,0,0,1,6.8.52,13.54,13.54,0,0,1,4.4,1.73,15.46,15.46,0,0,1,5.34,5.42,14,14,0,0,1,1.88,7.11,14.34,14.34,0,0,1-1.72,6.89,15.31,15.31,0,0,1-4.81,5.39,13.5,13.5,0,0,1-3.85,1.78,21.35,21.35,0,0,1-5,.76v-7.11a8,8,0,0,0,5.6-2.28,7.45,7.45,0,0,0,2.15-5.47,7.37,7.37,0,0,0-2.28-5.56,8.14,8.14,0,0,0-5.89-2.2l-.36,0-.36,0v22.57Z"/><path class="cls-1" d="M275.49,274.86v-29.6h7.36v29.6Z"/><path class="cls-1" d="M305.51,252.2l-.63,0h-1q-4.85,0-7.42,2a8,8,0,0,0,0,11.72q2.58,2,7.42,2h1.65v6.92h-.76a32.21,32.21,0,0,1-6.77-.62,14.24,14.24,0,0,1-9.89-7.17,14.84,14.84,0,0,1,0-14,14.33,14.33,0,0,1,9.9-7.15,32.21,32.21,0,0,1,6.77-.62h.76Z"/><path class="cls-1" d="M307.83,260A15.16,15.16,0,0,1,309,254.2a15.68,15.68,0,0,1,3.34-5,15.18,15.18,0,0,1,16.56-3.29,15.32,15.32,0,0,1,8.19,8.25A15.24,15.24,0,0,1,338.2,260a15.47,15.47,0,0,1-1.14,5.91,15.44,15.44,0,0,1-8.19,8.27,15,15,0,0,1-5.83,1.16,14.85,14.85,0,0,1-5.79-1.16,15.39,15.39,0,0,1-4.94-3.35,15.86,15.86,0,0,1-3.34-5A15.1,15.1,0,0,1,307.83,260Zm7.54,0a7.86,7.86,0,0,0,2.25,5.66A7.27,7.27,0,0,0,323,268a7.18,7.18,0,0,0,5.39-2.33,8.35,8.35,0,0,0,0-11.33,7.52,7.52,0,0,0-10.84,0A7.88,7.88,0,0,0,315.37,260Z"/><path class="cls-1" d="M.75,307.55V287.4h3.7a23.46,23.46,0,0,1,4.63.35,9.09,9.09,0,0,1,3,1.18,10.41,10.41,0,0,1,3.63,3.69A9.55,9.55,0,0,1,17,297.46a9.79,9.79,0,0,1-1.17,4.69,10.46,10.46,0,0,1-3.28,3.67A9.16,9.16,0,0,1,9.92,307a14.53,14.53,0,0,1-3.37.52v-4.84a5.45,5.45,0,0,0,3.81-1.56,5.44,5.44,0,0,0-.09-7.51,5.56,5.56,0,0,0-4-1.49l-.25,0H5.77v15.37Z"/><path class="cls-1" d="M31.63,307.55h-.52a22.37,22.37,0,0,1-4.61-.42,10.37,10.37,0,0,1-3.32-1.28,10,10,0,0,1-3.41-3.61,9.75,9.75,0,0,1-1.2-4.78,9.65,9.65,0,0,1,1.19-4.77,9.94,9.94,0,0,1,3.42-3.59,10.14,10.14,0,0,1,3.32-1.28,22.37,22.37,0,0,1,4.61-.42h.52V292l-.42,0h-.63a9.49,9.49,0,0,0-4.2.77,4.55,4.55,0,0,0-2.24,2.39h7.49v4.5H24a4,4,0,0,0,2.17,2.5,10,10,0,0,0,4.47.84h.95Z"/><path class="cls-1" d="M41.9,307.55v-4.81h6.94a1.49,1.49,0,0,0,.93-.26.86.86,0,0,0,.33-.73,1.36,1.36,0,0,0-.33-.84,4.6,4.6,0,0,0-1-.85l-3.87-2.33a6.38,6.38,0,0,1-2.12-2.11A5.05,5.05,0,0,1,42,293a6.18,6.18,0,0,1,.45-2.4,4.87,4.87,0,0,1,1.33-1.84,4.81,4.81,0,0,1,2-1,18.19,18.19,0,0,1,3.93-.3h4.6V292H49a4.33,4.33,0,0,0-1.52.18.6.6,0,0,0-.41.6,1.28,1.28,0,0,0,.32.8,3.8,3.8,0,0,0,1,.81l3.79,2.26A7.28,7.28,0,0,1,54.68,299a5.46,5.46,0,0,1,.84,2.94,5.73,5.73,0,0,1-.57,2.54,5,5,0,0,1-1.61,1.9,5.87,5.87,0,0,1-2,.9,16.23,16.23,0,0,1-3.58.28H41.9Z"/><path class="cls-1" d="M57.27,307.55V295.64a9,9,0,0,1,2.1-6.25,7.09,7.09,0,0,1,5.57-2.33,7.19,7.19,0,0,1,5.59,2.33,9,9,0,0,1,2.11,6.25v11.91h-5v-7.46H63.15v-4.73h4.49v-.24a3.46,3.46,0,0,0-.73-2.31,2.47,2.47,0,0,0-2-.85,2.37,2.37,0,0,0-2,.87,4.09,4.09,0,0,0-.68,2.56v12.16Z"/><path class="cls-1" d="M75.42,307.55V290.49a3.75,3.75,0,0,1,.84-2.57,2.84,2.84,0,0,1,2.23-.95,3.12,3.12,0,0,1,2,.66,8.44,8.44,0,0,1,1.84,2.51L85,294.92c.55,1,1,1.85,1.3,2.54a18.54,18.54,0,0,1,.75,1.9c-.11-1.24-.2-2.36-.26-3.37s-.09-1.77-.09-2.3V287.4h4.84v17.73a2.79,2.79,0,0,1-.7,2,2.34,2.34,0,0,1-1.83.76,2.77,2.77,0,0,1-1.66-.5,6.25,6.25,0,0,1-1.48-2l-3.93-7.08c-.08-.16-.21-.39-.38-.7a25.51,25.51,0,0,1-1.8-3.8q.28,2,.42,3.66c.08,1.11.13,2.14.13,3.11v6.95Z"/><path class="cls-1" d="M102.67,292.1v15.45h-5V292.1H93.34v-4.7H107v4.7Z"/><path class="cls-1" d="M108.91,307.55V287.4h5v20.15Z"/><path class="cls-1" d="M116.8,307.55V295.64a9,9,0,0,1,2.1-6.25,7.1,7.1,0,0,1,5.57-2.33,7.19,7.19,0,0,1,5.59,2.33,9,9,0,0,1,2.11,6.25v11.91h-5v-7.46h-4.49v-4.73h4.49v-.24a3.46,3.46,0,0,0-.73-2.31,2.45,2.45,0,0,0-2-.85,2.37,2.37,0,0,0-2,.87,4.09,4.09,0,0,0-.68,2.56v12.16Z"/><path class="cls-1" d="M152.18,290.17l-3.38,3.57a8.11,8.11,0,0,0-2.17-1.43,5.51,5.51,0,0,0-2.2-.47,5.22,5.22,0,0,0-3.88,1.61,5.44,5.44,0,0,0-1.57,4,5.35,5.35,0,0,0,1.52,3.88,5,5,0,0,0,3.76,1.57A4.57,4.57,0,0,0,147,302a5.11,5.11,0,0,0,1.79-2.48h-5V295h10.53v.84a19,19,0,0,1-.3,3.56,11.09,11.09,0,0,1-.91,2.8,9.92,9.92,0,0,1-3.66,4.15,9.54,9.54,0,0,1-5.25,1.51,10.43,10.43,0,0,1-4.07-.79,10.1,10.1,0,0,1-3.38-2.28,10.55,10.55,0,0,1-2.24-3.38,10.57,10.57,0,0,1,0-8,10.49,10.49,0,0,1,2.27-3.37,9.9,9.9,0,0,1,3.42-2.29,11.13,11.13,0,0,1,8.21,0A12.42,12.42,0,0,1,152.18,290.17Z"/><path class="cls-1" d="M156.07,297.46a10.27,10.27,0,0,1,.78-4,10.84,10.84,0,0,1,2.27-3.4,10.17,10.17,0,0,1,7.3-3,10.25,10.25,0,0,1,7.32,3.05,10.29,10.29,0,0,1,2.23,3.35,10.83,10.83,0,0,1,0,8,10,10,0,0,1-2.23,3.35,9.88,9.88,0,0,1-3.35,2.28,10.29,10.29,0,0,1-7.91,0,10.32,10.32,0,0,1-3.36-2.28,10.68,10.68,0,0,1-2.27-3.39A10.23,10.23,0,0,1,156.07,297.46Zm5.13,0a5.34,5.34,0,0,0,1.54,3.86,4.93,4.93,0,0,0,3.68,1.59,4.88,4.88,0,0,0,3.67-1.59,5.69,5.69,0,0,0,0-7.71,4.9,4.9,0,0,0-3.68-1.57,5,5,0,0,0-3.7,1.58A5.34,5.34,0,0,0,161.2,297.43Z"/><path class="cls-1" d="M187.17,307.55V287.4h3.7a23.39,23.39,0,0,1,4.63.35,9.09,9.09,0,0,1,3,1.18,10.41,10.41,0,0,1,3.63,3.69,9.55,9.55,0,0,1,1.28,4.84,9.79,9.79,0,0,1-1.17,4.69,10.46,10.46,0,0,1-3.28,3.67,9.23,9.23,0,0,1-2.61,1.21,14.62,14.62,0,0,1-3.38.52v-4.84a5.45,5.45,0,0,0,3.81-1.56,5.41,5.41,0,0,0-.09-7.51,5.56,5.56,0,0,0-4-1.49l-.25,0h-.25v15.37Z"/><path class="cls-1" d="M218.05,307.55h-.52a22.37,22.37,0,0,1-4.61-.42,10.37,10.37,0,0,1-3.32-1.28,10,10,0,0,1-3.41-3.61,10.14,10.14,0,0,1,0-9.55,9.94,9.94,0,0,1,3.42-3.59,10.14,10.14,0,0,1,3.32-1.28,22.37,22.37,0,0,1,4.61-.42h.52V292l-.42,0H217a9.51,9.51,0,0,0-4.21.77,4.55,4.55,0,0,0-2.24,2.39h7.49v4.5h-7.59a4,4,0,0,0,2.17,2.5,10,10,0,0,0,4.47.84h1Z"/><path class="cls-1" d="M220.61,287.4h5v13.38a2.11,2.11,0,0,0,.53,1.55,2.18,2.18,0,0,0,1.57.52h3.9v4.7h-4q-3.59,0-5.31-1.65a6.77,6.77,0,0,1-1.73-5.09Z"/><path class="cls-1" d="M253.74,307.55h-.52a22.2,22.2,0,0,1-4.6-.42,10.34,10.34,0,0,1-3.33-1.28,10,10,0,0,1-3.41-3.61,10.14,10.14,0,0,1,0-9.55,9.94,9.94,0,0,1,3.42-3.59,10.11,10.11,0,0,1,3.33-1.28,22.2,22.2,0,0,1,4.6-.42h.52V292l-.42,0h-.62a9.51,9.51,0,0,0-4.21.77,4.55,4.55,0,0,0-2.24,2.39h7.49v4.5h-7.59a4,4,0,0,0,2.17,2.5,10,10,0,0,0,4.48.84h.94Z"/><path class="cls-1" d="M255.88,307.55v-4.81h6.94a1.49,1.49,0,0,0,.93-.26.86.86,0,0,0,.33-.73,1.32,1.32,0,0,0-.34-.84,4.19,4.19,0,0,0-1-.85l-3.87-2.33a6.45,6.45,0,0,1-2.11-2.11,5.06,5.06,0,0,1-.79-2.65,6.18,6.18,0,0,1,.45-2.4,4.89,4.89,0,0,1,1.34-1.84,4.69,4.69,0,0,1,2-1,18.19,18.19,0,0,1,3.93-.3h4.6V292H263a4.3,4.3,0,0,0-1.51.18.6.6,0,0,0-.42.6,1.24,1.24,0,0,0,.33.8,3.64,3.64,0,0,0,1,.81l3.78,2.26a7.31,7.31,0,0,1,2.47,2.33,5.46,5.46,0,0,1,.84,2.94,5.61,5.61,0,0,1-.58,2.54,5,5,0,0,1-1.6,1.9,5.92,5.92,0,0,1-2,.9,16.06,16.06,0,0,1-3.57.28h-5.84Z"/><path class="cls-1" d="M280.11,292.1v15.45h-5V292.1h-4.32v-4.7h13.65v4.7Z"/><path class="cls-1" d="M298.65,307.55h-.52a22.37,22.37,0,0,1-4.61-.42,10.37,10.37,0,0,1-3.32-1.28,10,10,0,0,1-3.41-3.61,10.14,10.14,0,0,1,0-9.55,9.94,9.94,0,0,1,3.42-3.59,10.14,10.14,0,0,1,3.32-1.28,22.37,22.37,0,0,1,4.61-.42h.52V292l-.42,0h-.62a9.51,9.51,0,0,0-4.21.77,4.55,4.55,0,0,0-2.24,2.39h7.49v4.5h-7.59a4,4,0,0,0,2.17,2.5,10,10,0,0,0,4.47.84h.95Z"/><path class="cls-1" d="M301.18,307.52V294.35a7.21,7.21,0,0,1,2-5.3,7,7,0,0,1,5.22-2,7.52,7.52,0,0,1,5,1.72,5.24,5.24,0,0,1,2.06,4.13,4.41,4.41,0,0,1-.87,2.71,4.78,4.78,0,0,1-2.42,1.67,4.06,4.06,0,0,1,2.76,1.18,4.48,4.48,0,0,1,.84,3v6.11h-5v-4.87a2.81,2.81,0,0,0-.67-2.18,4.11,4.11,0,0,0-2.61-.59H307v-4.52h.74a2.94,2.94,0,0,0,1.83-.48,1.66,1.66,0,0,0,.62-1.42,1.82,1.82,0,0,0-.53-1.35,1.76,1.76,0,0,0-1.31-.54,1.9,1.9,0,0,0-1.59.73,3.31,3.31,0,0,0-.56,2.07v13.12Z"/><path class="cls-1" d="M317.46,297.46a10.1,10.1,0,0,1,.79-4,10.67,10.67,0,0,1,2.27-3.4,10.17,10.17,0,0,1,7.3-3,10.31,10.31,0,0,1,9.54,6.4,10.7,10.7,0,0,1,0,8,9.81,9.81,0,0,1-2.22,3.35,10,10,0,0,1-3.35,2.28,10.12,10.12,0,0,1-4,.79,10,10,0,0,1-3.94-.79,10.22,10.22,0,0,1-3.36-2.28,10.52,10.52,0,0,1-2.27-3.39A10.06,10.06,0,0,1,317.46,297.46Zm5.14,0a5.37,5.37,0,0,0,1.53,3.86,5,5,0,0,0,3.69,1.59,4.88,4.88,0,0,0,3.67-1.59,5.69,5.69,0,0,0,0-7.71,4.9,4.9,0,0,0-3.68-1.57,5,5,0,0,0-3.7,1.58A5.34,5.34,0,0,0,322.6,297.43Z"/></g></g></svg>