<svg xmlns="http://www.w3.org/2000/svg" viewBox="0 0 354.92 167.72"><defs><style>.cls-1{fill:#fff;}</style></defs><g id="Capa_2" data-name="Capa 2"><g id="Capa_1-2" data-name="Capa 1"><path class="cls-1" d="M260.67,0h-7.12c1.41,4.12.61,8.37-2.37,10.59-3.94,2.94-10.18,1.24-14-3.81A13.41,13.41,0,0,1,234.55,0h-18c1.41,4.12.61,8.37-2.37,10.59-3.94,2.94-10.18,1.24-14-3.81A13.41,13.41,0,0,1,197.55,0h-20a22.3,22.3,0,0,0-13.33,4.38,35.33,35.33,0,0,0-10.4,45l18.41,35.2a4.61,4.61,0,0,1-4.09,6.76h-78V24h29a12,12,0,0,0,0-24H88.61A22.5,22.5,0,0,0,66.14,22.47V92.91a22.5,22.5,0,0,0,22.47,22.47h38.74c-1.64-4.26-.9-8.75,2.19-11.06,3.94-2.94,10.19-1.23,14,3.81a13.38,13.38,0,0,1,2.71,7.25h22A28.62,28.62,0,0,0,193.53,73.5L175.12,38.3a11.45,11.45,0,0,1,3-14.3h81v79.38a12,12,0,0,0,24,0V22.47A22.5,22.5,0,0,0,260.67,0Z"/><path class="cls-1" d="M16.05,158.31c0,.28,0,.51,0,.71a2.91,2.91,0,0,1-.08.5,1.51,1.51,0,0,1-.13.36,2.21,2.21,0,0,1-.27.35,3.28,3.28,0,0,1-.71.49,8.79,8.79,0,0,1-1.29.58,10.3,10.3,0,0,1-1.75.46,10.85,10.85,0,0,1-2.12.19,11.17,11.17,0,0,1-4-.69A7.93,7.93,0,0,1,2.6,159.2a9.13,9.13,0,0,1-1.93-3.41,17,17,0,0,1,.07-9.68A10.34,10.34,0,0,1,2.8,142.5,8.56,8.56,0,0,1,6,140.29a10.81,10.81,0,0,1,4.08-.75,9.91,9.91,0,0,1,1.75.15,10.63,10.63,0,0,1,1.55.39,7.58,7.58,0,0,1,1.28.56,4.21,4.21,0,0,1,.8.55,1.51,1.51,0,0,1,.31.38,1.38,1.38,0,0,1,.14.38c0,.16,0,.34.07.55s0,.48,0,.79a7.09,7.09,0,0,1,0,.86,2.5,2.5,0,0,1-.11.57.81.81,0,0,1-.21.32.35.35,0,0,1-.26.1,1.16,1.16,0,0,1-.64-.3,11.8,11.8,0,0,0-1-.65,7.68,7.68,0,0,0-1.46-.65,6.05,6.05,0,0,0-2-.3,5,5,0,0,0-2.31.53,5.07,5.07,0,0,0-1.73,1.51,7.34,7.34,0,0,0-1.08,2.38,13.66,13.66,0,0,0,0,6.44,6.39,6.39,0,0,0,1.12,2.31A4.51,4.51,0,0,0,8,157.76a5.8,5.8,0,0,0,2.33.45,6.77,6.77,0,0,0,2-.28,8.13,8.13,0,0,0,1.46-.61c.41-.23.75-.43,1-.61a1.21,1.21,0,0,1,.61-.26.54.54,0,0,1,.27.06.57.57,0,0,1,.17.27,2.86,2.86,0,0,1,.1.56C16,157.58,16.05,157.9,16.05,158.31Z"/><path class="cls-1" d="M34.1,153.39a11.28,11.28,0,0,1-.5,3.49,7.48,7.48,0,0,1-1.53,2.72,6.7,6.7,0,0,1-2.56,1.76,9.71,9.71,0,0,1-3.61.62,9.83,9.83,0,0,1-3.47-.55A6.28,6.28,0,0,1,20,159.82a6.59,6.59,0,0,1-1.44-2.6,11.93,11.93,0,0,1-.47-3.53,11.32,11.32,0,0,1,.51-3.49,7.32,7.32,0,0,1,1.53-2.72,6.75,6.75,0,0,1,2.56-1.75,9.42,9.42,0,0,1,3.6-.62,10.2,10.2,0,0,1,3.49.54,6.11,6.11,0,0,1,2.44,1.6,6.7,6.7,0,0,1,1.43,2.6A12,12,0,0,1,34.1,153.39Zm-4.34.17a10.75,10.75,0,0,0-.18-2A4.86,4.86,0,0,0,29,149.9a3,3,0,0,0-1.12-1.07,3.54,3.54,0,0,0-1.75-.39,3.71,3.71,0,0,0-1.65.35,2.92,2.92,0,0,0-1.15,1,4.75,4.75,0,0,0-.68,1.6,9.06,9.06,0,0,0-.23,2.12,10,10,0,0,0,.19,2,5.09,5.09,0,0,0,.59,1.62,2.86,2.86,0,0,0,1.12,1.06,3.67,3.67,0,0,0,1.74.38,3.73,3.73,0,0,0,1.66-.35,2.92,2.92,0,0,0,1.16-1,4.8,4.8,0,0,0,.67-1.59A9.09,9.09,0,0,0,29.76,153.56Z"/><path class="cls-1" d="M51.73,161a.45.45,0,0,1-.1.3.78.78,0,0,1-.33.21,3.46,3.46,0,0,1-.65.12,9.29,9.29,0,0,1-1,0,9.76,9.76,0,0,1-1,0,3.5,3.5,0,0,1-.64-.12.83.83,0,0,1-.34-.21.51.51,0,0,1-.1-.3v-8.53a7,7,0,0,0-.16-1.71,3.27,3.27,0,0,0-.46-1.07,2,2,0,0,0-.78-.69,2.45,2.45,0,0,0-1.11-.24,2.75,2.75,0,0,0-1.63.59,8.59,8.59,0,0,0-1.71,1.71V161a.51.51,0,0,1-.1.3.81.81,0,0,1-.35.21,3.5,3.5,0,0,1-.64.12,10.53,10.53,0,0,1-2,0,3.5,3.5,0,0,1-.64-.12.81.81,0,0,1-.35-.21.45.45,0,0,1-.1-.3v-15a.55.55,0,0,1,.08-.29.57.57,0,0,1,.31-.21,2.21,2.21,0,0,1,.56-.13,7,7,0,0,1,.86,0,7.31,7.31,0,0,1,.89,0,1.93,1.93,0,0,1,.55.13.5.5,0,0,1,.27.21.48.48,0,0,1,.09.29v1.73a9.34,9.34,0,0,1,2.52-2,5.69,5.69,0,0,1,2.68-.67,5.83,5.83,0,0,1,2.57.5,4.43,4.43,0,0,1,1.7,1.37,5.52,5.52,0,0,1,.93,2,11.79,11.79,0,0,1,.28,2.78Z"/><path class="cls-1" d="M66.41,156.8a5,5,0,0,1-.48,2.24,4.45,4.45,0,0,1-1.35,1.63,5.87,5.87,0,0,1-2.06,1,9.64,9.64,0,0,1-2.58.33,9.29,9.29,0,0,1-1.61-.13,10.21,10.21,0,0,1-1.36-.31,6.43,6.43,0,0,1-1-.4,2.41,2.41,0,0,1-.59-.38,1.09,1.09,0,0,1-.28-.55,4.44,4.44,0,0,1-.1-1.11q0-.49,0-.78a2,2,0,0,1,.1-.47.46.46,0,0,1,.17-.24.49.49,0,0,1,.25-.06,1.28,1.28,0,0,1,.55.21c.24.14.54.3.89.46a8.89,8.89,0,0,0,1.25.47,5.43,5.43,0,0,0,1.62.22,4,4,0,0,0,1-.12,2.84,2.84,0,0,0,.77-.33,1.39,1.39,0,0,0,.49-.56,1.59,1.59,0,0,0,.17-.77,1.26,1.26,0,0,0-.31-.86,2.83,2.83,0,0,0-.82-.63,8.42,8.42,0,0,0-1.16-.5c-.43-.16-.87-.33-1.32-.52a11,11,0,0,1-1.33-.66,5.08,5.08,0,0,1-1.16-.9,4.18,4.18,0,0,1-.82-1.3,4.66,4.66,0,0,1-.31-1.81,4.61,4.61,0,0,1,.42-2,4.18,4.18,0,0,1,1.21-1.53,5.45,5.45,0,0,1,1.92-1,8.34,8.34,0,0,1,2.54-.35,8.75,8.75,0,0,1,1.37.1,9,9,0,0,1,1.2.25,6.54,6.54,0,0,1,.9.32,2.74,2.74,0,0,1,.53.31.76.76,0,0,1,.23.25,1.05,1.05,0,0,1,.1.3c0,.12,0,.26.06.44s0,.38,0,.64,0,.55,0,.74a2,2,0,0,1-.09.45.38.38,0,0,1-.16.23.41.41,0,0,1-.23.06,1.12,1.12,0,0,1-.47-.18c-.21-.12-.48-.24-.8-.38a9.41,9.41,0,0,0-1.1-.37,5.25,5.25,0,0,0-1.44-.18,3.63,3.63,0,0,0-1,.12,2,2,0,0,0-.69.33,1.45,1.45,0,0,0-.53,1.14,1.24,1.24,0,0,0,.32.88,3,3,0,0,0,.83.62,9.7,9.7,0,0,0,1.19.5l1.34.51a12.68,12.68,0,0,1,1.34.65,5,5,0,0,1,1.18.9,4.11,4.11,0,0,1,.84,1.29A4.55,4.55,0,0,1,66.41,156.8Z"/><path class="cls-1" d="M83.4,153.11a1.64,1.64,0,0,1-.34,1.14,1.26,1.26,0,0,1-1,.37H73a6.24,6.24,0,0,0,.23,1.73,3.36,3.36,0,0,0,.72,1.33,3.2,3.2,0,0,0,1.28.83,5.46,5.46,0,0,0,1.87.28,10.2,10.2,0,0,0,1.94-.16,11.48,11.48,0,0,0,1.45-.35c.41-.13.75-.24,1-.35a1.78,1.78,0,0,1,.65-.16.46.46,0,0,1,.25.06.41.41,0,0,1,.17.21,1.11,1.11,0,0,1,.09.43,6.47,6.47,0,0,1,0,.69c0,.25,0,.46,0,.63s0,.32-.05.45a.94.94,0,0,1-.1.31,1.18,1.18,0,0,1-.17.24,2.4,2.4,0,0,1-.6.32,10.34,10.34,0,0,1-1.24.39c-.5.13-1.08.24-1.73.34a15.12,15.12,0,0,1-2.08.14,11.19,11.19,0,0,1-3.5-.5,6.08,6.08,0,0,1-4-4.11,12.15,12.15,0,0,1-.49-3.66,11.55,11.55,0,0,1,.52-3.6,7.64,7.64,0,0,1,1.51-2.72,6.48,6.48,0,0,1,2.41-1.7,9.34,9.34,0,0,1,6.4,0,5.84,5.84,0,0,1,2.19,1.53A6.26,6.26,0,0,1,83,149.52a10,10,0,0,1,.4,2.92Zm-4.09-1.21a4.33,4.33,0,0,0-.71-2.79,2.76,2.76,0,0,0-2.36-1,3.07,3.07,0,0,0-1.4.3,2.83,2.83,0,0,0-1,.82,3.75,3.75,0,0,0-.6,1.2A6.45,6.45,0,0,0,73,151.9Z"/><path class="cls-1" d="M91.42,161.53a11.09,11.09,0,0,1-.3,2.85,5,5,0,0,1-.91,1.84,3.86,3.86,0,0,1-1.54,1.12,5.71,5.71,0,0,1-2.16.38,5.77,5.77,0,0,1-1.18-.1,3,3,0,0,1-.7-.19.55.55,0,0,1-.3-.25,1,1,0,0,1-.12-.34c0-.13,0-.28,0-.44s0-.37,0-.63,0-.57,0-.78a1.48,1.48,0,0,1,.09-.49.56.56,0,0,1,.15-.27.29.29,0,0,1,.22-.09l.34.05a4.92,4.92,0,0,0,.56,0,1.94,1.94,0,0,0,.76-.14,1.25,1.25,0,0,0,.52-.42,2.32,2.32,0,0,0,.3-.76,7.45,7.45,0,0,0,.1-1.47V146.09a.43.43,0,0,1,.1-.29.83.83,0,0,1,.34-.22,2.59,2.59,0,0,1,.63-.14,10.53,10.53,0,0,1,2,0,2.9,2.9,0,0,1,.65.14.83.83,0,0,1,.34.22.43.43,0,0,1,.1.29ZM91.74,141a2.4,2.4,0,0,1-.51,1.76,2.9,2.9,0,0,1-1.94.48,2.81,2.81,0,0,1-1.91-.47,2.23,2.23,0,0,1-.5-1.69,2.38,2.38,0,0,1,.52-1.77,4,4,0,0,1,3.85,0A2.35,2.35,0,0,1,91.74,141Z"/><path class="cls-1" d="M110.78,153.39a11.58,11.58,0,0,1-.5,3.49,7.48,7.48,0,0,1-1.53,2.72,6.74,6.74,0,0,1-2.57,1.76,9.69,9.69,0,0,1-3.6.62,9.93,9.93,0,0,1-3.48-.55,6.24,6.24,0,0,1-2.44-1.61,6.73,6.73,0,0,1-1.45-2.6,12.27,12.27,0,0,1-.47-3.53,11.32,11.32,0,0,1,.51-3.49,7.48,7.48,0,0,1,1.54-2.72,6.68,6.68,0,0,1,2.56-1.75,9.42,9.42,0,0,1,3.6-.62,10.2,10.2,0,0,1,3.49.54,6.18,6.18,0,0,1,2.44,1.6,6.7,6.7,0,0,1,1.43,2.6A12.29,12.29,0,0,1,110.78,153.39Zm-4.34.17a10.75,10.75,0,0,0-.18-2,4.87,4.87,0,0,0-.6-1.62,3,3,0,0,0-1.11-1.07,3.57,3.57,0,0,0-1.75-.39,3.71,3.71,0,0,0-1.65.35,3,3,0,0,0-1.16,1,5.18,5.18,0,0,0-.68,1.6,9.09,9.09,0,0,0-.22,2.12,10.75,10.75,0,0,0,.18,2,5.1,5.1,0,0,0,.6,1.62,2.83,2.83,0,0,0,1.11,1.06,3.68,3.68,0,0,0,1.75.38,3.73,3.73,0,0,0,1.66-.35,3,3,0,0,0,1.16-1,4.8,4.8,0,0,0,.67-1.59A9.66,9.66,0,0,0,106.44,153.56Z"/><path class="cls-1" d="M135,155.09a6.63,6.63,0,0,1-.64,3,6.16,6.16,0,0,1-1.72,2.15,7.5,7.5,0,0,1-2.55,1.3A10.94,10.94,0,0,1,127,162a11.38,11.38,0,0,1-2.09-.18,11.87,11.87,0,0,1-1.7-.45,7,7,0,0,1-1.24-.54,3.45,3.45,0,0,1-.71-.51,1.17,1.17,0,0,1-.31-.63,5.79,5.79,0,0,1-.09-1.18q0-.53,0-.87a2.3,2.3,0,0,1,.11-.57.62.62,0,0,1,.2-.31.51.51,0,0,1,.3-.09,1.45,1.45,0,0,1,.66.27,10.83,10.83,0,0,0,1.1.62,10.57,10.57,0,0,0,1.6.61,7.75,7.75,0,0,0,2.15.27,5,5,0,0,0,1.45-.19,3.42,3.42,0,0,0,1.08-.54,2.46,2.46,0,0,0,.68-.88,2.84,2.84,0,0,0,.23-1.15,2,2,0,0,0-.4-1.27,4,4,0,0,0-1.05-.94,11.16,11.16,0,0,0-1.47-.77l-1.69-.76a15.33,15.33,0,0,1-1.69-.92,6.92,6.92,0,0,1-1.47-1.22,5.89,5.89,0,0,1-1.05-1.69,6.86,6.86,0,0,1,.18-5.07,5.51,5.51,0,0,1,1.56-2,6.61,6.61,0,0,1,2.31-1.16,10.27,10.27,0,0,1,4.37-.27,9.84,9.84,0,0,1,1.44.32,7.06,7.06,0,0,1,1.19.45,2.83,2.83,0,0,1,.69.42,1,1,0,0,1,.33.6,2.84,2.84,0,0,1,.06.48c0,.2,0,.44,0,.73s0,.6,0,.82a5,5,0,0,1-.08.56.74.74,0,0,1-.17.32.47.47,0,0,1-.3.1,1.39,1.39,0,0,1-.58-.24q-.41-.23-1-.51a10,10,0,0,0-1.36-.5,6.08,6.08,0,0,0-1.7-.23,3.88,3.88,0,0,0-1.25.18,2.57,2.57,0,0,0-.9.48,2,2,0,0,0-.54.75,2.39,2.39,0,0,0-.17.92,2,2,0,0,0,.39,1.25,3.49,3.49,0,0,0,1.06.94,10.48,10.48,0,0,0,1.5.77c.56.24,1.13.5,1.71.77a17.58,17.58,0,0,1,1.71.91,6.56,6.56,0,0,1,1.49,1.23,5.6,5.6,0,0,1,1.06,1.67A5.88,5.88,0,0,1,135,155.09Z"/><path class="cls-1" d="M152.31,161a.5.5,0,0,1-.08.3.68.68,0,0,1-.29.21,2.82,2.82,0,0,1-.56.12,6.64,6.64,0,0,1-.86,0,7.09,7.09,0,0,1-.9,0,2.44,2.44,0,0,1-.54-.12.68.68,0,0,1-.29-.21.58.58,0,0,1-.08-.3V159.3a9.62,9.62,0,0,1-2.53,2,5.62,5.62,0,0,1-2.66.67,6.07,6.07,0,0,1-2.59-.5,4.51,4.51,0,0,1-1.69-1.38,5.42,5.42,0,0,1-.92-2,12.17,12.17,0,0,1-.28-2.86v-9.16a.48.48,0,0,1,.09-.29.59.59,0,0,1,.34-.21,2.84,2.84,0,0,1,.65-.13,9.82,9.82,0,0,1,1,0,9.7,9.7,0,0,1,1,0,2.74,2.74,0,0,1,.64.13.65.65,0,0,1,.35.21.43.43,0,0,1,.1.29v8.46a8.08,8.08,0,0,0,.15,1.79,3.15,3.15,0,0,0,.46,1.07,2.16,2.16,0,0,0,.79.68,2.34,2.34,0,0,0,1.12.25,2.76,2.76,0,0,0,1.61-.59,9.2,9.2,0,0,0,1.74-1.71v-9.95a.48.48,0,0,1,.09-.29.62.62,0,0,1,.34-.21,2.86,2.86,0,0,1,.64-.13,13.15,13.15,0,0,1,2.05,0,2.74,2.74,0,0,1,.64.13.63.63,0,0,1,.33.21.43.43,0,0,1,.1.29Z"/><path class="cls-1" d="M171.62,153.33a13.64,13.64,0,0,1-.43,3.59,8,8,0,0,1-1.25,2.73,5.58,5.58,0,0,1-2,1.73,6.3,6.3,0,0,1-2.8.6,5,5,0,0,1-1.2-.13,4.47,4.47,0,0,1-1.06-.38,5.94,5.94,0,0,1-1-.65,10.25,10.25,0,0,1-1-.9v7a.48.48,0,0,1-.11.3.7.7,0,0,1-.34.23,2.78,2.78,0,0,1-.65.14,7.27,7.27,0,0,1-1,.05,7.36,7.36,0,0,1-1-.05,2.78,2.78,0,0,1-.65-.14.75.75,0,0,1-.34-.23.47.47,0,0,1-.1-.3v-20.9a.55.55,0,0,1,.08-.29.58.58,0,0,1,.3-.21,2.12,2.12,0,0,1,.55-.13,7,7,0,0,1,.86,0,6.81,6.81,0,0,1,.85,0,2.12,2.12,0,0,1,.55.13.58.58,0,0,1,.3.21.55.55,0,0,1,.08.29v1.76a16.84,16.84,0,0,1,1.28-1.18,7.82,7.82,0,0,1,1.29-.86,6,6,0,0,1,1.35-.51,6.4,6.4,0,0,1,1.48-.16,5.65,5.65,0,0,1,2.8.64,5.26,5.26,0,0,1,1.89,1.77,8,8,0,0,1,1.07,2.62A14.73,14.73,0,0,1,171.62,153.33Zm-4.39.3a11,11,0,0,0-.15-1.84,5.25,5.25,0,0,0-.48-1.57,3,3,0,0,0-.91-1.1,2.32,2.32,0,0,0-1.4-.41,2.62,2.62,0,0,0-.83.13,3.24,3.24,0,0,0-.84.41,5.57,5.57,0,0,0-.88.74,9.66,9.66,0,0,0-1,1.12V156a9.72,9.72,0,0,0,1.69,1.74,2.74,2.74,0,0,0,1.68.61,2.34,2.34,0,0,0,1.4-.42,3.3,3.3,0,0,0,.95-1.1,5.75,5.75,0,0,0,.54-1.53A8.28,8.28,0,0,0,167.23,153.63Z"/><path class="cls-1" d="M188.82,153.11a1.64,1.64,0,0,1-.35,1.14,1.25,1.25,0,0,1-.95.37h-9.1a6.25,6.25,0,0,0,.22,1.73,3.36,3.36,0,0,0,.72,1.33,3.2,3.2,0,0,0,1.28.83,5.46,5.46,0,0,0,1.87.28,10.06,10.06,0,0,0,1.94-.16,11.67,11.67,0,0,0,1.46-.35c.4-.13.74-.24,1-.35a1.83,1.83,0,0,1,.65-.16.5.5,0,0,1,.26.06.45.45,0,0,1,.16.21,1.29,1.29,0,0,1,.1.43c0,.18,0,.41,0,.69a5.83,5.83,0,0,1,0,.63,2.81,2.81,0,0,1-.05.45.94.94,0,0,1-.1.31,1.18,1.18,0,0,1-.17.24,2.22,2.22,0,0,1-.6.32,10.34,10.34,0,0,1-1.24.39c-.5.13-1.08.24-1.73.34a15.12,15.12,0,0,1-2.08.14,11.24,11.24,0,0,1-3.5-.5,6,6,0,0,1-4-4.11,12.13,12.13,0,0,1-.5-3.66,11.55,11.55,0,0,1,.52-3.6,7.64,7.64,0,0,1,1.51-2.72,6.48,6.48,0,0,1,2.41-1.7,8.28,8.28,0,0,1,3.19-.58,8.37,8.37,0,0,1,3.22.55,6,6,0,0,1,2.19,1.53,6.1,6.1,0,0,1,1.25,2.33,10,10,0,0,1,.41,2.92Zm-4.1-1.21a4.27,4.27,0,0,0-.71-2.79,2.75,2.75,0,0,0-2.36-1,3.1,3.1,0,0,0-1.4.3,3,3,0,0,0-1,.82,3.75,3.75,0,0,0-.6,1.2,6,6,0,0,0-.24,1.49Z"/><path class="cls-1" d="M201.9,147.45q0,.62,0,1a4.53,4.53,0,0,1-.1.61.7.7,0,0,1-.18.3.42.42,0,0,1-.28.08.89.89,0,0,1-.3-.06l-.38-.12a4.28,4.28,0,0,0-.46-.13,2.38,2.38,0,0,0-.55-.06,1.81,1.81,0,0,0-.71.15,3.07,3.07,0,0,0-.73.44,5.08,5.08,0,0,0-.78.81,11.26,11.26,0,0,0-.88,1.24V161a.46.46,0,0,1-.11.3.76.76,0,0,1-.34.21,3.63,3.63,0,0,1-.65.12,9.21,9.21,0,0,1-1,0,9.35,9.35,0,0,1-1,0,3.63,3.63,0,0,1-.65-.12.83.83,0,0,1-.34-.21.45.45,0,0,1-.1-.3v-15a.55.55,0,0,1,.08-.29.58.58,0,0,1,.3-.21,2.41,2.41,0,0,1,.57-.13,6.78,6.78,0,0,1,.86,0,7.41,7.41,0,0,1,.89,0,1.85,1.85,0,0,1,.54.13.56.56,0,0,1,.28.21.47.47,0,0,1,.08.29v1.86a12,12,0,0,1,1.11-1.38,6.57,6.57,0,0,1,1-.86,2.89,2.89,0,0,1,.94-.45,3.79,3.79,0,0,1,.94-.12,3.86,3.86,0,0,1,.47,0,5.06,5.06,0,0,1,.52.08,3.35,3.35,0,0,1,.47.14.85.85,0,0,1,.29.16.49.49,0,0,1,.14.18,1.26,1.26,0,0,1,.07.28,4.33,4.33,0,0,1,0,.53C201.89,146.73,201.9,147.05,201.9,147.45Z"/><path class="cls-1" d="M209.05,141a2.4,2.4,0,0,1-.52,1.76,2.9,2.9,0,0,1-1.93.48,2.82,2.82,0,0,1-1.92-.47,2.27,2.27,0,0,1-.5-1.69,2.43,2.43,0,0,1,.51-1.77,4,4,0,0,1,3.85,0A2.3,2.3,0,0,1,209.05,141Zm-.32,20a.51.51,0,0,1-.1.3.87.87,0,0,1-.35.21,3.5,3.5,0,0,1-.64.12,10.53,10.53,0,0,1-2,0,3.81,3.81,0,0,1-.65-.12.83.83,0,0,1-.34-.21.45.45,0,0,1-.1-.3V146.09a.43.43,0,0,1,.1-.29.83.83,0,0,1,.34-.22,2.9,2.9,0,0,1,.65-.14,10.53,10.53,0,0,1,2,0,2.68,2.68,0,0,1,.64.14.88.88,0,0,1,.35.22.48.48,0,0,1,.1.29Z"/><path class="cls-1" d="M228.07,153.39a11.58,11.58,0,0,1-.5,3.49A7.48,7.48,0,0,1,226,159.6a6.74,6.74,0,0,1-2.57,1.76,9.69,9.69,0,0,1-3.6.62,9.89,9.89,0,0,1-3.48-.55,6.35,6.35,0,0,1-2.45-1.61,6.71,6.71,0,0,1-1.44-2.6,12.27,12.27,0,0,1-.47-3.53,11.32,11.32,0,0,1,.51-3.49,7.34,7.34,0,0,1,1.54-2.72,6.68,6.68,0,0,1,2.56-1.75,9.4,9.4,0,0,1,3.59-.62,10.12,10.12,0,0,1,3.49.54,6,6,0,0,1,2.44,1.6,6.59,6.59,0,0,1,1.44,2.6A12.29,12.29,0,0,1,228.07,153.39Zm-4.35.17a10.79,10.79,0,0,0-.17-2,4.87,4.87,0,0,0-.6-1.62,3,3,0,0,0-1.11-1.07,3.58,3.58,0,0,0-1.76-.39,3.7,3.7,0,0,0-1.64.35,3,3,0,0,0-1.16,1,5,5,0,0,0-.68,1.6,9.09,9.09,0,0,0-.22,2.12,10.75,10.75,0,0,0,.18,2,4.87,4.87,0,0,0,.6,1.62,2.83,2.83,0,0,0,1.11,1.06,3.68,3.68,0,0,0,1.75.38,3.76,3.76,0,0,0,1.66-.35,2.89,2.89,0,0,0,1.15-1,4.61,4.61,0,0,0,.68-1.59A9.69,9.69,0,0,0,223.72,153.56Z"/><path class="cls-1" d="M241,147.45a8.86,8.86,0,0,1,0,1,2.65,2.65,0,0,1-.1.61.61.61,0,0,1-.17.3.42.42,0,0,1-.28.08.89.89,0,0,1-.3-.06l-.38-.12a4.28,4.28,0,0,0-.46-.13,2.38,2.38,0,0,0-.55-.06,1.81,1.81,0,0,0-.71.15,2.89,2.89,0,0,0-.73.44,5.57,5.57,0,0,0-.79.81,14.79,14.79,0,0,0-.88,1.24V161a.45.45,0,0,1-.1.3.76.76,0,0,1-.34.21,3.63,3.63,0,0,1-.65.12,10.43,10.43,0,0,1-2,0,3.63,3.63,0,0,1-.65-.12.76.76,0,0,1-.34-.21.45.45,0,0,1-.1-.3v-15a.47.47,0,0,1,.08-.29.58.58,0,0,1,.3-.21,2.32,2.32,0,0,1,.56-.13,7.06,7.06,0,0,1,.87,0,7.41,7.41,0,0,1,.89,0,1.94,1.94,0,0,1,.54.13.56.56,0,0,1,.28.21.55.55,0,0,1,.08.29v1.86a11.05,11.05,0,0,1,1.11-1.38,6.57,6.57,0,0,1,1-.86,2.89,2.89,0,0,1,.94-.45,3.79,3.79,0,0,1,.94-.12,3.94,3.94,0,0,1,.47,0,5.06,5.06,0,0,1,.52.08,3.81,3.81,0,0,1,.47.14.85.85,0,0,1,.29.16.49.49,0,0,1,.14.18,2.26,2.26,0,0,1,.07.28,4.33,4.33,0,0,1,.05.53C241,146.73,241,147.05,241,147.45Z"/><path class="cls-1" d="M276.93,161a.53.53,0,0,1-.09.3.6.6,0,0,1-.33.22,3.6,3.6,0,0,1-.65.14,9.35,9.35,0,0,1-1,0,9.15,9.15,0,0,1-1,0,3.29,3.29,0,0,1-.64-.14.64.64,0,0,1-.33-.22.47.47,0,0,1-.1-.3V143.33h0L266.43,161a.73.73,0,0,1-.22.36,1,1,0,0,1-.41.23,2.65,2.65,0,0,1-.66.11c-.27,0-.59,0-1,0a9,9,0,0,1-1,0,3.35,3.35,0,0,1-.66-.13,1.22,1.22,0,0,1-.41-.23.6.6,0,0,1-.2-.32l-6.07-17.64h0V161a.53.53,0,0,1-.09.3.59.59,0,0,1-.34.22,3.8,3.8,0,0,1-.65.14,9,9,0,0,1-1,0,9.15,9.15,0,0,1-1,0,3.6,3.6,0,0,1-.65-.14.6.6,0,0,1-.33-.22.53.53,0,0,1-.09-.3V141.65a1.78,1.78,0,0,1,.45-1.31,1.63,1.63,0,0,1,1.21-.45h2.88a6.36,6.36,0,0,1,1.33.12,2.67,2.67,0,0,1,.95.42,2.32,2.32,0,0,1,.67.78,5.08,5.08,0,0,1,.47,1.18l4.7,12.93h.07l4.86-12.9a7.32,7.32,0,0,1,.48-1.19,2.77,2.77,0,0,1,.61-.79,2,2,0,0,1,.81-.43,4.43,4.43,0,0,1,1.09-.12h3a2.28,2.28,0,0,1,.78.12,1.25,1.25,0,0,1,.54.34,1.49,1.49,0,0,1,.31.55,2.19,2.19,0,0,1,.11.75Z"/><path class="cls-1" d="M295.23,153.11a1.64,1.64,0,0,1-.34,1.14,1.25,1.25,0,0,1-.95.37h-9.11a6.24,6.24,0,0,0,.23,1.73,3.36,3.36,0,0,0,.72,1.33,3.2,3.2,0,0,0,1.28.83,5.46,5.46,0,0,0,1.87.28,10.13,10.13,0,0,0,1.94-.16,11.07,11.07,0,0,0,1.45-.35c.41-.13.75-.24,1-.35a1.83,1.83,0,0,1,.65-.16.46.46,0,0,1,.25.06.41.41,0,0,1,.17.21,1.11,1.11,0,0,1,.09.43,6.47,6.47,0,0,1,0,.69c0,.25,0,.46,0,.63s0,.32-.05.45a.94.94,0,0,1-.1.31,1.18,1.18,0,0,1-.17.24,2.4,2.4,0,0,1-.6.32,10.34,10.34,0,0,1-1.24.39c-.5.13-1.08.24-1.73.34a15.12,15.12,0,0,1-2.08.14,11.19,11.19,0,0,1-3.5-.5,6.08,6.08,0,0,1-4-4.11,12.15,12.15,0,0,1-.49-3.66,11.55,11.55,0,0,1,.52-3.6,7.64,7.64,0,0,1,1.51-2.72,6.48,6.48,0,0,1,2.41-1.7,9.34,9.34,0,0,1,6.4,0,5.84,5.84,0,0,1,2.19,1.53,6.26,6.26,0,0,1,1.26,2.33,10,10,0,0,1,.4,2.92Zm-4.09-1.21a4.33,4.33,0,0,0-.71-2.79,2.76,2.76,0,0,0-2.36-1,3.07,3.07,0,0,0-1.4.3,2.83,2.83,0,0,0-1,.82,3.75,3.75,0,0,0-.6,1.2,6.45,6.45,0,0,0-.25,1.49Zm-2.36-13.19a1.2,1.2,0,0,1,.7-.52,3.12,3.12,0,0,1,.64-.11,8.46,8.46,0,0,1,.94,0,9.14,9.14,0,0,1,1.21.07,1.88,1.88,0,0,1,.64.19.33.33,0,0,1,.18.3.67.67,0,0,1-.17.35l-3.25,3.89a2.42,2.42,0,0,1-.27.28,1,1,0,0,1-.35.17,2.17,2.17,0,0,1-.53.1,6,6,0,0,1-.8,0,7.39,7.39,0,0,1-.93-.05,1.15,1.15,0,0,1-.48-.16.28.28,0,0,1-.11-.28,1,1,0,0,1,.18-.38Z"/><path class="cls-1" d="M312.9,161a.5.5,0,0,1-.09.31.52.52,0,0,1-.28.21,1.74,1.74,0,0,1-.55.12c-.23,0-.51,0-.84,0s-.65,0-.88,0a1.8,1.8,0,0,1-.54-.12.58.58,0,0,1-.3-.21.5.5,0,0,1-.09-.31v-1.66a9.68,9.68,0,0,1-2.43,1.93,5.76,5.76,0,0,1-2.81.69,5.85,5.85,0,0,1-2.89-.66,5.52,5.52,0,0,1-1.93-1.79,7.62,7.62,0,0,1-1.08-2.62,14.13,14.13,0,0,1-.34-3.17,13.7,13.7,0,0,1,.43-3.59,8,8,0,0,1,1.25-2.71,5.51,5.51,0,0,1,2.05-1.73,6.28,6.28,0,0,1,2.81-.6,5,5,0,0,1,2.28.51,7.92,7.92,0,0,1,2,1.5V139a.55.55,0,0,1,.1-.31.66.66,0,0,1,.33-.22,3.32,3.32,0,0,1,.65-.15,9.35,9.35,0,0,1,1-.05,9.21,9.21,0,0,1,1,.05,3,3,0,0,1,.64.15.74.74,0,0,1,.34.22.55.55,0,0,1,.1.31Zm-4.2-10a9.25,9.25,0,0,0-1.73-1.75,2.91,2.91,0,0,0-1.74-.6,2.47,2.47,0,0,0-1.42.41,3,3,0,0,0-.95,1.1,6,6,0,0,0-.54,1.53,8.42,8.42,0,0,0-.17,1.74,11,11,0,0,0,.15,1.83,5.63,5.63,0,0,0,.49,1.58,3,3,0,0,0,.92,1.12,2.36,2.36,0,0,0,1.44.42,2.74,2.74,0,0,0,.85-.13,3,3,0,0,0,.83-.41,5.25,5.25,0,0,0,.88-.75,10.9,10.9,0,0,0,1-1.13Z"/><path class="cls-1" d="M321.69,141a2.4,2.4,0,0,1-.52,1.76,2.9,2.9,0,0,1-1.93.48,2.82,2.82,0,0,1-1.92-.47,2.27,2.27,0,0,1-.5-1.69,2.43,2.43,0,0,1,.51-1.77,2.85,2.85,0,0,1,1.94-.5,2.8,2.8,0,0,1,1.91.48A2.3,2.3,0,0,1,321.69,141Zm-.32,20a.45.45,0,0,1-.1.3.81.81,0,0,1-.35.21,3.5,3.5,0,0,1-.64.12,10.53,10.53,0,0,1-2,0,3.5,3.5,0,0,1-.64-.12.81.81,0,0,1-.35-.21.51.51,0,0,1-.1-.3V146.09a.48.48,0,0,1,.1-.29.81.81,0,0,1,.35-.22,2.68,2.68,0,0,1,.64-.14,10.53,10.53,0,0,1,2,0,2.68,2.68,0,0,1,.64.14.81.81,0,0,1,.35.22.43.43,0,0,1,.1.29Z"/><path class="cls-1" d="M336.9,158.64c0,.29,0,.54,0,.73a4.63,4.63,0,0,1-.07.5,1.52,1.52,0,0,1-.1.32,1.25,1.25,0,0,1-.26.32,3.18,3.18,0,0,1-.69.47,6.37,6.37,0,0,1-1.11.5,9.47,9.47,0,0,1-1.35.35,9,9,0,0,1-4.56-.4,5.81,5.81,0,0,1-2.24-1.59,7.06,7.06,0,0,1-1.37-2.56,12.06,12.06,0,0,1-.46-3.45,11.9,11.9,0,0,1,.57-3.89,7.28,7.28,0,0,1,1.56-2.7,6.34,6.34,0,0,1,2.39-1.6,8.58,8.58,0,0,1,3-.52,7.17,7.17,0,0,1,1.31.12,7.39,7.39,0,0,1,1.21.32,6.27,6.27,0,0,1,1,.45,3.28,3.28,0,0,1,.63.44,1.57,1.57,0,0,1,.26.31,1.08,1.08,0,0,1,.11.32,4.63,4.63,0,0,1,.07.5c0,.2,0,.43,0,.71a3.91,3.91,0,0,1-.17,1.37c-.11.26-.26.39-.44.39a1,1,0,0,1-.6-.23c-.21-.16-.47-.33-.76-.52a5.59,5.59,0,0,0-1-.52,3.88,3.88,0,0,0-1.44-.24,2.89,2.89,0,0,0-2.52,1.27,6.58,6.58,0,0,0-.87,3.72,9.12,9.12,0,0,0,.22,2.13,4.34,4.34,0,0,0,.65,1.54,2.73,2.73,0,0,0,1.07.93,3.38,3.38,0,0,0,1.5.31,4,4,0,0,0,1.5-.26,6,6,0,0,0,1.1-.58,9.1,9.1,0,0,0,.79-.58.94.94,0,0,1,.54-.26.37.37,0,0,1,.25.09.63.63,0,0,1,.16.31,3.39,3.39,0,0,1,.09.58Q336.9,158.08,336.9,158.64Z"/><path class="cls-1" d="M354.92,153.39a11.58,11.58,0,0,1-.5,3.49,7.48,7.48,0,0,1-1.53,2.72,6.74,6.74,0,0,1-2.57,1.76,9.69,9.69,0,0,1-3.6.62,9.89,9.89,0,0,1-3.48-.55,6.35,6.35,0,0,1-2.45-1.61,6.71,6.71,0,0,1-1.44-2.6,12.27,12.27,0,0,1-.47-3.53,11.32,11.32,0,0,1,.51-3.49,7.34,7.34,0,0,1,1.54-2.72,6.68,6.68,0,0,1,2.56-1.75,9.4,9.4,0,0,1,3.59-.62,10.12,10.12,0,0,1,3.49.54,6,6,0,0,1,2.44,1.6,6.59,6.59,0,0,1,1.44,2.6A12.29,12.29,0,0,1,354.92,153.39Zm-4.35.17a10.79,10.79,0,0,0-.17-2,4.87,4.87,0,0,0-.6-1.62,3,3,0,0,0-1.11-1.07,3.58,3.58,0,0,0-1.76-.39,3.7,3.7,0,0,0-1.64.35,3,3,0,0,0-1.16,1,5,5,0,0,0-.68,1.6,9.09,9.09,0,0,0-.22,2.12,10.75,10.75,0,0,0,.18,2,4.87,4.87,0,0,0,.6,1.62,2.83,2.83,0,0,0,1.11,1.06,3.68,3.68,0,0,0,1.75.38,3.76,3.76,0,0,0,1.66-.35,3,3,0,0,0,1.16-1,4.8,4.8,0,0,0,.67-1.59A9.69,9.69,0,0,0,350.57,153.56Z"/></g></g></svg>