<svg xmlns="http://www.w3.org/2000/svg" viewBox="0 0 324.55 177.77"><defs><style>.cls-1{fill:#154144;}.cls-2{fill:#4eaeb9;}.cls-3{fill:#2f686f;}</style></defs><g id="Capa_2" data-name="Capa 2"><g id="Capa_1-2" data-name="Capa 1"><path class="cls-1" d="M17,121.39H3.7v10.28H18.27l-.37,2.38H1V107.71h16.6v2.38H3.7V119H17Z"/><path class="cls-1" d="M23.87,128.72c.6,2.29,2.25,3.66,5.05,3.66,3.11,0,4.36-1.4,4.36-3.34s-.9-2.95-4.86-3.9c-5.14-1.25-6.32-2.81-6.32-5.35s2-5.18,6.53-5.18,6.6,2.72,6.88,5.39H33c-.31-1.43-1.42-3.28-4.5-3.28s-3.89,1.47-3.89,2.87c0,1.59.85,2.39,4.48,3.26,5.54,1.33,6.79,3.16,6.79,6,0,3.4-2.73,5.66-7.06,5.66-4.59,0-7-2.37-7.53-5.78Z"/><path class="cls-1" d="M55.05,128.37c-.87,3.3-3.07,6.13-7.59,6.13-5,0-8.28-3.63-8.28-9.86,0-5.27,2.89-10,8.51-10a6.93,6.93,0,0,1,7.36,6.2H52.51a4.72,4.72,0,0,0-4.87-4c-3.72,0-5.83,3.17-5.83,7.72s2,7.74,5.67,7.74c2.6,0,4.14-1.34,5-3.92Z"/><path class="cls-1" d="M73.93,128.51c0,1.86,0,4.64,0,5.54H71.52A26.46,26.46,0,0,1,71.4,131c-.86,2.17-2.75,3.54-6,3.54-3,0-6.25-1.3-6.25-6.9V115.06h2.5v12c0,2.64.83,5.16,4.31,5.16,3.91,0,5.39-2.18,5.39-7.3v-9.83h2.53Z"/><path class="cls-1" d="M81.2,125c0,4.43,2.26,7.33,5.71,7.33A4.9,4.9,0,0,0,92,129h2.56a7.48,7.48,0,0,1-7.71,5.5c-5.87,0-8.2-4.92-8.2-9.77,0-5.53,2.77-10.12,8.42-10.12,6,0,7.9,5,7.9,8.78,0,.55,0,1.06,0,1.56Zm11.16-2c0-3.47-1.87-6.23-5.38-6.23s-5.29,2.55-5.67,6.23Z"/><path class="cls-1" d="M99.7,134.05V106.29h2.53v27.76Z"/><path class="cls-1" d="M121.65,130.2a25.59,25.59,0,0,0,.26,3.85h-2.42a11.93,11.93,0,0,1-.33-2.72c-.65,1.34-2.25,3.17-6.06,3.17-4.44,0-6.34-2.87-6.34-5.74,0-4.21,3.27-6.12,8.95-6.12h3.43v-1.79c0-1.8-.55-4.12-4.52-4.12-3.54,0-4.09,1.82-4.48,3.34h-2.48c.24-2.33,1.68-5.47,7-5.46,4.48,0,7,1.86,7,6.1Zm-2.47-5.64h-3.43c-4,0-6.37,1.08-6.37,4.08,0,2.2,1.55,3.74,4.06,3.74,5,0,5.74-3.37,5.74-7.17Z"/><path class="cls-1" d="M139.16,126.86c.75,3.35,3,5.25,7.11,5.25,4.49,0,6.24-2.19,6.24-4.88s-1.31-4.5-6.87-5.87c-5.86-1.44-8.15-3.39-8.15-7.15s2.68-6.88,8.43-6.88c6,0,8.52,3.58,8.87,6.9H152c-.55-2.61-2.22-4.59-6.23-4.59-3.53,0-5.48,1.62-5.48,4.36s1.62,3.77,6.37,4.93c7.46,1.84,8.66,4.79,8.66,8,0,4-3,7.39-9.23,7.39-6.6,0-9.21-3.74-9.72-7.51Z"/><path class="cls-1" d="M174.78,128.51c0,1.86,0,4.64,0,5.54h-2.45c-.07-.49-.11-1.7-.12-3.09-.85,2.17-2.74,3.54-5.94,3.54-2.95,0-6.25-1.3-6.25-6.9V115.06h2.49v12c0,2.64.84,5.16,4.32,5.16,3.9,0,5.38-2.18,5.38-7.3v-9.83h2.53Z"/><path class="cls-1" d="M183.42,131.45v10.14H180.9V119.72c0-1.56,0-3.2,0-4.66h2.47c.07.68.09,1.83.09,3.22a6.78,6.78,0,0,1,6.47-3.67c4.44,0,7.59,3.72,7.59,9.46,0,6.81-3.66,10.43-8.25,10.43C186,134.5,184.33,133.11,183.42,131.45Zm11.42-7.28c0-4.24-2-7.29-5.52-7.29-4.29,0-6,2.71-6,7.62s1.39,7.77,5.78,7.77C192.8,132.27,194.84,129.15,194.84,124.17Z"/><path class="cls-1" d="M203.53,125c0,4.43,2.26,7.33,5.71,7.33a4.91,4.91,0,0,0,5.07-3.28h2.56a7.49,7.49,0,0,1-7.72,5.5c-5.86,0-8.19-4.92-8.19-9.77,0-5.53,2.77-10.12,8.41-10.12,6,0,7.91,5,7.91,8.78,0,.55,0,1.06-.05,1.56Zm11.16-2c0-3.47-1.87-6.23-5.38-6.23s-5.29,2.55-5.67,6.23Z"/><path class="cls-1" d="M221.91,120.22c0-2.94,0-4.37,0-5.16h2.48c.05.58.09,1.92.09,4.08a7,7,0,0,1,6.51-4.53v2.61c-3.92.19-6.51,2.61-6.51,7.26v9.57h-2.53Z"/><path class="cls-1" d="M234.55,106.29h2.53v3.87h-2.53Zm0,8.77h2.53v19h-2.53Z"/><path class="cls-1" d="M259,124.52c0,5.37-3,10-8.75,10-5.27,0-8.5-4.21-8.5-9.93,0-5.51,3.1-10,8.7-10C255.65,114.61,259,118.56,259,124.52Zm-14.62,0c0,4.35,2.27,7.72,6,7.72s6-3.15,6-7.72c0-4.38-2.13-7.73-6.05-7.73S244.42,120.1,244.42,124.56Z"/><path class="cls-1" d="M263.72,120.22c0-2.94,0-4.37,0-5.16h2.48c0,.58.09,1.92.09,4.08a7,7,0,0,1,6.51-4.53v2.61c-3.92.19-6.51,2.61-6.51,7.26v9.57h-2.53Z"/><path class="cls-1" d="M301.69,106.29v22.34c0,1.81,0,3.55,0,5.42H299.3a27,27,0,0,1-.14-3c-1,2.16-3,3.41-6.2,3.41-4.91,0-7.89-4-7.89-9.73s3.23-10.16,8.44-10.16c3.6,0,5.11,1.51,5.65,2.65v-11Zm-14,18.39c0,4.93,2.46,7.58,5.6,7.58,4.75,0,5.94-3.37,5.94-8.08s-1-7.33-5.64-7.33C290.05,116.85,287.72,119.69,287.72,124.68Z"/><path class="cls-1" d="M308.91,125c0,4.43,2.26,7.33,5.72,7.33a4.9,4.9,0,0,0,5.06-3.28h2.56a7.48,7.48,0,0,1-7.71,5.5c-5.86,0-8.19-4.92-8.19-9.77,0-5.53,2.76-10.12,8.41-10.12,6,0,7.9,5,7.9,8.78,0,.55,0,1.06,0,1.56Zm11.16-2c0-3.47-1.87-6.23-5.37-6.23s-5.29,2.55-5.67,6.23Z"/><path class="cls-1" d="M17,164.66H3.7v10.28H18.27l-.37,2.38H1V151h16.6v2.38H3.7v8.92H17Z"/><path class="cls-1" d="M22.54,163.12c0-1.66,0-3.29,0-4.79H25c.08.59.13,2.84.1,3.39.8-1.8,2.35-3.84,6.16-3.84,3.46,0,6.36,2,6.36,7.18v12.26H35.06v-11.9c0-3.15-1.27-5.23-4.39-5.23-4.09,0-5.6,3.29-5.6,7.28v9.85H22.54Z"/><path class="cls-1" d="M44.28,172c.6,2.29,2.25,3.66,5.06,3.66,3.11,0,4.35-1.4,4.35-3.34s-.89-2.95-4.86-3.9c-5.14-1.25-6.32-2.81-6.32-5.35s2-5.18,6.54-5.18,6.6,2.72,6.87,5.39H53.44c-.31-1.43-1.41-3.28-4.5-3.28s-3.89,1.47-3.89,2.87c0,1.59.86,2.39,4.49,3.26,5.54,1.33,6.79,3.16,6.79,6,0,3.4-2.74,5.66-7.06,5.66-4.6,0-7-2.37-7.53-5.78Z"/><path class="cls-1" d="M62.15,168.22c0,4.43,2.26,7.33,5.71,7.33a4.91,4.91,0,0,0,5.07-3.28h2.56a7.49,7.49,0,0,1-7.72,5.5c-5.86,0-8.19-4.92-8.19-9.77,0-5.53,2.76-10.12,8.41-10.12,6,0,7.91,5,7.91,8.78,0,.55,0,1.06-.05,1.56Zm11.15-2c0-3.47-1.87-6.23-5.37-6.23-3.65,0-5.29,2.55-5.67,6.23Z"/><path class="cls-1" d="M80.54,163.12c0-1.66,0-3.29,0-4.79H83c.08.59.12,2.84.1,3.39a6.09,6.09,0,0,1,6.15-3.84c3.46,0,6.36,2,6.36,7.18v12.26H93.06v-11.9c0-3.15-1.28-5.23-4.4-5.23-4.09,0-5.59,3.29-5.59,7.28v9.85H80.54Zm1.72-8.91v-.73c0-2.51,1.16-3.44,2.9-3.44,2,0,4,2,5.34,2,.75,0,1.13-.39,1.13-1.69v-.43h1.88v.71c0,2.62-1.12,3.61-2.9,3.61-2.09,0-3.67-2-5.37-2-.66,0-1,.38-1,1.37v.62Z"/><path class="cls-1" d="M115,173.47a25.59,25.59,0,0,0,.26,3.85h-2.42a11.93,11.93,0,0,1-.33-2.72c-.65,1.34-2.25,3.17-6.06,3.17-4.44,0-6.34-2.87-6.34-5.74,0-4.21,3.27-6.12,8.95-6.12h3.43v-1.79c0-1.8-.55-4.12-4.52-4.12-3.54,0-4.09,1.82-4.48,3.34H101c.24-2.33,1.68-5.47,7-5.46,4.48,0,7,1.86,7,6.1Zm-2.47-5.64h-3.43c-4,0-6.37,1.08-6.37,4.08,0,2.2,1.55,3.74,4.06,3.74,5,0,5.74-3.37,5.74-7.17Z"/><path class="cls-1" d="M121.18,163.12c0-1.66,0-3.29,0-4.79h2.46a32.3,32.3,0,0,1,.1,3.39,6.1,6.1,0,0,1,6.16-3.84c3.46,0,6.36,2,6.36,7.18v12.26h-2.53v-11.9c0-3.15-1.27-5.23-4.39-5.23-4.09,0-5.6,3.29-5.6,7.28v9.85h-2.52Z"/><path class="cls-1" d="M140.21,175.16l11.51-14.6H140.79v-2.23h13.84v2.25l-11.36,14.51h11.82l-.49,2.23H140.21Z"/><path class="cls-1" d="M172.63,173.47a25.59,25.59,0,0,0,.26,3.85h-2.42a11.36,11.36,0,0,1-.33-2.72c-.65,1.34-2.25,3.17-6.06,3.17-4.44,0-6.34-2.87-6.34-5.74,0-4.21,3.27-6.12,8.94-6.12h3.44v-1.79c0-1.8-.55-4.12-4.53-4.12-3.53,0-4.08,1.82-4.47,3.34h-2.48c.24-2.33,1.68-5.47,7-5.46,4.47,0,7,1.86,7,6.1Zm-2.48-5.64h-3.42c-4,0-6.37,1.08-6.37,4.08,0,2.2,1.55,3.74,4.06,3.74,5,0,5.73-3.37,5.73-7.17Z"/><path class="cls-1" d="M212,165.61c0-5,0-10,.16-12.69H212c-1.08,3.87-5.94,16.1-9.14,24.4h-2.51c-2.41-6.57-7.44-20.22-8.63-24.44h-.1c.2,3,.28,9,.28,13.55v10.89h-2.6V151h4c3.34,8.64,7.48,19.89,8.43,23h.07c.61-2.19,5.45-14.63,8.87-23h3.94v26.34H212Z"/><path class="cls-1" d="M222.28,168.22c0,4.43,2.26,7.33,5.72,7.33a4.9,4.9,0,0,0,5.06-3.28h2.56a7.48,7.48,0,0,1-7.71,5.5c-5.86,0-8.19-4.92-8.19-9.77,0-5.53,2.76-10.12,8.41-10.12,6,0,7.9,5,7.9,8.78,0,.55,0,1.06,0,1.56Zm11.16-2c0-3.47-1.87-6.23-5.37-6.23-3.65,0-5.29,2.55-5.67,6.23Zm.89-17.08-5.69,5.87h-2.53l5-5.87Z"/><path class="cls-1" d="M256.07,149.56V171.9c0,1.8,0,3.55,0,5.42h-2.43c-.08-.48-.13-2.11-.14-3-.94,2.16-3,3.41-6.19,3.41-4.91,0-7.89-4-7.89-9.73s3.23-10.16,8.43-10.16c3.6,0,5.11,1.51,5.65,2.65v-11ZM242.1,168c0,4.93,2.47,7.58,5.6,7.58,4.75,0,5.94-3.37,5.94-8.08s-1-7.33-5.63-7.33C244.43,160.12,242.1,163,242.1,168Z"/><path class="cls-1" d="M262.17,149.56h2.53v3.87h-2.53Zm0,8.77h2.53v19h-2.53Z"/><path class="cls-1" d="M285.29,171.64c-.86,3.3-3.07,6.13-7.59,6.13-5,0-8.28-3.63-8.28-9.86,0-5.27,2.9-10,8.52-10a6.93,6.93,0,0,1,7.35,6.2h-2.54a4.72,4.72,0,0,0-4.86-4c-3.73,0-5.83,3.17-5.83,7.72s2,7.74,5.67,7.74c2.59,0,4.13-1.34,5-3.92Z"/><path class="cls-1" d="M303.33,173.47a25.59,25.59,0,0,0,.26,3.85h-2.42a11.93,11.93,0,0,1-.33-2.72c-.65,1.34-2.25,3.17-6.06,3.17-4.43,0-6.34-2.87-6.34-5.74,0-4.21,3.27-6.12,8.95-6.12h3.44v-1.79c0-1.8-.56-4.12-4.53-4.12-3.54,0-4.09,1.82-4.47,3.34h-2.48c.23-2.33,1.67-5.47,7-5.46,4.47,0,7,1.86,7,6.1Zm-2.47-5.64h-3.43c-4,0-6.37,1.08-6.37,4.08,0,2.2,1.55,3.74,4.06,3.74,5,0,5.74-3.37,5.74-7.17Z"/><path class="cls-2" d="M52.29,45.32H11.88V72.74H55.05L54.76,83H0V1.18H54.19V11.46H11.88V35H52.29Z"/><path class="cls-2" d="M69.23,60c2.15,9.51,8.71,14.49,20.12,14.49,12.13,0,17-5.56,17-13,0-7.92-4-12.19-20-16C66.53,40.73,60.06,33.84,60.06,22.42,60.06,9.87,69.35,0,87.83,0,107.74,0,115.88,11.34,117,22.32H104.67C103.32,15.47,99.1,9.59,87.42,9.59c-9.44,0-14.8,4.2-14.8,11.62S77,31.41,91.16,34.8c23.42,5.67,27.75,14.71,27.75,25.41,0,13.53-10.07,23.86-30.39,23.86C67.9,84.07,58.65,73,56.9,60Z"/><path class="cls-2" d="M177.78,45.32H137.37V72.74h42.91l0,10.28H125.49V1.18h54.19V11.46H137.37V35h40.41Z"/><path class="cls-2" d="M257.16,48.93c0-15,.17-30.45.53-39.18h-.46c-3.57,13.91-15.86,47.55-25,73.27H221.53c-6.87-21.22-19.59-59-23.25-73.44h-.4c.64,9.48.93,27.4.93,41.43V83H187.47V1.18h18.11c8.74,24.64,19.31,56.28,22,67h.18c1.94-8.42,14.53-43,23.61-67H269V83H257.16Z"/><path class="cls-3" d="M295.3,35.58v47.7h-7.08V35.58Z"/><path class="cls-3" d="M309.93,35.58v47.7h-7.08V35.58Z"/><path class="cls-3" d="M324.55,35.58v47.7h-7.08V35.58Z"/></g></g></svg>