<svg xmlns="http://www.w3.org/2000/svg" viewBox="0 0 412 68.27"><defs><style>.cls-1{fill:#fff;}</style></defs><g id="Capa_2" data-name="Capa 2"><g id="Capa_1-2" data-name="Capa 1"><rect class="cls-1" y="22" width="11" height="27"/><circle class="cls-1" cx="36.5" cy="6.5" r="6.5"/><path class="cls-1" d="M33,28.52A16.44,16.44,0,0,1,37,22a55.59,55.59,0,0,0-6-6A56.39,56.39,0,0,0,14,6L8,13a46,46,0,0,1,9,5c4.27,3,7.23,5.18,9,9,2.36,5.11,1,10.23,0,14a34.08,34.08,0,0,1-7,13,43.91,43.91,0,0,1-7,7l6,7c2.61-2.44,5.29-5.11,8-8,4.17-4.46,7.82-8.84,11-13C36.48,46.32,30,37.73,33,28.52Z"/><path class="cls-1" d="M55,54a34.08,34.08,0,0,1-7-13c-1-3.77-2.36-8.89,0-14,1.77-3.82,4.73-6,9-9a46,46,0,0,1,9-5L60,6A56.39,56.39,0,0,0,43,16a55.59,55.59,0,0,0-6,6,16.44,16.44,0,0,1,4,6.52c3,9.21-3.48,17.8-4,18.48,3.18,4.16,6.83,8.54,11,13,2.71,2.89,5.39,5.56,8,8l6-7A43.91,43.91,0,0,1,55,54Z"/><circle class="cls-1" cx="98.5" cy="6.5" r="6.5"/><path class="cls-1" d="M94,22h5a55.59,55.59,0,0,0-6-6A56.39,56.39,0,0,0,76,6l-6,7a46,46,0,0,1,9,5c4.27,3,7.23,5.18,9,9,2.36,5.11,1,10.23,0,14a34.08,34.08,0,0,1-7,13,43.91,43.91,0,0,1-7,7l6,7c2.61-2.44,5.29-5.11,8-8,4.17-4.46,7.82-8.84,11-13H94Z"/><path class="cls-1" d="M117,54a34.08,34.08,0,0,1-7-13c-1-3.77-2.36-8.89,0-14,1.77-3.82,4.73-6,9-9a46,46,0,0,1,9-5l-6-7a56.39,56.39,0,0,0-17,10,55.59,55.59,0,0,0-6,6h5V47H99c3.18,4.16,6.83,8.54,11,13,2.71,2.89,5.39,5.56,8,8l6-7A43.91,43.91,0,0,1,117,54Z"/><path class="cls-1" d="M134,29a19.54,19.54,0,0,0-4-7,19.54,19.54,0,0,0-4,7,20.61,20.61,0,0,0,0,12,23.34,23.34,0,0,0,4,8,23.34,23.34,0,0,0,4-8A20.61,20.61,0,0,0,134,29Z"/><path class="cls-1" d="M75.35,30a18.06,18.06,0,0,0-5.11-4.69,4.08,4.08,0,0,0-4.38,0A17.93,17.93,0,0,0,60.75,30c-3.17,4.63-1,8.57,0,10.23a18.4,18.4,0,0,0,4.83,5.15,4.1,4.1,0,0,0,4.93,0,18.44,18.44,0,0,0,4.84-5.15C76.32,38.53,78.52,34.59,75.35,30Z"/><path class="cls-1" d="M181.57,27.83v20h-3.79l-9.95-12.12V47.79h-4.56v-20h3.82L177,40V27.83Z"/><path class="cls-1" d="M188.29,45.77c-1.59-1.58-2.38-3.84-2.38-6.76V27.83h4.62v11q0,5.35,4.45,5.36a4.2,4.2,0,0,0,3.31-1.3,6.06,6.06,0,0,0,1.14-4.06v-11H204V39c0,2.92-.79,5.18-2.38,6.76a10.58,10.58,0,0,1-13.32,0Z"/><path class="cls-1" d="M212.12,31.59h-6.39V27.83h17.4v3.76h-6.39v16.2h-4.62Z"/><path class="cls-1" d="M238.1,47.79l-3.85-5.56H230v5.56h-4.62v-20H234a11.12,11.12,0,0,1,4.61.88,7.14,7.14,0,0,1,3,10.2,6.74,6.74,0,0,1-3,2.46l4.48,6.42Zm-1.17-15.3a4.85,4.85,0,0,0-3.17-.9H230v7h3.76a4.79,4.79,0,0,0,3.17-.91A3.19,3.19,0,0,0,238,35.07,3.17,3.17,0,0,0,236.93,32.49Z"/><path class="cls-1" d="M246.11,27.83h4.62v20h-4.62Z"/><path class="cls-1" d="M259.27,46.81a10,10,0,0,1-3.88-3.68,10.74,10.74,0,0,1,0-10.64,10,10,0,0,1,3.88-3.68,12.42,12.42,0,0,1,10.24-.41A9.38,9.38,0,0,1,273,31l-3,2.74a6.39,6.39,0,0,0-5-2.34,6.68,6.68,0,0,0-3.31.81,5.83,5.83,0,0,0-2.27,2.27,7.17,7.17,0,0,0,0,6.62,5.74,5.74,0,0,0,2.27,2.26,6.58,6.58,0,0,0,3.31.82,6.35,6.35,0,0,0,5-2.37l3,2.74a9.28,9.28,0,0,1-3.53,2.65,11.74,11.74,0,0,1-4.71.91A11.54,11.54,0,0,1,259.27,46.81Z"/><path class="cls-1" d="M275.91,27.83h4.62v20h-4.62Z"/><path class="cls-1" d="M289.1,46.79a9.9,9.9,0,0,1-3.9-3.69,10.56,10.56,0,0,1,0-10.58,9.9,9.9,0,0,1,3.9-3.69,12.37,12.37,0,0,1,11.2,0,10.18,10.18,0,0,1,0,18,12.37,12.37,0,0,1-11.2,0Zm8.8-3.41a5.79,5.79,0,0,0,2.24-2.26,7.17,7.17,0,0,0,0-6.62,5.89,5.89,0,0,0-2.24-2.27,6.71,6.71,0,0,0-6.39,0,6,6,0,0,0-2.24,2.27,7.17,7.17,0,0,0,0,6.62,5.86,5.86,0,0,0,2.24,2.26,6.63,6.63,0,0,0,6.39,0Z"/><path class="cls-1" d="M327.19,27.83v20H323.4l-10-12.12V47.79h-4.56v-20h3.82L322.63,40V27.83Z"/><path class="cls-1" d="M331.69,27.83h4.62v20h-4.62Z"/><path class="cls-1" d="M342.8,47.49a10.67,10.67,0,0,1-3.55-1.67l1.57-3.48a10.62,10.62,0,0,0,3.05,1.52,11.49,11.49,0,0,0,3.54.57,5.66,5.66,0,0,0,2.91-.59,1.78,1.78,0,0,0,.94-1.55,1.51,1.51,0,0,0-.56-1.19,4.23,4.23,0,0,0-1.42-.75c-.58-.19-1.37-.4-2.36-.63a32.55,32.55,0,0,1-3.73-1.08,6.1,6.1,0,0,1-2.5-1.74,4.74,4.74,0,0,1-1-3.2,5.53,5.53,0,0,1,.94-3.15,6.32,6.32,0,0,1,2.84-2.24,11.59,11.59,0,0,1,4.63-.82,15.56,15.56,0,0,1,3.74.45A11.11,11.11,0,0,1,355,29.25l-1.42,3.51A11.22,11.22,0,0,0,348,31.19a5.16,5.16,0,0,0-2.86.63,1.91,1.91,0,0,0-.93,1.65A1.62,1.62,0,0,0,345.31,35a16.67,16.67,0,0,0,3.27,1,34.46,34.46,0,0,1,3.73,1.09,6.22,6.22,0,0,1,2.5,1.71,4.59,4.59,0,0,1,1,3.16,5.43,5.43,0,0,1-1,3.13A6.45,6.45,0,0,1,352,47.31a11.76,11.76,0,0,1-4.65.82A16.24,16.24,0,0,1,342.8,47.49Z"/><path class="cls-1" d="M362.64,31.59h-6.39V27.83h17.39v3.76h-6.38v16.2h-4.62Z"/><path class="cls-1" d="M388.05,43.51h-9.27L377,47.79h-4.73l8.89-20h4.57l8.92,20h-4.85ZM386.59,40l-3.16-7.64L380.26,40Z"/><path class="cls-1" d="M398.5,47.49A10.57,10.57,0,0,1,395,45.82l1.57-3.48a10.49,10.49,0,0,0,3.05,1.52,11.43,11.43,0,0,0,3.53.57,5.61,5.61,0,0,0,2.91-.59,1.76,1.76,0,0,0,.94-1.55,1.5,1.5,0,0,0-.55-1.19,4.29,4.29,0,0,0-1.43-.75c-.58-.19-1.36-.4-2.35-.63a32.79,32.79,0,0,1-3.74-1.08,6,6,0,0,1-2.49-1.74,4.69,4.69,0,0,1-1-3.2,5.53,5.53,0,0,1,.94-3.15,6.32,6.32,0,0,1,2.84-2.24,11.56,11.56,0,0,1,4.63-.82,15.63,15.63,0,0,1,3.74.45,11.23,11.23,0,0,1,3.19,1.31l-1.43,3.51a11.15,11.15,0,0,0-5.53-1.57,5.14,5.14,0,0,0-2.86.63,1.91,1.91,0,0,0-.93,1.65A1.62,1.62,0,0,0,401,35a16.75,16.75,0,0,0,3.26,1A34.72,34.72,0,0,1,408,37.07a6.12,6.12,0,0,1,2.49,1.71,4.55,4.55,0,0,1,1.05,3.16,5.43,5.43,0,0,1-1,3.13,6.48,6.48,0,0,1-2.87,2.24,11.67,11.67,0,0,1-4.64.82A16.24,16.24,0,0,1,398.5,47.49Z"/><path class="cls-1" d="M171.83,56.22a4.53,4.53,0,0,1,0,6.61,6,6,0,0,1-4,1.19h-3.54v4.16H163V55h4.93A5.9,5.9,0,0,1,171.83,56.22Zm-1,5.72a3,3,0,0,0,1-2.41,3,3,0,0,0-1-2.46,4.57,4.57,0,0,0-3-.85h-3.5V62.8h3.5A4.57,4.57,0,0,0,170.83,61.94Z"/><path class="cls-1" d="M183.25,68.18l-2.44-3.43a7.94,7.94,0,0,1-.85,0h-2.87v3.39H176V57.5h4a4.82,4.82,0,0,1,3.2,1,3.34,3.34,0,0,1,1.16,2.69,3.43,3.43,0,0,1-.64,2.11,3.49,3.49,0,0,1-1.8,1.24l2.6,3.66Zm-.9-5.05a2.74,2.74,0,0,0,0-4,3.69,3.69,0,0,0-2.43-.7h-2.83v5.35h2.83A3.69,3.69,0,0,0,182.35,63.13Z"/><path class="cls-1" d="M189.08,67.56a5.14,5.14,0,0,1-2-1.94,5.71,5.71,0,0,1,0-5.55,5.1,5.1,0,0,1,2-2,6.19,6.19,0,0,1,5.74,0,5.2,5.2,0,0,1,2,2,5.68,5.68,0,0,1,0,5.57,5.25,5.25,0,0,1-2,1.94,5.83,5.83,0,0,1-2.86.7A5.91,5.91,0,0,1,189.08,67.56Zm5.16-.87a4.14,4.14,0,0,0,1.61-1.58,4.71,4.71,0,0,0,0-4.53A4.1,4.1,0,0,0,194.24,59a4.59,4.59,0,0,0-2.28-.57,4.67,4.67,0,0,0-2.3.57,4.17,4.17,0,0,0-1.61,1.59,4.64,4.64,0,0,0,0,4.53,4.21,4.21,0,0,0,1.61,1.58,4.67,4.67,0,0,0,2.3.57A4.59,4.59,0,0,0,194.24,66.69Z"/><path class="cls-1" d="M209,57.5l-4.73,10.68h-1.11L198.38,57.5h1.22l4.08,9.28,4.12-9.28Z"/><path class="cls-1" d="M210.79,57.5h1.13V68.18h-1.13Z"/><path class="cls-1" d="M224.62,57.5V68.18h-.93l-6.86-8.66v8.66H215.7V57.5h.93l6.88,8.67V57.5Z"/><path class="cls-1" d="M230.18,67.57a5.25,5.25,0,0,1-2-1.94,5.75,5.75,0,0,1,0-5.57,5.23,5.23,0,0,1,2-2,6.22,6.22,0,0,1,5.06-.3A4.52,4.52,0,0,1,237,59l-.72.72a4.21,4.21,0,0,0-3.15-1.27,4.64,4.64,0,0,0-2.31.58,4.24,4.24,0,0,0-1.62,1.58,4.46,4.46,0,0,0-.59,2.26,4.4,4.4,0,0,0,.59,2.26,4.27,4.27,0,0,0,1.62,1.59,4.74,4.74,0,0,0,2.31.57A4.15,4.15,0,0,0,236.24,66l.72.72a4.66,4.66,0,0,1-1.71,1.17,6,6,0,0,1-2.21.4A5.8,5.8,0,0,1,230.18,67.57Z"/><path class="cls-1" d="M239.68,57.5h1.12V68.18h-1.12Z"/><path class="cls-1" d="M251.28,65.33h-5.95l-1.28,2.85h-1.17l4.88-10.68h1.11l4.88,10.68h-1.19Zm-.41-.92-2.56-5.73-2.56,5.73Z"/><path class="cls-1" d="M260.13,57.5h4.34a6.37,6.37,0,0,1,3,.68,5.05,5.05,0,0,1,2,1.89,5.76,5.76,0,0,1,0,5.54,4.92,4.92,0,0,1-2,1.89,6.37,6.37,0,0,1-3,.68h-4.34Zm4.28,9.7a5.19,5.19,0,0,0,2.46-.55,4.1,4.1,0,0,0,1.63-1.54,4.71,4.71,0,0,0,0-4.53A4,4,0,0,0,266.87,59a5.19,5.19,0,0,0-2.46-.56h-3.15V67.2Z"/><path class="cls-1" d="M280.58,67.2v1H273V57.5h7.32v1h-6.19v3.8h5.52v1h-5.52v4Z"/><path class="cls-1" d="M298.14,62.51a3.22,3.22,0,0,1,.7,2.15,3,3,0,0,1-1.25,2.61,6.23,6.23,0,0,1-3.7.91h-6.05V55h5.68a5.71,5.71,0,0,1,3.41.89,2.91,2.91,0,0,1,1.22,2.5,3.13,3.13,0,0,1-.54,1.85,3.21,3.21,0,0,1-1.48,1.14A3.49,3.49,0,0,1,298.14,62.51Zm-8.91-6.35v4.78h4.19a4.31,4.31,0,0,0,2.47-.61,2.27,2.27,0,0,0,0-3.56,4.23,4.23,0,0,0-2.47-.61Zm7.32,10.27a2.1,2.1,0,0,0,.9-1.88q0-2.46-3.57-2.46h-4.65V67h4.65A4.89,4.89,0,0,0,296.55,66.43Z"/><path class="cls-1" d="M302.62,67.08a4.73,4.73,0,0,1-1.16-3.46V57.5h1.12v6.07a4,4,0,0,0,.84,2.78,3.71,3.71,0,0,0,4.87,0,4,4,0,0,0,.84-2.78V57.5h1.1v6.12a4.77,4.77,0,0,1-1.16,3.46,5,5,0,0,1-6.45,0Z"/><path class="cls-1" d="M321.48,67.2v1h-7.55V57.5h7.32v1h-6.19v3.8h5.52v1h-5.52v4Z"/><path class="cls-1" d="M333.36,57.5V68.18h-.93l-6.86-8.66v8.66h-1.13V57.5h.93l6.88,8.67V57.5Z"/><path class="cls-1" d="M338.93,67.56a5.14,5.14,0,0,1-2-1.94,5.71,5.71,0,0,1,0-5.55,5.1,5.1,0,0,1,2-2,6.19,6.19,0,0,1,5.74,0,5.14,5.14,0,0,1,2,2,5.61,5.61,0,0,1,0,5.57,5.18,5.18,0,0,1-2,1.94,5.8,5.8,0,0,1-2.86.7A5.91,5.91,0,0,1,338.93,67.56Zm5.17-.87a4.19,4.19,0,0,0,1.6-1.58,4.71,4.71,0,0,0,0-4.53A4.14,4.14,0,0,0,344.1,59a4.91,4.91,0,0,0-4.59,0,4.17,4.17,0,0,0-1.61,1.59,4.64,4.64,0,0,0,0,4.53,4.21,4.21,0,0,0,1.61,1.58,4.91,4.91,0,0,0,4.59,0Z"/><path class="cls-1" d="M350.91,67.89a4.14,4.14,0,0,1-1.69-1l.44-.86a4.36,4.36,0,0,0,1.54.93,5.61,5.61,0,0,0,2,.36,3.65,3.65,0,0,0,2.15-.52,1.65,1.65,0,0,0,.71-1.37,1.35,1.35,0,0,0-.39-1,2.55,2.55,0,0,0-1-.59,14.42,14.42,0,0,0-1.57-.45,15.73,15.73,0,0,1-1.92-.59,3,3,0,0,1-1.23-.86,2.28,2.28,0,0,1-.51-1.57,2.61,2.61,0,0,1,.43-1.47,2.88,2.88,0,0,1,1.31-1.06,5.42,5.42,0,0,1,2.19-.4,6.86,6.86,0,0,1,1.8.25,5,5,0,0,1,1.51.7l-.38.9a5.18,5.18,0,0,0-1.43-.67,5.67,5.67,0,0,0-1.5-.22,3.39,3.39,0,0,0-2.11.55,1.68,1.68,0,0,0-.71,1.39,1.39,1.39,0,0,0,.39,1,2.62,2.62,0,0,0,1,.6c.39.13.91.28,1.58.45a14.83,14.83,0,0,1,1.89.57,3,3,0,0,1,1.23.85,2.25,2.25,0,0,1,.51,1.55,2.62,2.62,0,0,1-.44,1.47,2.92,2.92,0,0,1-1.33,1,5.57,5.57,0,0,1-2.21.39A6.9,6.9,0,0,1,350.91,67.89Z"/><path class="cls-1" d="M372.88,64.66h-7.33L364,68.18h-1.45l6-13.17h1.37l6,13.17h-1.47Zm-.5-1.13-3.16-7.07-3.16,7.07Z"/><path class="cls-1" d="M378.33,57.5h1.13V68.18h-1.13Z"/><path class="cls-1" d="M390.53,68.18l-2.44-3.43a8,8,0,0,1-.86,0h-2.86v3.39h-1.13V57.5h4a4.85,4.85,0,0,1,3.21,1,3.34,3.34,0,0,1,1.16,2.69,3.32,3.32,0,0,1-2.45,3.35l2.61,3.66Zm-.9-5.05a2.74,2.74,0,0,0,0-4,3.69,3.69,0,0,0-2.43-.7h-2.83v5.35h2.83A3.69,3.69,0,0,0,389.63,63.13Z"/><path class="cls-1" d="M402.12,67.2v1h-7.55V57.5h7.32v1H395.7v3.8h5.52v1H395.7v4Z"/><path class="cls-1" d="M405.74,67.89a4.14,4.14,0,0,1-1.69-1l.45-.86A4.27,4.27,0,0,0,406,67a5.59,5.59,0,0,0,2,.36,3.65,3.65,0,0,0,2.15-.52,1.64,1.64,0,0,0,.72-1.37,1.35,1.35,0,0,0-.39-1,2.59,2.59,0,0,0-1-.59,13.77,13.77,0,0,0-1.57-.45,15.73,15.73,0,0,1-1.92-.59,3.09,3.09,0,0,1-1.23-.86,2.28,2.28,0,0,1-.51-1.57,2.69,2.69,0,0,1,.43-1.47,2.88,2.88,0,0,1,1.31-1.06,5.44,5.44,0,0,1,2.2-.4,6.73,6.73,0,0,1,1.79.25,5.19,5.19,0,0,1,1.52.7l-.38.9a5.24,5.24,0,0,0-1.44-.67,5.6,5.6,0,0,0-1.49-.22,3.37,3.37,0,0,0-2.11.55,1.65,1.65,0,0,0-.71,1.39,1.39,1.39,0,0,0,.39,1,2.5,2.5,0,0,0,1,.6c.39.13.92.28,1.58.45a15.05,15.05,0,0,1,1.9.57,3.1,3.1,0,0,1,1.23.85,2.29,2.29,0,0,1,.5,1.55,2.61,2.61,0,0,1-.43,1.47,3,3,0,0,1-1.34,1,5.57,5.57,0,0,1-2.21.39A7,7,0,0,1,405.74,67.89Z"/><path class="cls-1" d="M167.89,18.86a9.37,9.37,0,0,1-3.65-3.55,10,10,0,0,1-1.32-5.09,10,10,0,0,1,1.32-5.09,9.35,9.35,0,0,1,3.67-3.55A10.68,10.68,0,0,1,173.15.29a10.87,10.87,0,0,1,4,.73,8.32,8.32,0,0,1,3.13,2.12L179,4.45a7.81,7.81,0,0,0-5.78-2.32A8.57,8.57,0,0,0,169,3.19a7.78,7.78,0,0,0-3,2.9A8,8,0,0,0,165,10.22,8,8,0,0,0,166,14.35a7.78,7.78,0,0,0,3,2.9,8.57,8.57,0,0,0,4.21,1.06A7.66,7.66,0,0,0,179,16l1.31,1.31a8.56,8.56,0,0,1-3.14,2.14,10.86,10.86,0,0,1-4,.74A10.64,10.64,0,0,1,167.89,18.86Z"/><path class="cls-1" d="M186.25,19.16a7.25,7.25,0,0,1-2.8-2.72,7.4,7.4,0,0,1-1-3.87,7.45,7.45,0,0,1,1-3.87A7.22,7.22,0,0,1,186.25,6a8.61,8.61,0,0,1,8,0,7.15,7.15,0,0,1,2.8,2.71,7.52,7.52,0,0,1,1,3.88,7.53,7.53,0,0,1-1,3.89,7.29,7.29,0,0,1-2.8,2.71,8.61,8.61,0,0,1-8,0Zm7.21-1.22a5.71,5.71,0,0,0,2.23-2.21,6.22,6.22,0,0,0,.81-3.16,6.27,6.27,0,0,0-.81-3.16,5.78,5.78,0,0,0-2.23-2.21,6.8,6.8,0,0,0-6.4,0,5.83,5.83,0,0,0-2.25,2.21,6.18,6.18,0,0,0-.82,3.16,6.13,6.13,0,0,0,.82,3.16,5.76,5.76,0,0,0,2.25,2.21,6.8,6.8,0,0,0,6.4,0Z"/><path class="cls-1" d="M202,5.13h1.57V18.66h8.34V20H202Z"/><path class="cls-1" d="M225.52,18.66V20H215V5.13H225.2V6.49h-8.64v5.3h7.7v1.34h-7.7v5.53Z"/><path class="cls-1" d="M240.05,12.57h1.51v5.68a7.41,7.41,0,0,1-2.47,1.41,9.34,9.34,0,0,1-3,.49,8.25,8.25,0,0,1-4-1,7.32,7.32,0,0,1-2.81-2.71,7.53,7.53,0,0,1-1-3.89,7.52,7.52,0,0,1,1-3.88A7.18,7.18,0,0,1,232.07,6a8.3,8.3,0,0,1,4-1,8.79,8.79,0,0,1,3.13.54,6.17,6.17,0,0,1,2.4,1.61l-1,1a6.08,6.08,0,0,0-4.49-1.75,6.7,6.7,0,0,0-3.26.8,5.86,5.86,0,0,0-2.29,2.21,6.19,6.19,0,0,0-.83,3.16,6.1,6.1,0,0,0,.83,3.15,5.91,5.91,0,0,0,2.28,2.21,7.07,7.07,0,0,0,7.15-.34Z"/><path class="cls-1" d="M246.43,5.13H248V20h-1.57Z"/><path class="cls-1" d="M255.78,19.16A7.21,7.21,0,0,1,253,16.44a7.5,7.5,0,0,1-1-3.87,7.55,7.55,0,0,1,1-3.87A7.18,7.18,0,0,1,255.78,6a8.61,8.61,0,0,1,8,0,7.19,7.19,0,0,1,2.79,2.71,7.43,7.43,0,0,1,1,3.88,7.44,7.44,0,0,1-1,3.89,7.34,7.34,0,0,1-2.79,2.71,8.61,8.61,0,0,1-8,0Zm7.2-1.22a5.71,5.71,0,0,0,2.23-2.21,6.22,6.22,0,0,0,.81-3.16,6.27,6.27,0,0,0-.81-3.16A5.78,5.78,0,0,0,263,7.2a6.78,6.78,0,0,0-6.39,0,5.85,5.85,0,0,0-2.26,2.21,6.18,6.18,0,0,0-.82,3.16,6.13,6.13,0,0,0,.82,3.16,5.78,5.78,0,0,0,2.26,2.21,6.78,6.78,0,0,0,6.39,0Z"/><path class="cls-1" d="M277.55,5.13h6.06a8.84,8.84,0,0,1,4.17.94,6.83,6.83,0,0,1,2.81,2.64,7.43,7.43,0,0,1,1,3.86,7.38,7.38,0,0,1-1,3.86,6.83,6.83,0,0,1-2.81,2.64,8.84,8.84,0,0,1-4.17.95h-6.06Zm6,13.53a7.16,7.16,0,0,0,3.42-.78,5.63,5.63,0,0,0,2.28-2.15,6.09,6.09,0,0,0,.81-3.16,6.12,6.12,0,0,0-.81-3.16A5.7,5.7,0,0,0,287,7.26a7.28,7.28,0,0,0-3.42-.77h-4.4V18.66Z"/><path class="cls-1" d="M306.08,18.66V20H295.55V5.13h10.21V6.49h-8.64v5.3h7.7v1.34h-7.7v5.53Z"/></g></g></svg>