<svg width="67" height="34" viewBox="0 0 67 34" fill="none" xmlns="http://www.w3.org/2000/svg">
<path d="M58.7925 31.6274C58.7874 31.9479 58.848 32.2659 58.9708 32.5621C59.0945 32.8582 59.2779 33.1249 59.5093 33.347C59.7406 33.5683 60.0166 33.74 60.3178 33.8502C60.619 33.9595 60.9395 34.0067 61.2601 33.9865C62.39 33.9192 63.4762 33.5279 64.389 32.8591L64.8316 33.8838H66.372V27.4493C66.372 25.3274 65.0924 24.6056 63.3407 24.6241C61.9046 24.5871 60.4726 24.7772 59.0962 25.1878V26.4733C60.1756 26.4069 62.1284 26.2857 63.1161 26.2857C63.9229 26.2857 64.4016 26.5104 64.4016 27.4981V28.2864H61.3215C59.5572 28.2864 58.8051 29.3658 58.8051 30.712L58.7925 31.6274ZM60.7755 31.3842V30.7776C60.7595 30.6565 60.7688 30.5328 60.8033 30.415C60.8377 30.2972 60.8966 30.1887 60.9766 30.0953C61.0565 30.0019 61.1541 29.927 61.2651 29.874C61.3754 29.821 61.4957 29.7924 61.6185 29.789L64.3899 29.5829V31.5592C63.5418 31.9757 62.6256 32.2365 61.6858 32.329C61.1886 32.329 60.7763 32.1776 60.7763 31.4078V31.3842H60.7755ZM49.722 33.883H51.7353V27.1767C52.4925 26.6155 53.4121 26.316 54.3544 26.3219C55.051 26.3219 55.5668 26.7283 55.5668 27.7042V33.883H57.5498V27.7227C57.5498 26.0796 56.8162 24.6426 54.797 24.6426C53.4146 24.6426 52.6263 25.2492 51.7656 25.807L51.3164 24.8008H49.722V33.883ZM45.8721 23.4109C45.8712 23.4647 45.8813 23.5177 45.9024 23.5674C45.9234 23.617 45.9537 23.6616 45.9924 23.6986C46.0311 23.7356 46.0774 23.7642 46.127 23.7827C46.1775 23.8013 46.2313 23.8088 46.2843 23.8055H47.7398C47.7928 23.8114 47.8467 23.8046 47.8972 23.787C47.9476 23.7693 47.9931 23.7407 48.0309 23.7028C48.0688 23.665 48.0974 23.6195 48.1151 23.5691C48.1327 23.5186 48.1395 23.4647 48.1336 23.4117V22.1085C48.1395 22.053 48.1336 21.9966 48.1168 21.9436C48.0991 21.8906 48.0713 21.8418 48.0343 21.7997C47.9973 21.7577 47.9519 21.7248 47.9005 21.7013C47.8501 21.6786 47.7945 21.6659 47.739 21.6651H46.2776C46.2195 21.6609 46.1615 21.6693 46.1076 21.6912C46.0538 21.7122 46.005 21.745 45.9655 21.7879C45.9259 21.83 45.8965 21.8813 45.8788 21.9369C45.8611 21.9924 45.8569 22.0504 45.8653 22.1085L45.8721 23.4109ZM45.9932 33.883H47.9821V24.7881H45.9932V33.883ZM37.3889 29.3288C37.3889 33.1611 38.6871 33.9671 40.3849 33.9671C41.8034 33.9671 43.2404 33.9671 44.5924 33.4211V32.1179C44.5924 32.1179 42.6102 32.2752 41.0336 32.2752C39.8203 32.2752 39.3719 31.8141 39.3719 29.3827C39.3719 26.5087 39.9785 26.3875 41.0336 26.3875C42.5555 26.3875 44.4712 26.491 44.4712 26.491V25.224C43.1344 24.8883 41.763 24.7149 40.3849 24.7082C38.6383 24.7082 37.3889 25.4965 37.3889 29.3288ZM33.6904 23.4109C33.6887 23.4647 33.6979 23.5186 33.7181 23.5682C33.7383 23.6178 33.7695 23.6633 33.8082 23.7003C33.8469 23.7373 33.8931 23.7659 33.9445 23.7844C33.9949 23.8021 34.0488 23.8097 34.1026 23.8055H35.5581C35.6111 23.8105 35.6641 23.8029 35.7138 23.7853C35.7634 23.7668 35.8097 23.7382 35.8467 23.7003C35.8846 23.6624 35.9132 23.617 35.9317 23.5674C35.9502 23.5177 35.9569 23.4639 35.9527 23.4109V22.1077C35.9586 22.0521 35.9527 21.9958 35.9359 21.9427C35.9191 21.8897 35.8913 21.8409 35.8534 21.7989C35.8164 21.7568 35.771 21.724 35.7205 21.7004C35.6692 21.6777 35.6145 21.6651 35.559 21.6643H34.1035C34.0454 21.6601 33.9874 21.6685 33.9335 21.6903C33.8797 21.7114 33.8309 21.7442 33.7913 21.7871C33.7518 21.8292 33.7223 21.8805 33.7047 21.936C33.687 21.9915 33.6828 22.0496 33.6912 22.1077V23.4109H33.6904ZM33.8115 33.883H35.7946V24.7881H33.8115V33.883ZM24.1951 29.3835C24.1951 31.9487 24.8437 33.9856 27.1725 33.9856C28.2444 33.9166 29.2759 33.549 30.15 32.9247L30.5438 33.883H32.1204V20.4519H30.15V25.303C29.2018 24.9236 28.1939 24.7183 27.1725 24.6964C24.6384 24.6964 24.1951 26.7342 24.1951 29.4197V29.3835ZM26.1772 29.365C26.1772 26.8671 26.693 26.3337 27.5654 26.3337C28.4413 26.3118 29.3146 26.4397 30.1483 26.7098V31.5609C29.3558 31.9925 28.4674 32.2155 27.5654 32.2096C26.6745 32.2096 26.1772 31.4095 26.1772 29.3171V29.365ZM15.2088 29.3171C15.2088 32.7371 15.8936 33.9856 18.2039 33.9856C19.725 34.0512 21.2479 33.8897 22.721 33.5069V32.1061C21.5036 32.2727 20.2744 32.3358 19.0469 32.2937C17.7437 32.2937 17.1977 32.0329 17.1977 30.2198H20.4292C22.0724 30.2198 22.8969 29.5164 22.8969 27.9945C22.8969 24.9631 21.6475 24.7259 19.1799 24.7259C16.342 24.7259 15.2079 25.3325 15.2079 29.2977V29.3171H15.2088ZM17.1733 28.6617C17.1733 26.406 17.7799 26.3513 19.2589 26.3513C20.6657 26.3513 20.8836 26.539 20.8836 27.928C20.8836 28.4067 20.611 28.6617 20.0103 28.6617H17.1733ZM0.425647 33.883H2.41456V27.2129C3.13643 26.6509 4.02825 26.3497 4.94278 26.3581C5.66464 26.3581 6.15514 26.8553 6.15514 27.7648V33.8889H8.13817V27.1582C8.89369 26.5852 9.82841 26.2992 10.7758 26.3513C11.4732 26.3513 11.9881 26.8486 11.9881 27.7581V33.8821H13.9585V27.7766C13.9585 25.9576 13.0549 24.6779 11.2057 24.6779C9.96723 24.6847 8.76749 25.1121 7.80416 25.8903C7.55512 25.4806 7.19503 25.1491 6.76595 24.9345C6.33687 24.72 5.85563 24.6308 5.37859 24.6779C4.00805 24.6779 3.28703 25.224 2.4011 25.8238L1.95267 24.7991H0.424805V33.883H0.425647Z" fill="#00B4DC"/>
<path d="M5.80542 17.0077C11.1841 17.0077 11.1841 12.8178 11.1841 8.51862C11.1841 4.21939 11.1841 0.029541 5.80542 0.029541C0.426757 0.029541 0.426758 4.17732 0.426758 8.51862C0.426758 12.8599 0.426757 17.0077 5.80542 17.0077ZM5.80542 14.5527C3.98645 14.5527 3.73152 12.7337 3.73152 8.48917C3.73152 4.24463 3.96794 2.42566 5.80542 2.42566C7.64289 2.42566 7.87931 4.24463 7.87931 8.48917C7.87931 12.7337 7.64289 14.5527 5.80542 14.5527Z" fill="#0055A2"/>
<path d="M17.3728 17.0084C20.4041 17.0084 22.0784 15.6017 22.0784 11.2057H18.8645C18.8224 12.5031 18.8645 14.5526 17.3728 14.5526C15.5538 14.5526 15.2989 12.7336 15.2989 8.48907C15.2989 4.24454 15.5353 2.42557 17.3728 2.42557C18.3429 2.42557 18.713 3.24419 18.713 5.4569H21.9084C22.0355 1.92161 20.6961 0 17.3728 0C11.9941 0 11.9941 4.14778 11.9941 8.48907C11.9941 12.8304 11.9941 16.9781 17.3728 16.9781" fill="#0055A2"/>
<path d="M31.2117 16.7535V14.2186H25.791V9.41622H30.6295V6.888H25.791V2.83193H31.0418V0.303711H22.5342V16.7543H31.2117V16.7535Z" fill="#0055A2"/>
<path d="M38.396 10.5746H35.273L36.7588 3.46784H36.8076L38.396 10.5746ZM33.7392 16.7534L34.6243 13.1154H39.0691L39.9357 16.7534H43.3675L39.1229 0.302734H34.8363L30.5127 16.7534H33.7392Z" fill="#0055A2"/>
<path d="M46.3449 16.7534V4.72311H46.3869L50.6374 16.7534H54.9366V0.302734H51.8926V11.6902H51.8506L47.7036 0.302734H43.3018V16.7534H46.3449Z" fill="#0055A2"/>
<path d="M61.2859 17.0077C66.6637 17.0077 66.6637 12.8178 66.6637 8.51862C66.6637 4.21939 66.6637 0.029541 61.2859 0.029541C55.908 0.029541 55.9131 4.17732 55.9131 8.51862C55.9131 12.8599 55.9139 17.0077 61.2859 17.0077ZM61.2859 14.5527C59.4669 14.5527 59.212 12.7337 59.212 8.48917C59.212 4.24463 59.4543 2.42566 61.2859 2.42566C63.1166 2.42566 63.3597 4.24463 63.3597 8.48917C63.3597 12.7337 63.1233 14.5527 61.2859 14.5527Z" fill="#0055A2"/>
</svg>
