<?xml version="1.0" encoding="utf-8"?>
<!-- Generator: Adobe Illustrator 26.1.0, SVG Export Plug-In . SVG Version: 6.00 Build 0)  -->
<svg version="1.2" baseProfile="tiny" id="Capa_1" xmlns="http://www.w3.org/2000/svg" xmlns:xlink="http://www.w3.org/1999/xlink"
	 x="0px" y="0px" viewBox="0 0 37 37" overflow="visible" xml:space="preserve">
<g>
	<path fill="none" d="M21.8,21.6L21.8,21.6L21.8,21.6c-0.9,0.2-1.8,0.5-2.7,0.7c-0.4,0.1-0.8,0.1-1.1,0c-0.9-0.3-1.8-0.5-2.7-0.7
		c-1.9-0.5-3.8-1-5.7-1.7l-0.3-0.1v0.3v7c0,1,0.6,1.9,1.5,2.3l6.8,2.7c0.6,0.2,1.2,0.2,1.7,0l6.8-2.7c0.9-0.4,1.5-1.3,1.5-2.3v-7
		v-0.3l-0.3,0.1C25.5,20.6,23.7,21.1,21.8,21.6z"/>
	<path fill="#FFFFFF" d="M35.7,10.4l-1.8-1.5c-3.8-3.1-8-4.3-12.2-5.4l0.1-0.2l-0.1,0.2l0,0C20.8,3.2,19.9,3,19,2.7
		c-0.4-0.1-0.8-0.1-1.1,0C17,3,16.1,3.2,15.2,3.5C11,4.6,6.8,5.7,3.1,8.9l-1.8,1.5c-1.3,1.1-1.3,3.3,0,4.4l1.8,1.5
		c1.3,1.1,2.7,2,4.1,2.6l0.2,0.1l-0.1,0.2c-0.1,0.1-0.1,0.3-0.1,0.4v7.5c0,1.9,1.1,3.6,2.9,4.3l6.8,2.7c1,0.4,2.2,0.4,3.2,0l6.8-2.7
		c1.7-0.7,2.9-2.4,2.9-4.3v-7.5c0-0.2,0-0.3-0.1-0.4l-0.1-0.2l0.2-0.1c1.4-0.7,2.8-1.5,4.1-2.6l0.1,0.2l-0.1-0.2l0.3-0.2l0.4-0.3
		v0.5v8.7c0,0.6,0.5,1.1,1.1,1.1s1.1-0.5,1.1-1.1V12.5c0,0,0,0,0,0C36.7,11.7,36.3,10.9,35.7,10.4z M27.7,20.1v7
		c0,1-0.6,1.9-1.5,2.3l-6.8,2.7c-0.6,0.2-1.2,0.2-1.7,0l-6.8-2.7c-0.9-0.4-1.5-1.3-1.5-2.3v-7v-0.3l0.3,0.1c1.9,0.7,3.8,1.2,5.7,1.7
		c0.9,0.2,1.8,0.5,2.7,0.7c0.4,0.1,0.8,0.1,1.1,0c0.9-0.3,1.8-0.5,2.7-0.7l0,0h0c1.9-0.5,3.8-1,5.6-1.7l0.3-0.1V20.1z M34.4,13
		l-1.8,1.5c-3.4,2.8-7,3.8-11.2,4.9l0,0l0,0c-0.9,0.2-1.8,0.5-2.8,0.8l-0.1,0l-0.1,0l-0.1,0l-0.1,0c-1-0.3-1.9-0.5-2.8-0.8l0,0l0,0
		c-4.2-1.1-7.8-2.1-11.2-4.9L2.6,13c-0.1-0.1-0.2-0.3-0.2-0.5c0-0.2,0.1-0.4,0.2-0.5l1.8-1.5c3.3-2.8,7-3.8,11.1-4.9l0,0
		c0.9-0.2,1.9-0.5,2.8-0.8l0.1,0l0.1,0l0.1,0l0.1,0c1,0.3,1.9,0.5,2.8,0.8l0,0c4.1,1.1,7.8,2.1,11.1,4.9l1.8,1.5
		c0.1,0.1,0.2,0.3,0.2,0.5C34.6,12.8,34.5,12.9,34.4,13z"/>
</g>
</svg>
