<svg width="37" height="37" viewBox="0 0 37 37" fill="none" xmlns="http://www.w3.org/2000/svg">
<path d="M12.7488 19.67H4.17432V26.1235H12.7488V19.67ZM11.1713 24.5536H5.74429V21.2476H11.1713V24.5536Z" fill="white"/>
<path d="M28.0943 30.0635H12.6738V31.641H28.0943V30.0635Z" fill="white"/>
<path d="M33.3619 0H8.31028C6.34027 0 4.68727 1.653 4.68727 3.62301V14.4015H3.62301C1.653 14.4015 0 16.0545 0 18.0245V33.3619C0 35.3319 1.653 36.9849 3.62301 36.9849H29.437C31.407 36.9849 33.06 35.3319 33.06 33.2864V22.5834H33.377C35.347 22.5834 37 20.9304 37 18.8849V3.62301C36.9849 1.653 35.3319 0 33.3619 0ZM8.31028 1.57752H33.3619C34.4639 1.57752 35.4074 2.52101 35.4074 3.62301V5.20053H6.26479V3.62301C6.26479 2.52101 7.20828 1.57752 8.31028 1.57752ZM31.4749 33.2864C31.4749 34.3884 30.5314 35.3319 29.4294 35.3319H3.62301C2.52101 35.3319 1.57752 34.3884 1.57752 33.2864V18.0169C1.57752 16.9149 2.52101 15.9714 3.62301 15.9714H29.437C30.539 15.9714 31.4825 16.9149 31.4825 18.0169V33.2864H31.4749ZM33.3619 21.0135H33.0449V18.0245C33.0449 16.0545 31.3919 14.4015 29.4219 14.4015H6.26479V6.7705H35.4074V18.968C35.4074 20.07 34.4639 21.0135 33.3619 21.0135Z" fill="white"/>
</svg>
