<?xml version="1.0" encoding="utf-8"?>
<!-- Generator: Adobe Illustrator 26.0.2, SVG Export Plug-In . SVG Version: 6.00 Build 0)  -->
<svg version="1.1" id="Capa_1" xmlns="http://www.w3.org/2000/svg" xmlns:xlink="http://www.w3.org/1999/xlink" x="0px" y="0px"
	 viewBox="0 0 50 50" style="enable-background:new 0 0 50 50;" xml:space="preserve">
<style type="text/css">
	.st0{opacity:0.75;fill:#008066;}
</style>
<path class="st0" d="M20,45.2c0,2.7-2.2,4.8-4.8,4.8s-4.8-2.2-4.8-4.8s2.2-4.8,4.8-4.8S20,42.5,20,45.2 M39.3,40.3
	c-2.7,0-4.8,2.2-4.8,4.8s2.2,4.8,4.8,4.8c2.7,0,4.8-2.2,4.8-4.8S42,40.3,39.3,40.3 M15.5,32.5l0.1-0.3l2.2-3.9h18
	c1.8,0,3.4-1,4.2-2.5l9.3-17l-4.2-2.3h0l-2.7,4.8l-6.7,12.1h-17l-0.3-0.7l-5.4-11.4l-2.3-4.8L8.5,1.6H0.6v4.8h4.8l8.7,18.4l-3.3,5.9
	c-0.4,0.7-0.6,1.5-0.6,2.3c0,2.7,2.2,4.8,4.8,4.8h29v-4.8h-28C15.8,33.1,15.5,32.8,15.5,32.5 M41.7,3.4L38.3,0L26.6,11.7l-6.3-6.3
	l-3.4,3.4l9.7,9.7L41.7,3.4z"/>
</svg>
