<svg width="20" height="20" viewBox="0 0 20 20" fill="none" xmlns="http://www.w3.org/2000/svg">
<path d="M19.9167 2.90909C19.8334 2.8182 19.75 2.72726 19.5834 2.72726H3.75L3.33332 0.363626C3.33332 0.181792 3.08332 7.48857e-09 2.91664 7.48857e-09H0.416641C0.16668 -4.26066e-05 0 0.181792 0 0.454522C0 0.727252 0.16668 0.909087 0.41668 0.909087H2.58336L4.58336 12.0001C4.83336 13.4547 6.08336 14.5456 7.41668 14.5456H17C17.25 14.5456 17.4167 14.3638 17.4167 14.091C17.4167 13.8183 17.25 13.6365 17 13.6365H7.5C6.83332 13.6365 6.16668 13.2728 5.83332 12.6364L18 10.8183C18.1667 10.8183 18.3333 10.6364 18.3333 10.4546L20 3.18182C20 3.18182 20 2.99999 19.9167 2.90909ZM17.5833 10.0001L5.41664 11.7274L3.91664 3.54545H19L17.5833 10.0001Z" fill="white"/>
<path d="M7.08346 15.4545C5.91681 15.4545 5.00012 16.4546 5.00012 17.7273C5.00012 19 5.91681 20 7.08346 20C8.25014 20 9.16679 19 9.16679 17.7273C9.16683 16.4546 8.25014 15.4545 7.08346 15.4545ZM7.08346 19.0909C6.41677 19.0909 5.83345 18.4545 5.83345 17.7273C5.83345 17 6.41677 16.3636 7.08346 16.3636C7.75014 16.3636 8.33346 17 8.33346 17.7273C8.33346 18.4545 7.75014 19.0909 7.08346 19.0909Z" fill="white"/>
<path d="M15.4166 15.4545C14.25 15.4545 13.3333 16.4546 13.3333 17.7273C13.3333 19 14.25 20 15.4166 20C16.5833 20 17.5 19 17.5 17.7273C17.5 16.4546 16.5833 15.4545 15.4166 15.4545ZM15.4166 19.0909C14.75 19.0909 14.1666 18.4545 14.1666 17.7273C14.1666 17 14.75 16.3636 15.4166 16.3636C16.0833 16.3636 16.6667 17 16.6667 17.7273C16.6667 18.4545 16.0833 19.0909 15.4166 19.0909Z" fill="white"/>
</svg>
