<svg width="78" height="78" viewBox="0 0 78 78" fill="none" xmlns="http://www.w3.org/2000/svg">
<circle cx="39" cy="39" r="39" fill="#808FA6" fill-opacity="0.75"/>
<path d="M57 29.9231L54.2094 46.2485C54.0442 47.2145 53.1786 47.9231 52.1636 47.9231H27.4561C26.4412 47.9231 25.5755 47.2145 25.4104 46.2485L22.906 31.5977C22.7409 30.6318 21.8752 29.9231 20.8603 29.9231H17" stroke="white" stroke-width="2" stroke-linecap="round"/>
<path d="M31 57.9231C32.6568 57.9231 34 56.58 34 54.9231C34 53.2662 32.6568 51.9231 31 51.9231C29.3432 51.9231 28 53.2662 28 54.9231C28 56.58 29.3432 57.9231 31 57.9231Z" stroke="white" stroke-width="2" stroke-linecap="square"/>
<path d="M49 57.9231C50.6568 57.9231 52 56.58 52 54.9231C52 53.2662 50.6568 51.9231 49 51.9231C47.3432 51.9231 46 53.2662 46 54.9231C46 56.58 47.3432 57.9231 49 57.9231Z" stroke="white" stroke-width="2" stroke-linecap="square"/>
<path d="M47.7692 36.693L31.0762 20L47.7692 36.693Z" fill="#D75D4B"/>
<path d="M47.7692 36.693L31.0762 20" stroke="white" stroke-width="2" stroke-linecap="round"/>
<path d="M47.7686 20L31.0756 36.693L47.7686 20Z" fill="#D75D4B"/>
<path d="M47.7686 20L31.0756 36.693" stroke="white" stroke-width="2" stroke-linecap="round"/>
</svg>
