<svg width="17" height="18" viewBox="0 0 17 18" fill="none" xmlns="http://www.w3.org/2000/svg">
<rect width="17" height="18" rx="8.5" fill="white"/>
<path d="M6.16895 5.2417H11.4174V5.69365H6.16895V5.2417Z" fill="#3F6CBB"/>
<path d="M11.7084 6.05806H6.12761C6.0532 6.05701 5.97977 6.0409 5.91176 6.01069C5.84375 5.98049 5.78256 5.93683 5.73188 5.88233C5.6812 5.82784 5.64208 5.76364 5.61688 5.69362C5.59169 5.6236 5.58093 5.5492 5.58527 5.47491C5.58491 5.32706 5.64072 5.1846 5.7414 5.07634C5.84208 4.96808 5.98013 4.9021 6.12761 4.89175H11.7084C11.7858 4.89175 11.8599 4.86103 11.9146 4.80635C11.9693 4.75167 12 4.6775 12 4.60017C12 4.52284 11.9693 4.44868 11.9146 4.394C11.8599 4.33931 11.7858 4.30859 11.7084 4.30859H6.12761C5.82541 4.31918 5.53914 4.44671 5.32916 4.6643C5.11919 4.88189 5.00193 5.17253 5.00212 5.47491C4.99929 5.52249 4.99929 5.5702 5.00212 5.61778C4.99931 5.64102 4.99931 5.66452 5.00212 5.68776V12.4728C5.00193 12.7752 5.11919 13.0658 5.32916 13.2834C5.53914 13.501 5.82541 13.6285 6.12761 13.6391H11.7084C11.7858 13.6391 11.8599 13.6084 11.9146 13.5537C11.9693 13.499 12 13.4249 12 13.3475V6.42254V6.3963V6.37005C12.0002 6.29073 11.9701 6.21431 11.916 6.15636C11.8618 6.0984 11.7876 6.06325 11.7084 6.05806Z" fill="#3F6CBB"/>
</svg>
