<svg width="17" height="18" viewBox="0 0 17 18" fill="none" xmlns="http://www.w3.org/2000/svg">
<rect width="17" height="18" rx="8.5" fill="white"/>
<path d="M12 14.3754H6C5.73478 14.3754 5.48043 14.2701 5.29289 14.0825C5.10536 13.895 5 13.6407 5 13.3754V5.37544C5 5.11022 5.10536 4.85587 5.29289 4.66833C5.48043 4.4808 5.73478 4.37544 6 4.37544H9.5C9.50448 4.37485 9.50902 4.37485 9.5135 4.37544H9.5165C9.52122 4.37692 9.52608 4.37792 9.531 4.37844C9.575 4.38144 9.6185 4.38994 9.6605 4.40394H9.6815C9.69073 4.4104 9.69942 4.41759 9.7075 4.42544C9.76197 4.44966 9.8116 4.48354 9.854 4.52544L12.854 7.52544C12.8959 7.56783 12.9298 7.61747 12.954 7.67194C12.9584 7.68275 12.9622 7.69376 12.9655 7.70494L12.9705 7.71894C12.9845 7.76044 12.9925 7.80394 12.995 7.84794C12.9954 7.85292 12.9966 7.85781 12.9985 7.86244V7.86544C12.9993 7.86872 12.9998 7.87207 13 7.87544V13.3754C13 13.6407 12.8946 13.895 12.7071 14.0825C12.5196 14.2701 12.2652 14.3754 12 14.3754ZM10.212 10.3754V12.8754H10.682V11.8554H11.412V11.4364H10.682V10.7959H11.5V10.3754H10.212ZM8.362 10.3754V12.8754H8.965C9.218 12.8879 9.463 12.7849 9.631 12.5954C9.80345 12.3754 9.88983 12.1001 9.874 11.8209V11.4159C9.88563 11.1398 9.79682 10.8687 9.624 10.6529C9.4615 10.4679 9.224 10.3659 8.9775 10.3754H8.362ZM6.5 10.3754V12.8754H6.97V11.9959H7.283C7.492 12.0074 7.696 11.9299 7.845 11.7829C7.987 11.6239 8.0605 11.4159 8.05 11.2029C8.05928 10.9851 7.98567 10.7717 7.844 10.6059C7.77479 10.5292 7.68944 10.4687 7.59409 10.4289C7.49874 10.389 7.39574 10.3708 7.2925 10.3754H6.5ZM9.5 5.37544V7.87544H12L9.5 5.37544ZM8.973 12.4564H8.832V10.7959H9.003C9.06276 10.7924 9.12245 10.8039 9.1766 10.8294C9.23076 10.8549 9.27766 10.8936 9.313 10.9419C9.3865 11.0934 9.418 11.2619 9.404 11.4299V11.8644C9.415 12.0244 9.3805 12.1844 9.304 12.3249C9.26363 12.3721 9.2124 12.4087 9.15474 12.4316C9.09707 12.4545 9.0347 12.463 8.973 12.4564ZM7.2925 11.5754H6.9695V10.7959H7.297C7.33722 10.7964 7.37667 10.807 7.41165 10.8269C7.44664 10.8467 7.476 10.8751 7.497 10.9094C7.551 10.9989 7.577 11.1019 7.572 11.2064C7.57827 11.3037 7.55245 11.4003 7.4985 11.4814C7.47398 11.5122 7.44255 11.5368 7.40675 11.5531C7.37096 11.5694 7.33181 11.5771 7.2925 11.5754Z" fill="#3F6CBB"/>
</svg>
