<svg width="17" height="18" viewBox="0 0 17 18" fill="none" xmlns="http://www.w3.org/2000/svg">
<rect width="17" height="18" rx="8.5" fill="white"/>
<path d="M6.25 4.78125C6.25 4.70666 6.22037 4.63512 6.16762 4.58238C6.11488 4.52963 6.04334 4.5 5.96875 4.5C5.89416 4.5 5.82262 4.52963 5.76988 4.58238C5.71713 4.63512 5.6875 4.70666 5.6875 4.78125V5.0625H5.125C4.82663 5.0625 4.54048 5.18103 4.3295 5.392C4.11853 5.60298 4 5.88913 4 6.1875V6.75H13V6.1875C13 5.88913 12.8815 5.60298 12.6705 5.392C12.4595 5.18103 12.1734 5.0625 11.875 5.0625H11.3125V4.78125C11.3125 4.70666 11.2829 4.63512 11.2301 4.58238C11.1774 4.52963 11.1058 4.5 11.0312 4.5C10.9567 4.5 10.8851 4.52963 10.8324 4.58238C10.7796 4.63512 10.75 4.70666 10.75 4.78125V5.0625H6.25V4.78125ZM13 12.375V7.3125H4V12.375C4 12.6734 4.11853 12.9595 4.3295 13.1705C4.54048 13.3815 4.82663 13.5 5.125 13.5H11.875C12.1734 13.5 12.4595 13.3815 12.6705 13.1705C12.8815 12.9595 13 12.6734 13 12.375ZM11.0312 8.4375H11.5938C11.6683 8.4375 11.7399 8.46713 11.7926 8.51988C11.8454 8.57262 11.875 8.64416 11.875 8.71875V9.28125C11.875 9.35584 11.8454 9.42738 11.7926 9.48012C11.7399 9.53287 11.6683 9.5625 11.5938 9.5625H11.0312C10.9567 9.5625 10.8851 9.53287 10.8324 9.48012C10.7796 9.42738 10.75 9.35584 10.75 9.28125V8.71875C10.75 8.64416 10.7796 8.57262 10.8324 8.51988C10.8851 8.46713 10.9567 8.4375 11.0312 8.4375Z" fill="#3F6CBB"/>
</svg>
