<svg width="17" height="18" viewBox="0 0 17 18" fill="none" xmlns="http://www.w3.org/2000/svg">
<rect width="17" height="18" rx="8.5" fill="white"/>
<path d="M10.3797 11.2964C10.2665 11.5876 10.0756 11.7817 9.85882 11.7817H7.12176C6.90176 11.7817 6.71412 11.5876 6.60088 11.2964H3V11.8626C3.01656 12.07 3.11406 12.2627 3.27144 12.3989C3.42883 12.5351 3.63347 12.6039 3.84118 12.5905H13.1588C13.3665 12.6039 13.5712 12.5351 13.7286 12.3989C13.8859 12.2627 13.9834 12.07 14 11.8626V11.2964H10.3797Z" fill="#3F6CBB"/>
<path d="M4.9409 6.1198H12.0585V10.6492H13.0291V5.33362C13.0317 5.20203 12.9822 5.07474 12.8912 4.97957C12.8003 4.8844 12.6754 4.82908 12.5438 4.82568H4.45561C4.32403 4.82908 4.19913 4.8844 4.10821 4.97957C4.01728 5.07474 3.9677 5.20203 3.97031 5.33362V10.6492H4.9409V6.1198Z" fill="#3F6CBB"/>
</svg>
