<svg width="41" height="50" viewBox="0 0 41 50" fill="none" xmlns="http://www.w3.org/2000/svg">
<path d="M0.799019 10.3301C0.357914 10.3301 0.000297546 9.97252 0.000297546 9.53141V3.93503C0.000297546 1.76528 1.79987 0 4.01191 0H36.2729C38.5063 0 40.2559 1.72843 40.2559 3.93503V39.6219C40.2559 41.8504 38.4692 43.6634 36.2729 43.6634H28.4348V49.2012C28.4348 49.478 28.2914 49.7351 28.056 49.8807C27.8205 50.0263 27.5264 50.0395 27.2789 49.9156L23.3762 47.9643L19.4736 49.9156C19.3608 49.972 19.2384 50 19.1164 50C18.9703 50 18.8247 49.9599 18.6965 49.8807C18.461 49.7351 18.3176 49.478 18.3176 49.2012V43.6621L4.01201 43.6368C1.79987 43.6368 0.000297546 41.8358 0.000297546 39.6219V34.0255C0.000297546 33.5844 0.357914 33.2268 0.799019 33.2268H6.39007V10.3301H0.799019ZM1.59774 3.93503V8.73269H6.39007V3.98828C6.39007 2.67518 5.32266 1.60298 4.01041 1.59744C2.67985 1.59829 1.59774 2.64664 1.59774 3.93503ZM19.4925 36.2496C19.6043 36.3095 19.7 36.3952 19.7721 36.4987C20.7743 37.332 22.0339 37.7902 23.3389 37.7902C24.7248 37.7902 26.0553 37.2772 27.085 36.3461C28.2575 35.2846 28.93 33.773 28.93 32.1991C28.93 29.1162 26.4219 26.6081 23.3389 26.6081C20.256 26.6081 17.7479 29.1162 17.7479 32.1991C17.7479 33.7306 18.382 35.1943 19.4925 36.2496ZM19.9151 47.9089L23.019 46.3569C23.2438 46.2445 23.5086 46.2445 23.7334 46.3569L26.8373 47.9089V38.477C25.7755 39.0703 24.5745 39.3876 23.3389 39.3876C22.134 39.3876 20.959 39.0847 19.9151 38.5178V47.9089ZM18.3176 37.3377C16.9362 35.9874 16.1504 34.1351 16.1504 32.1991C16.1504 28.2353 19.3752 25.0106 23.3389 25.0106C27.3027 25.0106 30.5274 28.2353 30.5274 32.1991C30.5274 34.0954 29.7692 35.9204 28.4348 37.265V42.066H36.2729C37.5883 42.066 38.6584 40.9696 38.6584 39.6219V3.93503C38.6584 2.62417 37.6106 1.59744 36.2729 1.59744H7.18794C7.68954 2.26454 7.98751 3.09276 7.98751 3.98828V39.6219C7.98751 40.5309 7.68443 41.3706 7.17537 42.0449L18.3176 42.0646V37.3377ZM1.59774 34.8243V39.6219C1.59774 40.9316 2.702 42.0381 4.01116 42.0394C5.32308 42.0334 6.39007 40.9495 6.39007 39.6219V34.8243H1.59774Z" fill="#272727"/>
<path d="M23.3394 28.2056C25.5415 28.2056 27.333 29.997 27.333 32.1992C27.333 34.4013 25.5415 36.1928 23.3394 36.1928C21.1373 36.1928 19.3458 34.4013 19.3458 32.1992C19.3458 29.997 21.1373 28.2056 23.3394 28.2056ZM23.3394 34.5953C24.6607 34.5953 25.7356 33.5205 25.7356 32.1992C25.7356 30.8779 24.6607 29.803 23.3394 29.803C22.0181 29.803 20.9432 30.8779 20.9432 32.1992C20.9432 33.5205 22.0181 34.5953 23.3394 34.5953Z" fill="#272727"/>
<path d="M12.674 16.1875H33.9733C34.4144 16.1875 34.772 16.5451 34.772 16.9862C34.772 17.4273 34.4144 17.7849 33.9733 17.7849H12.674C12.2329 17.7849 11.8753 17.4273 11.8753 16.9862C11.8753 16.5451 12.2329 16.1875 12.674 16.1875Z" fill="#272727"/>
<path d="M15.868 19.3823H30.7775C31.2186 19.3823 31.5762 19.7399 31.5762 20.181C31.5762 20.6222 31.2186 20.9798 30.7775 20.9798H15.868C15.4269 20.9798 15.0693 20.6222 15.0693 20.181C15.0693 19.7399 15.4269 19.3823 15.868 19.3823Z" fill="#272727"/>
<path d="M12.6729 12.9932H15.8678C16.3089 12.9932 16.6665 13.3508 16.6665 13.7919C16.6665 14.233 16.3089 14.5906 15.8678 14.5906H12.6729C12.2318 14.5906 11.8742 14.233 11.8742 13.7919C11.8742 13.3508 12.2318 12.9932 12.6729 12.9932Z" fill="#272727"/>
<path d="M33.9733 14.5906H19.0638C18.6227 14.5906 18.2651 14.233 18.2651 13.7919C18.2651 13.3508 18.6227 12.9932 19.0638 12.9932H33.9733C34.4144 12.9932 34.772 13.3508 34.772 13.7919C34.772 14.233 34.4144 14.5906 33.9733 14.5906Z" fill="#272727"/>
<path d="M31.2845 10.1798C31.1387 10.2933 30.9659 10.3482 30.7946 10.3482C30.5566 10.3482 30.3211 10.2422 30.1636 10.0399L28.3085 7.65545L26.4543 10.0397C26.303 10.2343 26.0704 10.3481 25.824 10.3481C25.5774 10.3481 25.3447 10.2344 25.1935 10.0398L23.3385 7.65534L21.4843 10.0396C21.3329 10.2341 21.1002 10.348 20.8538 10.348C20.6074 10.348 20.3746 10.2341 20.2233 10.0396L18.3692 7.65545L16.5151 10.0396C16.2444 10.3878 15.7426 10.4507 15.3944 10.1797C15.0461 9.90891 14.9834 9.4071 15.2542 9.05896L17.7388 5.86408C17.8901 5.66951 18.1228 5.55566 18.3692 5.55566C18.6157 5.55566 18.8485 5.66951 18.9997 5.86408L20.8538 8.24821L22.7079 5.86408C22.8592 5.66951 23.0918 5.55566 23.3382 5.55566C23.5848 5.55566 23.8175 5.6694 23.9687 5.86397L25.8238 8.24842L27.678 5.86429C27.8293 5.66972 28.0619 5.55588 28.3083 5.55588C28.5549 5.55588 28.7876 5.66961 28.9388 5.86418L31.4244 9.05907C31.6953 9.40721 31.6326 9.90902 31.2845 10.1798Z" fill="#272727"/>
</svg>
