<svg width="180" height="103" viewBox="0 0 180 103" fill="none" xmlns="http://www.w3.org/2000/svg">
<rect width="180" height="103" rx="4" fill="white" fill-opacity="0.25"/>
<rect x="0.5" y="0.5" width="179" height="102" rx="3.5" stroke="white" stroke-opacity="0.75"/>
<rect opacity="0.5" x="23" y="23" width="134" height="12" rx="2" fill="white"/>
<rect opacity="0.5" x="23" y="71" width="22" height="12" rx="2" fill="white"/>
<rect opacity="0.5" x="48" y="71" width="22" height="12" rx="2" fill="white"/>
<rect opacity="0.5" x="130" y="71" width="22" height="12" rx="2" fill="white"/>
<rect opacity="0.5" x="73" y="16" width="33" height="4" rx="2" fill="white"/>
<rect opacity="0.5" x="57" y="45" width="31" height="3" rx="1.5" fill="white"/>
<rect opacity="0.5" x="92" y="45" width="32" height="3" rx="1.5" fill="white"/>
<rect opacity="0.5" x="57" y="51" width="31" height="3" rx="1.5" fill="white"/>
<rect opacity="0.5" x="92" y="51" width="32" height="3" rx="1.5" fill="white"/>
<rect opacity="0.5" x="125" y="86" width="32" height="3" rx="1.5" fill="white"/>
</svg>
