<svg width="42" height="45" viewBox="0 0 42 45" fill="none" xmlns="http://www.w3.org/2000/svg">
<path d="M24.8789 24.5136L18.5154 21.2134V18.8834H16.7071V21.7631C16.7071 22.1009 16.8953 22.4106 17.1953 22.566L24.0462 26.1167C26.2317 27.2723 27.5871 29.5533 27.5571 32.0254V42.3917H2.24036V32.0253C2.21027 29.5533 3.56567 27.2722 5.75127 26.1166L12.6021 22.5659C12.9021 22.4105 13.0904 22.1008 13.0904 21.763V18.8833H11.2821V21.2133L4.91853 24.5135C2.13288 25.9782 0.400779 28.8782 0.432057 32.0253V43.2958C0.431972 43.7951 0.836813 44.2 1.33617 44.2H28.4612C28.9605 44.2 29.3654 43.7951 29.3654 43.2958V32.0253C29.3966 28.8782 27.6645 25.9782 24.8789 24.5136Z" fill="white"/>
<path d="M6.76338 36.9667H4.95508V43.2959H6.76338V36.9667Z" fill="white"/>
<path d="M24.8454 36.9667H23.0371V43.2959H24.8454V36.9667Z" fill="white"/>
<path d="M16.7648 21.2812L14.8995 26.2541L13.0342 21.2803L11.3398 21.9133L14.0523 29.1466C14.1847 29.4997 14.5224 29.7336 14.8996 29.7334C15.2765 29.7337 15.6141 29.5003 15.7468 29.1475L18.4593 21.9142L16.7648 21.2812Z" fill="white"/>
<path d="M18.5169 22.5V25.6049L14.4346 28.0543C14.1626 28.2177 13.9961 28.5117 13.9961 28.8291V43.2958H15.8044V29.3409L19.8867 26.8915C20.1587 26.7281 20.3252 26.4341 20.3252 26.1167V22.5H18.5169Z" fill="white"/>
<path d="M22.1323 27.925C20.1349 27.925 18.5156 29.5443 18.5156 31.5417V34.2542H20.324V31.5417C20.324 30.543 21.1336 29.7334 22.1323 29.7334C23.131 29.7334 23.9406 30.543 23.9406 31.5417V34.2542H25.749V31.5417C25.749 29.5443 24.1298 27.925 22.1323 27.925Z" fill="white"/>
<path d="M23.0388 24.3083H21.2305V28.8291H23.0388V24.3083Z" fill="white"/>
<path d="M8.57002 24.3083H6.76172V30.6375H8.57002V24.3083Z" fill="white"/>
<path d="M7.66758 29.7333C6.16952 29.7333 4.95508 30.9477 4.95508 32.4458C4.95508 33.9438 6.16952 35.1583 7.66758 35.1583C9.16564 35.1583 10.3801 33.9438 10.3801 32.4458C10.3801 30.9477 9.16564 29.7333 7.66758 29.7333ZM7.66758 33.35C7.16822 33.35 6.76338 32.9451 6.76338 32.4458C6.76338 31.9464 7.16822 31.5416 7.66758 31.5416C8.16693 31.5416 8.57177 31.9464 8.57177 32.4458C8.57169 32.9451 8.16693 33.35 7.66758 33.35Z" fill="white"/>
<path d="M11.2829 25.6049V22.5H9.47461V26.1167C9.47469 26.4341 9.64109 26.7281 9.9131 26.8915L14.4339 29.604L15.3652 28.0543L11.2829 25.6049Z" fill="white"/>
<path d="M14.9013 0.799988C10.9064 0.799988 7.66797 4.03846 7.66797 8.03329V13.4583C7.67246 17.4513 10.9083 20.6871 14.9013 20.6916C18.8942 20.6871 22.1301 17.4513 22.1346 13.4583V8.03329C22.1346 4.03846 18.8961 0.799988 14.9013 0.799988ZM20.3263 13.4583C20.3263 16.4544 17.8974 18.8833 14.9013 18.8833C11.9051 18.8833 9.47627 16.4544 9.47627 13.4583V8.03329C9.47924 5.03835 11.9063 2.61126 14.9013 2.60829C17.8962 2.61126 20.3233 5.03835 20.3263 8.03329V13.4583Z" fill="white"/>
<path d="M12.8244 7.39045C12.5709 7.12539 12.1833 7.03817 11.8407 7.16896C11.504 7.29831 11.2821 7.62203 11.2828 7.98271C11.2403 8.31363 10.6165 8.93751 8.57031 8.93751V10.7458C10.8742 10.7458 12.0061 10.0541 12.5586 9.36964C15.1536 10.6707 20.1283 10.7458 21.2287 10.7458V8.93751C18.5758 8.93751 13.9491 8.51707 12.8244 7.39045Z" fill="white"/>
<path d="M30.4365 19H28.4609V11.3848L26.1025 12.1162V10.5098L30.2246 9.0332H30.4365V19ZM40.1641 11.6924C40.1641 12.1755 40.0433 12.6038 39.8018 12.9775C39.5602 13.3512 39.2275 13.6497 38.8037 13.873C39.2868 14.1055 39.6696 14.4268 39.9521 14.8369C40.2347 15.2425 40.376 15.721 40.376 16.2725C40.376 17.1566 40.0752 17.8561 39.4736 18.3711C38.8721 18.8815 38.054 19.1367 37.0195 19.1367C35.985 19.1367 35.1647 18.8792 34.5586 18.3643C33.9525 17.8493 33.6494 17.152 33.6494 16.2725C33.6494 15.721 33.7907 15.2402 34.0732 14.8301C34.3558 14.4199 34.7363 14.1009 35.2148 13.873C34.791 13.6497 34.4583 13.3512 34.2168 12.9775C33.9798 12.6038 33.8613 12.1755 33.8613 11.6924C33.8613 10.8447 34.1439 10.1702 34.709 9.66895C35.2741 9.16309 36.042 8.91016 37.0127 8.91016C37.9788 8.91016 38.7445 9.16081 39.3096 9.66211C39.8792 10.1589 40.1641 10.8356 40.1641 11.6924ZM38.3936 16.1289C38.3936 15.696 38.2682 15.3496 38.0176 15.0898C37.7669 14.8301 37.4297 14.7002 37.0059 14.7002C36.5866 14.7002 36.2516 14.8301 36.001 15.0898C35.7503 15.3451 35.625 15.6914 35.625 16.1289C35.625 16.5527 35.748 16.8945 35.9941 17.1543C36.2402 17.4141 36.582 17.5439 37.0195 17.5439C37.4479 17.5439 37.7829 17.4186 38.0244 17.168C38.2705 16.9173 38.3936 16.571 38.3936 16.1289ZM38.1885 11.7881C38.1885 11.4007 38.0859 11.0908 37.8809 10.8584C37.6758 10.6214 37.3864 10.5029 37.0127 10.5029C36.6436 10.5029 36.3564 10.6169 36.1514 10.8447C35.9463 11.0726 35.8438 11.387 35.8438 11.7881C35.8438 12.1846 35.9463 12.5036 36.1514 12.7451C36.3564 12.9867 36.6458 13.1074 37.0195 13.1074C37.3932 13.1074 37.6803 12.9867 37.8809 12.7451C38.0859 12.5036 38.1885 12.1846 38.1885 11.7881Z" fill="white"/>
</svg>
