<?xml version="1.0" encoding="utf-8"?>
<!-- Generator: Adobe Illustrator 25.4.1, SVG Export Plug-In . SVG Version: 6.00 Build 0)  -->
<svg version="1.1" id="Capa_1" xmlns="http://www.w3.org/2000/svg" xmlns:xlink="http://www.w3.org/1999/xlink" x="0px" y="0px"
	 viewBox="0 0 24 24" style="enable-background:new 0 0 24 24;" xml:space="preserve">
<style type="text/css">
	.st0{fill:#02204D;}
</style>
<path class="st0" d="M18,13c-1.4,0-2.8,1.1-2.8,2.5V17c-0.6,0-1.2,0.6-1.2,1.2v3.5c0,0.7,0.6,1.3,1.2,1.3h5.5c0.7,0,1.3-0.6,1.3-1.2
	v-3.5c0-0.7-0.6-1.3-1.2-1.3v-1.5C20.8,14.1,19.4,13,18,13 M18,14.2c0.8,0,1.5,0.5,1.5,1.3V17h-3v-1.5C16.5,14.7,17.2,14.2,18,14.2
	 M6,2C4.9,2,4,2.9,4,4v16c0,1.1,0.9,2,2,2h6v-2H6V4h7v5h5v2c0.7,0,1.4,0.2,2,0.4V8l-6-6H6z"/>
</svg>
