<svg width="37" height="37" viewBox="0 0 37 37" fill="none" xmlns="http://www.w3.org/2000/svg">
<path d="M18.5816 0C8.41077 0 0.162842 8.1928 0.162842 18.2957C0.162842 28.3986 8.41077 36.5914 18.5816 36.5914C28.7525 36.5914 37.0004 28.3986 37.0004 18.2957C37.0004 8.1928 28.7525 0 18.5816 0ZM18.972 28.948C18.9717 28.948 18.9723 28.948 18.972 28.948H18.9675C17.1224 28.9471 15.3094 28.4876 13.6993 27.6155L7.85542 29.1378L9.41945 23.4651C8.45461 21.8051 7.94704 19.9219 7.94788 17.9925C7.95041 11.9569 12.8957 7.04653 18.972 7.04653C21.9208 7.04765 24.6888 8.18778 26.77 10.2567C28.8514 12.3259 29.997 15.0763 29.9958 18.0012C29.9933 24.0371 25.0474 28.948 18.972 28.948Z" fill="white"/>
<path d="M18.9753 8.89551C13.9212 8.89551 9.81084 12.9767 9.80859 17.9933C9.80803 19.7124 10.2926 21.3866 11.2096 22.8352L11.4274 23.1794L10.5017 26.5369L13.9695 25.6335L14.3042 25.8306C15.7109 26.6597 17.3236 27.0983 18.9677 27.0989H18.9713C24.0215 27.0989 28.1318 23.0174 28.1341 18.0005C28.1349 15.5693 27.1827 13.2835 25.4529 11.5638C23.723 9.84412 21.4224 8.89635 18.9753 8.89551ZM24.3647 21.905C24.135 22.5437 23.0347 23.1269 22.5055 23.2056C22.0308 23.276 21.4305 23.3053 20.7706 23.0973C20.3704 22.9711 19.8575 22.8028 19.2001 22.5211C16.4371 21.3363 14.6325 18.5737 14.4948 18.3911C14.3571 18.2085 13.37 16.9079 13.37 15.5615C13.37 14.2153 14.0817 13.5534 14.334 13.2798C14.5867 13.006 14.8852 12.9376 15.0687 12.9376C15.2522 12.9376 15.436 12.9392 15.5965 12.9471C15.7657 12.9554 15.9928 12.8831 16.2162 13.4166C16.4458 13.9643 16.9967 15.3105 17.0656 15.4473C17.1344 15.5843 17.1802 15.744 17.0886 15.9266C16.9967 16.1092 16.6915 16.5031 16.4 16.8621C16.2778 17.0126 16.1184 17.1466 16.2792 17.4204C16.4397 17.694 16.9928 18.5899 17.8115 19.3151C18.8637 20.247 19.7513 20.5357 20.0267 20.6727C20.3018 20.8095 20.4626 20.7866 20.6233 20.6043C20.7838 20.4218 21.3119 19.8056 21.4954 19.5318C21.679 19.2579 21.8628 19.3037 22.1152 19.395C22.3678 19.486 23.7219 20.1479 23.9973 20.2847C24.2728 20.4218 24.4563 20.4902 24.5251 20.6043C24.5943 20.7185 24.5943 21.266 24.3647 21.905Z" fill="white"/>
</svg>
