<svg width="37" height="37" viewBox="0 0 37 37" fill="none" xmlns="http://www.w3.org/2000/svg">
<path d="M16.1897 21.7234L22.1811 18.2956L16.1897 14.8679V21.7234Z" fill="white"/>
<path d="M18.4835 0C8.31264 0 0.0646973 8.1928 0.0646973 18.2957C0.0646973 28.3986 8.31264 36.5914 18.4835 36.5914C28.6544 36.5914 36.9024 28.3986 36.9024 18.2957C36.9024 8.1928 28.6544 0 18.4835 0ZM29.9925 18.3144C29.9925 18.3144 29.9925 22.0248 29.5186 23.814C29.253 24.7934 28.4757 25.5656 27.4897 25.8291C25.6885 26.3001 18.4835 26.3001 18.4835 26.3001C18.4835 26.3001 11.2974 26.3001 9.47731 25.8104C8.49139 25.5469 7.71401 24.7744 7.44842 23.7951C6.97429 22.0248 6.97429 18.2957 6.97429 18.2957C6.97429 18.2957 6.97429 14.5855 7.44842 12.7963C7.71373 11.817 8.51022 11.0258 9.47731 10.7623C11.2786 10.2913 18.4835 10.2913 18.4835 10.2913C18.4835 10.2913 25.6885 10.2913 27.4897 10.781C28.4757 11.0445 29.253 11.817 29.5186 12.7963C30.0116 14.5855 29.9925 18.3144 29.9925 18.3144Z" fill="white"/>
</svg>
