<svg width="37" height="37" viewBox="0 0 37 37" fill="none" xmlns="http://www.w3.org/2000/svg">
<path d="M22.042 18.2958C22.042 20.2298 20.4636 21.7976 18.5165 21.7976C16.5694 21.7976 14.9911 20.2298 14.9911 18.2958C14.9911 16.3617 16.5694 14.7939 18.5165 14.7939C20.4636 14.7939 22.042 16.3617 22.042 18.2958Z" fill="white"/>
<path d="M26.7613 12.0999C26.5918 11.6437 26.3215 11.2308 25.9702 10.8919C25.629 10.543 25.2136 10.2744 24.7541 10.1061C24.3814 9.96228 23.8216 9.79115 22.7904 9.74452C21.6749 9.69399 21.3405 9.68311 18.5165 9.68311C15.6922 9.68311 15.3578 9.69371 14.2426 9.74424C13.2114 9.79115 12.6513 9.96228 12.2789 10.1061C11.8194 10.2744 11.4037 10.543 11.0628 10.8919C10.7115 11.2308 10.4411 11.6435 10.2714 12.0999C10.1266 12.4701 9.95435 13.0265 9.90741 14.0508C9.85654 15.1586 9.84558 15.4908 9.84558 18.2962C9.84558 21.1013 9.85654 21.4336 9.90741 22.5416C9.95435 23.5659 10.1266 24.122 10.2714 24.4922C10.4411 24.9487 10.7112 25.3613 11.0625 25.7002C11.4037 26.0492 11.8191 26.3177 12.2786 26.4861C12.6513 26.6301 13.2114 26.8013 14.2426 26.8479C15.3578 26.8984 15.6919 26.909 18.5162 26.909C21.3407 26.909 21.6752 26.8984 22.7901 26.8479C23.8213 26.8013 24.3814 26.6301 24.7541 26.4861C25.6765 26.1326 26.4055 25.4085 26.7613 24.4922C26.9061 24.122 27.0783 23.5659 27.1256 22.5416C27.1764 21.4336 27.1871 21.1013 27.1871 18.2962C27.1871 15.4908 27.1764 15.1586 27.1256 14.0508C27.0786 13.0265 26.9063 12.4701 26.7613 12.0999ZM18.5165 23.6907C15.5169 23.6907 13.0852 21.2756 13.0852 18.2959C13.0852 15.3163 15.5169 12.9012 18.5165 12.9012C21.5158 12.9012 23.9475 15.3163 23.9475 18.2959C23.9475 21.2756 21.5158 23.6907 18.5165 23.6907ZM24.1622 13.9486C23.4613 13.9486 22.893 13.3841 22.893 12.6879C22.893 11.9916 23.4613 11.4271 24.1622 11.4271C24.8631 11.4271 25.4314 11.9916 25.4314 12.6879C25.4311 13.3841 24.8631 13.9486 24.1622 13.9486Z" fill="white"/>
<path d="M18.5162 0C8.34536 0 0.0974121 8.1928 0.0974121 18.2957C0.0974121 28.3986 8.34536 36.5914 18.5162 36.5914C28.6871 36.5914 36.9351 28.3986 36.9351 18.2957C36.9351 8.1928 28.6871 0 18.5162 0ZM29.0289 22.627C28.9777 23.7454 28.7987 24.5089 28.5373 25.1772C27.9879 26.5884 26.8648 27.704 25.4441 28.2498C24.7716 28.5094 24.0026 28.687 22.877 28.738C21.7491 28.7891 21.3888 28.8014 18.5165 28.8014C15.6439 28.8014 15.2839 28.7891 14.1558 28.738C13.0302 28.687 12.2612 28.5094 11.5887 28.2498C10.8827 27.986 10.2436 27.5725 9.71519 27.0379C9.17726 26.5133 8.76103 25.8782 8.49544 25.1772C8.23406 24.5092 8.05504 23.7454 8.00388 22.6273C7.95189 21.5067 7.93981 21.1488 7.93981 18.2957C7.93981 15.4426 7.95189 15.0847 8.0036 13.9644C8.05475 12.846 8.2335 12.0825 8.49488 11.4141C8.76047 10.7132 9.17698 10.078 9.71519 9.55348C10.2433 9.01887 10.8827 8.60542 11.5884 8.3416C12.2612 8.08197 13.0299 7.90442 14.1558 7.85333C15.2836 7.80224 15.6439 7.78996 18.5162 7.78996C21.3886 7.78996 21.7489 7.80224 22.8767 7.85361C24.0026 7.90442 24.7713 8.08197 25.4441 8.34132C26.1498 8.60514 26.7892 9.01887 27.3176 9.55348C27.8555 10.0783 28.272 10.7132 28.5373 11.4141C28.799 12.0825 28.9777 12.846 29.0292 13.9644C29.0806 15.0847 29.0927 15.4426 29.0927 18.2957C29.0927 21.1488 29.0806 21.5067 29.0289 22.627Z" fill="white"/>
</svg>
