<svg width="25" height="24" viewBox="0 0 25 24" fill="none" xmlns="http://www.w3.org/2000/svg">
<path d="M11.8556 0.463525C12.0052 0.00286961 12.6569 0.00286984 12.8066 0.463525L15.3131 8.17781C15.3801 8.38383 15.5721 8.52331 15.7887 8.52331L23.9 8.52331C24.3843 8.52331 24.5857 9.14311 24.1938 9.42782L17.6317 14.1955C17.4564 14.3228 17.3831 14.5485 17.45 14.7545L19.9566 22.4688C20.1062 22.9295 19.579 23.3125 19.1871 23.0278L12.625 18.2601C12.4497 18.1328 12.2124 18.1328 12.0372 18.2601L5.47503 23.0278C5.08317 23.3125 4.55593 22.9295 4.70561 22.4688L7.21213 14.7545C7.27907 14.5485 7.20574 14.3228 7.0305 14.1955L0.468329 9.42782C0.0764719 9.14311 0.27786 8.52331 0.762222 8.52331L8.87351 8.52331C9.09012 8.52331 9.2821 8.38383 9.34903 8.17781L11.8556 0.463525Z" fill="#FFC425"/>
</svg>
