<svg width="32" height="32" viewBox="0 0 32 32" fill="none" xmlns="http://www.w3.org/2000/svg">
<path d="M15.9999 0C24.837 0 32 7.164 32 16.0001C32 24.8371 24.837 32 15.9999 32C7.1629 32 0 24.837 0 16.0001C0 7.164 7.16301 0 15.9999 0Z" fill="#D7412D"/>
<path d="M10.6437 14.16C10.4411 14.7523 10.3381 15.374 10.3389 16C10.3389 16.6991 10.4646 17.3686 10.697 17.9867C10.9866 18.7592 11.4416 19.4591 12.03 20.0375C12.6184 20.6158 13.3261 21.0586 14.1035 21.3348C14.881 21.611 15.7094 21.7141 16.5308 21.6366C17.3522 21.5592 18.1468 21.3033 18.8589 20.8867H18.8599C19.9818 20.2289 20.8439 19.2058 21.3018 17.9886H16.2094V14.221H25.357C25.5936 15.4671 25.5794 16.748 25.3151 17.9886C24.8572 20.1332 23.6731 22.0541 21.9627 23.4267C20.2734 24.787 18.1688 25.5272 15.9999 25.5238C14.3646 25.5247 12.7567 25.1045 11.331 24.3036C9.90525 23.5026 8.70984 22.3481 7.85989 20.951C7.00994 19.554 6.5341 17.9616 6.47822 16.3273C6.42234 14.693 6.78829 13.0718 7.54083 11.62C8.34366 10.0694 9.55739 8.76949 11.0493 7.86229C12.5412 6.95509 14.2538 6.47558 15.9999 6.4762C18.3104 6.4762 20.4294 7.29905 22.0789 8.66858L18.9932 11.1943C18.2704 10.7444 17.4554 10.4633 16.609 10.3718C15.7625 10.2802 14.9063 10.3807 14.104 10.6657C13.3017 10.9506 12.5739 11.4128 11.9749 12.0178C11.3758 12.6227 10.9208 13.355 10.6437 14.16Z" fill="white"/>
</svg>
