<svg width="39" height="39" viewBox="0 0 39 39" fill="none" xmlns="http://www.w3.org/2000/svg">
<path d="M30.8222 24.159C30.0238 23.3277 29.0608 22.8832 28.0401 22.8832C27.0277 22.8832 26.0564 23.3194 25.225 24.1508L22.624 26.7436C22.4099 26.6284 22.1959 26.5214 21.9902 26.4144C21.6938 26.2662 21.414 26.1263 21.1753 25.9781C18.7388 24.4306 16.5246 22.414 14.401 19.8047C13.3721 18.5042 12.6806 17.4094 12.1785 16.2982C12.8535 15.6809 13.4791 15.0388 14.0882 14.4215C14.3187 14.191 14.5491 13.9523 14.7796 13.7218C16.5082 11.9933 16.5082 9.75438 14.7796 8.02582L12.5325 5.7787C12.2773 5.52353 12.0139 5.26013 11.767 4.99673C11.2731 4.4864 10.7545 3.9596 10.2195 3.46573C9.42108 2.67553 8.46626 2.25574 7.46205 2.25574C6.45785 2.25574 5.48656 2.67553 4.66344 3.46573C4.65521 3.47396 4.65521 3.47396 4.64698 3.48219L1.84836 6.3055C0.794769 7.35909 0.19389 8.64316 0.0621906 10.133C-0.135359 12.5365 0.572526 14.7754 1.11579 16.2406C2.44924 19.8376 4.4412 23.1713 7.41267 26.7436C11.0179 31.0485 15.3558 34.448 20.311 36.8433C22.2042 37.7405 24.7311 38.8023 27.5545 38.9834C27.7273 38.9917 27.9084 38.9999 28.073 38.9999C29.9744 38.9999 31.5713 38.3167 32.8224 36.9585C32.8307 36.9421 32.8471 36.9339 32.8554 36.9174C33.2834 36.3988 33.7772 35.9296 34.2958 35.4275C34.6498 35.0901 35.0119 34.7361 35.3659 34.3657C36.1808 33.5179 36.6088 32.5302 36.6088 31.5177C36.6088 30.497 36.1725 29.5175 35.3412 28.6944L30.8222 24.159ZM33.769 32.8265C33.7608 32.8347 33.7608 32.8265 33.769 32.8265C33.448 33.1722 33.1188 33.485 32.7648 33.8307C32.2298 34.341 31.6865 34.8761 31.1762 35.4769C30.3448 36.3659 29.3653 36.7857 28.0813 36.7857C27.9578 36.7857 27.8261 36.7857 27.7026 36.7775C25.2579 36.6211 22.9861 35.6662 21.2823 34.8514C16.6234 32.596 12.5325 29.3941 9.13299 25.3361C6.32615 21.953 4.44943 18.8252 3.20652 15.4668C2.44101 13.4173 2.16115 11.8204 2.28462 10.3141C2.36693 9.35105 2.73734 8.55262 3.42053 7.86943L6.22737 5.06258C6.6307 4.68395 7.05872 4.47817 7.47852 4.47817C7.99708 4.47817 8.41687 4.79095 8.68027 5.05435C8.68851 5.06258 8.69674 5.07081 8.70497 5.07905C9.20707 5.54822 9.68448 6.03387 10.1866 6.55243C10.4418 6.81583 10.7052 7.07923 10.9686 7.35086L13.2157 9.59798C14.0882 10.4705 14.0882 11.2772 13.2157 12.1497C12.977 12.3884 12.7465 12.6271 12.5078 12.8575C11.8164 13.5654 11.1579 14.2239 10.4418 14.866C10.4253 14.8824 10.4088 14.8907 10.4006 14.9071C9.69271 15.615 9.82441 16.3064 9.97257 16.7756C9.98081 16.8003 9.98904 16.825 9.99727 16.8497C10.5817 18.2655 11.4048 19.5989 12.656 21.1875L12.6642 21.1958C14.936 23.9944 17.3313 26.1757 19.9735 27.8466C20.311 28.0606 20.6567 28.2335 20.9859 28.3981C21.2823 28.5462 21.5621 28.6862 21.8008 28.8343C21.8338 28.8508 21.8667 28.8755 21.8996 28.892C22.1795 29.0319 22.4429 29.0977 22.7145 29.0977C23.3977 29.0977 23.8257 28.6697 23.9656 28.5298L26.7807 25.7147C27.0606 25.4348 27.5051 25.0974 28.0236 25.0974C28.534 25.0974 28.9538 25.4184 29.2089 25.6982C29.2172 25.7065 29.2172 25.7065 29.2254 25.7147L33.7608 30.2501C34.6086 31.0897 34.6086 31.954 33.769 32.8265Z" fill="white"/>
<path d="M21.0768 9.27713C23.2334 9.63931 25.1924 10.66 26.7563 12.2239C28.3202 13.7878 29.3327 15.7469 29.7031 17.9034C29.7936 18.4467 30.2628 18.8253 30.7978 18.8253C30.8637 18.8253 30.9213 18.8171 30.9872 18.8089C31.5963 18.7101 31.9996 18.1339 31.9008 17.5248C31.4563 14.9155 30.2217 12.5367 28.3367 10.6517C26.4518 8.7668 24.0729 7.53212 21.4636 7.08763C20.8545 6.98886 20.2866 7.39219 20.1796 7.99306C20.0726 8.59394 20.4677 9.17836 21.0768 9.27713Z" fill="white"/>
<path d="M38.955 17.2037C38.2224 12.907 36.1976 8.9972 33.0862 5.8858C29.9748 2.7744 26.0649 0.749519 21.7682 0.0169411C21.1674 -0.0900648 20.5994 0.321496 20.4924 0.922375C20.3936 1.53149 20.797 2.09944 21.4061 2.20644C25.2418 2.85671 28.7401 4.67581 31.5222 7.44973C34.3044 10.2319 36.1153 13.7302 36.7655 17.5659C36.8561 18.1092 37.3252 18.4878 37.8603 18.4878C37.9261 18.4878 37.9837 18.4796 38.0496 18.4713C38.6505 18.3808 39.062 17.8046 38.955 17.2037Z" fill="white"/>
</svg>
