<svg width="73" height="73" viewBox="0 0 73 73" fill="none" xmlns="http://www.w3.org/2000/svg">
<path d="M53.7847 27.1679V9.39423H23.2007V27.168H53.7847V27.1679ZM25.6021 11.7957H51.3832V24.7666H25.6021V11.7957Z" fill="white"/>
<path d="M48.8182 14.3316H28.167V16.733H48.8182V14.3316Z" fill="white"/>
<path d="M48.8182 19.1342H28.167V21.5356H48.8182V19.1342Z" fill="white"/>
<path d="M62.6096 0H16.6859C13.2147 0 10.3906 2.82408 10.3906 6.29543C10.3906 6.29543 10.3911 59.5291 10.3911 59.5294C10.3911 63.0003 13.2149 65.824 16.6857 65.824H20.354V73H29.3029V65.824H62.6086L62.6096 0ZM60.2082 53.2327H17.8866V2.40143H60.2082V53.2327ZM15.4852 2.59178V53.3472C14.5019 53.5361 13.5828 53.9573 12.7921 54.5823V6.29543C12.7921 4.5672 13.9241 3.09913 15.4852 2.59178ZM16.6857 63.4226C14.539 63.4226 12.7925 61.6761 12.7925 59.5294C12.7925 58.488 13.1974 57.5095 13.9327 56.7743C14.6679 56.0392 15.6456 55.6343 16.6857 55.6343H20.354V63.4226H16.6857ZM22.7554 70.5986V55.6341H26.9014V70.5986H22.7554ZM60.2074 63.4226H29.303V55.6343H60.2074V63.4226Z" fill="white"/>
</svg>
