<svg width="70" height="70" viewBox="0 0 70 70" fill="none" xmlns="http://www.w3.org/2000/svg">
<path d="M55.4468 0H14.5534C11.6576 0 9.30176 2.35594 9.30176 5.25164V64.7482C9.30176 67.6439 11.6576 69.9999 14.5534 69.9999H55.4468C58.3426 69.9999 60.6984 67.6439 60.6984 64.7482V5.25164C60.6984 2.35594 58.3426 0 55.4468 0ZM58.1805 64.7484C58.1805 66.2557 56.9541 67.4821 55.4468 67.4821H14.5534C13.0461 67.4821 11.8197 66.2557 11.8197 64.7484V5.25164C11.8197 3.74432 13.0459 2.51795 14.5534 2.51795H55.4468C56.9541 2.51795 58.1805 3.74432 58.1805 5.25164V64.7484Z" fill="white"/>
<path d="M54.8801 4.55957H15.1204C14.4249 4.55957 13.8613 5.12326 13.8613 5.81861V64.1815C13.8613 64.8769 14.4249 65.4406 15.1204 65.4406H54.8801C55.5756 65.4406 56.1391 64.8769 56.1391 64.1815V5.81861C56.139 5.12326 55.5756 4.55957 54.8801 4.55957ZM33.7412 62.9225H16.3793V55.7741H33.7412V62.9225ZM53.6211 62.9225H36.2591V55.7741H53.6211V62.9225ZM53.6211 53.2561H16.3794V7.07752H53.6211V53.2561Z" fill="white"/>
<path d="M48.3138 14.1348H21.6858C20.9903 14.1348 20.4268 14.6985 20.4268 15.3939C20.4268 16.0892 20.9903 16.6529 21.6858 16.6529H48.3138C49.0093 16.6529 49.5729 16.0892 49.5729 15.3939C49.5729 14.6985 49.0093 14.1348 48.3138 14.1348Z" fill="white"/>
<path d="M48.3138 21.4301H21.6858C20.9903 21.4301 20.4268 21.9938 20.4268 22.6892C20.4268 23.3845 20.9903 23.9482 21.6858 23.9482H48.3138C49.0093 23.9482 49.5729 23.3845 49.5729 22.6892C49.5729 21.9938 49.0093 21.4301 48.3138 21.4301Z" fill="white"/>
<path d="M48.3138 28.7256H21.6858C20.9903 28.7256 20.4268 29.2893 20.4268 29.9846C20.4268 30.68 20.9903 31.2437 21.6858 31.2437H48.3138C49.0093 31.2437 49.5729 30.68 49.5729 29.9846C49.5729 29.2893 49.0093 28.7256 48.3138 28.7256Z" fill="white"/>
<path d="M48.3138 43.3162H21.6858C20.9903 43.3162 20.4268 43.8799 20.4268 44.5752C20.4268 45.2706 20.9903 45.8342 21.6858 45.8342H48.3138C49.0093 45.8342 49.5729 45.2706 49.5729 44.5752C49.5729 43.8799 49.0093 43.3162 48.3138 43.3162Z" fill="white"/>
<path d="M48.3138 36.0208H21.6858C20.9903 36.0208 20.4268 36.5844 20.4268 37.2798C20.4268 37.9751 20.9903 38.5388 21.6858 38.5388H48.3138C49.0093 38.5388 49.5729 37.9751 49.5729 37.2798C49.5729 36.5844 49.0093 36.0208 48.3138 36.0208Z" fill="white"/>
</svg>
