<svg width="50" height="50" viewBox="0 0 50 50" fill="none" xmlns="http://www.w3.org/2000/svg">
<path d="M35.8143 20.1058C36.1014 19.7978 36.2576 19.3904 36.2502 18.9694C36.2428 18.5484 36.0722 18.1467 35.7745 17.849C35.4768 17.5513 35.0751 17.3807 34.6541 17.3733C34.2332 17.3659 33.8257 17.5221 33.5177 17.8092L21.666 29.6608L16.3143 24.3092C16.0063 24.0221 15.5989 23.8659 15.1779 23.8733C14.7569 23.8807 14.3552 24.0513 14.0575 24.349C13.7598 24.6467 13.5892 25.0484 13.5818 25.4694C13.5744 25.8904 13.7306 26.2978 14.0177 26.6058L20.5177 33.1058C20.8224 33.4102 21.2354 33.5811 21.666 33.5811C22.0966 33.5811 22.5097 33.4102 22.8143 33.1058L35.8143 20.1058Z" fill="#008066" fill-opacity="0.75"/>
<path fill-rule="evenodd" clip-rule="evenodd" d="M29.5441 1.51611C28.2021 0.531122 26.5808 0 24.9161 0C23.2514 0 21.6301 0.531122 20.2881 1.51611L17.3089 3.70444C16.7148 4.13988 16.0243 4.42531 15.2961 4.53644L11.6431 5.09761C9.99781 5.34988 8.47589 6.12045 7.29869 7.29725C6.1215 8.47406 5.35042 9.99572 5.09761 11.6409L4.53644 15.2961C4.42531 16.0243 4.13988 16.7148 3.70444 17.3089L1.51611 20.2881C0.531122 21.6301 0 23.2514 0 24.9161C0 26.5808 0.531122 28.2021 1.51611 29.5441L3.70444 32.5233C4.13777 33.1169 4.42594 33.8081 4.53644 34.5361L5.09761 38.1891C5.34988 39.8344 6.12045 41.3563 7.29725 42.5335C8.47406 43.7107 9.99572 44.4818 11.6409 44.7346L15.2961 45.2958C16.0241 45.4063 16.7153 45.6923 17.3089 46.1278L20.2881 48.3161C21.6301 49.3011 23.2514 49.8322 24.9161 49.8322C26.5808 49.8322 28.2021 49.3011 29.5441 48.3161L32.5233 46.1278C33.1174 45.6923 33.8079 45.4069 34.5361 45.2958L38.1891 44.7346C39.8344 44.4823 41.3563 43.7118 42.5335 42.535C43.7107 41.3582 44.4818 39.8365 44.7346 38.1913L45.2958 34.5361C45.4069 33.8079 45.6923 33.1174 46.1278 32.5233L48.3161 29.5441C49.3011 28.2021 49.8322 26.5808 49.8322 24.9161C49.8322 23.2514 49.3011 21.6301 48.3161 20.2881L46.1278 17.3089C45.6923 16.7148 45.4069 16.0243 45.2958 15.2961L44.7346 11.6431C44.4823 9.99781 43.7118 8.47589 42.535 7.29869C41.3582 6.1215 39.8365 5.35042 38.1913 5.09761L34.5361 4.53644C33.8079 4.42531 33.1174 4.13988 32.5233 3.70444L29.5441 1.51611ZM22.2121 4.13561C22.9963 3.56036 23.9435 3.2502 24.9161 3.2502C25.8887 3.2502 26.8359 3.56036 27.6201 4.13561L30.6014 6.32394C31.6174 7.06958 32.7986 7.55868 34.0443 7.74961L37.6973 8.30861C38.6589 8.45647 39.5483 8.90727 40.2361 9.59543C40.9238 10.2836 41.3741 11.1732 41.5214 12.1349L42.0848 15.7879C42.2747 17.0342 42.7631 18.2161 43.5083 19.2329L45.6966 22.2121C46.2719 22.9963 46.582 23.9435 46.582 24.9161C46.582 25.8887 46.2719 26.8359 45.6966 27.6201L43.5083 30.6014C42.7626 31.6174 42.2735 32.7986 42.0826 34.0443L41.5236 37.6973C41.3757 38.6589 40.925 39.5483 40.2368 40.2361C39.5486 40.9238 38.659 41.3741 37.6973 41.5214L34.0443 42.0848C32.798 42.2747 31.6161 42.7631 30.5993 43.5083L27.6201 45.6966C26.8359 46.2719 25.8887 46.582 24.9161 46.582C23.9435 46.582 22.9963 46.2719 22.2121 45.6966L19.2308 43.5083C18.2148 42.7626 17.0336 42.2735 15.7879 42.0826L12.1349 41.5236C11.1729 41.3762 10.2831 40.9256 9.59485 40.2374C8.90666 39.5492 8.45605 38.6593 8.30861 37.6973L7.74961 34.0443C7.55902 32.7978 7.0699 31.6159 6.32394 30.5993L4.13561 27.6201C3.56036 26.8359 3.2502 25.8887 3.2502 24.9161C3.2502 23.9435 3.56036 22.9963 4.13561 22.2121L6.32394 19.2308C7.06958 18.2148 7.55868 17.0336 7.74961 15.7879L8.30861 12.1349C8.45605 11.1729 8.90666 10.2831 9.59485 9.59485C10.2831 8.90666 11.1729 8.45605 12.1349 8.30861L15.7879 7.74961C17.0344 7.55902 18.2163 7.0699 19.2329 6.32394L22.2121 4.13561Z" fill="#008066" fill-opacity="0.75"/>
</svg>
